<?xml version="1.0" encoding="utf-8"?>
<!-- Generator: Adobe Illustrator 27.0.1, SVG Export Plug-In . SVG Version: 6.00 Build 0)  -->
<svg version="1.1" id="Layer_1" xmlns="http://www.w3.org/2000/svg" xmlns:xlink="http://www.w3.org/1999/xlink" x="0px" y="0px"
	 viewBox="0 0 960 720" style="enable-background:new 0 0 960 720;" xml:space="preserve">
<style type="text/css">
	.st0{fill:#FFFFFF;stroke:#000000;stroke-miterlimit:10;}
	.st1{clip-path:url(#SVGID_00000098210772855465862260000007662799859691611838_);}
	.st2{fill-rule:evenodd;clip-rule:evenodd;fill:#FFFFFF;}
	.st3{fill:none;stroke:#000000;stroke-linejoin:round;stroke-miterlimit:10;}
	.st4{fill-rule:evenodd;clip-rule:evenodd;}
	.st5{fill-rule:evenodd;clip-rule:evenodd;fill-opacity:0;}
	.st6{fill:none;stroke:#000000;stroke-linejoin:round;stroke-miterlimit:10;stroke-dasharray:4,3;}
</style>
<rect class="st0" width="960" height="720"/>
<g>
	<g>
		<defs>
			<rect id="SVGID_1_" y="0" width="960" height="720"/>
		</defs>
		<clipPath id="SVGID_00000118377985218125233260000008566525983380426650_">
			<use xlink:href="#SVGID_1_"  style="overflow:visible;"/>
		</clipPath>
		<g style="clip-path:url(#SVGID_00000118377985218125233260000008566525983380426650_);">
			<path class="st2" d="M242.8,414.1l99.4-198.7h260l99.3,198.7l-99.3,198.7h-260L242.8,414.1z"/>
			<path class="st3" d="M242.8,414.1l99.4-198.7h260l99.3,198.7l-99.3,198.7h-260L242.8,414.1z"/>
			<path class="st4" d="M332.2,216.4L332.2,216.4c0-5.7,4.6-10.2,10.2-10.2l0,0c2.7,0,5.3,1.1,7.2,3s3,4.5,3,7.2l0,0
				c0,5.7-4.6,10.2-10.2,10.2l0,0C336.8,226.7,332.2,222.1,332.2,216.4z"/>
			<path class="st4" d="M592,216.4L592,216.4c0-5.7,4.6-10.2,10.2-10.2l0,0c2.7,0,5.3,1.1,7.2,3s3,4.5,3,7.2l0,0
				c0,5.7-4.6,10.2-10.2,10.2l0,0C596.6,226.7,592,222.1,592,216.4z"/>
			<path class="st4" d="M592,613.4L592,613.4c0-5.7,4.6-10.2,10.2-10.2l0,0c2.7,0,5.3,1.1,7.2,3s3,4.5,3,7.2l0,0
				c0,5.7-4.6,10.2-10.2,10.2l0,0C596.6,623.6,592,619.1,592,613.4z"/>
			<path class="st4" d="M332.2,613.4L332.2,613.4c0-5.7,4.6-10.2,10.2-10.2l0,0c2.7,0,5.3,1.1,7.2,3s3,4.5,3,7.2l0,0
				c0,5.7-4.6,10.2-10.2,10.2l0,0C336.8,623.6,332.2,619.1,332.2,613.4z"/>
			<path class="st4" d="M234.5,414.1L234.5,414.1c0-5.7,4.6-10.2,10.2-10.2l0,0c2.7,0,5.3,1.1,7.2,3s3,4.5,3,7.2l0,0
				c0,5.7-4.6,10.2-10.2,10.2l0,0C239.1,424.3,234.5,419.7,234.5,414.1z"/>
			<path class="st4" d="M688.9,414.1L688.9,414.1c0-5.7,4.6-10.2,10.2-10.2l0,0c2.7,0,5.3,1.1,7.2,3s3,4.5,3,7.2l0,0
				c0,5.7-4.6,10.2-10.2,10.2l0,0C693.5,424.3,688.9,419.7,688.9,414.1z"/>
			<path class="st5" d="M141.7,193.4h178.2v46.1H141.7V193.4z"/>
			<path d="M178.2,206.7c1.5,0,2.8,0.4,3.9,1.3c1.1,0.9,1.7,2,1.9,3.5h-2.8c-0.1-0.7-0.5-1.3-1-1.7c-0.6-0.4-1.2-0.6-1.9-0.6
				c-1.1,0-2,0.4-2.7,1.2c-0.6,0.8-0.9,1.9-0.9,3.3c0,1.3,0.3,2.4,0.9,3.2c0.6,0.8,1.5,1.2,2.7,1.2c0.8,0,1.5-0.3,2-0.8
				s0.8-1.3,1-2.2h2.8c-0.2,1.7-0.8,3-1.9,4c-1.1,1-2.4,1.5-4,1.5c-1.3,0-2.4-0.3-3.4-0.9c-1-0.6-1.8-1.4-2.3-2.5s-0.8-2.3-0.8-3.6
				c0-2,0.6-3.7,1.8-5C174.6,207.3,176.2,206.7,178.2,206.7z M190.5,210.4c1.5,0,2.7,0.5,3.6,1.4c0.9,0.9,1.4,2.2,1.4,3.7
				s-0.5,2.8-1.4,3.7s-2.1,1.4-3.6,1.4s-2.7-0.5-3.6-1.4c-0.9-0.9-1.4-2.2-1.4-3.7s0.4-2.8,1.3-3.7
				C187.7,210.9,188.9,210.4,190.5,210.4z M188.1,215.5c0,1,0.2,1.8,0.6,2.3c0.4,0.5,1,0.8,1.7,0.8c0.8,0,1.3-0.3,1.8-0.8
				c0.4-0.5,0.6-1.3,0.6-2.3s-0.2-1.7-0.6-2.3c-0.4-0.6-1-0.8-1.8-0.8c-0.7,0-1.3,0.3-1.7,0.8C188.3,213.7,188.1,214.4,188.1,215.5z
				 M201.1,210.4c1.3,0,2.3,0.3,3,0.8s1.1,1.3,1.2,2.3h-2.5c0-0.5-0.2-0.8-0.5-1s-0.7-0.3-1.3-0.3c-0.5,0-0.9,0.1-1.1,0.2
				c-0.2,0.2-0.3,0.4-0.3,0.7s0.2,0.5,0.5,0.7s0.9,0.4,1.9,0.5c1.5,0.3,2.5,0.6,3,1.1c0.5,0.4,0.8,1,0.8,1.8c0,1.1-0.4,1.9-1.2,2.5
				s-1.9,0.9-3.2,0.9s-2.4-0.3-3.2-0.8c-0.8-0.6-1.2-1.4-1.3-2.6h2.5c0,0.5,0.2,0.9,0.6,1.2c0.4,0.3,0.9,0.4,1.5,0.4
				c0.5,0,0.9-0.1,1.2-0.3s0.5-0.5,0.5-0.9c0-0.3-0.2-0.6-0.6-0.8c-0.4-0.2-1.2-0.4-2.3-0.7c-1.1-0.2-1.9-0.5-2.4-0.9
				s-0.7-1-0.7-1.6c0-1,0.4-1.8,1.1-2.3C198.7,210.7,199.8,210.4,201.1,210.4z M210.5,207.8v2.9h1.9v1.8h-1.9v4.8
				c0,0.4,0.1,0.7,0.2,0.8c0.2,0.1,0.5,0.2,0.9,0.2c0.2,0,0.3,0,0.4,0c0.1,0,0.3,0,0.4,0v2.1c-0.2,0-0.5,0.1-0.7,0.1
				c-0.3,0-0.5,0-0.8,0c-1.1,0-1.9-0.2-2.4-0.6c-0.4-0.4-0.7-0.9-0.7-1.7v-5.8h-1.6v-1.8h1.6v-2.9L210.5,207.8L210.5,207.8z
				 M223.6,210.4c1.5,0,2.7,0.5,3.6,1.4c0.9,0.9,1.4,2.2,1.4,3.7s-0.5,2.8-1.4,3.7s-2.1,1.4-3.6,1.4s-2.7-0.5-3.6-1.4
				c-0.9-0.9-1.4-2.2-1.4-3.7s0.4-2.8,1.3-3.7C220.9,210.9,222.1,210.4,223.6,210.4z M221.3,215.5c0,1,0.2,1.8,0.6,2.3
				c0.4,0.5,1,0.8,1.7,0.8c0.8,0,1.3-0.3,1.8-0.8c0.4-0.5,0.6-1.3,0.6-2.3s-0.2-1.7-0.6-2.3c-0.4-0.6-1-0.8-1.8-0.8
				c-0.7,0-1.3,0.3-1.7,0.8C221.5,213.7,221.3,214.4,221.3,215.5z M234.1,207c0.2,0,0.4,0,0.7,0s0.5,0,0.7,0v2c-0.2,0-0.3,0-0.5,0
				s-0.3,0-0.5,0c-0.4,0-0.6,0.1-0.8,0.2c-0.2,0.2-0.2,0.5-0.2,1v0.5h1.8v1.8h-1.8v7.9h-2.7v-8h-1.6v-1.8h1.6v-0.7
				c0-1,0.3-1.8,0.9-2.2C232.4,207.2,233.2,207,234.1,207z M246.1,207l3.1,9.2l0,0l2.9-9.1l0,0h4.1v13.3h-2.7V211l0,0l-3.3,9.4h-2.3
				l-3.3-9.3l0,0v9.3H242v-13.3L246.1,207L246.1,207z M261.4,207v2.2h-2.7V207H261.4z M261.4,210.7v9.6h-2.7v-9.6H261.4z
				 M267.4,210.4c1.3,0,2.3,0.3,3,0.8s1.1,1.3,1.2,2.3h-2.5c0-0.5-0.2-0.8-0.5-1s-0.7-0.3-1.3-0.3c-0.5,0-0.9,0.1-1.1,0.2
				c-0.2,0.2-0.3,0.4-0.3,0.7s0.2,0.5,0.5,0.7s0.9,0.4,1.9,0.5c1.5,0.3,2.5,0.6,3,1.1c0.5,0.4,0.8,1,0.8,1.8c0,1.1-0.4,1.9-1.2,2.5
				c-0.8,0.6-1.9,0.9-3.2,0.9c-1.3,0-2.4-0.3-3.2-0.8c-0.8-0.6-1.2-1.4-1.3-2.6h2.5c0,0.5,0.2,0.9,0.6,1.2s0.9,0.4,1.5,0.4
				c0.5,0,0.9-0.1,1.2-0.3c0.3-0.2,0.5-0.5,0.5-0.9c0-0.3-0.2-0.6-0.6-0.8s-1.2-0.4-2.3-0.7c-1.1-0.2-1.9-0.5-2.4-0.9
				s-0.7-1-0.7-1.6c0-1,0.4-1.8,1.1-2.3C265,210.7,266.1,210.4,267.4,210.4z M276.8,207.8v2.9h1.9v1.8h-1.9v4.8
				c0,0.4,0.1,0.7,0.2,0.8c0.2,0.1,0.5,0.2,0.9,0.2c0.2,0,0.3,0,0.4,0s0.3,0,0.4,0v2.1c-0.2,0-0.5,0.1-0.7,0.1c-0.3,0-0.5,0-0.8,0
				c-1.1,0-1.9-0.2-2.4-0.6c-0.4-0.4-0.7-0.9-0.7-1.7v-5.8h-1.6v-1.8h1.6v-2.9L276.8,207.8L276.8,207.8z M284.5,210.4
				c1.4,0,2.5,0.2,3.2,0.7s1,1.1,1,2v5.2c0,0.4,0,0.8,0.1,1.2s0.1,0.7,0.3,0.9h-2.7c-0.1-0.1-0.1-0.3-0.1-0.5s-0.1-0.3-0.1-0.5
				c-0.4,0.4-0.8,0.7-1.4,0.9c-0.5,0.2-1.2,0.3-1.9,0.3c-1,0-1.8-0.3-2.4-0.8s-0.9-1.2-0.9-2.1c0-0.9,0.3-1.6,0.8-2.1
				c0.6-0.5,1.6-0.8,3-1c1-0.1,1.7-0.2,2-0.4s0.5-0.4,0.5-0.8c0-0.4-0.1-0.8-0.4-1c-0.2-0.2-0.7-0.3-1.3-0.3c-0.6,0-1,0.1-1.3,0.4
				c-0.3,0.2-0.5,0.6-0.5,1.1h-2.7c0.1-1.1,0.5-1.9,1.3-2.4C282,210.7,283.1,210.4,284.5,210.4z M282.3,217.6c0,0.4,0.1,0.7,0.4,0.9
				s0.7,0.3,1.2,0.3c0.7,0,1.2-0.2,1.6-0.5c0.4-0.4,0.5-0.9,0.5-1.6v-1c-0.2,0.1-0.4,0.2-0.6,0.3c-0.3,0.1-0.7,0.1-1.4,0.2
				c-0.6,0.1-1,0.2-1.3,0.5C282.4,216.8,282.3,217.1,282.3,217.6z M293.7,207v7.1l3.3-3.5h3.1l-3.6,3.5l4,6.1h-3.2l-2.6-4.3l-1,1
				v3.3H291v-13.3L293.7,207L293.7,207z M305.7,210.4c1.4,0,2.6,0.5,3.4,1.5c0.9,1,1.3,2.2,1.3,3.8v0.5h-7c0,0.8,0.3,1.5,0.7,1.9
				c0.4,0.4,1,0.6,1.7,0.6c0.5,0,0.9-0.1,1.3-0.4c0.4-0.3,0.7-0.5,0.8-0.9h2.3c-0.4,1.1-0.9,1.9-1.7,2.5c-0.8,0.5-1.7,0.8-2.9,0.8
				c-1.5,0-2.7-0.5-3.6-1.4s-1.3-2.2-1.3-3.7c0-1.4,0.5-2.6,1.4-3.6C303,210.9,304.2,210.4,305.7,210.4z M303.4,214.4h4.3
				c-0.1-0.7-0.4-1.2-0.7-1.5c-0.3-0.3-0.8-0.5-1.4-0.5s-1.2,0.2-1.5,0.5C303.7,213.3,303.5,213.8,303.4,214.4z"/>
			<path class="st5" d="M41,387h178.2v54.3H41V387z"/>
			<path d="M152.8,396c1.5,0,2.8,0.4,3.9,1.3c1.1,0.9,1.7,2,1.9,3.5h-2.8c-0.1-0.7-0.5-1.3-1-1.7c-0.6-0.4-1.2-0.6-1.9-0.6
				c-1.1,0-2,0.4-2.7,1.2c-0.6,0.8-0.9,1.9-0.9,3.3c0,1.3,0.3,2.4,0.9,3.2c0.6,0.8,1.5,1.2,2.7,1.2c0.8,0,1.5-0.3,2-0.8
				s0.8-1.3,1-2.2h2.8c-0.2,1.7-0.8,3-1.9,4c-1.1,1-2.4,1.5-4,1.5c-1.3,0-2.4-0.3-3.4-0.9s-1.8-1.4-2.3-2.5s-0.8-2.3-0.8-3.6
				c0-2,0.6-3.7,1.8-5S150.8,396,152.8,396z M165.1,399.7c1.5,0,2.7,0.5,3.6,1.4c0.9,0.9,1.4,2.2,1.4,3.7s-0.5,2.8-1.4,3.7
				c-0.9,0.9-2.1,1.4-3.6,1.4s-2.7-0.5-3.6-1.4c-0.9-0.9-1.4-2.2-1.4-3.7s0.4-2.8,1.3-3.7C162.3,400.2,163.6,399.7,165.1,399.7z
				 M162.7,404.8c0,1,0.2,1.8,0.6,2.3c0.4,0.5,1,0.8,1.7,0.8c0.8,0,1.3-0.3,1.8-0.8c0.4-0.5,0.6-1.3,0.6-2.3s-0.2-1.7-0.6-2.3
				c-0.4-0.6-1-0.8-1.8-0.8c-0.7,0-1.3,0.3-1.7,0.8C163,403,162.7,403.8,162.7,404.8z M175.8,399.7c1.3,0,2.3,0.3,3,0.8
				s1.1,1.3,1.2,2.3h-2.5c0-0.5-0.2-0.8-0.5-1s-0.7-0.3-1.3-0.3c-0.5,0-0.9,0.1-1.1,0.2c-0.2,0.2-0.3,0.4-0.3,0.7
				c0,0.3,0.2,0.5,0.5,0.7s0.9,0.4,1.9,0.5c1.5,0.3,2.5,0.6,3,1.1c0.5,0.4,0.8,1,0.8,1.8c0,1.1-0.4,1.9-1.2,2.5s-1.9,0.9-3.2,0.9
				s-2.4-0.3-3.2-0.8c-0.8-0.6-1.3-1.4-1.3-2.6h2.5c0,0.5,0.2,0.9,0.6,1.2c0.4,0.3,0.9,0.4,1.5,0.4c0.5,0,0.9-0.1,1.2-0.3
				c0.3-0.2,0.5-0.5,0.5-0.9c0-0.3-0.2-0.6-0.6-0.8c-0.4-0.2-1.2-0.4-2.3-0.7c-1.1-0.2-1.9-0.5-2.4-0.9s-0.7-1-0.7-1.6
				c0-1,0.4-1.8,1.1-2.3C173.4,400,174.4,399.7,175.8,399.7z M185.2,397.1v2.9h1.9v1.8h-1.9v4.8c0,0.4,0.1,0.7,0.2,0.8
				c0.2,0.1,0.5,0.2,0.9,0.2c0.2,0,0.3,0,0.4,0c0.1,0,0.3,0,0.4,0v2.1c-0.2,0-0.5,0.1-0.7,0.1c-0.3,0-0.5,0-0.8,0
				c-1.1,0-1.9-0.2-2.4-0.6c-0.4-0.4-0.7-0.9-0.7-1.7v-5.8h-1.6v-1.8h1.6V397h2.7V397.1z M198.2,399.7c1.5,0,2.7,0.5,3.6,1.4
				c0.9,0.9,1.4,2.2,1.4,3.7s-0.5,2.8-1.4,3.7c-0.9,0.9-2.1,1.4-3.6,1.4s-2.7-0.5-3.6-1.4c-0.9-0.9-1.4-2.2-1.4-3.7s0.4-2.8,1.3-3.7
				C195.5,400.2,196.7,399.7,198.2,399.7z M195.9,404.8c0,1,0.2,1.8,0.6,2.3c0.4,0.5,1,0.8,1.7,0.8c0.8,0,1.3-0.3,1.8-0.8
				c0.4-0.5,0.6-1.3,0.6-2.3s-0.2-1.7-0.6-2.3c-0.4-0.6-1-0.8-1.8-0.8c-0.7,0-1.3,0.3-1.7,0.8S195.9,403.8,195.9,404.8z
				 M208.8,396.3c0.2,0,0.4,0,0.7,0s0.5,0,0.7,0v2c-0.2,0-0.3,0-0.5,0s-0.3,0-0.5,0c-0.4,0-0.6,0.1-0.8,0.2c-0.2,0.2-0.2,0.5-0.2,1
				v0.5h1.8v1.8h-1.8v7.9h-2.7v-7.9H204V400h1.6v-0.7c0-1,0.3-1.8,0.9-2.2C207,396.6,207.8,396.3,208.8,396.3z"/>
			<path d="M109.5,418.7c1.8,0,3.2,0.6,4.3,1.7c1.1,1.2,1.7,2.8,1.7,4.8c0,2.1-0.5,3.7-1.6,4.9c-1.1,1.2-2.5,1.8-4.3,1.8h-5.8v-13.3
				h5.7V418.7z M109.3,429.6c0.9,0,1.7-0.3,2.3-1c0.6-0.7,0.9-1.7,0.9-3c0-1.5-0.3-2.6-1-3.3c-0.6-0.7-1.6-1-2.8-1h-2.2v8.4h2.8
				V429.6z M121.7,422.1c1.4,0,2.6,0.5,3.4,1.5c0.9,1,1.3,2.2,1.3,3.8v0.5h-7c0,0.8,0.3,1.5,0.7,1.9s1,0.6,1.7,0.6
				c0.5,0,0.9-0.1,1.3-0.4c0.4-0.2,0.7-0.5,0.8-0.9h2.3c-0.4,1.1-0.9,1.9-1.7,2.5c-0.8,0.5-1.7,0.8-2.9,0.8c-1.5,0-2.7-0.5-3.6-1.4
				c-0.9-0.9-1.3-2.2-1.3-3.7c0-1.4,0.5-2.6,1.4-3.6C119,422.6,120.2,422.1,121.7,422.1z M119.4,426.2h4.3c-0.1-0.7-0.4-1.2-0.7-1.5
				s-0.8-0.5-1.4-0.5c-0.6,0-1.2,0.2-1.5,0.5S119.5,425.5,119.4,426.2z M130.6,418.7V432H128v-13.3H130.6z M135.5,418.7v2.2h-2.7
				v-2.2H135.5z M135.5,422.4v9.6h-2.7v-9.6H135.5z M140.2,418.7v4.8l0,0c0.3-0.4,0.7-0.8,1.2-1c0.5-0.3,1.1-0.4,1.8-0.4
				c1.1,0,2.1,0.5,2.8,1.4s1.2,2.2,1.2,3.7s-0.4,2.8-1.2,3.7s-1.7,1.4-2.9,1.4c-0.8,0-1.4-0.1-2-0.4c-0.5-0.3-0.9-0.6-1.2-1.1l0,0
				v1.2h-2.5v-13.3L140.2,418.7L140.2,418.7z M140.1,427.2c0,0.9,0.2,1.7,0.6,2.2s1,0.8,1.7,0.8s1.2-0.3,1.6-0.8s0.6-1.3,0.6-2.2
				s-0.2-1.7-0.6-2.2c-0.4-0.6-1-0.9-1.7-0.9s-1.2,0.3-1.6,0.8C140.3,425.5,140.1,426.3,140.1,427.2z M153.4,422.1
				c1.4,0,2.6,0.5,3.4,1.5c0.9,1,1.3,2.2,1.3,3.8v0.5h-7c0,0.8,0.3,1.5,0.7,1.9s1,0.6,1.7,0.6c0.5,0,0.9-0.1,1.3-0.4
				c0.4-0.2,0.7-0.5,0.8-0.9h2.3c-0.4,1.1-0.9,1.9-1.7,2.5c-0.8,0.5-1.7,0.8-2.9,0.8c-1.5,0-2.7-0.5-3.6-1.4
				c-0.9-0.9-1.3-2.2-1.3-3.7c0-1.4,0.5-2.6,1.4-3.6C150.8,422.6,152,422.1,153.4,422.1z M151.1,426.2h4.3c-0.1-0.7-0.4-1.2-0.7-1.5
				s-0.8-0.5-1.4-0.5c-0.6,0-1.2,0.2-1.5,0.5S151.2,425.5,151.1,426.2z M165.3,422.1c0.1,0,0.2,0,0.3,0s0.2,0,0.3,0.1v2.5
				c-0.1,0-0.3-0.1-0.4-0.1c-0.1,0-0.3,0-0.5,0c-0.9,0-1.6,0.3-2,0.8s-0.6,1.3-0.6,2.2v4.4h-2.6v-9.6h2.5v1.8l0,0
				c0.3-0.6,0.7-1.1,1.2-1.5S164.6,422.1,165.3,422.1z M171.1,422.1c1.4,0,2.5,0.2,3.2,0.7s1,1.1,1,2v5.2c0,0.4,0,0.8,0.1,1.2
				c0.1,0.4,0.1,0.7,0.3,0.9H173c-0.1-0.1-0.1-0.3-0.1-0.5s-0.1-0.3-0.1-0.5c-0.4,0.4-0.8,0.7-1.4,0.9c-0.5,0.2-1.2,0.3-1.9,0.3
				c-1,0-1.8-0.2-2.4-0.8c-0.6-0.5-0.9-1.2-0.9-2.1s0.3-1.6,0.8-2.1c0.6-0.5,1.6-0.8,3-1c1-0.1,1.7-0.2,2-0.4
				c0.3-0.2,0.5-0.4,0.5-0.8s-0.1-0.8-0.4-1s-0.7-0.3-1.3-0.3s-1,0.1-1.3,0.4c-0.3,0.2-0.5,0.6-0.5,1.1h-2.7
				c0.1-1.1,0.5-1.9,1.3-2.4C168.6,422.4,169.7,422.1,171.1,422.1z M168.9,429.3c0,0.4,0.1,0.7,0.4,0.9c0.3,0.2,0.7,0.3,1.2,0.3
				c0.7,0,1.2-0.2,1.6-0.5c0.4-0.4,0.5-0.9,0.5-1.6v-1c-0.2,0.1-0.4,0.2-0.6,0.3c-0.3,0.1-0.7,0.1-1.4,0.2c-0.6,0.1-1,0.2-1.3,0.5
				C169,428.5,168.9,428.9,168.9,429.3z M180.7,419.5v2.9h1.9v1.8h-1.9v4.8c0,0.4,0.1,0.7,0.2,0.8c0.2,0.1,0.5,0.2,0.9,0.2
				c0.2,0,0.3,0,0.4,0c0.1,0,0.3,0,0.4,0v2.1c-0.2,0-0.5,0.1-0.7,0.1c-0.3,0-0.5,0-0.8,0c-1.1,0-1.9-0.2-2.4-0.6
				c-0.4-0.4-0.7-0.9-0.7-1.7v-5.8h-1.6v-1.7h1.6v-2.9H180.7z M186.6,418.7v2.2H184v-2.2H186.6z M186.6,422.4v9.6H184v-9.6H186.6z
				 M193.4,422.1c1.5,0,2.7,0.5,3.6,1.4c0.9,0.9,1.4,2.2,1.4,3.7s-0.5,2.8-1.4,3.7c-0.9,0.9-2.1,1.4-3.6,1.4s-2.7-0.5-3.6-1.4
				s-1.4-2.2-1.4-3.7s0.4-2.8,1.3-3.7C190.7,422.6,191.9,422.1,193.4,422.1z M191.1,427.2c0,1,0.2,1.8,0.6,2.3
				c0.4,0.5,1,0.8,1.7,0.8c0.8,0,1.3-0.3,1.8-0.8c0.4-0.5,0.6-1.3,0.6-2.3s-0.2-1.7-0.6-2.3s-1-0.8-1.8-0.8c-0.7,0-1.3,0.3-1.7,0.8
				S191.1,426.2,191.1,427.2z M205.7,422.1c1.2,0,2.1,0.3,2.7,0.9c0.6,0.6,0.8,1.6,0.8,2.9v6h-2.7v-5.5c0-0.8-0.1-1.3-0.4-1.7
				c-0.3-0.4-0.7-0.6-1.3-0.6c-0.7,0-1.3,0.2-1.6,0.7c-0.3,0.4-0.5,1.1-0.5,2v5.1h-2.6v-9.5h2.5v1.3l0,0c0.3-0.5,0.7-0.9,1.2-1.2
				C204.5,422.2,205,422.1,205.7,422.1z"/>
			<path class="st5" d="M126.1,586.3h193.8v54.3H126.1V586.3z"/>
			<path d="M153.9,595.6c1.4,0,2.5,0.4,3.3,1.2s1.2,1.8,1.2,3.1s-0.4,2.3-1.2,3.1s-1.9,1.2-3.3,1.2h-3.2v4.8h-2.9v-13.3L153.9,595.6
				L153.9,595.6z M153.1,601.9c0.8,0,1.5-0.2,1.9-0.5s0.6-0.8,0.6-1.5s-0.2-1.2-0.6-1.5c-0.4-0.3-1-0.5-1.9-0.5h-2.4v4H153.1z
				 M163.8,599c1.4,0,2.6,0.5,3.4,1.5c0.9,1,1.3,2.2,1.3,3.8v0.5h-7c0,0.8,0.3,1.5,0.7,1.9s1,0.6,1.7,0.6c0.5,0,0.9-0.1,1.3-0.4
				c0.4-0.2,0.7-0.5,0.8-0.9h2.3c-0.4,1.1-0.9,1.9-1.7,2.5c-0.8,0.5-1.7,0.8-2.9,0.8c-1.5,0-2.7-0.5-3.6-1.4
				c-0.9-0.9-1.3-2.2-1.3-3.7c0-1.4,0.5-2.6,1.4-3.6C161.2,599.5,162.4,599,163.8,599z M161.6,603.1h4.3c-0.1-0.7-0.4-1.2-0.7-1.5
				s-0.8-0.5-1.4-0.5c-0.6,0-1.2,0.2-1.5,0.5C161.8,601.9,161.6,602.4,161.6,603.1z M175.7,599c0.1,0,0.2,0,0.3,0s0.2,0,0.3,0.1v2.5
				c-0.1,0-0.3-0.1-0.4-0.1c-0.1,0-0.3,0-0.5,0c-0.9,0-1.6,0.3-2,0.8s-0.6,1.3-0.6,2.2v4.4h-2.6v-9.6h2.5v1.8l0,0
				c0.3-0.6,0.7-1.1,1.2-1.5S175,599,175.7,599z M181.8,599c1.2,0,2.3,0.3,3.2,1c0.9,0.6,1.3,1.5,1.4,2.7h-2.6
				c-0.1-0.6-0.3-1-0.6-1.2c-0.3-0.3-0.8-0.4-1.3-0.4c-0.7,0-1.3,0.3-1.7,0.9c-0.4,0.6-0.6,1.3-0.6,2.3c0,0.9,0.2,1.7,0.6,2.2
				c0.4,0.6,0.9,0.8,1.6,0.8c0.6,0,1.1-0.2,1.4-0.5c0.4-0.3,0.6-0.8,0.7-1.5h2.5c-0.2,1.3-0.7,2.3-1.5,3s-1.9,1-3.1,1
				c-1.4,0-2.6-0.5-3.5-1.4s-1.4-2.1-1.4-3.6c0-1.6,0.4-2.8,1.3-3.8C179.1,599.5,180.3,599,181.8,599z M192.4,599
				c1.4,0,2.6,0.5,3.4,1.5c0.9,1,1.3,2.2,1.3,3.8v0.5h-7c0,0.8,0.3,1.5,0.7,1.9s1,0.6,1.7,0.6c0.5,0,0.9-0.1,1.3-0.4
				c0.4-0.2,0.7-0.5,0.8-0.9h2.3c-0.4,1.1-0.9,1.9-1.7,2.5c-0.8,0.5-1.7,0.8-2.9,0.8c-1.5,0-2.7-0.5-3.6-1.4
				c-0.9-0.9-1.3-2.2-1.3-3.7c0-1.4,0.5-2.6,1.4-3.6C189.7,599.5,190.9,599,192.4,599z M190.1,603.1h4.3c-0.1-0.7-0.4-1.2-0.7-1.5
				s-0.8-0.5-1.4-0.5c-0.6,0-1.2,0.2-1.5,0.5C190.4,601.9,190.2,602.4,190.1,603.1z M201.4,595.6v2.2h-2.7v-2.2H201.4z M201.4,599.3
				v9.6h-2.7v-9.6H201.4z M205.3,599.3l2,6.6l0,0l2-6.6h2.6l-3.3,9.6h-3l-3.3-9.6H205.3z M217.6,599c1.4,0,2.6,0.5,3.4,1.5
				c0.9,1,1.3,2.2,1.3,3.8v0.5h-7c0,0.8,0.3,1.5,0.7,1.9s1,0.6,1.7,0.6c0.5,0,0.9-0.1,1.3-0.4c0.4-0.2,0.7-0.5,0.8-0.9h2.3
				c-0.4,1.1-0.9,1.9-1.7,2.5c-0.7,0.5-1.7,0.8-2.9,0.8c-1.5,0-2.7-0.5-3.6-1.4c-0.9-0.9-1.3-2.2-1.3-3.7c0-1.4,0.5-2.6,1.4-3.6
				C215,599.5,216.2,599,217.6,599z M215.3,603.1h4.3c-0.1-0.7-0.4-1.2-0.7-1.5s-0.8-0.5-1.4-0.5c-0.6,0-1.2,0.2-1.5,0.5
				C215.6,601.9,215.4,602.4,215.3,603.1z M233.3,595.6v13.3h-2.5v-1.2l0,0c-0.3,0.5-0.7,0.9-1.2,1.1c-0.5,0.2-1.1,0.4-1.8,0.4
				c-1.3,0-2.4-0.5-3.2-1.5s-1.2-2.2-1.2-3.7c0-1.4,0.4-2.6,1.2-3.6c0.8-0.9,1.8-1.4,3.1-1.4c0.6,0,1.2,0.1,1.6,0.4
				c0.5,0.2,0.9,0.6,1.2,1.1l0,0v-4.8L233.3,595.6L233.3,595.6z M226.1,604.1c0,0.9,0.2,1.7,0.6,2.2c0.4,0.6,1,0.9,1.7,0.9
				s1.3-0.3,1.7-0.8s0.6-1.3,0.6-2.3c0-0.9-0.2-1.7-0.6-2.2c-0.4-0.6-1-0.8-1.7-0.8s-1.3,0.3-1.7,0.8
				C226.3,602.4,226.1,603.1,226.1,604.1z M248,595.6c1.1,0,2,0.3,2.7,1s1.1,1.6,1.1,2.6c0,0.8-0.2,1.5-0.5,2.1
				c-0.3,0.5-0.9,1-1.6,1.2l0,0c0.6,0.2,1.1,0.5,1.5,1.1c0.3,0.6,0.5,1.5,0.5,2.7s0.2,2,0.5,2.5h-2.9c-0.2-0.4-0.3-1.1-0.3-2.1
				c-0.1-1.3-0.3-2.2-0.7-2.5c-0.3-0.4-0.9-0.6-1.6-0.6h-3v5.2h-2.9v-13.3L248,595.6L248,595.6z M246.9,601.6c0.6,0,1.1-0.1,1.4-0.4
				c0.3-0.3,0.5-0.8,0.5-1.5c0-0.6-0.2-1.1-0.5-1.4c-0.3-0.3-0.8-0.5-1.5-0.5h-3.3v3.8L246.9,601.6L246.9,601.6z M258.4,599
				c1.4,0,2.6,0.5,3.4,1.5c0.9,1,1.3,2.2,1.3,3.8v0.5h-7c0,0.8,0.3,1.5,0.7,1.9c0.4,0.4,1,0.6,1.7,0.6c0.5,0,0.9-0.1,1.3-0.4
				c0.4-0.2,0.7-0.5,0.8-0.9h2.3c-0.4,1.1-0.9,1.9-1.7,2.5c-0.8,0.5-1.7,0.8-2.9,0.8c-1.5,0-2.7-0.5-3.6-1.4s-1.3-2.2-1.3-3.7
				c0-1.4,0.5-2.6,1.4-3.6C255.7,599.5,256.9,599,258.4,599z M256.1,603.1h4.3c-0.1-0.7-0.4-1.2-0.7-1.5c-0.3-0.3-0.8-0.5-1.4-0.5
				s-1.2,0.2-1.5,0.5C256.4,601.9,256.1,602.4,256.1,603.1z M267.3,595.6v13.3h-2.7v-13.3H267.3z M273.9,599c1.4,0,2.5,0.2,3.2,0.7
				s1,1.1,1,2v5.2c0,0.4,0,0.8,0.1,1.2s0.1,0.7,0.3,0.9h-2.7c-0.1-0.1-0.1-0.3-0.1-0.5s-0.1-0.3-0.1-0.5c-0.4,0.4-0.8,0.7-1.4,0.9
				c-0.5,0.2-1.2,0.3-1.9,0.3c-1,0-1.8-0.2-2.4-0.8c-0.6-0.5-0.9-1.2-0.9-2.1c0-0.9,0.3-1.6,0.8-2.1c0.6-0.5,1.6-0.8,3-1
				c1-0.1,1.7-0.2,2-0.4s0.5-0.4,0.5-0.8c0-0.4-0.1-0.8-0.4-1s-0.7-0.3-1.3-0.3c-0.6,0-1,0.1-1.3,0.4c-0.3,0.2-0.5,0.6-0.5,1.1h-2.7
				c0.1-1.1,0.5-1.9,1.3-2.4C271.4,599.3,272.5,599,273.9,599z M271.7,606.2c0,0.4,0.1,0.7,0.4,0.9s0.7,0.3,1.2,0.3
				c0.7,0,1.2-0.2,1.6-0.5c0.4-0.4,0.5-0.9,0.5-1.6v-1c-0.2,0.1-0.4,0.2-0.6,0.3c-0.3,0.1-0.7,0.1-1.4,0.2c-0.6,0.1-1,0.2-1.3,0.5
				C271.8,605.4,271.7,605.8,271.7,606.2z M283.5,596.4v2.9h1.9v1.8h-1.9v4.8c0,0.4,0.1,0.7,0.2,0.8c0.2,0.1,0.5,0.2,0.9,0.2
				c0.2,0,0.3,0,0.4,0s0.3,0,0.4,0v2.1c-0.2,0-0.5,0.1-0.7,0.1c-0.3,0-0.5,0-0.8,0c-1.1,0-1.9-0.2-2.4-0.6c-0.4-0.4-0.7-0.9-0.7-1.7
				V601h-1.6v-1.8h1.6v-2.8H283.5z M289.4,595.6v2.2h-2.7v-2.2H289.4z M289.4,599.3v9.6h-2.7v-9.6H289.4z M293.4,599.3l2,6.6l0,0
				l2-6.6h2.6l-3.3,9.6h-3l-3.3-9.6H293.4z M305.7,599c1.4,0,2.6,0.5,3.4,1.5c0.9,1,1.3,2.2,1.3,3.8v0.5h-7c0,0.8,0.3,1.5,0.7,1.9
				c0.4,0.4,1,0.6,1.7,0.6c0.5,0,0.9-0.1,1.3-0.4c0.4-0.2,0.7-0.5,0.8-0.9h2.3c-0.4,1.1-0.9,1.9-1.7,2.5c-0.8,0.5-1.7,0.8-2.9,0.8
				c-1.5,0-2.7-0.5-3.6-1.4s-1.3-2.2-1.3-3.7c0-1.4,0.5-2.6,1.4-3.6C303,599.5,304.2,599,305.7,599z M303.4,603.1h4.3
				c-0.1-0.7-0.4-1.2-0.7-1.5c-0.3-0.3-0.8-0.5-1.4-0.5s-1.2,0.2-1.5,0.5C303.7,601.9,303.5,602.4,303.4,603.1z"/>
			<path d="M204.3,617.7c1.5,0,2.8,0.4,3.9,1.3c1.1,0.9,1.7,2,1.9,3.5h-2.8c-0.1-0.7-0.5-1.3-1-1.7c-0.6-0.4-1.2-0.6-1.9-0.6
				c-1.1,0-2,0.4-2.7,1.2c-0.6,0.8-0.9,1.9-0.9,3.3c0,1.3,0.3,2.4,0.9,3.2c0.6,0.8,1.5,1.2,2.7,1.2c0.8,0,1.5-0.3,2-0.8
				s0.8-1.3,1-2.2h2.8c-0.2,1.7-0.8,3-1.9,4c-1.1,1-2.4,1.5-4,1.5c-1.3,0-2.4-0.3-3.4-0.9c-1-0.6-1.8-1.4-2.3-2.5s-0.8-2.3-0.8-3.6
				c0-2,0.6-3.7,1.8-5C200.7,618.4,202.3,617.7,204.3,617.7z M216.5,621.4c1.5,0,2.7,0.5,3.6,1.4c0.9,0.9,1.4,2.2,1.4,3.7
				s-0.5,2.8-1.4,3.7s-2.1,1.4-3.6,1.4s-2.7-0.5-3.6-1.4s-1.4-2.2-1.4-3.7s0.4-2.8,1.3-3.7C213.8,621.9,215,621.4,216.5,621.4z
				 M214.2,626.5c0,1,0.2,1.8,0.6,2.3c0.4,0.5,1,0.8,1.7,0.8c0.8,0,1.3-0.3,1.8-0.8c0.4-0.5,0.6-1.3,0.6-2.3s-0.2-1.7-0.6-2.3
				s-1-0.8-1.8-0.8c-0.7,0-1.3,0.3-1.7,0.8S214.2,625.5,214.2,626.5z M228.8,621.4c0.7,0,1.3,0.1,1.8,0.4c0.5,0.3,0.8,0.7,1,1.2
				c0.4-0.5,0.8-0.9,1.3-1.2s1-0.4,1.6-0.4c1.2,0,2,0.3,2.6,0.9c0.6,0.6,0.9,1.4,0.9,2.5v6.5h-2.7v-5.6c0-0.9-0.1-1.5-0.4-1.8
				c-0.3-0.3-0.7-0.5-1.2-0.5c-0.6,0-1,0.2-1.3,0.6c-0.3,0.4-0.4,1-0.4,1.8v5.5h-2.7v-5.9c0-0.6-0.1-1.1-0.4-1.4
				c-0.2-0.3-0.6-0.5-1.2-0.5c-0.5,0-0.9,0.2-1.3,0.6s-0.5,0.9-0.5,1.6v5.7h-2.7v-9.6h2.5v1.3l0,0c0.4-0.5,0.8-0.9,1.3-1.2
				C227.7,621.6,228.2,621.4,228.8,621.4z M245.6,621.4c1.4,0,2.4,0.5,3.2,1.4c0.8,1,1.2,2.2,1.2,3.8c0,1.4-0.4,2.6-1.2,3.6
				c-0.8,0.9-1.8,1.4-3.1,1.4c-0.6,0-1.1-0.1-1.7-0.4c-0.5-0.2-0.9-0.6-1.2-1.1l0,0v4.6h-2.6v-13h2.5v1.2l0,0
				c0.3-0.5,0.7-0.9,1.2-1.1C244.4,621.5,245,621.4,245.6,621.4z M242.7,626.5c0,0.9,0.2,1.7,0.6,2.2c0.4,0.6,1,0.8,1.7,0.8
				c0.7,0,1.3-0.3,1.7-0.8s0.6-1.3,0.6-2.3c0-0.9-0.2-1.7-0.6-2.2c-0.4-0.6-1-0.9-1.7-0.9c-0.7,0-1.3,0.3-1.7,0.8
				C242.9,624.8,242.7,625.6,242.7,626.5z M256,621.4c1.4,0,2.6,0.5,3.4,1.5c0.9,1,1.3,2.2,1.3,3.8v0.5h-7c0,0.8,0.3,1.5,0.7,1.9
				c0.4,0.4,1,0.6,1.7,0.6c0.5,0,0.9-0.1,1.3-0.4c0.4-0.2,0.7-0.5,0.8-0.9h2.3c-0.4,1.1-0.9,1.9-1.7,2.5c-0.8,0.5-1.7,0.8-2.9,0.8
				c-1.5,0-2.7-0.5-3.6-1.4s-1.3-2.2-1.3-3.7c0-1.4,0.5-2.6,1.4-3.6C253.4,621.9,254.6,621.4,256,621.4z M253.7,625.5h4.3
				c-0.1-0.7-0.4-1.2-0.7-1.5c-0.3-0.3-0.8-0.5-1.4-0.5s-1.2,0.2-1.5,0.5S253.8,624.8,253.7,625.5z M265.6,618.8v2.9h1.9v1.8h-1.9
				v4.8c0,0.4,0.1,0.7,0.2,0.8c0.2,0.1,0.5,0.2,0.9,0.2c0.2,0,0.3,0,0.4,0s0.3,0,0.4,0v2.1c-0.2,0-0.5,0.1-0.7,0.1
				c-0.3,0-0.5,0-0.8,0c-1.1,0-1.9-0.2-2.4-0.6c-0.4-0.4-0.7-0.9-0.7-1.7v-5.8h-1.6v-1.8h1.6v-2.9h2.7V618.8z M273.2,621.4
				c1.4,0,2.6,0.5,3.4,1.5c0.9,1,1.3,2.2,1.3,3.8v0.5h-7c0,0.8,0.3,1.5,0.7,1.9c0.4,0.4,1,0.6,1.7,0.6c0.5,0,0.9-0.1,1.3-0.4
				c0.4-0.2,0.7-0.5,0.8-0.9h2.3c-0.4,1.1-0.9,1.9-1.7,2.5c-0.8,0.5-1.7,0.8-2.9,0.8c-1.5,0-2.7-0.5-3.6-1.4s-1.3-2.2-1.3-3.7
				c0-1.4,0.5-2.6,1.4-3.6C270.6,621.9,271.7,621.4,273.2,621.4z M270.9,625.5h4.3c-0.1-0.7-0.4-1.2-0.7-1.5
				c-0.3-0.3-0.8-0.5-1.4-0.5s-1.2,0.2-1.5,0.5S271,624.8,270.9,625.5z M285,621.4c1.2,0,2.1,0.3,2.7,0.9c0.6,0.6,0.8,1.6,0.8,2.9v6
				h-2.7v-5.5c0-0.8-0.1-1.3-0.4-1.7s-0.7-0.6-1.3-0.6c-0.7,0-1.3,0.2-1.6,0.7c-0.3,0.4-0.5,1.1-0.5,2v5.1h-2.6v-9.6h2.5v1.3l0,0
				c0.3-0.5,0.7-0.9,1.2-1.2C283.8,621.6,284.4,621.4,285,621.4z M295.1,621.4c1.2,0,2.3,0.3,3.2,1s1.3,1.5,1.4,2.7h-2.6
				c-0.1-0.6-0.3-1-0.6-1.2c-0.3-0.3-0.8-0.4-1.3-0.4c-0.7,0-1.3,0.3-1.7,0.9s-0.6,1.3-0.6,2.3c0,0.9,0.2,1.7,0.6,2.2
				c0.4,0.6,0.9,0.8,1.6,0.8c0.6,0,1.1-0.2,1.4-0.5s0.6-0.8,0.7-1.5h2.5c-0.2,1.3-0.7,2.3-1.5,3s-1.9,1-3.1,1
				c-1.4,0-2.6-0.5-3.5-1.4s-1.4-2.1-1.4-3.6c0-1.6,0.4-2.8,1.3-3.8S293.6,621.4,295.1,621.4z M305.7,621.4c1.4,0,2.6,0.5,3.4,1.5
				c0.9,1,1.3,2.2,1.3,3.8v0.5h-7c0,0.8,0.3,1.5,0.7,1.9c0.4,0.4,1,0.6,1.7,0.6c0.5,0,0.9-0.1,1.3-0.4c0.4-0.2,0.7-0.5,0.8-0.9h2.3
				c-0.4,1.1-0.9,1.9-1.7,2.5c-0.8,0.5-1.7,0.8-2.9,0.8c-1.5,0-2.7-0.5-3.6-1.4s-1.3-2.2-1.3-3.7c0-1.4,0.5-2.6,1.4-3.6
				C303,621.9,304.2,621.4,305.7,621.4z M303.4,625.5h4.3c-0.1-0.7-0.4-1.2-0.7-1.5c-0.3-0.3-0.8-0.5-1.4-0.5s-1.2,0.2-1.5,0.5
				S303.5,624.8,303.4,625.5z"/>
			<path class="st5" d="M634.7,189.3h193.8v54.3H634.7V189.3z"/>
			<path d="M652.3,209.8c1.1,0,2,0.3,2.7,1s1.1,1.6,1.1,2.6c0,0.8-0.2,1.5-0.5,2.1c-0.3,0.5-0.9,1-1.6,1.2l0,0
				c0.6,0.2,1.1,0.5,1.5,1.1c0.3,0.6,0.5,1.5,0.5,2.7s0.2,2,0.5,2.5h-2.9c-0.2-0.4-0.3-1.1-0.3-2.1c-0.1-1.3-0.3-2.2-0.7-2.5
				c-0.3-0.4-0.9-0.6-1.6-0.6h-3v5.2h-3v-13.3h7.3V209.8z M651.2,215.8c0.6,0,1.1-0.1,1.4-0.4c0.3-0.3,0.5-0.8,0.5-1.5
				c0-0.6-0.2-1.1-0.5-1.4c-0.3-0.3-0.8-0.5-1.5-0.5h-3.3v3.8L651.2,215.8L651.2,215.8z M662.7,213.2c1.4,0,2.6,0.5,3.4,1.5
				c0.9,1,1.3,2.2,1.3,3.8v0.5h-7c0,0.8,0.3,1.5,0.7,1.9s1,0.6,1.7,0.6c0.5,0,0.9-0.1,1.3-0.4c0.4-0.2,0.7-0.5,0.8-0.9h2.3
				c-0.4,1.1-0.9,1.9-1.7,2.5c-0.8,0.5-1.7,0.8-2.9,0.8c-1.5,0-2.7-0.5-3.6-1.4c-0.9-0.9-1.3-2.2-1.3-3.7c0-1.4,0.5-2.6,1.4-3.6
				C660,213.7,661.2,213.2,662.7,213.2z M660.4,217.3h4.3c-0.1-0.7-0.4-1.2-0.7-1.5s-0.8-0.5-1.4-0.5c-0.6,0-1.2,0.2-1.5,0.5
				C660.7,216.1,660.4,216.6,660.4,217.3z M671.6,209.8v13.3H669v-13.3H671.6z M678.2,213.2c1.4,0,2.5,0.2,3.2,0.7s1,1.1,1,2v5.2
				c0,0.4,0,0.8,0.1,1.2s0.1,0.7,0.3,0.9H680c-0.1-0.1-0.1-0.3-0.1-0.5s-0.1-0.3-0.1-0.5c-0.4,0.4-0.8,0.7-1.4,0.9
				c-0.5,0.2-1.2,0.3-1.9,0.3c-1,0-1.8-0.2-2.4-0.8c-0.6-0.5-0.9-1.2-0.9-2.1c0-0.9,0.3-1.6,0.8-2.1c0.6-0.5,1.6-0.8,3-1
				c1-0.1,1.7-0.2,2-0.4s0.5-0.4,0.5-0.8c0-0.4-0.1-0.8-0.4-1s-0.7-0.3-1.3-0.3s-1,0.1-1.3,0.4c-0.3,0.2-0.5,0.6-0.5,1.1h-2.7
				c0.1-1.1,0.5-1.9,1.3-2.4C675.7,213.5,676.8,213.2,678.2,213.2z M676,220.4c0,0.4,0.1,0.7,0.4,0.9s0.7,0.3,1.2,0.3
				c0.7,0,1.2-0.2,1.6-0.5c0.4-0.4,0.5-0.9,0.5-1.6v-1c-0.2,0.1-0.4,0.2-0.6,0.3s-0.7,0.1-1.4,0.2c-0.6,0.1-1,0.2-1.3,0.5
				C676.1,219.6,676,220,676,220.4z M687.8,210.6v2.9h1.9v1.8h-1.9v4.8c0,0.4,0.1,0.7,0.2,0.8c0.2,0.1,0.5,0.2,0.9,0.2
				c0.2,0,0.3,0,0.4,0c0.1,0,0.3,0,0.4,0v2.1c-0.2,0-0.5,0.1-0.7,0.1c-0.3,0-0.5,0-0.8,0c-1.1,0-1.9-0.2-2.4-0.6
				c-0.4-0.4-0.7-0.9-0.7-1.7v-5.8h-1.6v-1.8h1.6v-2.9L687.8,210.6L687.8,210.6z M695.4,213.2c1.4,0,2.5,0.2,3.2,0.7s1,1.1,1,2v5.2
				c0,0.4,0,0.8,0.1,1.2s0.1,0.7,0.3,0.9h-2.7c-0.1-0.1-0.1-0.3-0.1-0.5s-0.1-0.3-0.1-0.5c-0.4,0.4-0.8,0.7-1.4,0.9
				c-0.5,0.2-1.2,0.3-1.9,0.3c-1,0-1.8-0.2-2.4-0.8c-0.6-0.5-0.9-1.2-0.9-2.1c0-0.9,0.3-1.6,0.8-2.1c0.6-0.5,1.6-0.8,3-1
				c1-0.1,1.7-0.2,2-0.4s0.5-0.4,0.5-0.8c0-0.4-0.1-0.8-0.4-1c-0.3-0.2-0.7-0.3-1.3-0.3s-1,0.1-1.3,0.4c-0.3,0.2-0.5,0.6-0.5,1.1
				h-2.7c0.1-1.1,0.5-1.9,1.3-2.4C693,213.5,694.1,213.2,695.4,213.2z M693.3,220.4c0,0.4,0.1,0.7,0.4,0.9c0.3,0.2,0.7,0.3,1.2,0.3
				c0.7,0,1.2-0.2,1.6-0.5c0.4-0.4,0.5-0.9,0.5-1.6v-1c-0.2,0.1-0.4,0.2-0.6,0.3c-0.3,0.1-0.7,0.1-1.4,0.2c-0.6,0.1-1,0.2-1.3,0.5
				C693.4,219.6,693.3,220,693.3,220.4z M704.4,209.8v4.8l0,0c0.3-0.4,0.7-0.8,1.2-1c0.5-0.3,1.1-0.4,1.8-0.4c1.1,0,2.1,0.5,2.8,1.4
				c0.8,0.9,1.2,2.2,1.2,3.7s-0.4,2.8-1.2,3.7s-1.7,1.4-2.9,1.4c-0.8,0-1.4-0.1-2-0.4c-0.5-0.3-0.9-0.6-1.2-1.1l0,0v1.2h-2.5v-13.3
				L704.4,209.8L704.4,209.8z M704.3,218.3c0,0.9,0.2,1.7,0.6,2.2s1,0.8,1.7,0.8s1.2-0.3,1.6-0.8s0.6-1.3,0.6-2.2s-0.2-1.7-0.6-2.2
				c-0.4-0.6-1-0.9-1.7-0.9s-1.2,0.3-1.6,0.8C704.5,216.6,704.3,217.4,704.3,218.3z M715.8,209.8v2.2h-2.7v-2.2H715.8z M715.8,213.5
				v9.6h-2.7v-9.6H715.8z M720.7,209.8v13.3H718v-13.3H720.7z M725.5,209.8v2.2h-2.7v-2.2H725.5z M725.5,213.5v9.6h-2.7v-9.6H725.5z
				 M730.9,210.6v2.9h1.9v1.8h-1.9v4.8c0,0.4,0.1,0.7,0.2,0.8c0.2,0.1,0.5,0.2,0.9,0.2c0.2,0,0.3,0,0.4,0c0.1,0,0.3,0,0.4,0v2.1
				c-0.2,0-0.5,0.1-0.7,0.1c-0.3,0-0.5,0-0.8,0c-1.1,0-1.9-0.2-2.4-0.6c-0.4-0.4-0.7-0.9-0.7-1.7v-5.8h-1.6v-1.8h1.6v-2.9
				L730.9,210.6L730.9,210.6z M735.8,213.5l2.2,6.6l0,0l2.1-6.6h2.8l-4.1,11c-0.2,0.6-0.6,1.1-1.1,1.5c-0.5,0.3-1.2,0.5-2,0.5
				c-0.4,0-0.7,0-1,0s-0.5,0-0.8-0.1v-2.2c0.3,0,0.6,0.1,0.8,0.1s0.4,0,0.6,0c0.4,0,0.7-0.1,0.9-0.4c0.2-0.2,0.3-0.5,0.3-0.9
				c0-0.1,0-0.2,0-0.3s0-0.2-0.1-0.3l-3.4-9L735.8,213.5L735.8,213.5z"/>
			<path class="st5" d="M725.2,387H919v54.3H725.2V387z"/>
			<path d="M744.9,407.5v2.5h-6.4v3.1h5.6v2.3h-5.6v5.5h-2.9v-13.3h9.3V407.5z M750.2,410.9c1.5,0,2.7,0.5,3.6,1.4
				c0.9,0.9,1.4,2.2,1.4,3.7s-0.5,2.8-1.4,3.7c-0.9,0.9-2.1,1.4-3.6,1.4s-2.7-0.5-3.6-1.4c-0.9-0.9-1.4-2.2-1.4-3.7s0.4-2.8,1.3-3.7
				C747.4,411.4,748.7,410.9,750.2,410.9z M747.8,416c0,1,0.2,1.8,0.6,2.3c0.4,0.5,1,0.8,1.7,0.8c0.8,0,1.3-0.3,1.8-0.8
				c0.4-0.5,0.6-1.3,0.6-2.3s-0.2-1.7-0.6-2.3c-0.4-0.6-1-0.8-1.8-0.8c-0.7,0-1.3,0.3-1.7,0.8C748.1,414.2,747.8,415,747.8,416z
				 M762.5,410.9c0.1,0,0.2,0,0.3,0s0.2,0,0.3,0.1v2.5c-0.1,0-0.3-0.1-0.4-0.1c-0.1,0-0.3,0-0.5,0c-0.9,0-1.6,0.3-2,0.8
				s-0.6,1.3-0.6,2.2v4.4H757v-9.6h2.5v1.8l0,0c0.3-0.6,0.7-1.1,1.2-1.5C761.2,411.1,761.9,410.9,762.5,410.9z M767.8,410.9
				c0.7,0,1.3,0.1,1.8,0.4s0.8,0.6,1.1,1.2l0,0v-1.3h2.5v9.1c0,1.3-0.4,2.3-1.2,3.1c-0.8,0.8-2.1,1.1-3.8,1.1
				c-1.1,0-2.1-0.3-2.9-0.8c-0.8-0.5-1.3-1.3-1.3-2.3h2.6c0.1,0.5,0.3,0.8,0.7,1c0.3,0.2,0.8,0.3,1.3,0.3c0.7,0,1.2-0.2,1.6-0.6
				c0.4-0.4,0.6-1,0.6-1.7v-1.3l0,0c-0.3,0.5-0.6,0.8-1.2,1.1c-0.5,0.3-1.1,0.4-1.7,0.4c-1.3,0-2.3-0.4-3-1.3s-1.1-2-1.1-3.5
				c0-1.4,0.4-2.5,1.1-3.4C765.6,411.4,766.6,410.9,767.8,410.9z M766.4,415.6c0,0.9,0.2,1.6,0.6,2.1s0.9,0.8,1.6,0.8
				c0.7,0,1.2-0.3,1.7-0.8s0.6-1.1,0.6-1.9c0-0.9-0.2-1.7-0.6-2.2c-0.4-0.5-0.9-0.8-1.7-0.8c-0.7,0-1.2,0.2-1.6,0.8
				C766.6,414.2,766.4,414.8,766.4,415.6z M778.1,407.5v2.2h-2.7v-2.2H778.1z M778.1,411.2v9.6h-2.7v-9.6H778.1z M782.1,411.2l2,6.6
				l0,0l2-6.6h2.6l-3.3,9.6h-3l-3.3-9.6H782.1z M794.3,410.9c1.4,0,2.5,0.2,3.2,0.7s1,1.1,1,2v5.2c0,0.4,0,0.8,0.1,1.2
				c0.1,0.4,0.1,0.7,0.3,0.9h-2.7c-0.1-0.1-0.1-0.3-0.1-0.5s-0.1-0.3-0.1-0.5c-0.4,0.4-0.8,0.7-1.4,0.9c-0.5,0.2-1.2,0.3-1.9,0.3
				c-1,0-1.8-0.2-2.4-0.8c-0.6-0.5-0.9-1.2-0.9-2.1s0.3-1.6,0.8-2.1c0.6-0.5,1.6-0.8,3-1c1-0.1,1.7-0.2,2-0.4
				c0.3-0.2,0.5-0.4,0.5-0.8s-0.1-0.8-0.4-1s-0.7-0.3-1.3-0.3s-1,0.1-1.3,0.4c-0.3,0.2-0.5,0.6-0.5,1.1h-2.7
				c0.1-1.1,0.5-1.9,1.3-2.4C791.9,411.2,793,410.9,794.3,410.9z M792.2,418.1c0,0.4,0.1,0.7,0.4,0.9s0.7,0.3,1.2,0.3
				c0.7,0,1.2-0.2,1.6-0.5c0.4-0.4,0.5-0.9,0.5-1.6v-1c-0.2,0.1-0.4,0.2-0.6,0.3s-0.7,0.1-1.4,0.2c-0.6,0.1-1,0.2-1.3,0.5
				C792.3,417.3,792.2,417.7,792.2,418.1z M803.3,407.5v4.8l0,0c0.3-0.4,0.7-0.8,1.2-1c0.5-0.3,1.1-0.4,1.8-0.4
				c1.1,0,2.1,0.5,2.8,1.4c0.8,0.9,1.2,2.2,1.2,3.7s-0.4,2.8-1.2,3.7c-0.8,0.9-1.7,1.4-2.9,1.4c-0.8,0-1.4-0.1-2-0.4
				c-0.5-0.3-0.9-0.6-1.2-1.1l0,0v1.2h-2.5v-13.3L803.3,407.5L803.3,407.5z M803.2,416c0,0.9,0.2,1.7,0.6,2.2c0.4,0.6,1,0.8,1.7,0.8
				s1.2-0.3,1.6-0.8c0.4-0.6,0.6-1.3,0.6-2.2c0-0.9-0.2-1.7-0.6-2.2c-0.4-0.6-1-0.9-1.7-0.9s-1.2,0.3-1.6,0.8
				C803.4,414.3,803.2,415.1,803.2,416z M814.7,407.5v2.2H812v-2.2H814.7z M814.7,411.2v9.6H812v-9.6H814.7z M819.6,407.5v13.3h-2.7
				v-13.3H819.6z M824.4,407.5v2.2h-2.7v-2.2H824.4z M824.4,411.2v9.6h-2.7v-9.6H824.4z M829.8,408.3v2.9h1.9v1.8h-1.9v4.8
				c0,0.4,0.1,0.7,0.2,0.8c0.2,0.1,0.5,0.2,0.9,0.2c0.2,0,0.3,0,0.4,0c0.1,0,0.3,0,0.4,0v2.1c-0.2,0-0.5,0.1-0.7,0.1
				c-0.3,0-0.5,0-0.8,0c-1.1,0-1.9-0.2-2.4-0.6c-0.4-0.4-0.7-0.9-0.7-1.7v-5.8h-1.6v-1.8h1.6v-2.9h2.7V408.3z M834.7,411.2l2.2,6.6
				l0,0l2.1-6.6h2.8l-4.1,11c-0.2,0.6-0.6,1.1-1.1,1.5c-0.5,0.3-1.2,0.5-2,0.5c-0.4,0-0.7,0-1,0s-0.5,0-0.8-0.1v-2.2
				c0.3,0,0.6,0.1,0.8,0.1s0.4,0,0.6,0c0.4,0,0.7-0.1,0.9-0.4c0.2-0.2,0.3-0.5,0.3-0.9c0-0.1,0-0.2,0-0.3c0-0.1,0-0.2-0.1-0.3
				l-3.4-9L834.7,411.2L834.7,411.2z"/>
			<path class="st5" d="M623.4,586.3h193.8v54.3H623.4V586.3z"/>
			<path d="M640.1,606.8c1.4,0,2.4,0.3,3.1,0.8c0.7,0.5,1.1,1.4,1.1,2.5c0,0.7-0.2,1.3-0.5,1.7s-0.8,0.8-1.3,1.1
				c0.8,0.2,1.4,0.7,1.8,1.2c0.4,0.6,0.6,1.3,0.6,2.1c0,1.2-0.4,2.2-1.3,2.9c-0.9,0.7-2,1-3.3,1h-6.5v-13.3H640.1z M639.7,612.2
				c0.5,0,0.9-0.1,1.2-0.4c0.3-0.3,0.5-0.7,0.5-1.2s-0.2-0.9-0.5-1.2c-0.3-0.2-0.8-0.4-1.4-0.4h-2.8v3.1h3V612.2z M639.9,617.8
				c0.7,0,1.2-0.1,1.5-0.4c0.4-0.3,0.6-0.7,0.6-1.3s-0.2-1.1-0.5-1.4c-0.3-0.3-0.8-0.5-1.5-0.5h-3.2v3.7L639.9,617.8L639.9,617.8z
				 M649.3,606.8v13.3h-2.7v-13.3H649.3z M655.8,610.2c1.4,0,2.5,0.2,3.2,0.7s1,1.1,1,2v5.2c0,0.4,0,0.8,0.1,1.2s0.1,0.7,0.3,0.9
				h-2.7c-0.1-0.1-0.1-0.3-0.1-0.5s-0.1-0.3-0.1-0.5c-0.4,0.4-0.8,0.7-1.4,0.9c-0.5,0.2-1.2,0.3-1.9,0.3c-1,0-1.8-0.2-2.4-0.8
				c-0.6-0.5-0.9-1.2-0.9-2.1c0-0.9,0.3-1.6,0.8-2.1c0.6-0.5,1.6-0.8,3-1c1-0.1,1.7-0.2,2-0.4s0.5-0.4,0.5-0.8c0-0.4-0.1-0.8-0.4-1
				s-0.7-0.3-1.3-0.3s-1,0.1-1.3,0.4c-0.3,0.2-0.5,0.6-0.5,1.1H651c0.1-1.1,0.5-1.9,1.3-2.4C653.4,610.5,654.5,610.2,655.8,610.2z
				 M653.6,617.4c0,0.4,0.1,0.7,0.4,0.9s0.7,0.3,1.2,0.3c0.7,0,1.2-0.2,1.6-0.5c0.4-0.4,0.5-0.9,0.5-1.6v-1
				c-0.2,0.1-0.4,0.2-0.6,0.3s-0.7,0.1-1.4,0.2c-0.6,0.1-1,0.2-1.3,0.5C653.8,616.6,653.6,617,653.6,617.4z M667.7,610.2
				c0.7,0,1.3,0.1,1.8,0.4c0.5,0.3,0.8,0.7,1,1.2c0.4-0.5,0.8-0.9,1.3-1.2s1-0.4,1.6-0.4c1.2,0,2,0.3,2.6,0.9
				c0.6,0.6,0.9,1.4,0.9,2.5v6.5h-2.7v-5.6c0-0.9-0.1-1.5-0.4-1.8c-0.3-0.3-0.7-0.5-1.2-0.5c-0.6,0-1,0.2-1.3,0.6
				c-0.3,0.4-0.4,1-0.4,1.8v5.5h-2.7v-5.9c0-0.6-0.1-1.1-0.4-1.4c-0.2-0.3-0.6-0.5-1.2-0.5c-0.5,0-0.9,0.2-1.3,0.6s-0.5,0.9-0.5,1.6
				v5.7h-2.7v-9.6h2.5v1.3l0,0c0.4-0.5,0.8-0.9,1.3-1.2C666.5,610.4,667.1,610.2,667.7,610.2z M683.5,610.2c1.4,0,2.6,0.5,3.4,1.5
				c0.9,1,1.3,2.2,1.3,3.8v0.5h-7c0,0.8,0.3,1.5,0.7,1.9s1,0.6,1.7,0.6c0.5,0,0.9-0.1,1.3-0.4c0.4-0.2,0.7-0.5,0.8-0.9h2.3
				c-0.4,1.1-0.9,1.9-1.7,2.5c-0.8,0.5-1.7,0.8-2.9,0.8c-1.5,0-2.7-0.5-3.6-1.4c-0.9-0.9-1.3-2.2-1.3-3.7c0-1.4,0.5-2.6,1.4-3.6
				C680.8,610.7,682,610.2,683.5,610.2z M681.2,614.3h4.3c-0.1-0.7-0.4-1.2-0.7-1.5s-0.8-0.5-1.4-0.5c-0.6,0-1.2,0.2-1.5,0.5
				S681.2,613.6,681.2,614.3z M694.1,610.2c1.4,0,2.5,0.2,3.2,0.7s1,1.1,1,2v5.2c0,0.4,0,0.8,0.1,1.2s0.1,0.7,0.3,0.9H696
				c-0.1-0.1-0.1-0.3-0.1-0.5s-0.1-0.3-0.1-0.5c-0.4,0.4-0.8,0.7-1.4,0.9c-0.5,0.2-1.2,0.3-1.9,0.3c-1,0-1.8-0.2-2.4-0.8
				c-0.6-0.5-0.9-1.2-0.9-2.1c0-0.9,0.3-1.6,0.8-2.1c0.6-0.5,1.6-0.8,3-1c1-0.1,1.7-0.2,2-0.4s0.5-0.4,0.5-0.8c0-0.4-0.1-0.8-0.4-1
				s-0.7-0.3-1.3-0.3s-1,0.1-1.3,0.4c-0.3,0.2-0.5,0.6-0.5,1.1h-2.7c0.1-1.1,0.5-1.9,1.3-2.4C691.7,610.5,692.8,610.2,694.1,610.2z
				 M692,617.4c0,0.4,0.1,0.7,0.4,0.9c0.3,0.2,0.7,0.3,1.2,0.3c0.7,0,1.2-0.2,1.6-0.5c0.4-0.4,0.5-0.9,0.5-1.6v-1
				c-0.2,0.1-0.4,0.2-0.6,0.3c-0.3,0.1-0.7,0.1-1.4,0.2c-0.6,0.1-1,0.2-1.3,0.5C692.1,616.6,692,617,692,617.4z M703.1,606.8v4.8
				l0,0c0.3-0.4,0.7-0.8,1.2-1c0.5-0.3,1.1-0.4,1.8-0.4c1.1,0,2.1,0.5,2.8,1.4c0.8,0.9,1.2,2.2,1.2,3.7s-0.4,2.8-1.2,3.7
				s-1.7,1.4-2.9,1.4c-0.8,0-1.4-0.1-2-0.4c-0.5-0.3-0.9-0.6-1.2-1.1l0,0v1.2h-2.5v-13.3L703.1,606.8L703.1,606.8z M703,615.3
				c0,0.9,0.2,1.7,0.6,2.2s1,0.8,1.7,0.8s1.2-0.3,1.6-0.8s0.6-1.3,0.6-2.2s-0.2-1.7-0.6-2.2c-0.4-0.6-1-0.9-1.7-0.9
				s-1.2,0.3-1.6,0.8C703.2,613.6,703,614.4,703,615.3z M714.5,606.8v2.2h-2.7v-2.2H714.5z M714.5,610.5v9.6h-2.7v-9.6H714.5z
				 M719.4,606.8v13.3h-2.7v-13.3H719.4z M724.2,606.8v2.2h-2.7v-2.2H724.2z M724.2,610.5v9.6h-2.7v-9.6H724.2z M729.6,607.6v2.9
				h1.9v1.8h-1.9v4.8c0,0.4,0.1,0.7,0.2,0.8c0.2,0.1,0.5,0.2,0.9,0.2c0.2,0,0.3,0,0.4,0c0.1,0,0.3,0,0.4,0v2.1
				c-0.2,0-0.5,0.1-0.7,0.1c-0.3,0-0.5,0-0.8,0c-1.1,0-1.9-0.2-2.4-0.6c-0.4-0.4-0.7-0.9-0.7-1.7v-5.8h-1.6v-1.8h1.6v-2.9h2.7V607.6
				z M734.5,610.5l2.2,6.6l0,0l2.1-6.6h2.8l-4.1,11c-0.2,0.6-0.6,1.1-1.1,1.5c-0.5,0.3-1.2,0.5-2,0.5c-0.4,0-0.7,0-1,0
				s-0.5,0-0.8-0.1v-2.2c0.3,0,0.6,0.1,0.8,0.1s0.4,0,0.6,0c0.4,0,0.7-0.1,0.9-0.4c0.2-0.2,0.3-0.5,0.3-0.9c0-0.1,0-0.2,0-0.3
				s0-0.2-0.1-0.3l-3.4-9h2.8V610.5z"/>
			<path class="st5" d="M471.5,215.9v396.3"/>
			<path class="st6" d="M471.5,215.9v396.3"/>
			<path class="st5" d="M290.9,366h154.6v97.9H290.9V366z"/>
			<path d="M341.5,385.9c1.2,0,2.2,0.3,2.9,0.9c0.7,0.6,1,1.5,1,2.7c0,0.8-0.2,1.5-0.7,2.2c-0.4,0.7-1,1.2-1.8,1.5s-1.6,0.5-2.6,0.5
				h-4l-1.2,5.5h-1.8l2.8-13.3L341.5,385.9L341.5,385.9z M336.7,392.3h4.1c0.9,0,1.5-0.2,2.1-0.7c0.5-0.5,0.8-1.2,0.8-2
				c0-0.7-0.2-1.2-0.6-1.6s-0.9-0.6-1.6-0.6h-3.8L336.7,392.3z M351.8,389.3c0.2,0,0.2,0,0.3,0l-0.4,1.7c0,0-0.2,0-0.4,0
				c-0.7,0-1.3,0.1-1.7,0.3s-0.8,0.6-1.2,1s-0.7,1.3-1,2.6l-0.9,4.3H345l2-9.6h1.5l-0.5,2.1l0,0c0.3-0.5,0.5-0.8,0.9-1.2
				c0.3-0.3,0.7-0.6,1-0.8c0.2-0.1,0.5-0.2,0.7-0.3c0.2-0.1,0.5-0.1,0.8-0.1c0.1,0,0.2,0,0.2,0C351.7,389.3,351.8,389.3,351.8,389.3
				z M357,389.4c1.3,0,2.3,0.3,3,1s1,1.7,1,3c0,1.7-0.5,3.2-1.5,4.3c-1,1.2-2.3,1.8-3.8,1.8c-1.2,0-2.2-0.4-2.9-1.1
				c-0.8-0.8-1.1-1.7-1.1-2.9c0-1.6,0.5-3.1,1.5-4.2C354,390,355.4,389.4,357,389.4z M353.1,395.4c0,0.8,0.2,1.5,0.7,2
				s1.1,0.7,1.9,0.7c1,0,1.9-0.5,2.6-1.4c0.7-1,1-2,1-3.2c0-0.8-0.2-1.5-0.7-2c-0.4-0.5-1.1-0.8-1.9-0.8c-1,0-1.9,0.5-2.6,1.4
				C353.5,393.1,353.1,394.2,353.1,395.4z M366.3,385.9l-1,4.9l0,0c0.4-0.5,0.9-0.9,1.3-1.1c0.5-0.2,1-0.3,1.6-0.3
				c1.2,0,2.2,0.4,2.8,1.1c0.7,0.7,1,1.7,1,3c0,1.7-0.5,3.1-1.4,4.2s-2.2,1.7-3.7,1.7c-0.8,0-1.5-0.2-2.1-0.6s-1-0.9-1.2-1.5l0,0
				l-0.3,1.8h-1.4l2.8-13.3L366.3,385.9L366.3,385.9z M364.3,395.6c0,0.8,0.2,1.3,0.7,1.8c0.5,0.4,1.1,0.6,1.9,0.6
				c1,0,1.9-0.5,2.5-1.5s1-2,1-3.1c0-0.8-0.2-1.5-0.6-2s-0.9-0.8-1.7-0.8c-1.2,0-2.1,0.5-2.8,1.5S364.3,394.4,364.3,395.6z
				 M377.3,385.9l-2.8,13.3h-1.6l2.8-13.3H377.3z M382.3,389.4c1.4,0,2.4,0.4,3,1.1c0.7,0.7,1,1.8,1,3.2c0,0.2,0,0.4-0.1,0.7
				c0,0.3-0.1,0.4-0.1,0.6H379c0,0.2,0,0.3,0,0.4s0,0.3,0,0.4c0,0.7,0.2,1.3,0.7,1.7c0.5,0.4,1.1,0.6,1.8,0.6c0.7,0,1.2-0.2,1.7-0.5
				s0.8-0.8,1.1-1.4h1.6c-0.3,1.1-0.8,1.9-1.6,2.4c-0.8,0.6-1.7,0.8-2.8,0.8c-1.3,0-2.3-0.4-3-1.1s-1.1-1.7-1.1-2.8
				c0-1.8,0.5-3.2,1.4-4.4C379.7,390,380.9,389.4,382.3,389.4z M379.2,393.5h5.6c0-0.1,0-0.1,0-0.1v-0.1c0-0.8-0.2-1.3-0.6-1.8
				c-0.4-0.4-1-0.7-1.7-0.7c-0.8,0-1.4,0.2-2,0.7C379.9,391.9,379.5,392.6,379.2,393.5z M393.7,389.4c0.7,0,1.2,0.2,1.6,0.5
				s0.7,0.7,0.8,1.3c0.4-0.5,0.8-0.9,1.4-1.2c0.6-0.3,1.2-0.5,1.9-0.5c0.8,0,1.5,0.2,2,0.6s0.7,0.9,0.7,1.6c0,0.2,0,0.5-0.1,0.8
				c0,0.3-0.1,0.7-0.2,1.1l-1.2,5.8H399l1.3-6c0.1-0.4,0.1-0.8,0.2-0.9s0-0.3,0-0.3c0-0.4-0.1-0.7-0.4-0.9c-0.3-0.2-0.6-0.4-1-0.4
				c-0.5,0-1.1,0.2-1.6,0.6s-0.9,0.8-1.1,1.2c-0.2,0.4-0.4,1-0.5,1.6l-1.1,5.1H393l1.1-5.3c0.1-0.6,0.2-1,0.3-1.3
				c0.1-0.3,0.1-0.5,0.1-0.6c0-0.4-0.1-0.7-0.4-0.9c-0.2-0.2-0.6-0.3-1-0.3c-0.6,0-1.1,0.2-1.7,0.6c-0.5,0.4-0.9,0.8-1.1,1.1
				c-0.2,0.3-0.4,0.9-0.6,1.6l-1.1,5.1H387l2-9.6h1.5l-0.4,1.4l0,0c0.4-0.5,1-1,1.5-1.2C392.4,389.5,393,389.4,393.7,389.4z"/>
			<path d="M335.4,408.3c1.5,0,2.8,0.4,3.6,1.3c0.9,0.9,1.3,2.1,1.3,3.8c0,2.4-0.7,4.4-2,5.9s-3.1,2.3-5.3,2.3h-5.2l2.8-13.3
				L335.4,408.3L335.4,408.3z M329.9,420.1h3.2c1.6,0,3-0.6,4-1.9s1.5-2.8,1.5-4.7c0-1.3-0.3-2.2-1-2.8c-0.6-0.6-1.5-0.9-2.6-0.9
				h-2.9L329.9,420.1z M346.6,411.8c1.3,0,2.3,0.3,3,1s1,1.7,1,3c0,1.7-0.5,3.2-1.5,4.3c-1,1.2-2.3,1.8-3.8,1.8
				c-1.2,0-2.2-0.4-2.9-1.1c-0.8-0.8-1.1-1.7-1.1-2.9c0-1.6,0.5-3.1,1.5-4.2C343.7,412.4,345,411.8,346.6,411.8z M342.8,417.8
				c0,0.8,0.2,1.5,0.7,2s1.1,0.7,1.9,0.7c1,0,1.9-0.5,2.6-1.4c0.7-1,1-2,1-3.2c0-0.8-0.2-1.5-0.7-2c-0.4-0.5-1.1-0.8-1.9-0.8
				c-1,0-1.9,0.5-2.6,1.4C343.1,415.5,342.8,416.6,342.8,417.8z M358.1,411.8c0.7,0,1.2,0.2,1.6,0.5s0.7,0.7,0.8,1.3
				c0.4-0.5,0.8-0.9,1.4-1.2c0.6-0.3,1.2-0.5,1.9-0.5c0.8,0,1.5,0.2,2,0.6s0.7,0.9,0.7,1.6c0,0.2,0,0.5-0.1,0.8
				c0,0.3-0.1,0.7-0.2,1.1l-1.2,5.8h-1.6l1.3-6c0.1-0.4,0.1-0.8,0.2-0.9c0-0.2,0-0.3,0-0.3c0-0.4-0.1-0.7-0.4-0.9
				c-0.3-0.2-0.6-0.4-1-0.4c-0.5,0-1.1,0.2-1.6,0.6s-0.9,0.8-1.1,1.2c-0.2,0.4-0.4,1-0.5,1.6l-1.1,5.1h-1.6l1.1-5.3
				c0.1-0.6,0.2-1,0.3-1.3c0.1-0.3,0.1-0.5,0.1-0.6c0-0.4-0.1-0.7-0.4-0.9c-0.2-0.2-0.6-0.3-1-0.3c-0.6,0-1.1,0.2-1.7,0.6
				c-0.5,0.4-0.9,0.8-1.1,1.1c-0.2,0.3-0.4,0.9-0.6,1.6l-1.1,5.1h-1.6l2-9.6h1.5l-0.4,1.4l0,0c0.4-0.5,1-1,1.5-1.2
				C356.8,411.9,357.4,411.8,358.1,411.8z M372.7,411.8c1.2,0,2,0.2,2.6,0.6s0.9,1,0.9,1.8c0,0.2,0,0.4-0.1,0.7
				c0,0.2-0.1,0.5-0.1,0.6l-0.9,3.6c-0.1,0.4-0.1,0.7-0.1,0.8c0,0.2,0,0.3,0.1,0.4s0.2,0.2,0.4,0.2c0.1,0,0.2,0,0.2,0l0.2-0.1
				l-0.2,1.2c-0.1,0.1-0.3,0.1-0.5,0.2s-0.4,0.1-0.5,0.1c-0.4,0-0.7-0.1-0.9-0.3c-0.2-0.2-0.3-0.5-0.3-0.9c0-0.1,0-0.1,0-0.1h-0.1
				c-0.4,0.5-0.8,0.9-1.4,1.1c-0.5,0.2-1.1,0.3-1.9,0.3c-0.9,0-1.6-0.2-2.2-0.7c-0.5-0.5-0.8-1.2-0.8-2c0-0.9,0.3-1.7,1-2.2
				c0.6-0.5,2.1-0.9,4.4-1c0.7-0.1,1.2-0.2,1.5-0.4c0.3-0.2,0.5-0.6,0.5-1.1c0-0.4-0.2-0.7-0.5-0.9c-0.4-0.2-0.8-0.3-1.4-0.3
				c-0.7,0-1.3,0.2-1.8,0.5s-0.8,0.7-0.8,1.3h-1.6c0.1-1,0.6-1.8,1.3-2.3C370.6,412,371.5,411.8,372.7,411.8z M374.1,416.7
				c-0.4,0.2-1,0.4-1.9,0.5c-1.3,0.1-2.2,0.3-2.7,0.6c-0.5,0.3-0.7,0.7-0.7,1.3c0,0.4,0.2,0.7,0.5,1c0.3,0.2,0.7,0.4,1.2,0.4
				c0.7,0,1.3-0.1,1.7-0.4c0.5-0.3,0.8-0.6,1.1-1C373.7,418.7,373.9,417.9,374.1,416.7L374.1,416.7z M381.5,408.3l-0.4,1.9h-1.6
				l0.4-1.9H381.5z M380.7,412l-2,9.6h-1.6l2-9.6H380.7z M388,411.8c0.9,0,1.6,0.2,2,0.6s0.7,1,0.7,1.9c0,0.2,0,0.4,0,0.6
				s-0.1,0.7-0.2,1.3l-1.2,5.5h-1.6l1.4-6.2c0.1-0.5,0.1-0.8,0.1-0.9c0-0.4-0.2-0.8-0.5-1s-0.7-0.4-1.2-0.4c-0.7,0-1.5,0.3-2.2,0.9
				s-1.1,1.3-1.3,2.2l-1.1,5.4h-1.6l2-9.6h1.5l-0.3,1.5l0,0c0.4-0.5,0.9-0.9,1.5-1.2C386.6,411.9,387.2,411.8,388,411.8z
				 M403.2,408.3c0.9,0,1.6,0.2,2.2,0.7s0.9,1.1,0.9,1.8c0,0.7-0.2,1.3-0.8,1.9c-0.5,0.6-1.3,1.2-2.5,1.8l2.1,3.4
				c0.3-0.4,0.6-0.9,0.8-1.4c0.2-0.5,0.3-0.9,0.4-1.3h1.5c-0.2,0.8-0.4,1.5-0.7,2.1c-0.3,0.6-0.7,1.2-1.2,1.8l1.6,2.4h-1.8l-0.8-1.4
				c-0.6,0.5-1.2,0.9-1.8,1.2c-0.6,0.3-1.3,0.4-2,0.4c-1.1,0-2-0.3-2.7-1c-0.7-0.6-1-1.5-1-2.5c0-0.9,0.3-1.6,0.9-2.3
				s1.5-1.3,2.9-1.9c-0.4-0.6-0.7-1.2-0.9-1.6c-0.2-0.5-0.2-0.9-0.2-1.3c0-0.9,0.3-1.6,0.9-2.1C401.4,408.6,402.2,408.3,403.2,408.3
				z M401.5,411.4c0,0.3,0.1,0.7,0.2,1s0.4,0.7,0.6,1.2c0.9-0.5,1.5-0.9,1.8-1.3c0.4-0.4,0.5-0.8,0.5-1.2c0-0.4-0.1-0.8-0.4-1
				s-0.6-0.4-1.1-0.4s-0.9,0.2-1.2,0.5C401.6,410.5,401.5,410.9,401.5,411.4z M398.9,418.5c0,0.6,0.2,1,0.7,1.4
				c0.4,0.4,1,0.6,1.6,0.6c0.5,0,1-0.1,1.4-0.3c0.4-0.2,0.9-0.5,1.5-1l-2.4-3.9c-1,0.5-1.7,1-2.2,1.5
				C399.1,417.3,398.9,417.9,398.9,418.5z"/>
			<path d="M323.2,430.7c1.2,0,2.2,0.3,2.9,0.9s1,1.5,1,2.7c0,0.8-0.2,1.5-0.7,2.2c-0.4,0.7-1,1.2-1.8,1.5s-1.6,0.5-2.6,0.5h-4
				l-1.2,5.5H315l2.8-13.3L323.2,430.7L323.2,430.7z M318.3,437.1h4.1c0.9,0,1.5-0.2,2.1-0.7c0.5-0.5,0.8-1.2,0.8-2
				c0-0.7-0.2-1.2-0.6-1.6s-0.9-0.6-1.6-0.6h-3.8L318.3,437.1z M331.8,434.2c1.4,0,2.4,0.4,3,1.1c0.7,0.7,1,1.8,1,3.2
				c0,0.2,0,0.4-0.1,0.7c0,0.3-0.1,0.4-0.1,0.6h-7.2c0,0.2,0,0.3,0,0.4s0,0.3,0,0.4c0,0.7,0.2,1.3,0.7,1.7s1.1,0.6,1.8,0.6
				c0.7,0,1.2-0.2,1.7-0.5s0.8-0.8,1.1-1.4h1.6c-0.3,1.1-0.8,1.9-1.6,2.4c-0.8,0.6-1.7,0.8-2.8,0.8c-1.3,0-2.3-0.4-3-1.1
				s-1.1-1.7-1.1-2.8c0-1.8,0.5-3.2,1.4-4.4C329.2,434.8,330.4,434.2,331.8,434.2z M328.7,438.3h5.6c0-0.1,0-0.1,0-0.1v-0.1
				c0-0.8-0.2-1.3-0.6-1.8s-1-0.7-1.7-0.7c-0.8,0-1.4,0.2-2,0.7S329,437.4,328.7,438.3z M343.4,434.1c0.2,0,0.3,0,0.3,0l-0.4,1.7
				c0,0-0.2,0-0.4,0c-0.7,0-1.3,0.1-1.7,0.3c-0.4,0.2-0.8,0.6-1.2,1s-0.7,1.3-1,2.6l-0.9,4.3h-1.6l2-9.6h1.5l-0.5,2.1l0,0
				c0.3-0.5,0.5-0.8,0.9-1.2c0.3-0.3,0.7-0.6,1-0.8c0.2-0.1,0.5-0.2,0.7-0.3c0.2-0.1,0.5-0.1,0.8-0.1c0.1,0,0.2,0,0.2,0
				C343.3,434.1,343.3,434.1,343.4,434.1z M348.6,430.6c0.3,0,0.6,0,0.8,0c0.2,0,0.4,0.1,0.5,0.1l-0.3,1.3c-0.2,0-0.4-0.1-0.5-0.1
				s-0.2,0-0.2,0c-0.8,0-1.3,0.4-1.5,1.2c-0.2,0.8-0.3,1.2-0.3,1.3h1.8l-0.2,1.4h-1.9L345,444h-1.6l1.8-8.2h-1.6l0.3-1.4h1.6
				c0.3-1.4,0.6-2.3,0.8-2.7s0.5-0.6,0.9-0.8C347.5,430.7,348,430.6,348.6,430.6z M354.2,434.2c1.3,0,2.3,0.3,3,1s1,1.7,1,3
				c0,1.7-0.5,3.2-1.5,4.3c-1,1.2-2.3,1.8-3.8,1.8c-1.2,0-2.2-0.4-2.9-1.1c-0.8-0.8-1.1-1.7-1.1-2.9c0-1.6,0.5-3.1,1.5-4.2
				C351.3,434.8,352.6,434.2,354.2,434.2z M350.4,440.2c0,0.8,0.2,1.5,0.7,2s1.1,0.7,1.9,0.7c1,0,1.9-0.5,2.6-1.4c0.7-1,1-2,1-3.2
				c0-0.8-0.2-1.5-0.7-2c-0.4-0.5-1.1-0.8-1.9-0.8c-1,0-1.9,0.5-2.6,1.4C350.8,437.9,350.4,439,350.4,440.2z M366,434.1
				c0.2,0,0.2,0,0.3,0l-0.4,1.7c0,0-0.2,0-0.4,0c-0.7,0-1.3,0.1-1.7,0.3s-0.8,0.6-1.2,1s-0.7,1.3-1,2.6l-0.9,4.3h-1.6l2-9.6h1.5
				l-0.5,2.1l0,0c0.3-0.5,0.5-0.8,0.9-1.2c0.3-0.3,0.7-0.6,1-0.8c0.2-0.1,0.5-0.2,0.7-0.3c0.2-0.1,0.5-0.1,0.8-0.1
				c0.1,0,0.2,0,0.2,0C365.8,434.1,365.9,434.1,366,434.1z M371.9,434.2c0.7,0,1.2,0.2,1.6,0.5s0.7,0.7,0.8,1.3
				c0.4-0.5,0.8-0.9,1.4-1.2c0.6-0.3,1.2-0.5,1.9-0.5c0.8,0,1.5,0.2,2,0.6s0.7,0.9,0.7,1.6c0,0.2,0,0.5-0.1,0.8
				c0,0.3-0.1,0.7-0.2,1.1l-1.2,5.8h-1.6l1.3-6c0.1-0.4,0.1-0.8,0.2-0.9c0-0.2,0-0.3,0-0.3c0-0.4-0.1-0.7-0.4-0.9
				c-0.3-0.2-0.6-0.4-1-0.4c-0.5,0-1.1,0.2-1.6,0.6s-0.9,0.8-1.1,1.2c-0.2,0.4-0.4,1-0.5,1.6l-1.1,5.1h-1.6l1.1-5.3
				c0.1-0.6,0.2-1,0.3-1.3c0.1-0.3,0.1-0.5,0.1-0.6c0-0.4-0.1-0.7-0.4-0.9c-0.2-0.2-0.6-0.3-1-0.3c-0.6,0-1.1,0.2-1.7,0.6
				c-0.5,0.4-0.9,0.8-1.1,1.1c-0.2,0.3-0.4,0.9-0.6,1.6l-1.1,5.1h-1.6l2-9.6h1.5l-0.4,1.4l0,0c0.4-0.5,1-1,1.5-1.2
				C370.7,434.3,371.3,434.2,371.9,434.2z M386.5,434.2c1.2,0,2,0.2,2.6,0.6s0.9,1,0.9,1.8c0,0.2,0,0.4-0.1,0.7
				c0,0.2-0.1,0.5-0.1,0.6l-0.9,3.6c-0.1,0.4-0.1,0.7-0.1,0.8c0,0.2,0,0.3,0.1,0.4s0.2,0.2,0.4,0.2c0.1,0,0.2,0,0.2,0l0.2-0.1
				l-0.2,1.2c-0.1,0.1-0.3,0.1-0.5,0.2s-0.4,0.1-0.5,0.1c-0.4,0-0.7-0.1-0.9-0.3c-0.2-0.2-0.3-0.5-0.3-0.9c0-0.1,0-0.1,0-0.1h-0.1
				c-0.4,0.5-0.8,0.9-1.4,1.1c-0.5,0.2-1.1,0.3-1.9,0.3c-0.9,0-1.6-0.2-2.2-0.7c-0.5-0.5-0.8-1.2-0.8-2c0-0.9,0.3-1.7,1-2.2
				c0.6-0.5,2.1-0.9,4.4-1c0.7-0.1,1.2-0.2,1.5-0.4c0.3-0.2,0.5-0.6,0.5-1.1c0-0.4-0.2-0.7-0.5-0.9c-0.4-0.2-0.8-0.3-1.4-0.3
				c-0.7,0-1.3,0.2-1.8,0.5s-0.8,0.7-0.8,1.3h-1.6c0.1-1,0.6-1.8,1.3-2.3C384.4,434.4,385.4,434.2,386.5,434.2z M388,439.1
				c-0.4,0.2-1,0.4-1.9,0.5c-1.3,0.1-2.2,0.3-2.7,0.6c-0.5,0.3-0.7,0.7-0.7,1.3c0,0.4,0.2,0.7,0.5,1c0.3,0.2,0.7,0.4,1.2,0.4
				c0.7,0,1.3-0.1,1.7-0.4c0.5-0.3,0.8-0.6,1.1-1C387.5,441.1,387.8,440.3,388,439.1L388,439.1z M397.7,434.2c0.9,0,1.6,0.2,2,0.6
				s0.7,1,0.7,1.9c0,0.2,0,0.4,0,0.6s-0.1,0.7-0.2,1.3l-1.2,5.5h-1.6l1.4-6.2c0.1-0.5,0.1-0.8,0.1-0.9c0-0.4-0.2-0.8-0.5-1
				s-0.7-0.4-1.2-0.4c-0.7,0-1.5,0.3-2.2,0.9s-1.1,1.3-1.3,2.2l-1.1,5.4H391l2-9.6h1.5l-0.3,1.5l0,0c0.4-0.5,0.9-0.9,1.5-1.2
				S397,434.2,397.7,434.2z M407.1,434.2c1.2,0,2,0.3,2.6,0.8c0.6,0.6,0.9,1.4,1,2.4h-1.6c0-0.6-0.2-1-0.5-1.4s-0.9-0.5-1.5-0.5
				c-1.1,0-2,0.5-2.7,1.4s-1,2-1,3.2c0,0.9,0.2,1.6,0.6,2s1,0.7,1.8,0.7c0.7,0,1.2-0.2,1.7-0.5s0.9-0.8,1.1-1.5h1.6
				c-0.3,1.1-0.8,1.9-1.6,2.5s-1.7,0.9-2.8,0.9c-1.3,0-2.3-0.4-3-1.1s-1-1.8-1-3.1c0-1.7,0.5-3.1,1.5-4.2
				C404.2,434.7,405.5,434.2,407.1,434.2z M416.6,434.2c1.4,0,2.4,0.4,3,1.1c0.7,0.7,1,1.8,1,3.2c0,0.2,0,0.4-0.1,0.7
				c0,0.3-0.1,0.4-0.1,0.6h-7.3c0,0.2,0,0.3,0,0.4s0,0.3,0,0.4c0,0.7,0.2,1.3,0.7,1.7c0.5,0.4,1.1,0.6,1.8,0.6
				c0.7,0,1.2-0.2,1.7-0.5s0.8-0.8,1.1-1.4h1.6c-0.3,1.1-0.8,1.9-1.6,2.4c-0.8,0.6-1.7,0.8-2.8,0.8c-1.3,0-2.3-0.4-3-1.1
				s-1.1-1.7-1.1-2.8c0-1.8,0.5-3.2,1.4-4.4C414,434.8,415.2,434.2,416.6,434.2z M413.5,438.3h5.6c0-0.1,0-0.1,0-0.1v-0.1
				c0-0.8-0.2-1.3-0.6-1.8c-0.4-0.4-1-0.7-1.7-0.7c-0.8,0-1.4,0.2-2,0.7C414.2,436.7,413.8,437.4,413.5,438.3z"/>
			<path class="st5" d="M498.4,366H653v97.9H498.4V366z"/>
			<path d="M543.5,397.1l2.4,13.3H544l-0.6-4h-5.6l-2.3,4h-2l8-13.3H543.5z M542.2,398.7l-3.6,6.2h4.6L542.2,398.7L542.2,398.7z
				 M551.5,397.9l-0.6,2.9h1.9l-0.3,1.4h-1.9l-1.2,5.6c-0.1,0.2-0.1,0.5-0.1,0.7s0.1,0.4,0.2,0.5c0.2,0.1,0.4,0.2,0.7,0.2
				c0.1,0,0.3,0,0.4,0c0.1,0,0.3-0.1,0.5-0.1l-0.3,1.4l0,0c-0.2,0-0.4,0.1-0.6,0.1c-0.2,0-0.4,0-0.5,0c-0.8,0-1.3-0.1-1.7-0.4
				c-0.3-0.3-0.5-0.7-0.5-1.2c0-0.1,0-0.2,0-0.4c0-0.2,0-0.3,0.1-0.5l1.3-5.9h-1.6l0.3-1.4h1.6l0.6-2.9L551.5,397.9L551.5,397.9z
				 M557.3,397.9l-0.6,2.9h1.9l-0.3,1.4h-1.9l-1.2,5.6c-0.1,0.2-0.1,0.5-0.1,0.7s0.1,0.4,0.2,0.5c0.2,0.1,0.4,0.2,0.7,0.2
				c0.1,0,0.3,0,0.4,0c0.1,0,0.3-0.1,0.5-0.1l-0.3,1.4l0,0c-0.2,0-0.4,0.1-0.6,0.1c-0.2,0-0.4,0-0.5,0c-0.8,0-1.3-0.1-1.7-0.4
				c-0.3-0.3-0.5-0.7-0.5-1.2c0-0.1,0-0.2,0-0.4c0-0.2,0-0.3,0.1-0.5l1.3-5.9h-1.6l0.3-1.4h1.6l0.6-2.9L557.3,397.9L557.3,397.9z
				 M562.8,397.1l-0.4,1.9h-1.6l0.4-1.9H562.8z M562,400.8l-2,9.6h-1.6l2-9.6H562z M567.3,397.9l-0.6,2.9h1.9l-0.3,1.4h-1.9
				l-1.2,5.6c-0.1,0.2-0.1,0.5-0.1,0.7s0.1,0.4,0.2,0.5c0.2,0.1,0.4,0.2,0.7,0.2c0.1,0,0.3,0,0.4,0c0.1,0,0.3-0.1,0.5-0.1l-0.3,1.4
				l0,0c-0.2,0-0.4,0.1-0.6,0.1c-0.2,0-0.4,0-0.5,0c-0.8,0-1.3-0.1-1.7-0.4c-0.3-0.3-0.5-0.7-0.5-1.2c0-0.1,0-0.2,0-0.4
				c0-0.2,0-0.3,0.1-0.5l1.3-5.9h-1.6l0.3-1.4h1.6l0.6-2.9L567.3,397.9L567.3,397.9z M571.8,400.8l-1.3,5.9
				c-0.1,0.5-0.2,0.9-0.2,1.2c0,0.4,0.1,0.7,0.4,1c0.3,0.2,0.7,0.4,1.2,0.4c0.9,0,1.6-0.3,2.2-0.9c0.6-0.6,1-1.4,1.2-2.2l1.1-5.4
				h1.6l-2,9.6h-1.5l0.3-1.5l0,0c-0.4,0.6-0.9,1-1.5,1.3s-1.2,0.4-1.9,0.4c-0.9,0-1.6-0.2-2-0.6s-0.7-1-0.7-1.9c0-0.2,0-0.5,0.1-0.9
				c0.1-0.3,0.1-0.7,0.2-1.1l1.2-5.4h1.6V400.8z M590.2,397.1l-2.8,13.3h-1.5l0.3-1.4l0,0c-0.4,0.6-0.9,1-1.4,1.2
				c-0.5,0.3-1.1,0.4-1.8,0.4c-1.2,0-2.1-0.4-2.8-1.1s-1-1.7-1-2.9c0-1.6,0.5-3,1.5-4.3c1-1.2,2.3-1.9,3.8-1.9
				c0.8,0,1.4,0.1,1.9,0.4s0.9,0.7,1.1,1.2l0,0l1-5.1h1.7V397.1z M580.8,406.7c0,0.8,0.2,1.5,0.6,1.9s1,0.7,1.8,0.7
				c1.1,0,2-0.5,2.7-1.5s1.1-2.1,1.1-3.3c0-0.8-0.2-1.4-0.7-1.8c-0.4-0.5-1-0.7-1.8-0.7c-1.1,0-2,0.5-2.7,1.4
				C581.1,404.3,580.8,405.4,580.8,406.7z M595.1,400.6c1.4,0,2.4,0.4,3,1.1c0.7,0.7,1,1.8,1,3.2c0,0.2,0,0.4-0.1,0.7
				c0,0.3-0.1,0.4-0.1,0.6h-7.2c0,0.2,0,0.3,0,0.4s0,0.3,0,0.4c0,0.7,0.2,1.3,0.7,1.7c0.5,0.4,1.1,0.6,1.8,0.6s1.2-0.2,1.7-0.5
				s0.8-0.8,1.1-1.4h1.6c-0.3,1.1-0.8,1.9-1.6,2.4c-0.8,0.6-1.7,0.8-2.8,0.8c-1.3,0-2.3-0.4-3-1.1s-1.1-1.7-1.1-2.8
				c0-1.8,0.5-3.2,1.4-4.4C592.5,401.2,593.7,400.6,595.1,400.6z M592,404.7h5.6c0-0.1,0-0.1,0-0.1v-0.1c0-0.8-0.2-1.3-0.6-1.8
				c-0.4-0.4-1-0.7-1.7-0.7c-0.8,0-1.4,0.2-2,0.7C592.7,403.1,592.3,403.8,592,404.7z M611.5,397.1c0.9,0,1.6,0.2,2.2,0.7
				c0.6,0.5,0.9,1.1,0.9,1.8c0,0.7-0.2,1.3-0.8,1.9c-0.5,0.6-1.3,1.2-2.5,1.8l2.1,3.4c0.3-0.4,0.6-0.9,0.8-1.4s0.3-0.9,0.4-1.3h1.5
				c-0.2,0.8-0.4,1.5-0.7,2.1s-0.7,1.2-1.2,1.8l1.6,2.4H614l-0.8-1.4c-0.6,0.5-1.2,0.9-1.8,1.2c-0.6,0.3-1.3,0.4-2,0.4
				c-1.1,0-2-0.3-2.7-1c-0.7-0.6-1-1.5-1-2.5c0-0.9,0.3-1.6,0.9-2.3c0.6-0.6,1.5-1.3,2.9-1.9c-0.4-0.6-0.7-1.2-0.9-1.6
				c-0.2-0.5-0.2-0.9-0.2-1.3c0-0.9,0.3-1.6,0.9-2.1C609.7,397.4,610.5,397.1,611.5,397.1z M609.7,400.2c0,0.3,0.1,0.7,0.2,1
				c0.1,0.3,0.4,0.7,0.6,1.2c0.9-0.5,1.5-0.9,1.8-1.3c0.4-0.4,0.5-0.8,0.5-1.2c0-0.4-0.1-0.8-0.4-1c-0.3-0.2-0.6-0.4-1.1-0.4
				s-0.9,0.2-1.2,0.5C609.9,399.3,609.7,399.7,609.7,400.2z M607.1,407.3c0,0.6,0.2,1,0.7,1.4c0.4,0.4,1,0.6,1.6,0.6
				c0.5,0,1-0.1,1.4-0.3c0.4-0.2,0.9-0.5,1.5-1l-2.4-3.9c-1,0.5-1.7,1-2.2,1.5C607.3,406.1,607.1,406.7,607.1,407.3z"/>
			<path d="M534.4,419.5l2.4,13.3H535l-0.6-4h-5.6l-2.3,4h-2l8-13.3H534.4z M533.1,421.1l-3.6,6.2h4.6L533.1,421.1L533.1,421.1z
				 M544.2,423c1.2,0,2.1,0.4,2.8,1.1s1,1.7,1,2.9c0,1.6-0.5,3-1.5,4.3c-1,1.2-2.3,1.9-3.8,1.9c-0.7,0-1.4-0.1-2-0.4
				s-0.9-0.7-1.1-1.3l0,0l-1,5.2H537l2.8-13.3h1.5l-0.3,1.4l0,0c0.4-0.5,0.8-0.9,1.3-1.2C542.8,423.1,543.4,423,544.2,423z
				 M540.1,429.2c0,0.8,0.2,1.4,0.7,1.8c0.4,0.4,1,0.7,1.8,0.7c1.1,0,2-0.5,2.7-1.4c0.7-1,1.1-2.1,1.1-3.3c0-0.8-0.2-1.5-0.6-1.9
				c-0.4-0.4-1-0.7-1.8-0.7c-1,0-1.9,0.5-2.7,1.5S540.1,428,540.1,429.2z M555.2,423c1.2,0,2.1,0.4,2.8,1.1s1,1.7,1,2.9
				c0,1.6-0.5,3-1.5,4.3c-1,1.2-2.3,1.9-3.8,1.9c-0.7,0-1.4-0.1-2-0.4s-0.9-0.7-1.1-1.3l0,0l-1,5.2H548l2.8-13.3h1.5l-0.3,1.4l0,0
				c0.4-0.5,0.8-0.9,1.3-1.2C553.9,423.1,554.5,423,555.2,423z M551.2,429.2c0,0.8,0.2,1.4,0.7,1.8c0.4,0.4,1,0.7,1.8,0.7
				c1.1,0,2-0.5,2.7-1.4c0.7-1,1.1-2.1,1.1-3.3c0-0.8-0.2-1.5-0.6-1.9c-0.4-0.4-1-0.7-1.8-0.7c-1,0-1.9,0.5-2.7,1.5
				S551.2,428,551.2,429.2z M565.2,423c1.4,0,2.4,0.4,3,1.1c0.7,0.7,1,1.8,1,3.2c0,0.2,0,0.4-0.1,0.7c0,0.3-0.1,0.4-0.1,0.6h-7.2
				c0,0.2,0,0.3,0,0.4s0,0.3,0,0.4c0,0.7,0.2,1.3,0.7,1.7c0.5,0.4,1.1,0.6,1.8,0.6s1.2-0.2,1.7-0.5s0.8-0.8,1.1-1.4h1.6
				c-0.3,1.1-0.8,1.9-1.6,2.4c-0.8,0.6-1.7,0.8-2.8,0.8c-1.3,0-2.3-0.4-3-1.1s-1.1-1.7-1.1-2.8c0-1.8,0.5-3.2,1.4-4.4
				C562.6,423.6,563.8,423,565.2,423z M562.1,427.1h5.6c0-0.1,0-0.1,0-0.1v-0.1c0-0.8-0.2-1.3-0.6-1.8c-0.4-0.4-1-0.7-1.7-0.7
				c-0.8,0-1.4,0.2-2,0.7C562.8,425.5,562.4,426.2,562.1,427.1z M575.2,423c1.2,0,2,0.2,2.6,0.6s0.9,1,0.9,1.8c0,0.2,0,0.4-0.1,0.7
				c0,0.2-0.1,0.5-0.1,0.6l-0.9,3.6c-0.1,0.4-0.1,0.7-0.1,0.8c0,0.2,0,0.3,0.1,0.4s0.2,0.2,0.4,0.2c0.1,0,0.2,0,0.2,0l0.2-0.1
				l-0.2,1.2c-0.1,0.1-0.3,0.1-0.5,0.2s-0.4,0.1-0.5,0.1c-0.4,0-0.7-0.1-0.9-0.3c-0.2-0.2-0.3-0.5-0.3-0.9c0-0.1,0-0.1,0-0.1h-0.1
				c-0.4,0.5-0.8,0.9-1.4,1.1c-0.5,0.2-1.1,0.3-1.9,0.3c-0.9,0-1.6-0.2-2.2-0.7c-0.5-0.5-0.8-1.2-0.8-2c0-0.9,0.3-1.7,1-2.2
				c0.6-0.5,2.1-0.9,4.4-1c0.7-0.1,1.2-0.2,1.5-0.4c0.3-0.2,0.5-0.6,0.5-1.1c0-0.4-0.2-0.7-0.5-0.9c-0.4-0.2-0.8-0.3-1.4-0.3
				c-0.7,0-1.3,0.2-1.8,0.5s-0.8,0.7-0.8,1.3H571c0.1-1,0.6-1.8,1.3-2.3C573.1,423.2,574.1,423,575.2,423z M576.7,427.9
				c-0.4,0.2-1,0.4-1.9,0.5c-1.3,0.1-2.2,0.3-2.7,0.6c-0.5,0.3-0.7,0.7-0.7,1.3c0,0.4,0.2,0.7,0.5,1c0.3,0.2,0.7,0.4,1.2,0.4
				c0.7,0,1.3-0.1,1.7-0.4c0.5-0.3,0.8-0.6,1.1-1C576.2,429.9,576.5,429.1,576.7,427.9L576.7,427.9z M586.5,422.9c0.2,0,0.2,0,0.3,0
				l-0.4,1.7c0,0-0.2,0-0.4,0c-0.7,0-1.3,0.1-1.7,0.3c-0.4,0.2-0.8,0.6-1.2,1c-0.4,0.5-0.7,1.3-1,2.6l-0.9,4.3h-1.6l2-9.6h1.5
				l-0.5,2.1l0,0c0.3-0.5,0.5-0.8,0.9-1.2c0.3-0.3,0.7-0.6,1-0.8c0.2-0.1,0.5-0.2,0.7-0.3c0.2-0.1,0.5-0.1,0.8-0.1
				c0.1,0,0.2,0,0.2,0C586.3,422.9,586.4,422.9,586.5,422.9z M591,423c1.2,0,2,0.2,2.6,0.6s0.9,1,0.9,1.8c0,0.2,0,0.4-0.1,0.7
				c0,0.2-0.1,0.5-0.1,0.6l-0.9,3.6c-0.1,0.4-0.1,0.7-0.1,0.8c0,0.2,0,0.3,0.1,0.4s0.2,0.2,0.4,0.2c0.1,0,0.2,0,0.2,0l0.2-0.1
				l-0.2,1.2c-0.1,0.1-0.3,0.1-0.5,0.2s-0.4,0.1-0.5,0.1c-0.4,0-0.7-0.1-0.9-0.3c-0.2-0.2-0.3-0.5-0.3-0.9c0-0.1,0-0.1,0-0.1h-0.1
				c-0.4,0.5-0.8,0.9-1.4,1.1c-0.5,0.2-1.1,0.3-1.9,0.3c-0.9,0-1.6-0.2-2.2-0.7c-0.5-0.5-0.8-1.2-0.8-2c0-0.9,0.3-1.7,1-2.2
				c0.6-0.5,2.1-0.9,4.4-1c0.7-0.1,1.2-0.2,1.5-0.4c0.3-0.2,0.5-0.6,0.5-1.1c0-0.4-0.2-0.7-0.5-0.9c-0.4-0.2-0.8-0.3-1.4-0.3
				c-0.7,0-1.3,0.2-1.8,0.5s-0.8,0.7-0.8,1.3h-1.6c0.1-1,0.6-1.8,1.3-2.3C589,423.2,589.9,423,591,423z M592.5,427.9
				c-0.4,0.2-1,0.4-1.9,0.5c-1.3,0.1-2.2,0.3-2.7,0.6c-0.5,0.3-0.7,0.7-0.7,1.3c0,0.4,0.2,0.7,0.5,1c0.3,0.2,0.7,0.4,1.2,0.4
				c0.7,0,1.3-0.1,1.7-0.4c0.5-0.3,0.8-0.6,1.1-1C592.1,429.9,592.3,429.1,592.5,427.9L592.5,427.9z M602.2,423c0.9,0,1.6,0.2,2,0.6
				s0.7,1,0.7,1.9c0,0.2,0,0.4,0,0.6s-0.1,0.7-0.2,1.3l-1.2,5.5h-1.6l1.4-6.2c0.1-0.5,0.1-0.8,0.1-0.9c0-0.4-0.2-0.8-0.5-1
				s-0.7-0.4-1.2-0.4c-0.7,0-1.5,0.3-2.2,0.9s-1.1,1.3-1.3,2.2l-1.1,5.4h-1.6l2-9.6h1.5l-0.3,1.5l0,0c0.4-0.5,0.9-0.9,1.5-1.2
				C600.8,423.1,601.5,423,602.2,423z M611.7,423c1.2,0,2,0.3,2.6,0.8c0.6,0.6,0.9,1.4,1,2.4h-1.6c0-0.6-0.2-1-0.5-1.4
				c-0.4-0.3-0.9-0.5-1.5-0.5c-1.1,0-2,0.5-2.7,1.4s-1,2-1,3.2c0,0.9,0.2,1.6,0.6,2c0.4,0.5,1,0.7,1.8,0.7c0.7,0,1.2-0.2,1.7-0.5
				s0.9-0.8,1.1-1.5h1.6c-0.3,1.1-0.8,1.9-1.6,2.5s-1.7,0.9-2.8,0.9c-1.3,0-2.3-0.4-3-1.1s-1-1.8-1-3.1c0-1.7,0.5-3.1,1.5-4.2
				C608.8,423.5,610.1,423,611.7,423z M621.1,423c1.4,0,2.4,0.4,3,1.1c0.7,0.7,1,1.8,1,3.2c0,0.2,0,0.4-0.1,0.7
				c0,0.3-0.1,0.4-0.1,0.6h-7.2c0,0.2,0,0.3,0,0.4s0,0.3,0,0.4c0,0.7,0.2,1.3,0.7,1.7c0.5,0.4,1.1,0.6,1.8,0.6s1.2-0.2,1.7-0.5
				s0.8-0.8,1.1-1.4h1.6c-0.3,1.1-0.8,1.9-1.6,2.4c-0.8,0.6-1.7,0.8-2.8,0.8c-1.3,0-2.3-0.4-3-1.1s-1.1-1.7-1.1-2.8
				c0-1.8,0.5-3.2,1.4-4.4C618.5,423.6,619.7,423,621.1,423z M618,427.1h5.6c0-0.1,0-0.1,0-0.1v-0.1c0-0.8-0.2-1.3-0.6-1.8
				c-0.4-0.4-1-0.7-1.7-0.7c-0.8,0-1.4,0.2-2,0.7C618.7,425.5,618.3,426.2,618,427.1z"/>
			<path class="st5" d="M104,55.1h735v68.8H104V55.1z"/>
			<path d="M120.2,69.7c1.4,0,2.6,0.4,3.5,1.2s1.5,1.9,1.6,3.2h-3c-0.1-0.6-0.4-1.1-0.8-1.4c-0.4-0.4-0.8-0.5-1.3-0.5
				c-0.9,0-1.6,0.4-2.1,1.3s-0.8,2-0.9,3.5l0,0c0.4-0.6,0.9-1.1,1.5-1.3c0.6-0.3,1.3-0.4,2-0.4c0.9,0,1.7,0.2,2.5,0.7
				s1.4,1.1,1.8,1.9c0.4,0.8,0.6,1.6,0.6,2.5c0,1.6-0.5,3-1.6,4.1s-2.4,1.7-4,1.7c-2,0-3.5-0.7-4.6-2.1c-1-1.4-1.5-3.4-1.5-6.1
				c0-2.4,0.5-4.4,1.6-5.9C116.8,70.5,118.3,69.7,120.2,69.7z M117.5,80.6c0,0.8,0.2,1.5,0.7,2.1s1.1,0.9,1.9,0.9
				c0.7,0,1.3-0.3,1.7-0.8c0.5-0.6,0.7-1.3,0.7-2.1c0-0.8-0.2-1.5-0.6-2.1c-0.4-0.6-1-0.9-1.8-0.9s-1.4,0.3-1.8,0.8
				S117.5,79.7,117.5,80.6z M139,73.8c1.7,0,3,0.3,3.9,0.9c0.8,0.6,1.3,1.4,1.3,2.4v6.3c0,0.5,0,0.9,0.1,1.4s0.2,0.8,0.3,1.1h-3.2
				c-0.1-0.2-0.1-0.4-0.2-0.5s-0.1-0.4-0.1-0.6c-0.5,0.5-1,0.8-1.7,1.1s-1.4,0.4-2.2,0.4c-1.2,0-2.2-0.3-2.9-0.9s-1.1-1.5-1.1-2.6
				s0.3-1.9,1-2.5s1.9-1,3.7-1.2c1.2-0.1,2.1-0.3,2.5-0.5s0.6-0.5,0.6-1s-0.2-0.9-0.5-1.2c-0.3-0.3-0.8-0.4-1.6-0.4
				c-0.7,0-1.2,0.1-1.5,0.4s-0.6,0.7-0.6,1.3h-3.2c0.1-1.3,0.6-2.3,1.6-2.9S137.4,73.8,139,73.8z M136.4,82.5c0,0.5,0.2,0.8,0.5,1.1
				c0.3,0.3,0.8,0.4,1.5,0.4c0.9,0,1.5-0.2,1.9-0.7s0.7-1.1,0.7-2v-1.2c-0.2,0.2-0.4,0.3-0.8,0.4c-0.3,0.1-0.9,0.2-1.7,0.3
				c-0.7,0.1-1.3,0.3-1.6,0.6S136.4,82,136.4,82.5z M151.5,73.8c1.6,0,2.8,0.3,3.7,1c0.9,0.6,1.4,1.6,1.5,2.8h-3.1
				c0-0.6-0.2-1-0.6-1.2c-0.4-0.2-0.9-0.4-1.6-0.4c-0.6,0-1.1,0.1-1.3,0.3c-0.3,0.2-0.4,0.4-0.4,0.8s0.2,0.7,0.5,0.9
				c0.4,0.2,1.1,0.5,2.2,0.7c1.8,0.3,3,0.8,3.6,1.3s0.9,1.3,0.9,2.1c0,1.3-0.5,2.3-1.5,3s-2.3,1-3.9,1c-1.6,0-2.9-0.3-3.9-1
				s-1.5-1.7-1.6-3.1h3.1c0,0.6,0.2,1.1,0.7,1.5s1.1,0.5,1.8,0.5c0.6,0,1.1-0.1,1.5-0.4s0.6-0.6,0.6-1.1c0-0.4-0.3-0.7-0.8-1
				s-1.4-0.5-2.8-0.8c-1.3-0.3-2.3-0.6-2.9-1.1c-0.6-0.5-0.9-1.2-0.9-2c0-1.2,0.4-2.2,1.3-2.8C148.6,74.2,149.8,73.8,151.5,73.8z
				 M165.4,73.8c1.7,0,3,0.6,3.9,1.8c0.9,1.2,1.4,2.7,1.4,4.5c0,1.7-0.5,3.2-1.4,4.3c-0.9,1.1-2.2,1.7-3.8,1.7c-0.7,0-1.4-0.2-2-0.5
				s-1.1-0.8-1.5-1.3l0,0v5.6h-3.2V74.1h3v1.5l0,0c0.4-0.6,0.9-1.1,1.5-1.4C164,74,164.7,73.8,165.4,73.8z M161.9,80.1
				c0,1.1,0.2,2,0.7,2.7s1.2,1,2.1,1c0.9,0,1.6-0.3,2-1c0.5-0.6,0.7-1.6,0.7-2.7s-0.2-2-0.7-2.7s-1.2-1.1-2.1-1.1
				c-0.9,0-1.6,0.3-2,1S161.9,78.9,161.9,80.1z M178.1,73.8c1.7,0,3.1,0.6,4.1,1.8c1,1.2,1.6,2.7,1.6,4.6v0.6h-8.5
				c0,1,0.3,1.8,0.8,2.2c0.5,0.5,1.2,0.7,2.1,0.7c0.6,0,1.1-0.1,1.6-0.4s0.8-0.7,1-1.1h2.8c-0.4,1.3-1.1,2.3-2,3s-2.1,1-3.5,1
				c-1.8,0-3.3-0.6-4.4-1.7c-1.1-1.1-1.6-2.6-1.6-4.5c0-1.8,0.6-3.2,1.7-4.4C174.9,74.4,176.3,73.8,178.1,73.8z M175.3,78.8h5.2
				c-0.2-0.9-0.4-1.5-0.8-1.9c-0.4-0.4-1-0.6-1.7-0.6c-0.8,0-1.4,0.2-1.9,0.7C175.7,77.4,175.4,78,175.3,78.8z M191.3,73.8
				c1.5,0,2.8,0.4,3.8,1.2c1,0.8,1.6,1.9,1.7,3.3h-3.2c-0.1-0.7-0.3-1.2-0.7-1.5s-0.9-0.5-1.6-0.5c-0.9,0-1.5,0.4-2,1.1
				s-0.7,1.6-0.7,2.8s0.2,2,0.7,2.7s1.1,1,2,1c0.7,0,1.3-0.2,1.7-0.6s0.7-1,0.8-1.8h3.1c-0.2,1.5-0.8,2.7-1.8,3.6
				c-1,0.8-2.3,1.2-3.8,1.2c-1.7,0-3.2-0.6-4.3-1.7s-1.6-2.6-1.6-4.3c0-1.9,0.5-3.4,1.6-4.6C188,74.4,189.5,73.8,191.3,73.8z
				 M202.8,70.7v3.5h2.4v2.2h-2.4v5.9c0,0.5,0.1,0.8,0.3,1s0.6,0.3,1.1,0.3c0.2,0,0.4,0,0.5,0c0.2,0,0.3,0,0.5-0.1V86
				c-0.3,0.1-0.6,0.1-0.9,0.1c-0.3,0-0.6,0-1,0c-1.4,0-2.4-0.2-2.9-0.7s-0.8-1.1-0.8-2v-7h-2v-2.2h2v-3.5
				C199.6,70.7,202.8,70.7,202.8,70.7z M211.5,73.8c1.6,0,2.8,0.3,3.7,1c0.9,0.6,1.4,1.6,1.5,2.8h-3.1c0-0.6-0.3-1-0.6-1.2
				c-0.4-0.2-0.9-0.4-1.6-0.4c-0.6,0-1.1,0.1-1.3,0.3c-0.3,0.2-0.4,0.4-0.4,0.8s0.2,0.7,0.5,0.9c0.4,0.2,1.1,0.5,2.2,0.7
				c1.8,0.3,3,0.8,3.6,1.3s0.9,1.3,0.9,2.1c0,1.3-0.5,2.3-1.5,3s-2.3,1-3.9,1c-1.6,0-2.9-0.3-3.9-1s-1.5-1.7-1.6-3.1h3.1
				c0,0.6,0.2,1.1,0.7,1.5c0.5,0.3,1.1,0.5,1.8,0.5c0.6,0,1.1-0.1,1.5-0.4s0.6-0.6,0.6-1.1c0-0.4-0.3-0.7-0.8-1s-1.4-0.5-2.8-0.8
				c-1.3-0.3-2.3-0.6-2.9-1.1c-0.6-0.5-0.9-1.2-0.9-2c0-1.2,0.4-2.2,1.3-2.8C208.6,74.2,209.8,73.8,211.5,73.8z M229.2,70.7v3.5h2.4
				v2.2h-2.4v5.9c0,0.5,0.1,0.8,0.3,1s0.6,0.3,1.1,0.3c0.2,0,0.4,0,0.5,0c0.2,0,0.3,0,0.5-0.1V86c-0.3,0.1-0.6,0.1-0.9,0.1
				c-0.3,0-0.6,0-1,0c-1.4,0-2.4-0.2-2.9-0.7s-0.8-1.1-0.8-2v-7h-2v-2.2h2v-3.5C226,70.7,229.2,70.7,229.2,70.7z M236.3,69.7v6.1
				h0.1c0.3-0.6,0.8-1.1,1.4-1.4c0.6-0.4,1.3-0.5,2-0.5c1.5,0,2.6,0.4,3.2,1.1s1,1.9,1,3.6v7.3h-3.2v-6.7c0-0.9-0.2-1.6-0.5-2.1
				s-0.8-0.7-1.6-0.7c-0.9,0-1.5,0.3-1.9,0.8s-0.6,1.3-0.6,2.4v6.2H233V69.7H236.3z M251.9,73.8c1.7,0,3,0.3,3.9,0.9
				c0.8,0.6,1.3,1.4,1.3,2.4v6.3c0,0.5,0,0.9,0.1,1.4s0.2,0.8,0.3,1.1h-3.2c-0.1-0.2-0.1-0.4-0.2-0.5S254,85,254,84.8
				c-0.5,0.5-1,0.8-1.7,1.1s-1.4,0.4-2.2,0.4c-1.2,0-2.2-0.3-2.9-0.9c-0.7-0.6-1.1-1.5-1.1-2.6s0.3-1.9,1-2.5s1.9-1,3.7-1.2
				c1.3-0.1,2.1-0.3,2.5-0.5s0.6-0.5,0.6-1s-0.2-0.9-0.5-1.2c-0.3-0.3-0.8-0.4-1.6-0.4c-0.7,0-1.2,0.1-1.5,0.4s-0.6,0.7-0.6,1.3
				h-3.2c0.1-1.3,0.6-2.3,1.6-2.9C249,74.2,250.3,73.8,251.9,73.8z M249.3,82.5c0,0.5,0.2,0.8,0.5,1.1c0.3,0.3,0.8,0.4,1.5,0.4
				c0.9,0,1.5-0.2,1.9-0.7c0.4-0.4,0.7-1.1,0.7-2v-1.2c-0.2,0.2-0.4,0.3-0.8,0.4c-0.3,0.1-0.9,0.2-1.7,0.3c-0.7,0.1-1.3,0.3-1.6,0.6
				C249.4,81.6,249.3,82,249.3,82.5z M263.6,70.7v3.5h2.4v2.2h-2.4v5.9c0,0.5,0.1,0.8,0.3,1c0.2,0.2,0.6,0.3,1.1,0.3
				c0.2,0,0.4,0,0.5,0c0.2,0,0.3,0,0.5-0.1V86c-0.3,0.1-0.6,0.1-0.9,0.1s-0.6,0-1,0c-1.4,0-2.4-0.2-2.9-0.7s-0.8-1.1-0.8-2v-7h-2
				v-2.2h2v-3.5C260.4,70.7,263.6,70.7,263.6,70.7z M278.5,73.8c0.9,0,1.6,0.2,2.1,0.5c0.6,0.3,1,0.8,1.4,1.4l0,0v-1.6h3.1v11.1
				c0,1.6-0.5,2.8-1.5,3.7c-1,0.9-2.5,1.4-4.6,1.4c-1.4,0-2.6-0.3-3.5-1c-1-0.7-1.5-1.6-1.6-2.8h3.2c0.1,0.6,0.4,1,0.8,1.2
				c0.4,0.3,0.9,0.4,1.6,0.4c0.8,0,1.5-0.2,1.9-0.8s0.7-1.2,0.7-2.1v-1.6l0,0c-0.3,0.6-0.8,1-1.4,1.3s-1.3,0.5-2.1,0.5
				c-1.6,0-2.8-0.5-3.7-1.6c-0.9-1.1-1.3-2.5-1.3-4.3c0-1.6,0.5-3,1.4-4.1C275.8,74.4,277,73.8,278.5,73.8z M276.7,79.6
				c0,1.1,0.2,2,0.7,2.6s1.1,0.9,1.9,0.9s1.5-0.3,2-0.9s0.7-1.4,0.7-2.3c0-1.1-0.2-2-0.7-2.7c-0.5-0.6-1.1-0.9-2-0.9
				c-0.8,0-1.4,0.3-1.9,0.9C276.9,77.8,276.7,78.6,276.7,79.6z M293.4,73.8c1.8,0,3.3,0.6,4.4,1.7s1.7,2.6,1.7,4.5s-0.6,3.4-1.7,4.5
				s-2.6,1.7-4.4,1.7s-3.3-0.6-4.4-1.7s-1.7-2.6-1.7-4.5s0.5-3.3,1.6-4.5S291.5,73.8,293.4,73.8z M290.5,80c0,1.2,0.2,2.2,0.8,2.8
				c0.5,0.6,1.2,0.9,2.1,0.9s1.6-0.3,2.1-1s0.8-1.6,0.8-2.8c0-1.2-0.2-2.1-0.7-2.8c-0.5-0.7-1.2-1-2.2-1c-0.9,0-1.6,0.3-2.1,0.9
				C290.8,77.8,290.5,78.8,290.5,80z M303.8,74.2l2.5,8l0,0l2.5-8h3.2l-4,11.7h-3.6l-4-11.7H303.8z M318.7,73.8
				c1.7,0,3.1,0.6,4.1,1.8c1,1.2,1.6,2.7,1.6,4.6v0.6h-8.5c0,1,0.3,1.8,0.8,2.2c0.5,0.5,1.2,0.7,2.1,0.7c0.6,0,1.1-0.1,1.6-0.4
				s0.8-0.7,1-1.1h2.8c-0.4,1.3-1.1,2.3-2,3s-2.1,1-3.5,1c-1.8,0-3.3-0.6-4.4-1.7s-1.6-2.6-1.6-4.5c0-1.8,0.6-3.2,1.7-4.4
				C315.5,74.4,316.9,73.8,318.7,73.8z M315.9,78.8h5.2c-0.2-0.9-0.4-1.5-0.8-1.9s-1-0.6-1.7-0.6c-0.8,0-1.4,0.2-1.9,0.7
				C316.3,77.4,316,78,315.9,78.8z M333.1,73.8c0.1,0,0.3,0,0.4,0s0.2,0,0.3,0.1v3c-0.2,0-0.4-0.1-0.5-0.1c-0.2,0-0.4,0-0.6,0
				c-1.1,0-1.9,0.3-2.4,1s-0.8,1.5-0.8,2.7v5.4h-3.2V74.2h3v2.2l0,0c0.3-0.8,0.8-1.4,1.5-1.8C331.6,74.1,332.3,73.8,333.1,73.8z
				 M341.8,73.8c1.5,0,2.6,0.4,3.3,1.1s1,1.9,1,3.6v7.3h-3.2v-6.7c0-0.9-0.2-1.6-0.5-2.1s-0.8-0.7-1.6-0.7c-0.9,0-1.5,0.3-1.9,0.8
				s-0.6,1.3-0.6,2.4v6.2h-3.2V74h3v1.6h0.1c0.4-0.6,0.9-1.1,1.5-1.4C340.4,74,341.1,73.8,341.8,73.8z M358,69.7v6.1h0.1
				c0.3-0.6,0.8-1.1,1.4-1.4c0.6-0.4,1.3-0.5,2-0.5c1.5,0,2.6,0.4,3.2,1.1c0.7,0.8,1,1.9,1,3.6v7.3h-3.2v-6.7c0-0.9-0.2-1.6-0.5-2.1
				s-0.8-0.7-1.6-0.7c-0.9,0-1.5,0.3-1.9,0.8s-0.6,1.3-0.6,2.4v6.2h-3.2V69.7H358z M374,73.8c1.8,0,3.3,0.6,4.4,1.7s1.7,2.6,1.7,4.5
				s-0.6,3.4-1.7,4.5s-2.6,1.7-4.4,1.7s-3.3-0.6-4.4-1.7s-1.7-2.6-1.7-4.5s0.5-3.3,1.6-4.5S372.1,73.8,374,73.8z M371.1,80
				c0,1.2,0.2,2.2,0.8,2.8c0.5,0.6,1.2,0.9,2.1,0.9s1.6-0.3,2.1-1s0.8-1.6,0.8-2.8c0-1.2-0.2-2.1-0.7-2.8c-0.5-0.7-1.2-1-2.2-1
				c-0.9,0-1.6,0.3-2.1,0.9C371.4,77.8,371.1,78.8,371.1,80z M384.4,74.2l2.2,8l0,0l1.9-8h3.1l2,7.9l0,0l2.2-7.9h3.3l-3.7,11.7h-3.3
				L390,78l0,0l-2,7.9h-3.3L381,74.2H384.4z M412.5,73.8c1.5,0,2.8,0.4,3.8,1.2c1,0.8,1.6,1.9,1.7,3.3h-3.2
				c-0.1-0.7-0.3-1.2-0.7-1.5c-0.4-0.3-0.9-0.5-1.6-0.5c-0.9,0-1.5,0.4-2,1.1s-0.7,1.6-0.7,2.8s0.2,2,0.7,2.7s1.1,1,2,1
				c0.7,0,1.3-0.2,1.7-0.6c0.4-0.4,0.7-1,0.8-1.8h3.1c-0.2,1.5-0.8,2.7-1.8,3.6c-1,0.8-2.3,1.2-3.8,1.2c-1.7,0-3.2-0.6-4.3-1.7
				c-1.1-1.1-1.6-2.6-1.6-4.3c0-1.9,0.5-3.4,1.6-4.6C409.2,74.4,410.6,73.8,412.5,73.8z M425.5,73.8c1.8,0,3.3,0.6,4.4,1.7
				s1.7,2.6,1.7,4.5s-0.6,3.4-1.7,4.5s-2.6,1.7-4.4,1.7s-3.3-0.6-4.4-1.7s-1.7-2.6-1.7-4.5s0.5-3.3,1.6-4.5S423.7,73.8,425.5,73.8z
				 M422.7,80c0,1.2,0.2,2.2,0.8,2.8c0.5,0.6,1.2,0.9,2.1,0.9s1.6-0.3,2.1-1s0.8-1.6,0.8-2.8c0-1.2-0.2-2.1-0.7-2.8
				c-0.5-0.7-1.2-1-2.2-1c-0.9,0-1.6,0.3-2.1,0.9C423,77.8,422.7,78.8,422.7,80z M440.4,73.8c0.9,0,1.6,0.2,2.2,0.5s1,0.8,1.3,1.4
				c0.4-0.6,1-1.1,1.6-1.4s1.3-0.5,2-0.5c1.4,0,2.5,0.4,3.2,1.1s1.1,1.7,1.1,3v7.9h-3.2V79c0-1.1-0.2-1.8-0.5-2.2
				c-0.3-0.4-0.8-0.6-1.5-0.6s-1.3,0.2-1.6,0.7c-0.4,0.5-0.5,1.2-0.5,2.1v6.6h-3.2v-7.2c0-0.8-0.2-1.3-0.5-1.7
				c-0.3-0.4-0.8-0.6-1.5-0.6c-0.6,0-1.1,0.2-1.6,0.7c-0.4,0.5-0.6,1.1-0.6,1.9v6.9h-3.2V73.9h3v1.6l0,0c0.5-0.6,1-1.1,1.6-1.4
				C439,74,439.7,73.8,440.4,73.8z M458.8,69.7c0.2,0,0.5,0,0.9,0s0.7,0,0.8,0.1v2.4c-0.2,0-0.4,0-0.6,0s-0.4,0-0.5,0
				c-0.5,0-0.8,0.1-1,0.3c-0.2,0.2-0.3,0.6-0.3,1.2v0.5h2.2v2.2h-2.2V86h-3.2v-9.6H453v-2.2h1.9v-0.8c0-1.2,0.3-2.1,1-2.7
				C456.7,70,457.6,69.7,458.8,69.7z M467.5,73.8c1.8,0,3.3,0.6,4.4,1.7s1.7,2.6,1.7,4.5s-0.6,3.4-1.7,4.5s-2.6,1.7-4.4,1.7
				s-3.3-0.6-4.4-1.7s-1.7-2.6-1.7-4.5s0.5-3.3,1.6-4.5S465.6,73.8,467.5,73.8z M464.6,80c0,1.2,0.2,2.2,0.8,2.8
				c0.5,0.6,1.2,0.9,2.1,0.9s1.6-0.3,2.1-1s0.8-1.6,0.8-2.8c0-1.2-0.2-2.1-0.7-2.8c-0.5-0.7-1.2-1-2.2-1c-0.9,0-1.6,0.3-2.1,0.9
				C464.9,77.8,464.6,78.8,464.6,80z M482.4,73.8c0.1,0,0.3,0,0.4,0s0.2,0,0.3,0.1v3c-0.2,0-0.4-0.1-0.5-0.1c-0.2,0-0.4,0-0.6,0
				c-1.1,0-1.9,0.3-2.4,1s-0.8,1.5-0.8,2.7v5.4h-3.2V74.2h3v2.2l0,0c0.3-0.8,0.8-1.4,1.5-1.8C480.9,74.1,481.6,73.8,482.4,73.8z
				 M488.6,70.7v3.5h2.4v2.2h-2.4v5.9c0,0.5,0.1,0.8,0.3,1c0.2,0.2,0.6,0.3,1.1,0.3c0.2,0,0.4,0,0.5,0c0.2,0,0.3,0,0.5-0.1V86
				c-0.3,0.1-0.6,0.1-0.9,0.1s-0.6,0-1,0c-1.4,0-2.4-0.2-2.9-0.7s-0.8-1.1-0.8-2v-7h-2v-2.2h2v-3.5
				C485.4,70.7,488.6,70.7,488.6,70.7z M497.8,73.8c1.7,0,3,0.3,3.9,0.9c0.8,0.6,1.3,1.4,1.3,2.4v6.3c0,0.5,0,0.9,0.1,1.4
				s0.2,0.8,0.3,1.1h-3.2c-0.1-0.2-0.1-0.4-0.2-0.5c0-0.2-0.1-0.4-0.1-0.6c-0.5,0.5-1,0.8-1.7,1.1c-0.7,0.2-1.4,0.4-2.2,0.4
				c-1.2,0-2.2-0.3-2.9-0.9c-0.7-0.6-1.1-1.5-1.1-2.6s0.3-1.9,1-2.5s1.9-1,3.7-1.2c1.2-0.1,2.1-0.3,2.5-0.5s0.6-0.5,0.6-1
				s-0.2-0.9-0.5-1.2c-0.3-0.3-0.8-0.4-1.6-0.4c-0.7,0-1.2,0.1-1.5,0.4c-0.4,0.3-0.6,0.7-0.6,1.3h-3.2c0.1-1.3,0.6-2.3,1.6-2.9
				S496.2,73.8,497.8,73.8z M495.2,82.5c0,0.5,0.2,0.8,0.5,1.1c0.3,0.3,0.8,0.4,1.5,0.4c0.9,0,1.5-0.2,1.9-0.7s0.7-1.1,0.7-2v-1.2
				c-0.2,0.2-0.4,0.3-0.8,0.4c-0.3,0.1-0.9,0.2-1.7,0.3c-0.7,0.1-1.3,0.3-1.6,0.6S495.2,82,495.2,82.5z M508.7,69.7v5.9l0,0
				c0.4-0.5,0.9-1,1.5-1.3s1.4-0.5,2.2-0.5c1.4,0,2.5,0.6,3.5,1.7c0.9,1.1,1.4,2.6,1.4,4.5s-0.5,3.4-1.4,4.5s-2.1,1.7-3.5,1.7
				c-0.9,0-1.8-0.2-2.4-0.5c-0.6-0.3-1.1-0.8-1.4-1.4l0,0v1.5h-3V69.7H508.7z M508.6,80c0,1.1,0.2,2,0.7,2.7s1.2,1,2,1s1.5-0.3,2-1
				s0.8-1.6,0.8-2.7s-0.2-2-0.7-2.7s-1.2-1-2-1s-1.5,0.3-2,1C508.8,78,508.6,78.9,508.6,80z M522.6,69.7v16.2h-3.2V69.7H522.6z
				 M530.6,73.8c1.7,0,3.1,0.6,4.1,1.8c1,1.2,1.6,2.7,1.6,4.6v0.6h-8.5c0,1,0.3,1.8,0.8,2.2c0.5,0.5,1.2,0.7,2.1,0.7
				c0.6,0,1.1-0.1,1.6-0.4s0.8-0.7,1-1.1h2.8c-0.4,1.3-1.1,2.3-2,3s-2.1,1-3.5,1c-1.8,0-3.3-0.6-4.4-1.7c-1.1-1.1-1.6-2.6-1.6-4.5
				c0-1.8,0.6-3.2,1.7-4.4S528.8,73.8,530.6,73.8z M527.8,78.8h5.2c-0.2-0.9-0.4-1.5-0.8-1.9c-0.4-0.4-1-0.6-1.7-0.6
				c-0.8,0-1.4,0.2-1.9,0.7C528.1,77.4,527.9,78,527.8,78.8z M551.1,73.8c1.7,0,3,0.6,3.9,1.8c0.9,1.2,1.4,2.7,1.4,4.5
				c0,1.7-0.5,3.2-1.4,4.3c-0.9,1.1-2.2,1.7-3.8,1.7c-0.7,0-1.4-0.2-2-0.5s-1.1-0.8-1.5-1.3l0,0v5.6h-3.2V74.1h3v1.5l0,0
				c0.4-0.6,0.9-1.1,1.5-1.4C549.6,74,550.3,73.8,551.1,73.8z M547.6,80.1c0,1.1,0.2,2,0.7,2.7s1.2,1,2.1,1c0.9,0,1.6-0.3,2-1
				c0.5-0.6,0.7-1.6,0.7-2.7s-0.2-2-0.7-2.7s-1.2-1.1-2.1-1.1c-0.9,0-1.6,0.3-2,1C547.8,77.9,547.6,78.9,547.6,80.1z M563.7,73.8
				c1.7,0,3.1,0.6,4.1,1.8c1,1.2,1.6,2.7,1.6,4.6v0.6h-8.5c0,1,0.3,1.8,0.8,2.2c0.5,0.5,1.2,0.7,2.1,0.7c0.6,0,1.1-0.1,1.6-0.4
				s0.8-0.7,1-1.1h2.8c-0.4,1.3-1.1,2.3-2,3s-2.1,1-3.5,1c-1.8,0-3.3-0.6-4.4-1.7c-1.1-1.1-1.6-2.6-1.6-4.5c0-1.8,0.6-3.2,1.7-4.4
				C560.5,74.4,561.9,73.8,563.7,73.8z M560.9,78.8h5.2c-0.2-0.9-0.4-1.5-0.8-1.9c-0.4-0.4-1-0.6-1.7-0.6c-0.8,0-1.4,0.2-1.9,0.7
				C561.3,77.4,561,78,560.9,78.8z M577,73.8c1.8,0,3.3,0.6,4.4,1.7c1.1,1.1,1.7,2.6,1.7,4.5s-0.6,3.4-1.7,4.5
				c-1.1,1.1-2.6,1.7-4.4,1.7c-1.8,0-3.3-0.6-4.4-1.7c-1.1-1.1-1.7-2.6-1.7-4.5s0.5-3.3,1.6-4.5S575.1,73.8,577,73.8z M574.2,80
				c0,1.2,0.2,2.2,0.8,2.8c0.5,0.6,1.2,0.9,2.1,0.9c0.9,0,1.6-0.3,2.1-1s0.8-1.6,0.8-2.8c0-1.2-0.2-2.1-0.7-2.8
				c-0.5-0.7-1.2-1-2.2-1c-0.9,0-1.6,0.3-2.1,0.9C574.4,77.8,574.2,78.8,574.2,80z M591.7,73.8c1.7,0,3,0.6,3.9,1.8
				c0.9,1.2,1.4,2.7,1.4,4.5c0,1.7-0.5,3.2-1.4,4.3c-0.9,1.1-2.2,1.7-3.8,1.7c-0.7,0-1.4-0.2-2-0.5s-1.1-0.8-1.5-1.3l0,0v5.6h-3.2
				V74.1h3v1.5l0,0c0.4-0.6,0.9-1.1,1.5-1.4C590.3,74,591,73.8,591.7,73.8z M588.2,80.1c0,1.1,0.2,2,0.7,2.7s1.2,1,2.1,1
				c0.9,0,1.6-0.3,2-1c0.5-0.6,0.7-1.6,0.7-2.7s-0.2-2-0.7-2.7s-1.2-1.1-2.1-1.1c-0.9,0-1.6,0.3-2,1
				C588.5,77.9,588.2,78.9,588.2,80.1z M602.3,69.7v16.2h-3.2V69.7H602.3z M610.2,73.8c1.7,0,3.1,0.6,4.1,1.8c1,1.2,1.6,2.7,1.6,4.6
				v0.6h-8.5c0,1,0.3,1.8,0.8,2.2c0.5,0.5,1.2,0.7,2.1,0.7c0.6,0,1.1-0.1,1.6-0.4s0.8-0.7,1-1.1h2.8c-0.4,1.3-1.1,2.3-2,3
				s-2.1,1-3.5,1c-1.8,0-3.3-0.6-4.4-1.7c-1.1-1.1-1.6-2.6-1.6-4.5c0-1.8,0.6-3.2,1.7-4.4C607,74.4,608.5,73.8,610.2,73.8z
				 M607.5,78.8h5.2c-0.2-0.9-0.4-1.5-0.8-1.9c-0.4-0.4-1-0.6-1.7-0.6c-0.8,0-1.4,0.2-1.9,0.7C607.8,77.4,607.5,78,607.5,78.8z
				 M629.5,73.8c1.7,0,3,0.3,3.9,0.9c0.8,0.6,1.3,1.4,1.3,2.4v6.3c0,0.5,0,0.9,0.1,1.4s0.2,0.8,0.3,1.1h-3.2
				c-0.1-0.2-0.1-0.4-0.2-0.5s-0.1-0.4-0.1-0.6c-0.5,0.5-1,0.8-1.7,1.1s-1.4,0.4-2.2,0.4c-1.2,0-2.2-0.3-2.9-0.9s-1.1-1.5-1.1-2.6
				s0.3-1.9,1-2.5s1.9-1,3.7-1.2c1.2-0.1,2.1-0.3,2.5-0.5s0.6-0.5,0.6-1s-0.2-0.9-0.5-1.2c-0.3-0.3-0.8-0.4-1.6-0.4
				c-0.7,0-1.2,0.1-1.5,0.4s-0.6,0.7-0.6,1.3H624c0.1-1.3,0.6-2.3,1.6-2.9S627.9,73.8,629.5,73.8z M626.8,82.5
				c0,0.5,0.2,0.8,0.5,1.1c0.3,0.3,0.8,0.4,1.5,0.4c0.9,0,1.5-0.2,1.9-0.7s0.7-1.1,0.7-2v-1.2c-0.2,0.2-0.4,0.3-0.8,0.4
				c-0.3,0.1-0.9,0.2-1.7,0.3c-0.7,0.1-1.3,0.3-1.6,0.6S626.8,82,626.8,82.5z M644,73.8c0.1,0,0.3,0,0.4,0c0.1,0,0.2,0,0.3,0.1v3
				c-0.2,0-0.4-0.1-0.5-0.1c-0.2,0-0.4,0-0.6,0c-1.1,0-1.9,0.3-2.4,1s-0.8,1.5-0.8,2.7v5.4h-3.2V74.2h3v2.2l0,0
				c0.3-0.8,0.8-1.4,1.5-1.8S643.2,73.8,644,73.8z M651.2,73.8c1.7,0,3.1,0.6,4.1,1.8c1,1.2,1.6,2.7,1.6,4.6v0.6h-8.5
				c0,1,0.3,1.8,0.8,2.2c0.5,0.5,1.2,0.7,2.1,0.7c0.6,0,1.1-0.1,1.6-0.4s0.8-0.7,1-1.1h2.8c-0.4,1.3-1.1,2.3-2,3s-2.1,1-3.5,1
				c-1.8,0-3.3-0.6-4.4-1.7c-1.1-1.1-1.6-2.6-1.6-4.5c0-1.8,0.6-3.2,1.7-4.4S649.4,73.8,651.2,73.8z M648.4,78.8h5.2
				c-0.2-0.9-0.4-1.5-0.8-1.9c-0.4-0.4-1-0.6-1.7-0.6c-0.8,0-1.4,0.2-1.9,0.7C648.8,77.4,648.5,78,648.4,78.8z M667.4,74.2l2.2,8
				l0,0l1.9-8h3.1l2,7.9l0,0l2.2-7.9h3.3l-3.7,11.7h-3.3L673,78l0,0l-2,7.9h-3.3L664,74.2H667.4z M686.8,69.7v2.6h-3.2v-2.6H686.8z
				 M686.8,74.2v11.7h-3.2V74.2H686.8z M693.4,70.7v3.5h2.4v2.2h-2.4v5.9c0,0.5,0.1,0.8,0.3,1s0.6,0.3,1.1,0.3c0.2,0,0.4,0,0.5,0
				s0.3,0,0.5-0.1V86c-0.3,0.1-0.6,0.1-0.9,0.1c-0.3,0-0.6,0-1,0c-1.4,0-2.4-0.2-2.9-0.7s-0.8-1.1-0.8-2v-7h-2v-2.2h2v-3.5
				C690.2,70.7,693.4,70.7,693.4,70.7z M700.5,69.7v6.1h0.1c0.3-0.6,0.8-1.1,1.4-1.4c0.6-0.4,1.3-0.5,2-0.5c1.5,0,2.6,0.4,3.2,1.1
				c0.7,0.8,1,1.9,1,3.6v7.3H705v-6.7c0-0.9-0.2-1.6-0.5-2.1s-0.8-0.7-1.6-0.7c-0.9,0-1.5,0.3-1.9,0.8s-0.6,1.3-0.6,2.4v6.2h-3.2
				V69.7H700.5z M728.5,69.7v16.2h-3.1v-1.5l0,0c-0.3,0.6-0.8,1.1-1.4,1.4c-0.6,0.3-1.3,0.5-2.1,0.5c-1.6,0-2.9-0.6-3.8-1.8
				c-0.9-1.2-1.4-2.7-1.4-4.5c0-1.7,0.5-3.2,1.4-4.3c0.9-1.2,2.2-1.7,3.8-1.7c0.7,0,1.4,0.2,2,0.5s1.1,0.7,1.5,1.3l0,0v-5.9h3.1
				V69.7z M719.8,80c0,1.1,0.3,2,0.8,2.7s1.2,1.1,2.1,1.1c0.9,0,1.6-0.3,2-1c0.5-0.7,0.7-1.6,0.7-2.8c0-1.1-0.2-2-0.7-2.7
				s-1.1-1-2.1-1c-0.9,0-1.6,0.3-2.1,1C720,77.9,719.8,78.9,719.8,80z M736.3,73.8c1.7,0,3.1,0.6,4.1,1.8c1,1.2,1.6,2.7,1.6,4.6v0.6
				h-8.5c0,1,0.3,1.8,0.8,2.2c0.5,0.5,1.2,0.7,2.1,0.7c0.6,0,1.1-0.1,1.6-0.4s0.8-0.7,1-1.1h2.8c-0.4,1.3-1.1,2.3-2,3s-2.1,1-3.5,1
				c-1.8,0-3.3-0.6-4.4-1.7c-1.1-1.1-1.6-2.6-1.6-4.5c0-1.8,0.6-3.2,1.7-4.4C733.1,74.4,734.6,73.8,736.3,73.8z M733.5,78.8h5.2
				c-0.2-0.9-0.4-1.5-0.8-1.9c-0.4-0.4-1-0.6-1.7-0.6c-0.8,0-1.4,0.2-1.9,0.7C733.9,77.4,733.6,78,733.5,78.8z M747.2,69.7v16.2H744
				V69.7H747.2z M755.2,73.8c1.7,0,3.1,0.6,4.1,1.8c1,1.2,1.6,2.7,1.6,4.6v0.6h-8.5c0,1,0.3,1.8,0.8,2.2c0.5,0.5,1.2,0.7,2.1,0.7
				c0.6,0,1.1-0.1,1.6-0.4s0.8-0.7,1-1.1h2.8c-0.4,1.3-1.1,2.3-2,3s-2.1,1-3.5,1c-1.8,0-3.3-0.6-4.4-1.7c-1.1-1.1-1.6-2.6-1.6-4.5
				c0-1.8,0.6-3.2,1.7-4.4S753.4,73.8,755.2,73.8z M752.4,78.8h5.2c-0.2-0.9-0.4-1.5-0.8-1.9c-0.4-0.4-1-0.6-1.7-0.6
				c-0.8,0-1.4,0.2-1.9,0.7C752.7,77.4,752.5,78,752.4,78.8z M767.4,73.8c0.9,0,1.6,0.2,2.1,0.5c0.6,0.3,1,0.8,1.4,1.4l0,0v-1.6h3.1
				v11.1c0,1.6-0.5,2.8-1.5,3.7c-1,0.9-2.5,1.4-4.6,1.4c-1.4,0-2.6-0.3-3.5-1c-1-0.7-1.5-1.6-1.6-2.8h3.2c0.1,0.6,0.4,1,0.8,1.2
				c0.4,0.3,0.9,0.4,1.6,0.4c0.8,0,1.5-0.2,1.9-0.8c0.4-0.5,0.7-1.2,0.7-2.1v-1.6l0,0c-0.3,0.6-0.8,1-1.4,1.3
				c-0.6,0.3-1.3,0.5-2.1,0.5c-1.6,0-2.8-0.5-3.7-1.6s-1.3-2.5-1.3-4.3c0-1.6,0.5-3,1.4-4.1C764.7,74.4,765.9,73.8,767.4,73.8z
				 M765.6,79.6c0,1.1,0.2,2,0.7,2.6s1.1,0.9,1.9,0.9c0.8,0,1.5-0.3,2-0.9s0.7-1.4,0.7-2.3c0-1.1-0.2-2-0.7-2.7
				c-0.5-0.6-1.1-0.9-2-0.9c-0.8,0-1.4,0.3-1.9,0.9C765.8,77.8,765.6,78.6,765.6,79.6z M782,73.8c1.7,0,3,0.3,3.9,0.9
				c0.8,0.6,1.3,1.4,1.3,2.4v6.3c0,0.5,0,0.9,0.1,1.4s0.2,0.8,0.3,1.1h-3.2c-0.1-0.2-0.1-0.4-0.2-0.5c0-0.2-0.1-0.4-0.1-0.6
				c-0.5,0.5-1,0.8-1.7,1.1c-0.7,0.2-1.4,0.4-2.2,0.4c-1.2,0-2.2-0.3-2.9-0.9s-1.1-1.5-1.1-2.6s0.3-1.9,1-2.5s1.9-1,3.7-1.2
				c1.3-0.1,2.1-0.3,2.5-0.5s0.6-0.5,0.6-1s-0.2-0.9-0.5-1.2c-0.3-0.3-0.8-0.4-1.6-0.4c-0.7,0-1.2,0.1-1.5,0.4
				c-0.4,0.3-0.6,0.7-0.6,1.3h-3.2c0.1-1.3,0.6-2.3,1.6-2.9C779,74.2,780.3,73.8,782,73.8z M779.3,82.5c0,0.5,0.2,0.8,0.5,1.1
				c0.3,0.3,0.8,0.4,1.5,0.4c0.9,0,1.5-0.2,1.9-0.7c0.4-0.4,0.7-1.1,0.7-2v-1.2c-0.2,0.2-0.4,0.3-0.8,0.4c-0.3,0.1-0.9,0.2-1.7,0.3
				c-0.7,0.1-1.3,0.3-1.6,0.6C779.5,81.6,779.3,82,779.3,82.5z M793.7,70.7v3.5h2.4v2.2h-2.4v5.9c0,0.5,0.1,0.8,0.3,1
				s0.6,0.3,1.1,0.3c0.2,0,0.4,0,0.5,0s0.3,0,0.5-0.1V86c-0.3,0.1-0.6,0.1-0.9,0.1c-0.3,0-0.6,0-1,0c-1.4,0-2.4-0.2-2.9-0.7
				s-0.8-1.1-0.8-2v-7h-2v-2.2h2v-3.5C790.5,70.7,793.7,70.7,793.7,70.7z M800.9,69.7v2.6h-3.2v-2.6H800.9z M800.9,74.2v11.7h-3.2
				V74.2H800.9z M810.1,73.8c1.5,0,2.6,0.4,3.3,1.1s1,1.9,1,3.6v7.3h-3.2v-6.7c0-0.9-0.2-1.6-0.5-2.1s-0.8-0.7-1.6-0.7
				c-0.9,0-1.5,0.3-1.9,0.8s-0.6,1.3-0.6,2.4v6.2h-3.2V74h3v1.6h0.1c0.4-0.6,0.9-1.1,1.5-1.4C808.7,74,809.4,73.8,810.1,73.8z
				 M821.5,73.8c0.9,0,1.6,0.2,2.1,0.5c0.6,0.3,1,0.8,1.4,1.4l0,0v-1.6h3.1v11.1c0,1.6-0.5,2.8-1.5,3.7c-1,0.9-2.5,1.4-4.6,1.4
				c-1.4,0-2.6-0.3-3.5-1c-1-0.7-1.5-1.6-1.6-2.8h3.2c0.1,0.6,0.4,1,0.8,1.2c0.4,0.3,0.9,0.4,1.6,0.4c0.8,0,1.5-0.2,1.9-0.8
				c0.4-0.5,0.7-1.2,0.7-2.1v-1.6l0,0c-0.3,0.6-0.8,1-1.4,1.3c-0.6,0.3-1.3,0.5-2.1,0.5c-1.6,0-2.8-0.5-3.7-1.6s-1.3-2.5-1.3-4.3
				c0-1.6,0.5-3,1.4-4.1C818.8,74.4,820,73.8,821.5,73.8z M819.7,79.6c0,1.1,0.2,2,0.7,2.6s1.1,0.9,1.9,0.9c0.8,0,1.5-0.3,2-0.9
				s0.7-1.4,0.7-2.3c0-1.1-0.2-2-0.7-2.7c-0.5-0.6-1.1-0.9-2-0.9c-0.8,0-1.4,0.3-1.9,0.9C819.9,77.8,819.7,78.6,819.7,79.6z"/>
			<path d="M200.4,97.9v3.5h2.4v2.2h-2.4v5.9c0,0.5,0.1,0.8,0.3,1s0.6,0.3,1.1,0.3c0.2,0,0.4,0,0.5,0c0.2,0,0.3,0,0.5-0.1v2.5
				c-0.3,0.1-0.6,0.1-0.9,0.1c-0.3,0-0.6,0-1,0c-1.4,0-2.4-0.2-2.9-0.7s-0.8-1.1-0.8-2v-7h-2v-2.2h2v-3.5H200.4z M207.5,96.9v6.1
				h0.1c0.3-0.6,0.8-1.1,1.4-1.4c0.6-0.4,1.3-0.5,2-0.5c1.5,0,2.6,0.4,3.2,1.1c0.7,0.8,1,1.9,1,3.6v7.3H212v-6.7
				c0-0.9-0.2-1.6-0.5-2.1s-0.8-0.7-1.6-0.7c-0.9,0-1.5,0.3-1.9,0.8s-0.6,1.3-0.6,2.4v6.2h-3.2V96.8h3.3V96.9z M223.1,101
				c1.7,0,3.1,0.6,4.1,1.8s1.6,2.7,1.6,4.6v0.6h-8.5c0,1,0.3,1.8,0.8,2.2c0.5,0.5,1.2,0.7,2.1,0.7c0.6,0,1.1-0.1,1.6-0.4
				c0.5-0.3,0.8-0.7,1-1.1h2.8c-0.4,1.3-1.1,2.3-2,3s-2.1,1-3.5,1c-1.8,0-3.3-0.6-4.4-1.7c-1.1-1.1-1.6-2.6-1.6-4.5
				c0-1.8,0.6-3.2,1.7-4.4C219.9,101.6,221.4,101,223.1,101z M220.4,106h5.2c-0.2-0.9-0.4-1.5-0.8-1.9c-0.4-0.4-1-0.6-1.7-0.6
				c-0.8,0-1.4,0.2-1.9,0.7C220.7,104.6,220.4,105.2,220.4,106z M234,96.9v2.6h-3.2v-2.6C230.8,96.9,234,96.9,234,96.9z M234,101.4
				v11.7h-3.2v-11.7H234z M243.4,101c0.1,0,0.3,0,0.4,0c0.1,0,0.2,0,0.3,0.1v3c-0.2,0-0.4-0.1-0.5-0.1c-0.2,0-0.4,0-0.6,0
				c-1.1,0-1.9,0.3-2.4,1s-0.8,1.5-0.8,2.7v5.4h-3.2v-11.7h3v2.2l0,0c0.3-0.8,0.8-1.4,1.5-1.8C241.9,101.3,242.6,101,243.4,101z
				 M257.1,101c1.7,0,3,0.3,3.9,0.9c0.8,0.6,1.3,1.4,1.3,2.4v6.3c0,0.5,0,0.9,0.1,1.4s0.2,0.8,0.3,1.1h-3.2
				c-0.1-0.2-0.1-0.4-0.2-0.5c0-0.2-0.1-0.4-0.1-0.6c-0.5,0.5-1,0.8-1.7,1.1c-0.7,0.2-1.4,0.4-2.2,0.4c-1.2,0-2.2-0.3-2.9-0.9
				c-0.7-0.6-1.1-1.5-1.1-2.6s0.3-1.9,1-2.5s1.9-1,3.7-1.2c1.2-0.1,2.1-0.3,2.5-0.5s0.6-0.5,0.6-1s-0.2-0.9-0.5-1.2
				s-0.8-0.4-1.6-0.4c-0.7,0-1.2,0.1-1.5,0.4c-0.4,0.3-0.6,0.7-0.6,1.3h-3.2c0.1-1.3,0.6-2.3,1.6-2.9S255.4,101,257.1,101z
				 M254.4,109.7c0,0.5,0.2,0.8,0.5,1.1s0.8,0.4,1.5,0.4c0.9,0,1.5-0.2,1.9-0.7s0.7-1.1,0.7-2v-1.2c-0.2,0.2-0.4,0.3-0.8,0.4
				c-0.3,0.1-0.9,0.2-1.7,0.3c-0.7,0.1-1.3,0.3-1.6,0.6S254.4,109.2,254.4,109.7z M269.3,101c0.9,0,1.6,0.2,2.1,0.5
				c0.6,0.3,1,0.8,1.4,1.4l0,0v-1.5h3.1v11c0,1.6-0.5,2.8-1.5,3.7s-2.5,1.4-4.6,1.4c-1.4,0-2.6-0.3-3.5-1c-1-0.7-1.5-1.6-1.6-2.8
				h3.2c0.1,0.6,0.4,1,0.8,1.2c0.4,0.3,0.9,0.4,1.6,0.4c0.8,0,1.5-0.2,1.9-0.8c0.4-0.5,0.7-1.2,0.7-2.1v-1.6l0,0
				c-0.3,0.6-0.8,1-1.4,1.3s-1.3,0.5-2.1,0.5c-1.6,0-2.8-0.5-3.7-1.6c-0.9-1.1-1.3-2.5-1.3-4.3c0-1.6,0.5-3,1.4-4.1
				C266.6,101.6,267.8,101,269.3,101z M267.5,106.8c0,1.1,0.2,2,0.7,2.6s1.1,0.9,1.9,0.9s1.5-0.3,2-0.9c0.5-0.6,0.7-1.4,0.7-2.3
				c0-1.1-0.2-2-0.7-2.7c-0.5-0.6-1.1-0.9-2-0.9c-0.8,0-1.4,0.3-1.9,0.9C267.8,105,267.5,105.8,267.5,106.8z M283.9,101
				c1.7,0,3.1,0.6,4.1,1.8s1.6,2.7,1.6,4.6v0.6h-8.5c0,1,0.3,1.8,0.8,2.2c0.5,0.5,1.2,0.7,2.1,0.7c0.6,0,1.1-0.1,1.6-0.4
				c0.5-0.3,0.8-0.7,1-1.1h2.8c-0.4,1.3-1.1,2.3-2,3s-2.1,1-3.5,1c-1.8,0-3.3-0.6-4.4-1.7c-1.1-1.1-1.6-2.6-1.6-4.5
				c0-1.8,0.6-3.2,1.7-4.4C280.7,101.6,282.2,101,283.9,101z M281.2,106h5.2c-0.2-0.9-0.4-1.5-0.8-1.9s-1-0.6-1.7-0.6
				c-0.8,0-1.4,0.2-1.9,0.7C281.5,104.6,281.2,105.2,281.2,106z M298.2,101c1.5,0,2.6,0.4,3.3,1.1c0.7,0.8,1,1.9,1,3.6v7.3h-3.2
				v-6.6c0-0.9-0.2-1.6-0.5-2.1s-0.8-0.7-1.6-0.7c-0.9,0-1.5,0.3-1.9,0.8s-0.6,1.3-0.6,2.4v6.2h-3.2v-11.6h3v1.6h0.1
				c0.4-0.6,0.9-1.1,1.5-1.4C296.8,101.2,297.5,101,298.2,101z M310.6,101c1.5,0,2.8,0.4,3.8,1.2s1.6,1.9,1.7,3.3h-3.2
				c-0.1-0.7-0.3-1.2-0.7-1.5c-0.4-0.3-0.9-0.5-1.6-0.5c-0.9,0-1.5,0.4-2,1.1s-0.7,1.6-0.7,2.8s0.2,2,0.7,2.7s1.1,1,2,1
				c0.7,0,1.3-0.2,1.7-0.6c0.4-0.4,0.7-1,0.8-1.8h3.1c-0.2,1.5-0.8,2.7-1.8,3.6c-1,0.8-2.3,1.2-3.8,1.2c-1.7,0-3.2-0.6-4.3-1.7
				c-1.1-1.1-1.6-2.6-1.6-4.3c0-1.9,0.5-3.4,1.6-4.6S308.8,101,310.6,101z M320.1,101.4l2.7,8l0,0l2.6-8h3.3l-5,13.4
				c-0.3,0.8-0.8,1.4-1.4,1.8c-0.6,0.4-1.4,0.6-2.4,0.6c-0.5,0-0.8,0-1.2,0s-0.7-0.1-1-0.1v-2.7c0.4,0,0.7,0.1,1,0.1
				c0.2,0,0.5,0,0.7,0c0.5,0,0.8-0.1,1.1-0.4s0.4-0.6,0.4-1c0-0.1,0-0.2,0-0.3s0-0.2-0.1-0.4l-4.1-11L320.1,101.4L320.1,101.4z
				 M340.1,97.9v3.5h2.4v2.2h-2.4v5.9c0,0.5,0.1,0.8,0.3,1c0.2,0.2,0.6,0.3,1.1,0.3c0.2,0,0.4,0,0.5,0c0.2,0,0.3,0,0.5-0.1v2.5
				c-0.3,0.1-0.6,0.1-0.9,0.1s-0.6,0-1,0c-1.4,0-2.4-0.2-2.9-0.7s-0.8-1.1-0.8-2v-7h-2v-2.2h2v-3.5H340.1z M349.6,101
				c1.8,0,3.3,0.6,4.4,1.7c1.1,1.1,1.7,2.6,1.7,4.5s-0.6,3.4-1.7,4.5s-2.6,1.7-4.4,1.7s-3.3-0.6-4.4-1.7c-1.1-1.1-1.7-2.6-1.7-4.5
				s0.5-3.3,1.6-4.5C346.3,101.6,347.7,101,349.6,101z M346.7,107.2c0,1.2,0.2,2.2,0.8,2.8c0.5,0.6,1.2,0.9,2.1,0.9s1.6-0.3,2.1-1
				s0.7-1.6,0.8-2.8c0-1.2-0.2-2.1-0.7-2.8s-1.2-1-2.2-1c-0.9,0-1.6,0.3-2.1,0.9C347,105,346.7,106,346.7,107.2z M369.4,101
				c1.7,0,3,0.3,3.9,0.9c0.8,0.6,1.3,1.4,1.3,2.4v6.3c0,0.5,0,0.9,0.1,1.4s0.2,0.8,0.3,1.1h-3.2c-0.1-0.2-0.1-0.4-0.2-0.5
				s-0.1-0.4-0.1-0.6c-0.5,0.5-1,0.8-1.7,1.1s-1.4,0.4-2.2,0.4c-1.2,0-2.2-0.3-2.9-0.9c-0.7-0.6-1.1-1.5-1.1-2.6s0.3-1.9,1-2.5
				s1.9-1,3.7-1.2c1.2-0.1,2.1-0.3,2.5-0.5s0.6-0.5,0.6-1s-0.2-0.9-0.5-1.2s-0.8-0.4-1.6-0.4c-0.7,0-1.2,0.1-1.5,0.4
				s-0.6,0.7-0.6,1.3H364c0.1-1.3,0.6-2.3,1.6-2.9S367.8,101,369.4,101z M366.7,109.7c0,0.5,0.2,0.8,0.5,1.1s0.8,0.4,1.5,0.4
				c0.9,0,1.5-0.2,1.9-0.7s0.7-1.1,0.7-2v-1.2c-0.2,0.2-0.4,0.3-0.8,0.4c-0.3,0.1-0.9,0.2-1.7,0.3c-0.7,0.1-1.3,0.3-1.6,0.6
				S366.7,109.2,366.7,109.7z M383.7,101c1.5,0,2.6,0.4,3.3,1.1s1,1.9,1,3.6v7.3h-3.2v-6.6c0-0.9-0.2-1.6-0.5-2.1s-0.8-0.7-1.6-0.7
				c-0.9,0-1.5,0.3-1.9,0.8s-0.6,1.3-0.6,2.4v6.2H377v-11.6h3v1.6h0.1c0.4-0.6,0.9-1.1,1.5-1.4C382.3,101.2,383,101,383.7,101z
				 M396.2,101c1.8,0,3.3,0.6,4.4,1.7c1.1,1.1,1.7,2.6,1.7,4.5s-0.6,3.4-1.7,4.5s-2.6,1.7-4.4,1.7s-3.3-0.6-4.4-1.7
				c-1.1-1.1-1.7-2.6-1.7-4.5s0.5-3.3,1.6-4.5S394.3,101,396.2,101z M393.3,107.2c0,1.2,0.2,2.2,0.8,2.8c0.5,0.6,1.2,0.9,2.1,0.9
				s1.6-0.3,2.1-1s0.8-1.6,0.8-2.8s-0.2-2.1-0.7-2.8s-1.2-1-2.2-1c-0.9,0-1.6,0.3-2.1,0.9C393.6,105,393.3,106,393.3,107.2z
				 M408.4,97.9v3.5h2.4v2.2h-2.4v5.9c0,0.5,0.1,0.8,0.3,1c0.2,0.2,0.6,0.3,1.1,0.3c0.2,0,0.4,0,0.5,0c0.2,0,0.3,0,0.5-0.1v2.5
				c-0.3,0.1-0.6,0.1-0.9,0.1s-0.6,0-1,0c-1.4,0-2.4-0.2-2.9-0.7s-0.8-1.1-0.8-2v-7h-2v-2.2h2v-3.5H408.4z M415.5,96.9v6.1h0.1
				c0.3-0.6,0.8-1.1,1.4-1.4c0.6-0.4,1.3-0.5,2-0.5c1.5,0,2.6,0.4,3.2,1.1c0.7,0.8,1,1.9,1,3.6v7.3H420v-6.7c0-0.9-0.2-1.6-0.5-2.1
				s-0.8-0.7-1.6-0.7c-0.9,0-1.5,0.3-1.9,0.8s-0.6,1.3-0.6,2.4v6.2h-3.2V96.8h3.3V96.9z M431.1,101c1.7,0,3.1,0.6,4.1,1.8
				s1.6,2.7,1.6,4.6v0.6h-8.5c0,1,0.3,1.8,0.8,2.2c0.5,0.5,1.2,0.7,2.1,0.7c0.6,0,1.1-0.1,1.6-0.4c0.5-0.3,0.8-0.7,1-1.1h2.8
				c-0.4,1.3-1.1,2.3-2,3s-2.1,1-3.5,1c-1.8,0-3.3-0.6-4.4-1.7c-1.1-1.1-1.6-2.6-1.6-4.5c0-1.8,0.6-3.2,1.7-4.4S429.4,101,431.1,101
				z M428.4,106h5.2c-0.2-0.9-0.4-1.5-0.8-1.9s-1-0.6-1.7-0.6c-0.8,0-1.4,0.2-1.9,0.7C428.7,104.6,428.4,105.2,428.4,106z
				 M445.5,101c0.1,0,0.3,0,0.4,0s0.2,0,0.3,0.1v3c-0.2,0-0.4-0.1-0.5-0.1c-0.2,0-0.4,0-0.6,0c-1.1,0-1.9,0.3-2.4,1
				s-0.8,1.5-0.8,2.7v5.4h-3.2v-11.7h3v2.2l0,0c0.3-0.8,0.8-1.4,1.5-1.8S444.7,101,445.5,101z M459.2,101c1.7,0,3,0.3,3.9,0.9
				c0.8,0.6,1.3,1.4,1.3,2.4v6.3c0,0.5,0,0.9,0.1,1.4s0.2,0.8,0.3,1.1h-3.2c-0.1-0.2-0.1-0.4-0.2-0.5c0-0.2-0.1-0.4-0.1-0.6
				c-0.5,0.5-1,0.8-1.7,1.1c-0.7,0.2-1.4,0.4-2.2,0.4c-1.2,0-2.2-0.3-2.9-0.9c-0.7-0.6-1.1-1.5-1.1-2.6s0.3-1.9,1-2.5s1.9-1,3.7-1.2
				c1.2-0.1,2.1-0.3,2.5-0.5s0.6-0.5,0.6-1s-0.2-0.9-0.5-1.2s-0.8-0.4-1.6-0.4c-0.7,0-1.2,0.1-1.5,0.4c-0.4,0.3-0.6,0.7-0.6,1.3
				h-3.2c0.1-1.3,0.6-2.3,1.6-2.9S457.6,101,459.2,101z M456.5,109.7c0,0.5,0.2,0.8,0.5,1.1s0.8,0.4,1.5,0.4c0.9,0,1.5-0.2,1.9-0.7
				s0.7-1.1,0.7-2v-1.2c-0.2,0.2-0.4,0.3-0.8,0.4c-0.3,0.1-0.9,0.2-1.7,0.3c-0.7,0.1-1.3,0.3-1.6,0.6S456.5,109.2,456.5,109.7z
				 M471.5,101c0.9,0,1.6,0.2,2.1,0.5c0.6,0.3,1,0.8,1.4,1.4l0,0v-1.5h3.1v11c0,1.6-0.5,2.8-1.5,3.7s-2.5,1.4-4.6,1.4
				c-1.4,0-2.6-0.3-3.5-1c-1-0.7-1.5-1.6-1.6-2.8h3.2c0.1,0.6,0.4,1,0.8,1.2c0.4,0.3,0.9,0.4,1.6,0.4c0.8,0,1.5-0.2,1.9-0.8
				c0.4-0.5,0.7-1.2,0.7-2.1v-1.6l0,0c-0.3,0.6-0.8,1-1.4,1.3s-1.3,0.5-2.1,0.5c-1.6,0-2.8-0.5-3.7-1.6c-0.9-1.1-1.3-2.5-1.3-4.3
				c0-1.6,0.5-3,1.4-4.1C468.8,101.6,470,101,471.5,101z M469.7,106.8c0,1.1,0.2,2,0.7,2.6s1.1,0.9,1.9,0.9s1.5-0.3,2-0.9
				c0.5-0.6,0.7-1.4,0.7-2.3c0-1.1-0.2-2-0.7-2.7c-0.5-0.6-1.1-0.9-2-0.9c-0.8,0-1.4,0.3-1.9,0.9C469.9,105,469.7,105.8,469.7,106.8
				z M486.1,101c1.7,0,3.1,0.6,4.1,1.8s1.6,2.7,1.6,4.6v0.6h-8.5c0,1,0.3,1.8,0.8,2.2c0.5,0.5,1.2,0.7,2.1,0.7
				c0.6,0,1.1-0.1,1.6-0.4c0.5-0.3,0.8-0.7,1-1.1h2.8c-0.4,1.3-1.1,2.3-2,3s-2.1,1-3.5,1c-1.8,0-3.3-0.6-4.4-1.7
				c-1.1-1.1-1.6-2.6-1.6-4.5c0-1.8,0.6-3.2,1.7-4.4C482.9,101.6,484.3,101,486.1,101z M483.3,106h5.2c-0.2-0.9-0.4-1.5-0.8-1.9
				s-1-0.6-1.7-0.6c-0.8,0-1.4,0.2-1.9,0.7C483.7,104.6,483.4,105.2,483.3,106z M500.4,101c1.5,0,2.6,0.4,3.3,1.1
				c0.7,0.8,1,1.9,1,3.6v7.3h-3.2v-6.6c0-0.9-0.2-1.6-0.5-2.1s-0.8-0.7-1.6-0.7c-0.9,0-1.5,0.3-1.9,0.8s-0.6,1.3-0.6,2.4v6.2h-3.2
				v-11.6h3v1.6h0.1c0.4-0.6,0.9-1.1,1.5-1.4C499,101.2,499.7,101,500.4,101z M511.2,97.9v3.5h2.4v2.2h-2.4v5.9c0,0.5,0.1,0.8,0.3,1
				s0.6,0.3,1.1,0.3c0.2,0,0.4,0,0.5,0c0.2,0,0.3,0,0.5-0.1v2.5c-0.3,0.1-0.6,0.1-0.9,0.1c-0.3,0-0.6,0-1,0c-1.4,0-2.4-0.2-2.9-0.7
				s-0.8-1.1-0.8-2v-7h-2v-2.2h2v-3.5H511.2z M524.7,96.9v2.6h-3.2v-2.6C521.5,96.9,524.7,96.9,524.7,96.9z M524.7,101.4v11.7h-3.2
				v-11.7H524.7z M533.9,101c1.5,0,2.6,0.4,3.3,1.1c0.7,0.8,1,1.9,1,3.6v7.3H535v-6.6c0-0.9-0.2-1.6-0.5-2.1s-0.8-0.7-1.6-0.7
				c-0.9,0-1.5,0.3-1.9,0.8s-0.6,1.3-0.6,2.4v6.2h-3.2v-11.6h3v1.6h0.1c0.4-0.6,0.9-1.1,1.5-1.4C532.5,101.2,533.2,101,533.9,101z
				 M552.3,101c1.7,0,3,0.3,3.9,0.9c0.8,0.6,1.3,1.4,1.3,2.4v6.3c0,0.5,0,0.9,0.1,1.4s0.2,0.8,0.3,1.1h-3.2
				c-0.1-0.2-0.1-0.4-0.2-0.5s-0.1-0.4-0.1-0.6c-0.5,0.5-1,0.8-1.7,1.1s-1.4,0.4-2.2,0.4c-1.2,0-2.2-0.3-2.9-0.9
				c-0.7-0.6-1.1-1.5-1.1-2.6s0.3-1.9,1-2.5s1.9-1,3.7-1.2c1.2-0.1,2.1-0.3,2.5-0.5s0.6-0.5,0.6-1s-0.2-0.9-0.5-1.2
				s-0.8-0.4-1.6-0.4c-0.7,0-1.2,0.1-1.5,0.4s-0.6,0.7-0.6,1.3h-3.2c0.1-1.3,0.6-2.3,1.6-2.9S550.7,101,552.3,101z M549.7,109.7
				c0,0.5,0.2,0.8,0.5,1.1s0.8,0.4,1.5,0.4c0.9,0,1.5-0.2,1.9-0.7s0.7-1.1,0.7-2v-1.2c-0.2,0.2-0.4,0.3-0.8,0.4
				c-0.3,0.1-0.9,0.2-1.7,0.3c-0.7,0.1-1.3,0.3-1.6,0.6S549.7,109.2,549.7,109.7z M566.7,101c1.5,0,2.6,0.4,3.3,1.1s1,1.9,1,3.6v7.3
				h-3.2v-6.6c0-0.9-0.2-1.6-0.5-2.1s-0.8-0.7-1.6-0.7c-0.9,0-1.5,0.3-1.9,0.8s-0.6,1.3-0.6,2.4v6.2H560v-11.6h3v1.6h0.1
				c0.4-0.6,0.9-1.1,1.5-1.4C565.2,101.2,565.9,101,566.7,101z M575.5,101.4l2.7,8l0,0l2.6-8h3.3l-5,13.4c-0.3,0.8-0.8,1.4-1.4,1.8
				c-0.6,0.4-1.4,0.6-2.4,0.6c-0.5,0-0.8,0-1.2,0s-0.7-0.1-1-0.1v-2.7c0.4,0,0.7,0.1,1,0.1c0.2,0,0.5,0,0.7,0c0.5,0,0.8-0.1,1.1-0.4
				s0.4-0.6,0.4-1c0-0.1,0-0.2,0-0.3s0-0.2-0.1-0.4l-4.1-11L575.5,101.4L575.5,101.4z M596.1,101c0.9,0,1.6,0.2,2.1,0.5
				c0.6,0.3,1,0.8,1.4,1.4l0,0v-1.5h3.1v11c0,1.6-0.5,2.8-1.5,3.7s-2.5,1.4-4.6,1.4c-1.4,0-2.6-0.3-3.5-1c-1-0.7-1.5-1.6-1.6-2.8
				h3.2c0.1,0.6,0.4,1,0.8,1.2c0.4,0.3,0.9,0.4,1.6,0.4c0.8,0,1.5-0.2,1.9-0.8c0.4-0.5,0.7-1.2,0.7-2.1v-1.6l0,0
				c-0.3,0.6-0.8,1-1.4,1.3c-0.6,0.3-1.3,0.5-2.1,0.5c-1.6,0-2.8-0.5-3.7-1.6s-1.3-2.5-1.3-4.3c0-1.6,0.5-3,1.4-4.1
				C593.4,101.6,594.6,101,596.1,101z M594.3,106.8c0,1.1,0.2,2,0.7,2.6s1.1,0.9,1.9,0.9c0.8,0,1.5-0.3,2-0.9
				c0.5-0.6,0.7-1.4,0.7-2.3c0-1.1-0.2-2-0.7-2.7c-0.5-0.6-1.1-0.9-2-0.9c-0.8,0-1.4,0.3-1.9,0.9C594.5,105,594.3,105.8,594.3,106.8
				z M608.6,96.9v2.6h-3.2v-2.6C605.4,96.9,608.6,96.9,608.6,96.9z M608.6,101.4v11.7h-3.2v-11.7H608.6z M613.4,101.4l2.5,8l0,0
				l2.5-8h3.2l-4,11.7H614l-4-11.7H613.4z M628.3,101c1.7,0,3.1,0.6,4.1,1.8s1.6,2.7,1.6,4.6v0.6h-8.5c0,1,0.3,1.8,0.8,2.2
				c0.5,0.5,1.2,0.7,2.1,0.7c0.6,0,1.1-0.1,1.6-0.4c0.5-0.3,0.8-0.7,1-1.1h2.8c-0.4,1.3-1.1,2.3-2,3s-2.1,1-3.5,1
				c-1.8,0-3.3-0.6-4.4-1.7c-1.1-1.1-1.6-2.6-1.6-4.5c0-1.8,0.6-3.2,1.7-4.4S626.6,101,628.3,101z M625.6,106h5.2
				c-0.2-0.9-0.4-1.5-0.8-1.9c-0.4-0.4-1-0.6-1.7-0.6c-0.8,0-1.4,0.2-1.9,0.7C625.9,104.6,625.6,105.2,625.6,106z M642.6,101
				c1.5,0,2.6,0.4,3.3,1.1s1,1.9,1,3.6v7.3h-3.2v-6.6c0-0.9-0.2-1.6-0.5-2.1s-0.8-0.7-1.6-0.7c-0.9,0-1.5,0.3-1.9,0.8
				s-0.6,1.3-0.6,2.4v6.2h-3.2v-11.6h3v1.6h0.1c0.4-0.6,0.9-1.1,1.5-1.4C641.2,101.2,641.9,101,642.6,101z M660.5,101
				c1.6,0,2.8,0.3,3.7,1c0.9,0.6,1.4,1.6,1.5,2.8h-3.1c0-0.6-0.2-1-0.6-1.2c-0.4-0.2-0.9-0.4-1.6-0.4c-0.6,0-1.1,0.1-1.3,0.3
				c-0.3,0.2-0.4,0.4-0.4,0.8c0,0.4,0.2,0.7,0.5,0.9c0.4,0.2,1.1,0.5,2.2,0.7c1.8,0.3,3,0.8,3.6,1.3s0.9,1.3,0.9,2.1
				c0,1.3-0.5,2.3-1.5,3s-2.3,1-3.9,1c-1.6,0-2.9-0.3-3.9-1s-1.5-1.7-1.6-3.1h3.1c0,0.6,0.2,1.1,0.7,1.5s1.1,0.5,1.8,0.5
				c0.6,0,1.1-0.1,1.5-0.4c0.4-0.3,0.6-0.6,0.6-1.1c0-0.4-0.3-0.7-0.8-1s-1.4-0.5-2.8-0.8c-1.3-0.3-2.3-0.6-2.9-1.1
				c-0.6-0.5-0.9-1.2-0.9-2c0-1.2,0.4-2.2,1.3-2.8C657.5,101.4,658.8,101,660.5,101z M671.1,96.9v2.6h-3.2v-2.6
				C667.9,96.9,671.1,96.9,671.1,96.9z M671.1,101.4v11.7h-3.2v-11.7H671.1z M677.7,97.9v3.5h2.4v2.2h-2.4v5.9c0,0.5,0.1,0.8,0.3,1
				s0.6,0.3,1.1,0.3c0.2,0,0.4,0,0.5,0s0.3,0,0.5-0.1v2.5c-0.3,0.1-0.6,0.1-0.9,0.1c-0.3,0-0.6,0-1,0c-1.4,0-2.4-0.2-2.9-0.7
				s-0.8-1.1-0.8-2v-7h-2v-2.2h2v-3.5H677.7z M684.8,101.4v6.7c0,0.9,0.2,1.6,0.5,2.1s0.8,0.7,1.6,0.7c0.9,0,1.5-0.3,1.9-0.8
				s0.6-1.4,0.6-2.5v-6.2h3.2v11.7h-3.1v-1.7h-0.1c-0.4,0.6-0.9,1.1-1.6,1.5c-0.6,0.3-1.3,0.5-2,0.5c-1.4,0-2.5-0.4-3.2-1.1
				c-0.7-0.8-1-1.9-1-3.6v-7.3H684.8z M700.4,101c1.7,0,3,0.3,3.9,0.9c0.8,0.6,1.3,1.4,1.3,2.4v6.3c0,0.5,0,0.9,0.1,1.4
				s0.2,0.8,0.3,1.1h-3.2c-0.1-0.2-0.1-0.4-0.2-0.5c0-0.2-0.1-0.4-0.1-0.6c-0.5,0.5-1,0.8-1.7,1.1c-0.7,0.2-1.4,0.4-2.2,0.4
				c-1.2,0-2.2-0.3-2.9-0.9c-0.7-0.6-1.1-1.5-1.1-2.6s0.3-1.9,1-2.5s1.9-1,3.7-1.2c1.2-0.1,2.1-0.3,2.5-0.5s0.6-0.5,0.6-1
				s-0.2-0.9-0.5-1.2s-0.8-0.4-1.6-0.4c-0.7,0-1.2,0.1-1.5,0.4c-0.4,0.3-0.6,0.7-0.6,1.3H695c0.1-1.3,0.6-2.3,1.6-2.9
				S698.8,101,700.4,101z M697.8,109.7c0,0.5,0.2,0.8,0.5,1.1s0.8,0.4,1.5,0.4c0.9,0,1.5-0.2,1.9-0.7s0.7-1.1,0.7-2v-1.2
				c-0.2,0.2-0.4,0.3-0.8,0.4c-0.3,0.1-0.9,0.2-1.7,0.3c-0.7,0.1-1.3,0.3-1.6,0.6S697.8,109.2,697.8,109.7z M712.1,97.9v3.5h2.4v2.2
				h-2.4v5.9c0,0.5,0.1,0.8,0.3,1s0.6,0.3,1.1,0.3c0.2,0,0.4,0,0.5,0c0.2,0,0.3,0,0.5-0.1v2.5c-0.3,0.1-0.6,0.1-0.9,0.1
				c-0.3,0-0.6,0-1,0c-1.4,0-2.4-0.2-2.9-0.7s-0.8-1.1-0.8-2v-7h-2v-2.2h2v-3.5H712.1z M719.4,96.9v2.6h-3.2v-2.6
				C716.2,96.9,719.4,96.9,719.4,96.9z M719.4,101.4v11.7h-3.2v-11.7H719.4z M727.6,101c1.8,0,3.3,0.6,4.4,1.7
				c1.1,1.1,1.7,2.6,1.7,4.5s-0.6,3.4-1.7,4.5c-1.1,1.1-2.6,1.7-4.4,1.7c-1.8,0-3.3-0.6-4.4-1.7c-1.1-1.1-1.7-2.6-1.7-4.5
				s0.5-3.3,1.6-4.5C724.3,101.6,725.7,101,727.6,101z M724.7,107.2c0,1.2,0.2,2.2,0.8,2.8c0.5,0.6,1.2,0.9,2.1,0.9
				c0.9,0,1.6-0.3,2.1-1s0.7-1.6,0.8-2.8c0-1.2-0.2-2.1-0.7-2.8s-1.2-1-2.2-1c-0.9,0-1.6,0.3-2.1,0.9C725,105,724.7,106,724.7,107.2
				z M742.4,101c1.5,0,2.6,0.4,3.3,1.1c0.7,0.8,1,1.9,1,3.6v7.3h-3.2v-6.6c0-0.9-0.2-1.6-0.5-2.1s-0.8-0.7-1.6-0.7
				c-0.9,0-1.5,0.3-1.9,0.8s-0.6,1.3-0.6,2.4v6.2h-3.2v-11.6h3v1.6h0.1c0.4-0.6,0.9-1.1,1.5-1.4C741,101.2,741.7,101,742.4,101z"/>
		</g>
	</g>
</g>
</svg>
