<?xml version="1.0" encoding="utf-8"?>
<!-- Generator: Adobe Illustrator 27.0.1, SVG Export Plug-In . SVG Version: 6.00 Build 0)  -->
<svg version="1.1" id="Layer_1" xmlns="http://www.w3.org/2000/svg" xmlns:xlink="http://www.w3.org/1999/xlink" x="0px" y="0px"
	 viewBox="0 0 960 720" style="enable-background:new 0 0 960 720;" xml:space="preserve">
<style type="text/css">
	.st0{fill:#FFFFFF;stroke:#000000;stroke-miterlimit:10;}
	
		.st1{clip-path:url(#SVGID_00000031909364498638611430000011319548852797436817_);fill-rule:evenodd;clip-rule:evenodd;fill-opacity:0;}
	.st2{clip-path:url(#SVGID_00000090293562310386204510000012173273990503805578_);}
	
		.st3{clip-path:url(#SVGID_00000033334646341809404730000003906782428538831512_);fill-rule:evenodd;clip-rule:evenodd;fill-opacity:0;}
	
		.st4{clip-path:url(#SVGID_00000026143219766379821580000014073671871365115064_);fill:none;stroke:#000000;stroke-width:3;stroke-linejoin:round;stroke-miterlimit:10;}
	
		.st5{clip-path:url(#SVGID_00000013903171644339831790000017359217325480172944_);fill-rule:evenodd;clip-rule:evenodd;stroke:#000000;stroke-width:3;stroke-miterlimit:10;}
	
		.st6{clip-path:url(#SVGID_00000155107067254173688480000003696215483499560628_);fill-rule:evenodd;clip-rule:evenodd;fill-opacity:0;}
	
		.st7{clip-path:url(#SVGID_00000062884332188139309190000002058300246544727175_);fill:none;stroke:#000000;stroke-width:3;stroke-linejoin:round;stroke-miterlimit:10;}
	
		.st8{clip-path:url(#SVGID_00000174577804204663014440000002985407220537760169_);fill-rule:evenodd;clip-rule:evenodd;stroke:#000000;stroke-width:3;stroke-miterlimit:10;}
	
		.st9{clip-path:url(#SVGID_00000016062456717283950080000006499031213611980734_);fill-rule:evenodd;clip-rule:evenodd;fill-opacity:0;}
	
		.st10{clip-path:url(#SVGID_00000118368313714595864220000010295464246638764418_);fill:none;stroke:#000000;stroke-width:3;stroke-linejoin:round;stroke-miterlimit:10;}
	
		.st11{clip-path:url(#SVGID_00000076561652004787046190000008600693889723542968_);fill-rule:evenodd;clip-rule:evenodd;stroke:#000000;stroke-width:3;stroke-miterlimit:10;}
	
		.st12{clip-path:url(#SVGID_00000075856230281838143990000007023267019280905877_);fill-rule:evenodd;clip-rule:evenodd;fill-opacity:0;}
	.st13{clip-path:url(#SVGID_00000085220234191271898910000013813221395447708554_);}
	
		.st14{clip-path:url(#SVGID_00000124870471923510947830000003300320261696081837_);fill-rule:evenodd;clip-rule:evenodd;fill-opacity:0;}
	.st15{clip-path:url(#SVGID_00000025407770590902938460000002419678258218544054_);}
	
		.st16{clip-path:url(#SVGID_00000129902620705479154810000014221417980995695522_);fill-rule:evenodd;clip-rule:evenodd;fill-opacity:0;}
	.st17{clip-path:url(#SVGID_00000111879960659813655890000016358168877105992086_);}
</style>
<rect class="st0" width="960" height="720"/>
<g>
	<g>
		<g>
			<g>
				<defs>
					<rect id="SVGID_1_" x="45.8" y="41.7" width="852" height="636.6"/>
				</defs>
				<clipPath id="SVGID_00000136398019389131683440000015189682168226140072_">
					<use xlink:href="#SVGID_1_"  style="overflow:visible;"/>
				</clipPath>
				
					<path style="clip-path:url(#SVGID_00000136398019389131683440000015189682168226140072_);fill-rule:evenodd;clip-rule:evenodd;fill-opacity:0;" d="
					M43.6,71h888v103.6h-888L43.6,71L43.6,71z"/>
			</g>
		</g>
	</g>
	<g>
		<g>
			<g>
				<defs>
					<rect id="SVGID_00000126300179253265617530000002618871497019145101_" x="45.8" y="41.7" width="852" height="636.6"/>
				</defs>
				<clipPath id="SVGID_00000105422040014706618010000000838196669835302311_">
					<use xlink:href="#SVGID_00000126300179253265617530000002618871497019145101_"  style="overflow:visible;"/>
				</clipPath>
				<path style="clip-path:url(#SVGID_00000105422040014706618010000000838196669835302311_);" d="M136.6,92.5v4.2h-6.9v18.7h-5
					V96.7h-6.9v-4.2H136.6z M143.3,92.5v8.6h0.1c0.5-0.8,1.2-1.5,2-2c0.9-0.5,1.8-0.8,2.8-0.8c2.1,0,3.7,0.5,4.6,1.6
					c1,1.1,1.4,2.7,1.4,5v10.4h-4.6v-9.5c0-1.3-0.2-2.3-0.7-2.9c-0.4-0.7-1.2-1-2.2-1c-1.3,0-2.2,0.4-2.7,1.1
					c-0.5,0.8-0.8,1.9-0.8,3.5v8.9h-4.5V92.5H143.3z M167.4,98.4c0.2,0,0.4,0,0.5,0c0.2,0,0.3,0,0.5,0.1v4.2c-0.3,0-0.5-0.1-0.8-0.1
					c-0.2,0-0.5,0-0.9,0c-1.5,0-2.7,0.5-3.4,1.4s-1.1,2.2-1.1,3.8v7.6h-4.5V98.8h4.3v3.1h0.1c0.5-1.1,1.2-1.9,2.1-2.6
					C165.3,98.7,166.3,98.4,167.4,98.4z M177.7,98.4c2.5,0,4.4,0.8,5.9,2.5s2.2,3.8,2.2,6.4v0.8h-12c0.1,1.4,0.4,2.5,1.1,3.2
					c0.7,0.7,1.7,1,2.9,1c0.8,0,1.6-0.2,2.3-0.6s1.2-0.9,1.3-1.5h4c-0.6,1.9-1.6,3.3-2.8,4.2c-1.3,0.9-2.9,1.4-4.9,1.4
					c-2.6,0-4.6-0.8-6.2-2.4c-1.6-1.6-2.3-3.7-2.3-6.3c0-2.5,0.8-4.6,2.4-6.2C173.1,99.2,175.2,98.4,177.7,98.4z M173.8,105.3h7.4
					c-0.2-1.2-0.6-2.1-1.2-2.7c-0.6-0.6-1.4-0.8-2.5-0.8s-2,0.3-2.6,0.9C174.2,103.4,173.9,104.2,173.8,105.3z M196.1,98.4
					c2.5,0,4.4,0.8,5.9,2.5s2.2,3.8,2.2,6.4v0.8h-12c0.1,1.4,0.4,2.5,1.1,3.2c0.7,0.7,1.7,1,2.9,1c0.8,0,1.6-0.2,2.3-0.6
					s1.2-0.9,1.3-1.5h4c-0.6,1.9-1.6,3.3-2.8,4.2c-1.3,0.9-2.9,1.4-4.9,1.4c-2.6,0-4.6-0.8-6.2-2.4c-1.6-1.6-2.3-3.7-2.3-6.3
					c0-2.5,0.8-4.6,2.4-6.2C191.6,99.2,193.6,98.4,196.1,98.4z M192.2,105.3h7.4c-0.2-1.2-0.6-2.1-1.2-2.7c-0.6-0.6-1.4-0.8-2.5-0.8
					s-2,0.3-2.6,0.9C192.7,103.4,192.3,104.2,192.2,105.3z M219,98.8l3.5,11.3h0.1l3.5-11.3h4.5l-5.6,16.6h-5.1l-5.7-16.6H219z
					 M240.2,98.4c2.5,0,4.4,0.8,5.9,2.5s2.2,3.8,2.2,6.4v0.8h-12c0.1,1.4,0.4,2.5,1.1,3.2c0.7,0.7,1.7,1,2.9,1
					c0.8,0,1.6-0.2,2.3-0.6s1.2-0.9,1.3-1.5h4c-0.6,1.9-1.6,3.3-2.8,4.2c-1.3,0.9-2.9,1.4-4.9,1.4c-2.6,0-4.6-0.8-6.2-2.4
					c-1.6-1.6-2.3-3.7-2.3-6.3c0-2.5,0.8-4.6,2.4-6.2C235.6,99.2,237.7,98.4,240.2,98.4z M236.2,105.3h7.4c-0.2-1.2-0.6-2.1-1.2-2.7
					c-0.6-0.6-1.4-0.8-2.5-0.8s-2,0.3-2.6,0.9C236.7,103.4,236.3,104.2,236.2,105.3z M258.9,98.4c2.1,0,4,0.6,5.4,1.7
					c1.5,1.1,2.3,2.6,2.4,4.6h-4.5c-0.1-1-0.5-1.7-1.1-2.1c-0.6-0.5-1.3-0.7-2.3-0.7c-1.2,0-2.2,0.5-2.9,1.5c-0.7,1-1,2.3-1,3.9
					s0.3,2.9,1,3.8c0.7,0.9,1.6,1.4,2.8,1.4c1,0,1.8-0.3,2.4-0.9s1-1.4,1.2-2.5h4.4c-0.3,2.2-1.2,3.9-2.6,5.1s-3.2,1.8-5.4,1.8
					c-2.5,0-4.5-0.8-6-2.4c-1.6-1.6-2.3-3.6-2.3-6.1c0-2.7,0.8-4.8,2.3-6.5C254.2,99.2,256.3,98.4,258.9,98.4z M275.1,93.9v5h3.3
					v3.1h-3.3v8.3c0,0.7,0.1,1.1,0.4,1.4s0.8,0.4,1.6,0.4c0.3,0,0.5,0,0.8,0s0.5,0,0.7-0.1v3.6c-0.4,0.1-0.8,0.1-1.3,0.1
					s-0.9,0-1.4,0c-2,0-3.3-0.3-4.1-1c-0.8-0.7-1.2-1.6-1.2-2.8V102h-2.8v-3.1h2.8v-5H275.1z M288.6,98.4c2.6,0,4.7,0.8,6.2,2.4
					c1.6,1.6,2.4,3.7,2.4,6.4c0,2.6-0.8,4.8-2.4,6.4s-3.6,2.4-6.2,2.4s-4.6-0.8-6.2-2.4s-2.4-3.7-2.4-6.3c0-2.6,0.8-4.7,2.3-6.3
					C283.8,99.2,285.9,98.4,288.6,98.4z M284.6,107.1c0,1.7,0.4,3.1,1.1,4s1.7,1.3,3,1.3s2.3-0.5,3-1.4s1.1-2.2,1.1-3.9
					c0-1.6-0.3-2.9-1-3.9s-1.7-1.4-3.1-1.4c-1.2,0-2.2,0.4-2.9,1.3C284.9,104,284.6,105.4,284.6,107.1z M309.8,98.4
					c0.2,0,0.4,0,0.5,0c0.2,0,0.3,0,0.5,0.1v4.2c-0.3,0-0.5-0.1-0.8-0.1c-0.2,0-0.5,0-0.9,0c-1.5,0-2.7,0.5-3.4,1.4
					c-0.7,0.9-1.1,2.2-1.1,3.8v7.6h-4.5V98.8h4.3v3.1h0.1c0.5-1.1,1.2-1.9,2.1-2.6C307.6,98.7,308.7,98.4,309.8,98.4z M319.4,98.4
					c2.3,0,4,0.4,5.2,1.3s1.9,2.2,2.1,3.9h-4.4c-0.1-0.8-0.4-1.3-0.9-1.7c-0.5-0.4-1.3-0.5-2.2-0.5c-0.9,0-1.5,0.1-1.9,0.4
					s-0.6,0.6-0.6,1.1s0.3,0.9,0.8,1.3c0.5,0.3,1.6,0.6,3.2,0.9c2.6,0.5,4.3,1.1,5.1,1.9c0.9,0.8,1.3,1.8,1.3,3
					c0,1.9-0.7,3.3-2.1,4.3s-3.2,1.5-5.5,1.5s-4.1-0.5-5.6-1.5c-1.4-1-2.2-2.4-2.3-4.4h4.4c0,0.9,0.3,1.6,1,2
					c0.7,0.5,1.5,0.7,2.5,0.7c0.9,0,1.6-0.2,2.1-0.6c0.6-0.4,0.8-0.9,0.8-1.6c0-0.6-0.4-1-1.1-1.4s-2-0.8-4-1.2
					c-1.9-0.4-3.3-0.9-4.1-1.6c-0.8-0.7-1.3-1.7-1.3-2.8c0-1.8,0.6-3.1,1.9-4C315.3,98.8,317.1,98.4,319.4,98.4z M346.8,98.4
					c2.6,0,4.7,0.8,6.2,2.4c1.6,1.6,2.4,3.7,2.4,6.4c0,2.6-0.8,4.8-2.4,6.4s-3.6,2.4-6.2,2.4s-4.6-0.8-6.2-2.4s-2.4-3.7-2.4-6.3
					c0-2.6,0.8-4.7,2.3-6.3C342.1,99.2,344.2,98.4,346.8,98.4z M342.8,107.1c0,1.7,0.4,3.1,1.1,4s1.7,1.3,3,1.3s2.3-0.5,3-1.4
					s1.1-2.2,1.1-3.9c0-1.6-0.3-2.9-1-3.9s-1.7-1.4-3.1-1.4c-1.2,0-2.2,0.4-2.9,1.3C343.2,104,342.8,105.4,342.8,107.1z M364.9,92.5
					c0.3,0,0.7,0,1.2,0s0.9,0.1,1.2,0.1V96c-0.3,0-0.6-0.1-0.9-0.1s-0.5,0-0.8,0c-0.6,0-1.1,0.1-1.4,0.4s-0.4,0.8-0.4,1.7v0.8h3.2
					v3.1h-3.2v13.5h-4.6v-13.5h-2.7v-3.1h2.7v-1.1c0-1.7,0.5-3,1.5-3.9C361.9,92.9,363.2,92.5,364.9,92.5z M385.6,98.4
					c2.5,0,4.3,0.4,5.5,1.2c1.2,0.8,1.8,1.9,1.8,3.4v8.9c0,0.7,0,1.3,0.1,2s0.3,1.2,0.5,1.5h-4.6c-0.1-0.3-0.1-0.5-0.2-0.8
					c0-0.3-0.1-0.5-0.1-0.8c-0.6,0.7-1.4,1.2-2.4,1.5c-0.9,0.3-2,0.5-3.2,0.5c-1.7,0-3.1-0.4-4.1-1.3s-1.5-2.1-1.5-3.7
					c0-1.5,0.5-2.7,1.4-3.5c1-0.8,2.7-1.4,5.3-1.7c1.8-0.2,2.9-0.4,3.5-0.7c0.6-0.3,0.8-0.7,0.8-1.4c0-0.7-0.2-1.3-0.7-1.6
					c-0.4-0.4-1.2-0.6-2.3-0.6c-0.9,0-1.7,0.2-2.2,0.6s-0.8,1-0.9,1.9h-4.6c0.1-1.8,0.9-3.2,2.3-4.1
					C381.4,98.9,383.3,98.4,385.6,98.4z M381.8,110.7c0,0.7,0.2,1.2,0.7,1.6s1.2,0.6,2.1,0.6c1.2,0,2.1-0.3,2.7-0.9s0.9-1.6,0.9-2.8
					v-1.8c-0.3,0.2-0.6,0.4-1.1,0.5c-0.4,0.1-1.2,0.2-2.4,0.4c-1,0.1-1.8,0.4-2.3,0.8C382.1,109.4,381.8,110,381.8,110.7z
					 M406.1,98.4c0.2,0,0.4,0,0.5,0c0.2,0,0.3,0,0.5,0.1v4.2c-0.3,0-0.5-0.1-0.8-0.1c-0.2,0-0.5,0-0.9,0c-1.5,0-2.7,0.5-3.4,1.4
					c-0.7,0.9-1.1,2.2-1.1,3.8v7.6h-4.5V98.8h4.3v3.1h0.1c0.5-1.1,1.2-1.9,2.1-2.6C403.9,98.7,405,98.4,406.1,98.4z M414.8,93.9v5
					h3.3v3.1h-3.3v8.3c0,0.7,0.1,1.1,0.4,1.4s0.8,0.4,1.6,0.4c0.3,0,0.5,0,0.8,0s0.5,0,0.7-0.1v3.6c-0.4,0.1-0.8,0.1-1.3,0.1
					s-0.9,0-1.4,0c-2,0-3.3-0.3-4.1-1c-0.8-0.7-1.2-1.6-1.2-2.8V102h-2.8v-3.1h2.8v-5H414.8z M425,92.5v3.7h-4.6v-3.7H425z
					 M425,98.8v16.6h-4.6V98.8H425z M435.1,92.5c0.3,0,0.7,0,1.2,0s0.9,0.1,1.2,0.1V96c-0.3,0-0.6-0.1-0.9-0.1s-0.5,0-0.8,0
					c-0.6,0-1.1,0.1-1.4,0.4S434,97.1,434,98v0.8h3.2v3.1H434v13.5h-4.6v-13.5h-2.7v-3.1h2.7v-1.1c0-1.7,0.5-3,1.5-3.9
					C432.1,92.9,433.4,92.5,435.1,92.5z M444,92.5v3.7h-4.6v-3.7H444z M444,98.8v16.6h-4.6V98.8H444z M455.5,98.4
					c2.1,0,4,0.6,5.4,1.7c1.5,1.1,2.3,2.6,2.4,4.6h-4.5c-0.1-1-0.5-1.7-1.1-2.1c-0.6-0.5-1.3-0.7-2.3-0.7c-1.2,0-2.2,0.5-2.9,1.5
					c-0.7,1-1,2.3-1,3.9s0.3,2.9,1,3.8s1.6,1.4,2.8,1.4c1,0,1.8-0.3,2.4-0.9s1-1.4,1.2-2.5h4.4c-0.3,2.2-1.2,3.9-2.6,5.1
					s-3.2,1.8-5.4,1.8c-2.5,0-4.5-0.8-6-2.4c-1.6-1.6-2.3-3.6-2.3-6.1c0-2.7,0.8-4.8,2.3-6.5C450.9,99.2,452.9,98.4,455.5,98.4z
					 M470.7,92.5v3.7h-4.6v-3.7H470.7z M470.7,98.8v16.6h-4.6V98.8H470.7z M481.9,98.4c2.5,0,4.3,0.4,5.5,1.2
					c1.2,0.8,1.8,1.9,1.8,3.4v8.9c0,0.7,0,1.3,0.1,2s0.3,1.2,0.5,1.5h-4.6c-0.1-0.3-0.1-0.5-0.2-0.8c0-0.3-0.1-0.5-0.1-0.8
					c-0.6,0.7-1.4,1.2-2.4,1.5c-0.9,0.3-2,0.5-3.2,0.5c-1.7,0-3.1-0.4-4.1-1.3s-1.5-2.1-1.5-3.7c0-1.5,0.5-2.7,1.4-3.5
					c1-0.8,2.7-1.4,5.3-1.7c1.8-0.2,2.9-0.4,3.5-0.7c0.6-0.3,0.8-0.7,0.8-1.4c0-0.7-0.2-1.3-0.7-1.6c-0.4-0.4-1.2-0.6-2.3-0.6
					c-0.9,0-1.7,0.2-2.2,0.6s-0.8,1-0.9,1.9H474c0.1-1.8,0.9-3.2,2.3-4.1C477.7,98.9,479.6,98.4,481.9,98.4z M478.1,110.7
					c0,0.7,0.2,1.2,0.7,1.6s1.2,0.6,2.1,0.6c1.2,0,2.1-0.3,2.7-0.9s0.9-1.6,0.9-2.8v-1.8c-0.3,0.2-0.6,0.4-1.1,0.5
					c-0.4,0.1-1.2,0.2-2.4,0.4c-1,0.1-1.8,0.4-2.3,0.8C478.4,109.4,478.1,110,478.1,110.7z M497.4,92.5v22.9h-4.6V92.5H497.4z
					 M526.1,92.5v22.9h-4.4v-2.1l0,0c-0.5,0.8-1.2,1.5-2,1.9c-0.9,0.4-1.9,0.6-3,0.6c-2.3,0-4.1-0.8-5.4-2.5c-1.3-1.7-2-3.8-2-6.4
					c0-2.5,0.7-4.5,2-6.1c1.3-1.6,3.1-2.4,5.4-2.4c1,0,2,0.2,2.8,0.6c0.9,0.4,1.6,1,2.1,1.8h0.1v-8.3H526.1z M513.7,107.1
					c0,1.6,0.4,2.8,1.1,3.8c0.7,1,1.7,1.5,2.9,1.5c1.3,0,2.2-0.5,2.9-1.4s1-2.3,1-4c0-1.6-0.3-2.9-1-3.8c-0.7-1-1.6-1.4-3-1.4
					c-1.3,0-2.2,0.5-2.9,1.4C514.1,104.2,513.7,105.5,513.7,107.1z M537.2,98.4c2.5,0,4.4,0.8,5.9,2.5s2.2,3.8,2.2,6.4v0.8h-12
					c0.1,1.4,0.4,2.5,1.1,3.2c0.7,0.7,1.7,1,2.9,1c0.8,0,1.6-0.2,2.3-0.6s1.2-0.9,1.3-1.5h4c-0.6,1.9-1.6,3.3-2.8,4.2
					c-1.3,0.9-2.9,1.4-4.9,1.4c-2.6,0-4.6-0.8-6.2-2.4c-1.6-1.6-2.3-3.7-2.3-6.3c0-2.5,0.8-4.6,2.4-6.2
					C532.7,99.2,534.7,98.4,537.2,98.4z M533.3,105.3h7.4c-0.2-1.2-0.6-2.1-1.2-2.7c-0.6-0.6-1.4-0.8-2.5-0.8s-2,0.3-2.6,0.9
					C533.7,103.4,533.4,104.2,533.3,105.3z M555.9,98.4c2.1,0,4,0.6,5.4,1.7c1.5,1.1,2.3,2.6,2.4,4.6h-4.5c-0.1-1-0.5-1.7-1.1-2.1
					c-0.6-0.5-1.3-0.7-2.3-0.7c-1.2,0-2.2,0.5-2.9,1.5s-1,2.3-1,3.9s0.3,2.9,1,3.8s1.6,1.4,2.8,1.4c1,0,1.8-0.3,2.4-0.9
					c0.6-0.6,1-1.4,1.2-2.5h4.4c-0.3,2.2-1.2,3.9-2.6,5.1c-1.4,1.2-3.2,1.8-5.4,1.8c-2.5,0-4.5-0.8-6-2.4c-1.6-1.6-2.3-3.6-2.3-6.1
					c0-2.7,0.8-4.8,2.3-6.5C551.3,99.2,553.3,98.4,555.9,98.4z M571.1,92.5v3.7h-4.6v-3.7H571.1z M571.1,98.8v16.6h-4.6V98.8H571.1z
					 M581.5,98.4c2.3,0,4,0.4,5.2,1.3s1.9,2.2,2.1,3.9h-4.4c-0.1-0.8-0.4-1.3-0.9-1.7c-0.5-0.4-1.3-0.5-2.2-0.5s-1.5,0.1-1.9,0.4
					s-0.6,0.6-0.6,1.1s0.3,0.9,0.8,1.3c0.5,0.3,1.6,0.6,3.2,0.9c2.6,0.5,4.3,1.1,5.1,1.9c0.9,0.8,1.3,1.8,1.3,3
					c0,1.9-0.7,3.3-2.1,4.3c-1.4,1-3.2,1.5-5.5,1.5s-4.1-0.5-5.6-1.5c-1.4-1-2.2-2.4-2.3-4.4h4.4c0,0.9,0.3,1.6,1,2
					c0.7,0.5,1.5,0.7,2.5,0.7c0.9,0,1.6-0.2,2.1-0.6c0.6-0.4,0.8-0.9,0.8-1.6c0-0.6-0.4-1-1.1-1.4c-0.7-0.4-2-0.8-4-1.2
					c-1.9-0.4-3.3-0.9-4.1-1.6s-1.3-1.7-1.3-2.8c0-1.8,0.6-3.1,1.9-4C577.4,98.8,579.1,98.4,581.5,98.4z M596.6,92.5v3.7H592v-3.7
					H596.6z M596.6,98.8v16.6H592V98.8H596.6z M608.3,98.4c2.6,0,4.7,0.8,6.2,2.4c1.6,1.6,2.4,3.7,2.4,6.4c0,2.6-0.8,4.8-2.4,6.4
					c-1.6,1.6-3.6,2.4-6.2,2.4s-4.6-0.8-6.2-2.4c-1.6-1.6-2.4-3.7-2.4-6.3c0-2.6,0.8-4.7,2.3-6.3C603.5,99.2,605.6,98.4,608.3,98.4z
					 M604.2,107.1c0,1.7,0.4,3.1,1.1,4c0.7,0.9,1.7,1.3,3,1.3s2.3-0.5,3-1.4s1.1-2.2,1.1-3.9c0-1.6-0.3-2.9-1-3.9s-1.7-1.4-3.1-1.4
					c-1.2,0-2.2,0.4-2.9,1.3C604.6,104,604.2,105.4,604.2,107.1z M629.3,98.4c2.1,0,3.7,0.5,4.6,1.6s1.4,2.8,1.4,5.1v10.4h-4.6V106
					c0-1.3-0.2-2.3-0.7-2.9c-0.4-0.7-1.2-1-2.2-1c-1.3,0-2.2,0.4-2.7,1.1c-0.5,0.8-0.8,1.9-0.8,3.5v8.9h-4.5V98.8h4.3v2.3h0.1
					c0.5-0.9,1.3-1.6,2.2-2C627.3,98.6,628.3,98.4,629.3,98.4z M648.4,104.7v3.9h-9.6v-3.9H648.4z M661.5,98.4c1.2,0,2.2,0.2,3,0.7
					s1.4,1.2,1.8,2c0.6-0.9,1.4-1.6,2.2-2c0.9-0.5,1.8-0.7,2.8-0.7c2,0,3.5,0.5,4.5,1.5s1.5,2.4,1.5,4.2v11.3h-4.6v-9.6
					c0-1.5-0.2-2.5-0.7-3.1c-0.4-0.5-1.1-0.8-2.1-0.8s-1.8,0.3-2.3,1s-0.8,1.7-0.8,3v9.4h-4.6v-10.2c0-1.1-0.2-1.9-0.6-2.4
					c-0.4-0.5-1.1-0.8-2.1-0.8c-0.9,0-1.6,0.3-2.2,1c-0.6,0.7-0.9,1.6-0.9,2.7v9.7H652V98.8h4.3v2.3h0.1c0.6-0.9,1.4-1.6,2.2-2
					C659.5,98.6,660.4,98.4,661.5,98.4z M688.6,98.4c2.5,0,4.3,0.4,5.5,1.2c1.2,0.8,1.8,1.9,1.8,3.4v8.9c0,0.7,0,1.3,0.1,2
					s0.3,1.2,0.5,1.5h-4.6c-0.1-0.3-0.1-0.5-0.2-0.8c0-0.3-0.1-0.5-0.1-0.8c-0.6,0.7-1.4,1.2-2.4,1.5c-0.9,0.3-2,0.5-3.2,0.5
					c-1.7,0-3.1-0.4-4.1-1.3s-1.5-2.1-1.5-3.7c0-1.5,0.5-2.7,1.4-3.5c1-0.8,2.7-1.4,5.3-1.7c1.8-0.2,2.9-0.4,3.5-0.7
					c0.6-0.3,0.8-0.7,0.8-1.4c0-0.7-0.2-1.3-0.7-1.6c-0.4-0.4-1.2-0.6-2.3-0.6c-0.9,0-1.7,0.2-2.2,0.6s-0.8,1-0.9,1.9h-4.6
					c0.1-1.8,0.9-3.2,2.3-4.1C684.4,98.9,686.3,98.4,688.6,98.4z M684.8,110.7c0,0.7,0.2,1.2,0.7,1.6s1.2,0.6,2.1,0.6
					c1.2,0,2.1-0.3,2.7-0.9c0.6-0.6,0.9-1.6,0.9-2.8v-1.8c-0.3,0.2-0.6,0.4-1.1,0.5c-0.4,0.1-1.2,0.2-2.4,0.4
					c-1,0.1-1.8,0.4-2.3,0.8C685.1,109.4,684.8,110,684.8,110.7z M704.4,92.5v12.3l5.8-6h5.4l-6.3,6.1l7,10.5h-5.5l-4.5-7.4
					l-1.8,1.7v5.7h-4.6V92.5H704.4z M725.1,98.4c2.5,0,4.4,0.8,5.9,2.5s2.2,3.8,2.2,6.4v0.8h-12c0.1,1.4,0.4,2.5,1.1,3.2
					c0.7,0.7,1.7,1,2.9,1c0.8,0,1.6-0.2,2.3-0.6s1.2-0.9,1.3-1.5h4c-0.6,1.9-1.6,3.3-2.8,4.2c-1.3,0.9-2.9,1.4-4.9,1.4
					c-2.6,0-4.6-0.8-6.2-2.4c-1.6-1.6-2.3-3.7-2.3-6.3c0-2.5,0.8-4.6,2.4-6.2C720.5,99.2,722.6,98.4,725.1,98.4z M721.1,105.3h7.4
					c-0.2-1.2-0.6-2.1-1.2-2.7c-0.6-0.6-1.4-0.8-2.5-0.8s-2,0.3-2.6,0.9C721.6,103.4,721.2,104.2,721.1,105.3z M745.5,98.4
					c0.2,0,0.4,0,0.5,0c0.2,0,0.3,0,0.5,0.1v4.2c-0.3,0-0.5-0.1-0.8-0.1c-0.2,0-0.5,0-0.9,0c-1.5,0-2.7,0.5-3.4,1.4
					s-1.1,2.2-1.1,3.8v7.6h-4.5V98.8h4.3v3.1h0.1c0.5-1.1,1.2-1.9,2.1-2.6C743.3,98.7,744.4,98.4,745.5,98.4z M773.4,92.5v22.9H769
					v-2.1l0,0c-0.5,0.8-1.2,1.5-2,1.9c-0.9,0.4-1.9,0.6-3,0.6c-2.3,0-4.1-0.8-5.4-2.5c-1.3-1.7-2-3.8-2-6.4c0-2.5,0.7-4.5,2-6.1
					s3.1-2.4,5.4-2.4c1,0,2,0.2,2.8,0.6c0.9,0.4,1.6,1,2.1,1.8h0.1v-8.3H773.4z M761.1,107.1c0,1.6,0.4,2.8,1.1,3.8
					c0.7,1,1.7,1.5,2.9,1.5c1.3,0,2.2-0.5,2.9-1.4s1-2.3,1-4c0-1.6-0.3-2.9-1-3.8c-0.7-1-1.6-1.4-3-1.4c-1.3,0-2.2,0.5-2.9,1.4
					C761.4,104.2,761.1,105.5,761.1,107.1z M784.5,98.4c2.5,0,4.4,0.8,5.9,2.5s2.2,3.8,2.2,6.4v0.8h-12c0.1,1.4,0.4,2.5,1.1,3.2
					c0.7,0.7,1.7,1,2.9,1c0.8,0,1.6-0.2,2.3-0.6s1.2-0.9,1.3-1.5h4c-0.6,1.9-1.6,3.3-2.8,4.2c-1.3,0.9-2.9,1.4-4.9,1.4
					c-2.6,0-4.6-0.8-6.2-2.4c-1.6-1.6-2.3-3.7-2.3-6.3c0-2.5,0.8-4.6,2.4-6.2C780,99.2,782,98.4,784.5,98.4z M780.6,105.3h7.4
					c-0.2-1.2-0.6-2.1-1.2-2.7c-0.6-0.6-1.4-0.8-2.5-0.8s-2,0.3-2.6,0.9C781.1,103.4,780.7,104.2,780.6,105.3z M802.1,98.4
					c2.3,0,4,0.4,5.2,1.3s1.9,2.2,2.1,3.9H805c-0.1-0.8-0.4-1.3-0.9-1.7c-0.5-0.4-1.3-0.5-2.2-0.5s-1.5,0.1-1.9,0.4
					s-0.6,0.6-0.6,1.1s0.3,0.9,0.8,1.3c0.5,0.3,1.6,0.6,3.2,0.9c2.6,0.5,4.3,1.1,5.1,1.9c0.9,0.8,1.3,1.8,1.3,3
					c0,1.9-0.7,3.3-2.1,4.3c-1.4,1-3.2,1.5-5.5,1.5s-4.1-0.5-5.6-1.5c-1.4-1-2.2-2.4-2.3-4.4h4.4c0,0.9,0.3,1.6,1,2
					c0.7,0.5,1.5,0.7,2.5,0.7c0.9,0,1.6-0.2,2.1-0.6c0.6-0.4,0.8-0.9,0.8-1.6c0-0.6-0.4-1-1.1-1.4c-0.7-0.4-2-0.8-4-1.2
					c-1.9-0.4-3.3-0.9-4.1-1.6s-1.3-1.7-1.3-2.8c0-1.8,0.6-3.1,1.9-4C798,98.8,799.8,98.4,802.1,98.4z M817.2,92.5v3.7h-4.6v-3.7
					H817.2z M817.2,98.8v16.6h-4.6V98.8H817.2z M827.4,98.4c1.2,0,2.2,0.2,3,0.7c0.8,0.4,1.5,1.1,2,2h0.1v-2.2h4.3v15.7
					c0,2.2-0.7,4-2.1,5.3c-1.4,1.3-3.6,1.9-6.4,1.9c-1.9,0-3.6-0.5-5-1.4s-2.2-2.2-2.3-3.9h4.5c0.2,0.8,0.6,1.4,1.2,1.7
					c0.6,0.4,1.3,0.5,2.2,0.5c1.2,0,2.1-0.4,2.7-1.1c0.6-0.7,1-1.7,1-2.9v-2.3h-0.1c-0.4,0.8-1.1,1.5-2,1.9s-1.9,0.7-3,0.7
					c-2.2,0-4-0.7-5.2-2.2s-1.9-3.5-1.9-6.1c0-2.4,0.7-4.3,2-5.9C823.5,99.2,825.3,98.4,827.4,98.4z M824.9,106.5
					c0,1.6,0.3,2.8,1,3.6c0.6,0.9,1.6,1.3,2.7,1.3c1.2,0,2.1-0.4,2.8-1.3s1.1-2,1.1-3.3c0-1.6-0.3-2.9-1-3.7
					c-0.7-0.9-1.6-1.3-2.9-1.3c-1.1,0-2,0.4-2.7,1.3C825.2,104,824.9,105.1,824.9,106.5z M849.9,98.4c2.1,0,3.7,0.5,4.6,1.6
					c1,1.1,1.4,2.8,1.4,5.1v10.4h-4.6V106c0-1.3-0.2-2.3-0.7-2.9c-0.4-0.7-1.2-1-2.2-1c-1.3,0-2.2,0.4-2.7,1.1
					c-0.5,0.8-0.8,1.9-0.8,3.5v8.9h-4.5V98.8h4.3v2.3h0.1c0.5-0.9,1.3-1.6,2.2-2C847.9,98.6,848.9,98.4,849.9,98.4z"/>
			</g>
		</g>
	</g>
	<g>
		<g>
			<g>
				<defs>
					<rect id="SVGID_00000124159628404810081150000015673033297968342938_" x="45.8" y="41.7" width="852" height="636.6"/>
				</defs>
				<clipPath id="SVGID_00000061450383358085591530000011354903447262097596_">
					<use xlink:href="#SVGID_00000124159628404810081150000015673033297968342938_"  style="overflow:visible;"/>
				</clipPath>
				
					<path style="clip-path:url(#SVGID_00000061450383358085591530000011354903447262097596_);fill-rule:evenodd;clip-rule:evenodd;fill-opacity:0;" d="
					M100.2,629.1V253"/>
			</g>
		</g>
	</g>
	<g>
		<g>
			<g>
				<defs>
					<rect id="SVGID_00000068648437734511988560000013947295704560979629_" x="45.8" y="41.7" width="852" height="636.6"/>
				</defs>
				<clipPath id="SVGID_00000067219415878145356790000004980289379096178874_">
					<use xlink:href="#SVGID_00000068648437734511988560000013947295704560979629_"  style="overflow:visible;"/>
				</clipPath>
				
					<path style="clip-path:url(#SVGID_00000067219415878145356790000004980289379096178874_);fill:none;stroke:#000000;stroke-width:3;stroke-linejoin:round;stroke-miterlimit:10;" d="
					M100.2,629.1v-349"/>
			</g>
		</g>
	</g>
	<g>
		<g>
			<g>
				<defs>
					<rect id="SVGID_00000039816389514601567470000015999091182804992171_" x="45.8" y="41.7" width="852" height="636.6"/>
				</defs>
				<clipPath id="SVGID_00000074428997086580210110000009313183492730111933_">
					<use xlink:href="#SVGID_00000039816389514601567470000015999091182804992171_"  style="overflow:visible;"/>
				</clipPath>
				
					<path style="clip-path:url(#SVGID_00000074428997086580210110000009313183492730111933_);fill-rule:evenodd;clip-rule:evenodd;stroke:#000000;stroke-width:3;stroke-miterlimit:10;" d="
					M107.7,280.1l-7.5-20.5l-7.5,20.5H107.7z"/>
			</g>
		</g>
	</g>
	<g>
		<g>
			<g>
				<defs>
					<rect id="SVGID_00000080927975507036368120000013423019979197409418_" x="45.8" y="41.7" width="852" height="636.6"/>
				</defs>
				<clipPath id="SVGID_00000016767077894233013530000004376364872718452911_">
					<use xlink:href="#SVGID_00000080927975507036368120000013423019979197409418_"  style="overflow:visible;"/>
				</clipPath>
				
					<path style="clip-path:url(#SVGID_00000016767077894233013530000004376364872718452911_);fill-rule:evenodd;clip-rule:evenodd;fill-opacity:0;" d="
					M98.7,627.6h422.4"/>
			</g>
		</g>
	</g>
	<g>
		<g>
			<g>
				<defs>
					<rect id="SVGID_00000133516581983295969360000016564153726423440808_" x="45.8" y="41.7" width="852" height="636.6"/>
				</defs>
				<clipPath id="SVGID_00000132059892465544177720000012110981188197047936_">
					<use xlink:href="#SVGID_00000133516581983295969360000016564153726423440808_"  style="overflow:visible;"/>
				</clipPath>
				
					<path style="clip-path:url(#SVGID_00000132059892465544177720000012110981188197047936_);fill:none;stroke:#000000;stroke-width:3;stroke-linejoin:round;stroke-miterlimit:10;" d="
					M98.7,627.6H494"/>
			</g>
		</g>
	</g>
	<g>
		<g>
			<g>
				<defs>
					<rect id="SVGID_00000063596820442056361330000010404123359244563381_" x="45.8" y="41.7" width="852" height="636.6"/>
				</defs>
				<clipPath id="SVGID_00000116914652824386996080000018355848130713590157_">
					<use xlink:href="#SVGID_00000063596820442056361330000010404123359244563381_"  style="overflow:visible;"/>
				</clipPath>
				
					<path style="clip-path:url(#SVGID_00000116914652824386996080000018355848130713590157_);fill-rule:evenodd;clip-rule:evenodd;stroke:#000000;stroke-width:3;stroke-miterlimit:10;" d="
					M494,635l20.5-7.5L494,620V635z"/>
			</g>
		</g>
	</g>
	<g>
		<g>
			<g>
				<defs>
					<rect id="SVGID_00000061438455641182971250000010782691714847855026_" x="45.8" y="41.7" width="852" height="636.6"/>
				</defs>
				<clipPath id="SVGID_00000149366322481203314320000004907671354495394491_">
					<use xlink:href="#SVGID_00000061438455641182971250000010782691714847855026_"  style="overflow:visible;"/>
				</clipPath>
				
					<path style="clip-path:url(#SVGID_00000149366322481203314320000004907671354495394491_);fill-rule:evenodd;clip-rule:evenodd;fill-opacity:0;" d="
					M100.2,627.6L323.8,404"/>
			</g>
		</g>
	</g>
	<g>
		<g>
			<g>
				<defs>
					<rect id="SVGID_00000127760699673326299310000015294001117218664835_" x="45.8" y="41.7" width="852" height="636.6"/>
				</defs>
				<clipPath id="SVGID_00000018229372839853028850000012862348814036370094_">
					<use xlink:href="#SVGID_00000127760699673326299310000015294001117218664835_"  style="overflow:visible;"/>
				</clipPath>
				
					<path style="clip-path:url(#SVGID_00000018229372839853028850000012862348814036370094_);fill:none;stroke:#000000;stroke-width:3;stroke-linejoin:round;stroke-miterlimit:10;" d="
					M100.2,627.6l204.4-204.4"/>
			</g>
		</g>
	</g>
	<g>
		<g>
			<g>
				<defs>
					<rect id="SVGID_00000103943162956603010670000000280113377135256472_" x="45.8" y="41.7" width="852" height="636.6"/>
				</defs>
				<clipPath id="SVGID_00000044891126898844649610000008357056199238410373_">
					<use xlink:href="#SVGID_00000103943162956603010670000000280113377135256472_"  style="overflow:visible;"/>
				</clipPath>
				
					<path style="clip-path:url(#SVGID_00000044891126898844649610000008357056199238410373_);fill-rule:evenodd;clip-rule:evenodd;stroke:#000000;stroke-width:3;stroke-miterlimit:10;" d="
					M309.9,428.5l9.2-19.8l-19.8,9.2L309.9,428.5z"/>
			</g>
		</g>
	</g>
	<g>
		<g>
			<g>
				<defs>
					<rect id="SVGID_00000154392177889442064940000012190872191239551913_" x="45.8" y="41.7" width="852" height="636.6"/>
				</defs>
				<clipPath id="SVGID_00000015339643117591051320000014558148056860692864_">
					<use xlink:href="#SVGID_00000154392177889442064940000012190872191239551913_"  style="overflow:visible;"/>
				</clipPath>
				
					<path style="clip-path:url(#SVGID_00000015339643117591051320000014558148056860692864_);fill-rule:evenodd;clip-rule:evenodd;fill-opacity:0;" d="
					M248.7,219.3h458v75.2h-458L248.7,219.3z"/>
			</g>
		</g>
	</g>
	<g>
		<g>
			<g>
				<defs>
					<rect id="SVGID_00000034071875459388299370000005948612454301663660_" x="45.8" y="41.7" width="852" height="636.6"/>
				</defs>
				<clipPath id="SVGID_00000092438168223276113950000014192314601863194510_">
					<use xlink:href="#SVGID_00000034071875459388299370000005948612454301663660_"  style="overflow:visible;"/>
				</clipPath>
				<path style="clip-path:url(#SVGID_00000092438168223276113950000014192314601863194510_);" d="M96.6,204.1l6.3,16.8l6.4-16.8
					h3.6v20h-2.5v-16.7l0,0l-6.3,16.7h-2.3l-6.3-16.7l0,0v16.7H93v-20H96.6z M122.9,209.3c2,0,3.4,0.4,4.2,1.1
					c0.8,0.7,1.2,1.6,1.2,2.8c0,5,0,7.8,0,8.4s0.3,0.8,0.8,0.8c0.1,0,0.2,0,0.4,0c0.1,0,0.3-0.1,0.4-0.1v1.9
					c-0.2,0.1-0.5,0.2-0.8,0.3s-0.6,0.1-0.9,0.1c-0.7,0-1.2-0.2-1.5-0.6c-0.3-0.4-0.5-0.9-0.5-1.7c-0.6,0.8-1.4,1.3-2.3,1.7
					c-0.8,0.4-1.8,0.6-2.9,0.6c-1.5,0-2.7-0.4-3.5-1.1c-0.8-0.7-1.3-1.7-1.3-3s0.4-2.3,1.2-3.1c0.8-0.8,2.8-1.3,5.9-1.7
					c1-0.1,1.7-0.3,2.1-0.6s0.6-0.7,0.6-1.2c0-0.8-0.3-1.4-0.8-1.8c-0.5-0.4-1.3-0.6-2.4-0.6c-1.2,0-2.1,0.2-2.7,0.7
					c-0.6,0.4-0.9,1.1-1,2.1h-2.4c0.1-1.6,0.6-2.8,1.7-3.6C119.5,209.7,121,209.3,122.9,209.3z M118.7,220.2c0,0.7,0.2,1.2,0.7,1.6
					c0.5,0.4,1.2,0.6,2.1,0.6c1.3,0,2.4-0.3,3.2-1c0.8-0.7,1.2-1.4,1.2-2.3v-2.5c-0.4,0.3-0.9,0.5-1.6,0.6c-0.6,0.1-1.5,0.2-2.6,0.4
					s-1.8,0.4-2.4,0.9C118.9,218.9,118.7,219.5,118.7,220.2z M134.5,204.1V216l6.6-6.4h3.2l-5.8,5.3l6.2,9.2h-3l-5-7.6l-2.2,2.1v5.5
					h-2.4v-20H134.5z M152.5,209.3c2.1,0,3.7,0.8,4.8,2.3c1.2,1.5,1.7,3.4,1.7,5.8v0.3h-10.9v0.2c0,1.4,0.4,2.5,1.2,3.4
					c0.8,0.8,1.9,1.2,3.3,1.2c1.1,0,1.9-0.2,2.5-0.7s1-1.2,1.2-2.1h2.4c-0.3,1.6-1,2.8-2.1,3.7s-2.4,1.3-4.1,1.3
					c-1.5,0-2.8-0.3-3.9-1c-1.1-0.7-1.8-1.6-2.3-2.9c-0.5-1.2-0.8-2.5-0.8-3.8c0-2.1,0.6-3.9,1.9-5.4
					C148.9,210,150.5,209.3,152.5,209.3z M148.2,215.5h8.3c-0.1-1.2-0.5-2.1-1.3-2.9c-0.8-0.8-1.7-1.2-2.9-1.2c-1.1,0-2,0.4-2.8,1.1
					C148.8,213.2,148.3,214.2,148.2,215.5z M172.7,205.3v4.4h2.9v2.1h-2.9v9.1c0,0.7,0.2,1.1,0.7,1.2c0.5,0,1,0,1.5,0h0.7v2.1h-2
					c-1.3,0-2.2-0.2-2.7-0.7c-0.4-0.5-0.7-1.3-0.7-2.4v-9.4h-2.5v-2.1h2.5v-4.4L172.7,205.3L172.7,205.3z M180.6,204.1v7.7l0,0
					c0.3-0.8,0.9-1.4,1.8-1.8c0.8-0.4,1.8-0.7,2.8-0.7c1.8,0,3,0.4,3.8,1.3c0.8,0.9,1.2,2.2,1.2,3.8v9.7h-2.4v-9.9
					c0-0.8-0.3-1.5-0.8-2s-1.2-0.8-2.2-0.8c-1.3,0-2.4,0.4-3.2,1.2s-1.1,1.9-1.1,3.2v8.3h-2.4v-20H180.6z M199.9,209.3
					c2.1,0,3.7,0.8,4.8,2.3c1.2,1.5,1.7,3.4,1.7,5.8v0.3h-10.9v0.2c0,1.4,0.4,2.5,1.2,3.4c0.8,0.8,1.9,1.2,3.3,1.2
					c1.1,0,1.9-0.2,2.5-0.7s1-1.2,1.2-2.1h2.4c-0.3,1.6-1,2.8-2.1,3.7c-1.1,0.8-2.4,1.3-4.1,1.3c-1.5,0-2.8-0.3-3.9-1
					c-1.1-0.7-1.8-1.6-2.3-2.9c-0.5-1.2-0.8-2.5-0.8-3.8c0-2.1,0.6-3.9,1.9-5.4C196.3,210,197.9,209.3,199.9,209.3z M195.6,215.5
					h8.3c-0.1-1.2-0.5-2.1-1.3-2.9c-0.8-0.8-1.7-1.2-2.9-1.2c-1.1,0-2,0.4-2.8,1.1C196.1,213.2,195.7,214.2,195.6,215.5z
					 M215.9,209.3c1.1,0,1.9,0.2,2.6,0.6c0.7,0.4,1.1,1,1.4,1.8c0.5-0.8,1.1-1.4,1.9-1.8c0.8-0.4,1.7-0.7,2.7-0.7
					c1.6,0,2.8,0.4,3.6,1.1c0.8,0.7,1.2,1.7,1.2,3V224h-2.4v-9.6c0-1.1-0.2-1.8-0.7-2.4c-0.4-0.5-1.2-0.8-2.1-0.8
					c-1.2,0-2.1,0.3-2.8,1s-1,1.6-1,2.6v9.1h-2.4v-9.6c0-1.1-0.2-1.8-0.7-2.4c-0.4-0.5-1.1-0.8-2-0.8c-0.8,0-1.4,0.2-2,0.5
					c-0.6,0.4-1,0.9-1.4,1.5c-0.3,0.6-0.5,1.2-0.5,1.6v9.1h-2.4v-14.5h2.3v2.1l0,0c0.5-0.8,1.2-1.5,2-1.9
					C214,209.5,214.9,209.3,215.9,209.3z M247.7,209.3c1.1,0,1.9,0.2,2.6,0.6c0.7,0.4,1.1,1,1.4,1.8c0.5-0.8,1.1-1.4,1.9-1.8
					c0.8-0.4,1.7-0.7,2.7-0.7c1.6,0,2.8,0.4,3.6,1.1c0.8,0.7,1.2,1.7,1.2,3V224h-2.4v-9.6c0-1.1-0.2-1.8-0.7-2.4
					c-0.4-0.5-1.2-0.8-2.1-0.8c-1.2,0-2.1,0.3-2.8,1s-1,1.6-1,2.6v9.1h-2.4v-9.6c0-1.1-0.2-1.8-0.7-2.4c-0.4-0.5-1.1-0.8-2-0.8
					c-0.8,0-1.4,0.2-2,0.5c-0.6,0.4-1,0.9-1.4,1.5c-0.3,0.6-0.5,1.2-0.5,1.6v9.1h-2.4v-14.5h2.3v2.1l0,0c0.5-0.8,1.2-1.5,2-1.9
					C245.7,209.5,246.6,209.3,247.7,209.3z M270.9,209.3c2.2,0,3.9,0.7,5.2,2.1c1.3,1.4,1.9,3.2,1.9,5.5s-0.6,4.1-1.9,5.5
					s-3,2.1-5.1,2.1s-3.8-0.7-5.1-2.1c-1.3-1.4-2-3.2-2-5.5s0.6-4.1,1.9-5.5S268.7,209.3,270.9,209.3z M266.3,216.9
					c0,1.7,0.4,3,1.3,4s2,1.5,3.3,1.5s2.4-0.5,3.2-1.5c0.9-1,1.3-2.3,1.3-4c0-1.6-0.4-3-1.3-4c-0.8-1-1.9-1.5-3.3-1.5
					c-1.3,0-2.4,0.5-3.2,1.5C266.8,213.9,266.3,215.2,266.3,216.9z M288,209.3h0.1c0,0,0.1,0,0.2,0v2.5c-1.8,0-3.1,0.5-4,1.4
					c-0.8,0.9-1.3,2.4-1.3,4.4v6.5h-2.4v-14.5h2.2v3.1h0.1c0.5-1.2,1.2-2,2-2.6C285.8,209.6,286.8,209.3,288,209.3z M295.6,209.3
					c2.1,0,3.7,0.8,4.8,2.3c1.2,1.5,1.7,3.4,1.7,5.8v0.3h-10.9v0.2c0,1.4,0.4,2.5,1.2,3.4c0.8,0.8,1.9,1.2,3.3,1.2
					c1.1,0,1.9-0.2,2.5-0.7s1-1.2,1.2-2.1h2.4c-0.3,1.6-1,2.8-2.1,3.7c-1.1,0.8-2.4,1.3-4.1,1.3c-1.5,0-2.8-0.3-3.9-1
					s-1.8-1.6-2.3-2.9c-0.5-1.2-0.8-2.5-0.8-3.8c0-2.1,0.6-3.9,1.9-5.4C292,210,293.7,209.3,295.6,209.3z M291.3,215.5h8.3
					c-0.1-1.2-0.5-2.1-1.3-2.9c-0.8-0.8-1.7-1.2-2.9-1.2c-1.1,0-2,0.4-2.8,1.1C291.9,213.2,291.4,214.2,291.3,215.5z M315.5,204.1
					v8.6h10.6v-8.6h2.7v20h-2.7v-9.2h-10.6v9.2h-2.7v-20H315.5z M335.1,209.6v9.9c0,0.8,0.3,1.5,0.8,2s1.3,0.8,2.2,0.8
					c1.4,0,2.4-0.4,3.2-1.2c0.8-0.8,1.1-1.9,1.1-3.2v-8.3h2.4v14.5h-2.3v-2.3l0,0c-0.5,0.9-1.2,1.6-2,2s-1.7,0.6-2.7,0.6
					c-1.7,0-3-0.4-3.8-1.3c-0.8-0.9-1.2-2.2-1.2-3.9v-9.7L335.1,209.6L335.1,209.6z M355.4,209.3c1.1,0,1.9,0.2,2.6,0.6
					c0.7,0.4,1.1,1,1.4,1.8c0.5-0.8,1.1-1.4,1.9-1.8c0.8-0.4,1.7-0.7,2.7-0.7c1.6,0,2.8,0.4,3.6,1.1c0.8,0.7,1.2,1.7,1.2,3V224h-2.4
					v-9.6c0-1.1-0.2-1.8-0.7-2.4c-0.4-0.5-1.2-0.8-2.1-0.8c-1.2,0-2.1,0.3-2.8,1c-0.7,0.7-1,1.6-1,2.6v9.1h-2.4v-9.6
					c0-1.1-0.2-1.8-0.7-2.4c-0.4-0.5-1.1-0.8-2-0.8c-0.8,0-1.4,0.2-2,0.5c-0.6,0.4-1,0.9-1.4,1.5c-0.3,0.6-0.5,1.2-0.5,1.6v9.1h-2.4
					v-14.5h2.3v2.1l0,0c0.5-0.8,1.2-1.5,2-1.9C353.4,209.5,354.3,209.3,355.4,209.3z M378.3,209.3c2,0,3.4,0.4,4.2,1.1
					c0.8,0.7,1.2,1.6,1.2,2.8c0,5,0,7.8,0,8.4s0.3,0.8,0.8,0.8c0.1,0,0.2,0,0.4,0c0.1,0,0.3-0.1,0.4-0.1v1.9
					c-0.2,0.1-0.5,0.2-0.8,0.3s-0.6,0.1-0.9,0.1c-0.7,0-1.2-0.2-1.5-0.6c-0.3-0.4-0.5-0.9-0.5-1.7c-0.6,0.8-1.4,1.3-2.3,1.7
					c-0.8,0.4-1.8,0.6-2.9,0.6c-1.5,0-2.7-0.4-3.5-1.1c-0.8-0.7-1.3-1.7-1.3-3s0.4-2.3,1.2-3.1c0.8-0.8,2.8-1.3,5.9-1.7
					c1-0.1,1.7-0.3,2.1-0.6s0.6-0.7,0.6-1.2c0-0.8-0.3-1.4-0.8-1.8c-0.5-0.4-1.3-0.6-2.4-0.6c-1.2,0-2.1,0.2-2.7,0.7
					c-0.6,0.4-0.9,1.1-1,2.1h-2.4c0.1-1.6,0.6-2.8,1.7-3.6C374.9,209.7,376.4,209.3,378.3,209.3z M374.1,220.2
					c0,0.7,0.2,1.2,0.7,1.6c0.5,0.4,1.2,0.6,2.1,0.6c1.3,0,2.4-0.3,3.2-1c0.8-0.7,1.2-1.4,1.2-2.3v-2.5c-0.4,0.3-0.9,0.5-1.6,0.6
					c-0.6,0.1-1.5,0.2-2.6,0.4s-1.8,0.4-2.4,0.9C374.3,218.9,374.1,219.5,374.1,220.2z M394.4,209.3c1.8,0,3,0.4,3.8,1.3
					c0.8,0.9,1.2,2.2,1.2,3.8v9.7H397v-9.9c0-0.8-0.3-1.5-0.8-2s-1.2-0.8-2.2-0.8c-1.3,0-2.4,0.4-3.2,1.2c-0.8,0.8-1.1,1.9-1.1,3.2
					v8.3h-2.4v-14.5h2.3v2.3l0,0c0.5-0.9,1.2-1.6,2-2C392.4,209.5,393.4,209.3,394.4,209.3z M410.8,215.2v2.3h-8.1v-2.3H410.8z
					 M416.5,204.1v20h-2.4v-20H416.5z M422.7,204.1v2.9h-2.4v-2.9H422.7z M422.7,209.6v14.5h-2.4v-14.5H422.7z M429,204.1V216
					l6.6-6.4h3.2l-5.8,5.3l6.2,9.2h-3l-5-7.6l-2.2,2.1v5.5h-2.4v-20H429z M446.9,209.3c2.1,0,3.7,0.8,4.8,2.3
					c1.2,1.5,1.7,3.4,1.7,5.8v0.3h-10.9v0.2c0,1.4,0.4,2.5,1.2,3.4c0.8,0.8,1.9,1.2,3.3,1.2c1.1,0,1.9-0.2,2.5-0.7s1-1.2,1.2-2.1
					h2.4c-0.3,1.6-1,2.8-2.1,3.7c-1.1,0.8-2.4,1.3-4.1,1.3c-1.5,0-2.8-0.3-3.9-1s-1.8-1.6-2.3-2.9c-0.5-1.2-0.8-2.5-0.8-3.8
					c0-2.1,0.6-3.9,1.9-5.4C443.3,210,445,209.3,446.9,209.3z M442.6,215.5h8.3c-0.1-1.2-0.5-2.1-1.3-2.9c-0.8-0.8-1.7-1.2-2.9-1.2
					c-1.1,0-2,0.4-2.8,1.1C443.2,213.2,442.7,214.2,442.6,215.5z"/>
			</g>
		</g>
	</g>
	<g>
		<g>
			<g>
				<defs>
					<rect id="SVGID_00000096047897647944855720000008791546112226770846_" x="45.8" y="41.7" width="852" height="636.6"/>
				</defs>
				<clipPath id="SVGID_00000150815577277507216230000013347774211765547141_">
					<use xlink:href="#SVGID_00000096047897647944855720000008791546112226770846_"  style="overflow:visible;"/>
				</clipPath>
				
					<path style="clip-path:url(#SVGID_00000150815577277507216230000013347774211765547141_);fill-rule:evenodd;clip-rule:evenodd;fill-opacity:0;" d="
					M317,334.7h422.4V404H317V334.7z"/>
			</g>
		</g>
	</g>
	<g>
		<g>
			<g>
				<defs>
					<rect id="SVGID_00000132047335779683967130000002964935687605378210_" x="45.8" y="41.7" width="852" height="636.6"/>
				</defs>
				<clipPath id="SVGID_00000053531056035626215650000009497075170698583724_">
					<use xlink:href="#SVGID_00000132047335779683967130000002964935687605378210_"  style="overflow:visible;"/>
				</clipPath>
				<path style="clip-path:url(#SVGID_00000053531056035626215650000009497075170698583724_);" d="M336.5,355.2l6.3,16.8l6.4-16.8
					h3.6v20h-2.5v-16.7l0,0l-6.3,16.7h-2.3l-6.3-16.7l0,0v16.7h-2.5v-20H336.5z M362.8,360.4c2,0,3.4,0.4,4.2,1.1
					c0.8,0.7,1.2,1.6,1.2,2.8c0,5,0,7.8,0,8.4c0,0.5,0.3,0.8,0.8,0.8c0.1,0,0.2,0,0.4,0c0.1,0,0.3-0.1,0.4-0.1v1.9
					c-0.2,0.1-0.5,0.2-0.8,0.3c-0.3,0.1-0.6,0.1-0.9,0.1c-0.7,0-1.2-0.2-1.5-0.6s-0.5-0.9-0.5-1.7c-0.6,0.8-1.4,1.3-2.3,1.7
					c-0.8,0.4-1.8,0.6-2.9,0.6c-1.5,0-2.7-0.4-3.5-1.1s-1.3-1.7-1.3-3s0.4-2.3,1.2-3.1c0.8-0.8,2.8-1.3,5.9-1.7
					c1-0.1,1.7-0.3,2.1-0.6c0.4-0.3,0.6-0.7,0.6-1.2c0-0.8-0.3-1.4-0.8-1.8s-1.3-0.6-2.4-0.6c-1.2,0-2.1,0.2-2.7,0.7
					c-0.6,0.4-0.9,1.1-1,2.1h-2.4c0.1-1.6,0.6-2.8,1.7-3.6C359.4,360.8,360.9,360.4,362.8,360.4z M358.6,371.3
					c0,0.7,0.2,1.2,0.7,1.6s1.2,0.6,2.1,0.6c1.3,0,2.4-0.3,3.2-1c0.8-0.7,1.2-1.4,1.2-2.3v-2.5c-0.4,0.3-0.9,0.5-1.6,0.6
					c-0.6,0.1-1.5,0.2-2.6,0.4c-1.1,0.2-1.8,0.4-2.4,0.9C358.8,369.9,358.6,370.5,358.6,371.3z M374.5,355.2V367l6.6-6.4h3.2
					l-5.8,5.3l6.2,9.2h-3l-5-7.6l-2.2,2.1v5.5h-2.4v-20h2.4L374.5,355.2L374.5,355.2z M392.4,360.4c2.1,0,3.7,0.8,4.8,2.3
					c1.2,1.5,1.7,3.4,1.7,5.8v0.3H388v0.2c0,1.4,0.4,2.5,1.2,3.4c0.8,0.8,1.9,1.2,3.3,1.2c1.1,0,1.9-0.2,2.5-0.7s1-1.2,1.2-2.1h2.4
					c-0.3,1.6-1,2.8-2.1,3.7c-1.1,0.8-2.4,1.3-4.1,1.3c-1.5,0-2.8-0.3-3.9-1s-1.8-1.6-2.3-2.9c-0.5-1.2-0.8-2.5-0.8-3.8
					c0-2.1,0.6-3.9,1.9-5.4C388.8,361.1,390.5,360.4,392.4,360.4z M388.1,366.6h8.3c-0.1-1.2-0.5-2.1-1.3-2.9s-1.7-1.2-2.9-1.2
					c-1.1,0-2,0.4-2.8,1.1C388.7,364.3,388.2,365.3,388.1,366.6z M412.6,356.3v4.4h2.9v2.1h-2.9v9.1c0,0.7,0.2,1.1,0.7,1.2
					c0.5,0,1,0,1.5,0h0.7v2.1h-2c-1.3,0-2.2-0.2-2.7-0.7c-0.4-0.5-0.7-1.3-0.7-2.4v-9.4h-2.5v-2.1h2.5v-4.4L412.6,356.3L412.6,356.3
					z M420.5,355.2v7.7l0,0c0.3-0.8,0.9-1.4,1.8-1.8c0.8-0.4,1.8-0.7,2.8-0.7c1.8,0,3,0.4,3.8,1.3s1.2,2.2,1.2,3.8v9.7h-2.4v-9.9
					c0-0.8-0.3-1.5-0.8-2s-1.2-0.8-2.2-0.8c-1.3,0-2.4,0.4-3.2,1.2c-0.8,0.8-1.1,1.9-1.1,3.2v8.3H418v-20L420.5,355.2L420.5,355.2z
					 M439.8,360.4c2.1,0,3.7,0.8,4.8,2.3c1.2,1.5,1.7,3.4,1.7,5.8v0.3h-10.9v0.2c0,1.4,0.4,2.5,1.2,3.4c0.8,0.8,1.9,1.2,3.3,1.2
					c1.1,0,1.9-0.2,2.5-0.7s1-1.2,1.2-2.1h2.4c-0.3,1.6-1,2.8-2.1,3.7c-1.1,0.8-2.4,1.3-4.1,1.3c-1.5,0-2.8-0.3-3.9-1
					s-1.8-1.6-2.3-2.9c-0.5-1.2-0.8-2.5-0.8-3.8c0-2.1,0.6-3.9,1.9-5.4C436.2,361.1,437.8,360.4,439.8,360.4z M435.5,366.6h8.3
					c-0.1-1.2-0.5-2.1-1.3-2.9s-1.7-1.2-2.9-1.2c-1.1,0-2,0.4-2.8,1.1C436,364.3,435.6,365.3,435.5,366.6z M455.8,360.4
					c1.1,0,1.9,0.2,2.6,0.6s1.1,1,1.4,1.8c0.5-0.8,1.1-1.4,1.9-1.8s1.7-0.7,2.7-0.7c1.6,0,2.8,0.4,3.6,1.1c0.8,0.7,1.2,1.7,1.2,3
					v10.7h-2.4v-9.6c0-1.1-0.2-1.8-0.7-2.4c-0.4-0.5-1.2-0.8-2.1-0.8c-1.2,0-2.1,0.3-2.8,1c-0.7,0.7-1,1.6-1,2.6v9.1h-2.4v-9.6
					c0-1.1-0.2-1.8-0.7-2.4c-0.4-0.5-1.1-0.8-2-0.8c-0.8,0-1.4,0.2-2,0.5c-0.6,0.4-1,0.9-1.4,1.5c-0.3,0.6-0.5,1.2-0.5,1.6v9.1h-2.4
					v-14.5h2.3v2.1l0,0c0.5-0.8,1.2-1.5,2-1.9C453.9,360.6,454.8,360.4,455.8,360.4z M487.6,360.4c1.1,0,1.9,0.2,2.6,0.6
					s1.1,1,1.4,1.8c0.5-0.8,1.1-1.4,1.9-1.8s1.7-0.7,2.7-0.7c1.6,0,2.8,0.4,3.6,1.1s1.2,1.7,1.2,3v10.7h-2.4v-9.6
					c0-1.1-0.2-1.8-0.7-2.4c-0.4-0.5-1.2-0.8-2.1-0.8c-1.2,0-2.1,0.3-2.8,1c-0.7,0.7-1,1.6-1,2.6v9.1h-2.4v-9.6
					c0-1.1-0.2-1.8-0.7-2.4c-0.4-0.5-1.1-0.8-2-0.8c-0.8,0-1.4,0.2-2,0.5c-0.6,0.4-1,0.9-1.4,1.5c-0.3,0.6-0.5,1.2-0.5,1.6v9.1h-2.4
					v-14.5h2.3v2.1l0,0c0.5-0.8,1.2-1.5,2-1.9C485.6,360.6,486.5,360.4,487.6,360.4z M510.8,360.4c2.2,0,3.9,0.7,5.2,2.1
					s1.9,3.2,1.9,5.5s-0.6,4.1-1.9,5.5c-1.3,1.4-3,2.1-5.1,2.1s-3.8-0.7-5.1-2.1c-1.3-1.4-2-3.2-2-5.5s0.6-4.1,1.9-5.5
					C506.9,361.1,508.6,360.4,510.8,360.4z M506.3,368c0,1.7,0.4,3,1.3,4s2,1.5,3.3,1.5s2.4-0.5,3.2-1.5c0.9-1,1.3-2.3,1.3-4
					c0-1.6-0.4-3-1.3-4c-0.8-1-1.9-1.5-3.3-1.5c-1.3,0-2.4,0.5-3.2,1.5C506.7,364.9,506.3,366.3,506.3,368z M527.9,360.3
					L527.9,360.3c0.1,0,0.2,0,0.3,0v2.5c-1.8,0-3.1,0.5-4,1.4c-0.8,0.9-1.3,2.4-1.3,4.4v6.5h-2.4v-14.5h2.2v3.1h0.1
					c0.5-1.2,1.2-2,2-2.6C525.8,360.6,526.7,360.3,527.9,360.3z M535.5,360.4c2.1,0,3.7,0.8,4.8,2.3c1.2,1.5,1.7,3.4,1.7,5.8v0.3
					h-10.9v0.2c0,1.4,0.4,2.5,1.2,3.4c0.8,0.8,1.9,1.2,3.3,1.2c1.1,0,1.9-0.2,2.5-0.7s1-1.2,1.2-2.1h2.4c-0.3,1.6-1,2.8-2.1,3.7
					c-1.1,0.8-2.4,1.3-4.1,1.3c-1.5,0-2.8-0.3-3.9-1c-1.1-0.7-1.8-1.6-2.3-2.9c-0.5-1.2-0.8-2.5-0.8-3.8c0-2.1,0.6-3.9,1.9-5.4
					C531.9,361.1,533.6,360.4,535.5,360.4z M531.2,366.6h8.3c-0.1-1.2-0.5-2.1-1.3-2.9s-1.7-1.2-2.9-1.2c-1.1,0-2,0.4-2.8,1.1
					C531.8,364.3,531.3,365.3,531.2,366.6z M559.8,355.2c3,0,5.4,0.8,7,2.4s2.5,4,2.5,7.1c0,3.5-0.8,6.2-2.4,7.9
					c-1.6,1.7-4,2.6-7,2.6h-7v-20H559.8z M560,373c2,0,3.6-0.7,4.8-2s1.8-3.3,1.8-5.9s-0.6-4.6-1.7-5.8c-1.1-1.2-2.7-1.9-4.9-1.9
					h-4.6V373H560z M578.4,360.4c2.2,0,3.9,0.7,5.2,2.1s1.9,3.2,1.9,5.5s-0.6,4.1-1.9,5.5c-1.3,1.4-3,2.1-5.1,2.1s-3.8-0.7-5.1-2.1
					s-2-3.2-2-5.5s0.6-4.1,1.9-5.5C574.5,361.1,576.3,360.4,578.4,360.4z M573.9,368c0,1.7,0.4,3,1.3,4c0.9,1,2,1.5,3.3,1.5
					s2.4-0.5,3.2-1.5c0.9-1,1.3-2.3,1.3-4c0-1.6-0.4-3-1.3-4c-0.8-1-1.9-1.5-3.3-1.5c-1.3,0-2.4,0.5-3.2,1.5
					C574.3,364.9,573.9,366.3,573.9,368z M594.2,360.4c1,0,1.9,0.2,2.6,0.7c0.8,0.4,1.3,1,1.7,1.7l0,0v-2.1h2.2v13.4
					c0,2.3-0.5,4-1.6,5.2s-2.8,1.8-5.1,1.8c-1.7,0-3.1-0.4-4.2-1.1c-1.1-0.7-1.7-1.8-1.8-3.2h2.4c0,0.8,0.4,1.3,1.2,1.7
					c0.8,0.4,1.6,0.6,2.6,0.6c1.4,0,2.5-0.5,3.2-1.4c0.8-0.9,1.1-2.3,1.1-4.1v-0.9h-0.1c-0.4,0.8-1,1.4-1.8,1.9s-1.7,0.7-2.8,0.7
					c-2,0-3.5-0.7-4.7-2c-1.2-1.4-1.8-3.1-1.8-5.3c0-2.2,0.6-4.1,1.8-5.5C590.4,361.1,592.1,360.4,594.2,360.4z M590,367.7
					c0,1.7,0.4,3.1,1.1,4.1c0.7,1,1.7,1.5,3,1.5s2.4-0.5,3.1-1.5c0.8-1,1.2-2.4,1.2-4.1c0-1.6-0.4-2.8-1.1-3.8
					c-0.7-1-1.7-1.4-3.1-1.4c-1.3,0-2.4,0.5-3.2,1.4C590.4,364.9,590,366.1,590,367.7z M612.1,366.3v2.3H604v-2.3H612.1z
					 M617.9,355.2v20h-2.4v-20H617.9z M624.1,355.2v2.9h-2.4v-2.9H624.1z M624.1,360.7v14.5h-2.4v-14.5H624.1z M630.3,355.2V367
					l6.6-6.4h3.2l-5.8,5.3l6.2,9.2h-3l-5-7.6l-2.2,2.1v5.5h-2.4v-20h2.4V355.2z M648.3,360.4c2.1,0,3.7,0.8,4.8,2.3
					c1.2,1.5,1.7,3.4,1.7,5.8v0.3H644v0.2c0,1.4,0.4,2.5,1.2,3.4c0.8,0.8,1.9,1.2,3.3,1.2c1.1,0,1.9-0.2,2.5-0.7s1-1.2,1.2-2.1h2.4
					c-0.3,1.6-1,2.8-2.1,3.7c-1.1,0.8-2.4,1.3-4.1,1.3c-1.5,0-2.8-0.3-3.9-1c-1.1-0.7-1.8-1.6-2.3-2.9c-0.5-1.2-0.8-2.5-0.8-3.8
					c0-2.1,0.6-3.9,1.9-5.4C644.7,361.1,646.4,360.4,648.3,360.4z M644,366.6h8.3c-0.1-1.2-0.5-2.1-1.3-2.9s-1.7-1.2-2.9-1.2
					c-1.1,0-2,0.4-2.8,1.1C644.6,364.3,644.1,365.3,644,366.6z"/>
			</g>
		</g>
	</g>
	<g>
		<g>
			<g>
				<defs>
					<rect id="SVGID_00000034053897138742136950000013755920603043621271_" x="45.8" y="41.7" width="852" height="636.6"/>
				</defs>
				<clipPath id="SVGID_00000179625547981492035340000008220153825872854709_">
					<use xlink:href="#SVGID_00000034053897138742136950000013755920603043621271_"  style="overflow:visible;"/>
				</clipPath>
				
					<path style="clip-path:url(#SVGID_00000179625547981492035340000008220153825872854709_);fill-rule:evenodd;clip-rule:evenodd;fill-opacity:0;" d="
					M536.9,592.9H898v69.4H536.9V592.9z"/>
			</g>
		</g>
	</g>
	<g>
		<g>
			<g>
				<defs>
					<rect id="SVGID_00000152948856726776619670000010887599271261919395_" x="45.8" y="41.7" width="852" height="636.6"/>
				</defs>
				<clipPath id="SVGID_00000065793429535501096760000001600238832896961724_">
					<use xlink:href="#SVGID_00000152948856726776619670000010887599271261919395_"  style="overflow:visible;"/>
				</clipPath>
				<path style="clip-path:url(#SVGID_00000065793429535501096760000001600238832896961724_);" d="M556.4,613.4l6.3,16.8l6.4-16.8
					h3.6v20h-2.5v-16.7l0,0l-6.3,16.7h-2.3l-6.3-16.7l0,0v16.7h-2.5v-20H556.4z M582.7,618.6c2,0,3.4,0.4,4.2,1.1
					c0.8,0.7,1.2,1.6,1.2,2.8c0,5,0,7.8,0,8.4c0,0.5,0.3,0.8,0.8,0.8c0.1,0,0.2,0,0.4,0c0.1,0,0.3-0.1,0.4-0.1v1.9
					c-0.2,0.1-0.5,0.2-0.8,0.3s-0.6,0.1-0.9,0.1c-0.7,0-1.2-0.2-1.5-0.6c-0.3-0.4-0.5-0.9-0.5-1.7c-0.6,0.8-1.4,1.3-2.3,1.7
					c-0.8,0.4-1.8,0.6-2.9,0.6c-1.5,0-2.7-0.4-3.5-1.1c-0.8-0.7-1.3-1.7-1.3-3s0.4-2.3,1.2-3.1s2.8-1.3,5.9-1.7
					c1-0.1,1.7-0.3,2.1-0.6c0.4-0.3,0.6-0.7,0.6-1.2c0-0.8-0.3-1.4-0.8-1.8c-0.5-0.4-1.3-0.6-2.4-0.6c-1.2,0-2.1,0.2-2.7,0.7
					c-0.6,0.4-0.9,1.1-1,2.1h-2.4c0.1-1.6,0.6-2.8,1.7-3.6C579.3,619,580.7,618.6,582.7,618.6z M578.4,629.5c0,0.7,0.2,1.2,0.7,1.6
					c0.5,0.4,1.2,0.6,2.1,0.6c1.3,0,2.4-0.3,3.2-1s1.2-1.4,1.2-2.3v-2.5c-0.4,0.3-0.9,0.5-1.6,0.6c-0.6,0.1-1.5,0.2-2.6,0.4
					s-1.8,0.4-2.4,0.9C578.7,628.2,578.4,628.7,578.4,629.5z M594.3,613.4v11.9l6.6-6.4h3.2l-5.8,5.3l6.2,9.2h-3l-5-7.6l-2.2,2.1
					v5.5h-2.4v-20H594.3z M612.3,618.6c2.1,0,3.7,0.8,4.8,2.3c1.2,1.5,1.7,3.4,1.7,5.8v0.3H608v0.2c0,1.4,0.4,2.5,1.2,3.4
					c0.8,0.8,1.9,1.2,3.3,1.2c1.1,0,1.9-0.2,2.5-0.7s1-1.2,1.2-2.1h2.4c-0.3,1.6-1,2.8-2.1,3.7c-1.1,0.8-2.4,1.3-4.1,1.3
					c-1.5,0-2.8-0.3-3.9-1c-1.1-0.7-1.8-1.6-2.3-2.9c-0.5-1.2-0.8-2.5-0.8-3.8c0-2.1,0.6-3.9,1.9-5.4
					C608.7,619.3,610.3,618.6,612.3,618.6z M608,624.8h8.3c-0.1-1.2-0.5-2.1-1.3-2.9c-0.8-0.8-1.7-1.2-2.9-1.2c-1.1,0-2,0.4-2.8,1.1
					C608.5,622.5,608.1,623.5,608,624.8z M632.5,614.6v4.4h2.9v2.1h-2.9v9.1c0,0.7,0.2,1.1,0.7,1.2c0.5,0,1,0,1.5,0h0.7v2.1h-2
					c-1.3,0-2.2-0.2-2.7-0.7c-0.4-0.5-0.7-1.3-0.7-2.4V621h-2.5v-2.1h2.5v-4.4L632.5,614.6L632.5,614.6z M640.4,613.4v7.7l0,0
					c0.3-0.8,0.9-1.4,1.8-1.8c0.8-0.4,1.8-0.7,2.8-0.7c1.8,0,3,0.4,3.8,1.3c0.8,0.9,1.2,2.2,1.2,3.8v9.7h-2.4v-9.9
					c0-0.8-0.3-1.5-0.8-2s-1.2-0.8-2.2-0.8c-1.3,0-2.4,0.4-3.2,1.2s-1.1,1.9-1.1,3.2v8.3H638v-20H640.4z M659.6,618.6
					c2.1,0,3.7,0.8,4.8,2.3c1.2,1.5,1.7,3.4,1.7,5.8v0.3h-10.9v0.2c0,1.4,0.4,2.5,1.2,3.4c0.8,0.8,1.9,1.2,3.3,1.2
					c1.1,0,1.9-0.2,2.5-0.7s1-1.2,1.2-2.1h2.4c-0.3,1.6-1,2.8-2.1,3.7c-1.1,0.8-2.4,1.3-4.1,1.3c-1.5,0-2.8-0.3-3.9-1
					c-1.1-0.7-1.8-1.6-2.3-2.9c-0.5-1.2-0.8-2.5-0.8-3.8c0-2.1,0.6-3.9,1.9-5.4C656.1,619.3,657.7,618.6,659.6,618.6z M655.3,624.8
					h8.3c-0.1-1.2-0.5-2.1-1.3-2.9c-0.8-0.8-1.7-1.2-2.9-1.2c-1.1,0-2,0.4-2.8,1.1C655.9,622.5,655.5,623.5,655.3,624.8z
					 M675.7,618.6c1.1,0,1.9,0.2,2.6,0.6c0.7,0.4,1.1,1,1.4,1.8c0.5-0.8,1.1-1.4,1.9-1.8c0.8-0.4,1.7-0.7,2.7-0.7
					c1.6,0,2.8,0.4,3.6,1.1c0.8,0.7,1.2,1.7,1.2,3v10.7h-2.4v-9.6c0-1.1-0.2-1.8-0.7-2.4c-0.4-0.5-1.2-0.8-2.1-0.8
					c-1.2,0-2.1,0.3-2.8,1s-1,1.6-1,2.6v9.1h-2.4v-9.6c0-1.1-0.2-1.8-0.7-2.4c-0.4-0.5-1.1-0.8-2-0.8c-0.8,0-1.4,0.2-2,0.5
					c-0.6,0.4-1,0.9-1.4,1.5c-0.3,0.6-0.5,1.2-0.5,1.6v9.1h-2.4v-14.5h2.3v2.1l0,0c0.5-0.8,1.2-1.5,2-1.9
					C673.7,618.8,674.7,618.6,675.7,618.6z M707.4,618.6c1.1,0,1.9,0.2,2.6,0.6c0.7,0.4,1.1,1,1.4,1.8c0.5-0.8,1.1-1.4,1.9-1.8
					c0.8-0.4,1.7-0.7,2.7-0.7c1.6,0,2.8,0.4,3.6,1.1s1.2,1.7,1.2,3v10.7h-2.4v-9.6c0-1.1-0.2-1.8-0.7-2.4c-0.4-0.5-1.2-0.8-2.1-0.8
					c-1.2,0-2.1,0.3-2.8,1s-1,1.6-1,2.6v9.1h-2.4v-9.6c0-1.1-0.2-1.8-0.7-2.4c-0.4-0.5-1.1-0.8-2-0.8c-0.8,0-1.4,0.2-2,0.5
					c-0.6,0.4-1,0.9-1.4,1.5c-0.3,0.6-0.5,1.2-0.5,1.6v9.1h-2.4v-14.5h2.3v2.1l0,0c0.5-0.8,1.2-1.5,2-1.9
					C705.5,618.8,706.4,618.6,707.4,618.6z M730.7,618.6c2.2,0,3.9,0.7,5.2,2.1c1.3,1.4,1.9,3.2,1.9,5.5s-0.6,4.1-1.9,5.5
					c-1.3,1.4-3,2.1-5.1,2.1s-3.8-0.7-5.1-2.1c-1.3-1.4-2-3.2-2-5.5s0.6-4.1,1.9-5.5C726.8,619.3,728.5,618.6,730.7,618.6z
					 M726.1,626.2c0,1.7,0.4,3,1.3,4c0.9,1,2,1.5,3.3,1.5s2.4-0.5,3.2-1.5c0.9-1,1.3-2.3,1.3-4c0-1.6-0.4-3-1.3-4
					c-0.8-1-1.9-1.5-3.3-1.5c-1.3,0-2.4,0.5-3.2,1.5C726.6,623.1,726.1,624.5,726.1,626.2z M747.8,618.6L747.8,618.6
					c0.1,0,0.2,0,0.3,0v2.5c-1.8,0-3.1,0.5-4,1.4c-0.8,0.9-1.3,2.4-1.3,4.4v6.5h-2.4v-14.5h2.2v3.1h0.1c0.5-1.2,1.2-2,2-2.6
					C745.6,618.8,746.6,618.6,747.8,618.6z M755.4,618.6c2.1,0,3.7,0.8,4.8,2.3c1.2,1.5,1.7,3.4,1.7,5.8v0.3H751v0.2
					c0,1.4,0.4,2.5,1.2,3.4c0.8,0.8,1.9,1.2,3.3,1.2c1.1,0,1.9-0.2,2.5-0.7s1-1.2,1.2-2.1h2.4c-0.3,1.6-1,2.8-2.1,3.7
					c-1.1,0.8-2.4,1.3-4.1,1.3c-1.5,0-2.8-0.3-3.9-1c-1.1-0.7-1.8-1.6-2.3-2.9c-0.5-1.2-0.8-2.5-0.8-3.8c0-2.1,0.6-3.9,1.9-5.4
					C751.8,619.3,753.4,618.6,755.4,618.6z M751.1,624.8h8.3c-0.1-1.2-0.5-2.1-1.3-2.9c-0.8-0.8-1.7-1.2-2.9-1.2
					c-1.1,0-2,0.4-2.8,1.1C751.7,622.5,751.2,623.5,751.1,624.8z M781.2,612.9c2.4,0,4.3,0.6,5.8,1.7c1.5,1.1,2.5,2.8,2.8,4.9h-2.7
					c-0.3-1.4-0.9-2.5-2-3.2c-1-0.8-2.4-1.2-4-1.2c-2.1,0-3.8,0.8-5,2.4c-1.2,1.6-1.8,3.6-1.8,6.1c0,2.3,0.6,4.2,1.9,5.7
					c1.3,1.5,2.9,2.3,5,2.3c1.9,0,3.5-0.6,4.7-1.7c1.2-1.2,1.8-2.7,1.8-4.5v-0.3h-6.4v-2.3h8.8v10.6h-1.7l-0.7-2.5
					c-0.7,1-1.7,1.7-2.8,2.2s-2.3,0.8-3.6,0.8c-2.7,0-5-1-6.8-2.9c-1.8-2-2.7-4.4-2.7-7.2c0-3.2,0.9-5.8,2.6-7.8
					C775.9,613.9,778.3,612.9,781.2,612.9z M799.8,618.6c2.2,0,3.9,0.7,5.2,2.1c1.3,1.4,1.9,3.2,1.9,5.5s-0.6,4.1-1.9,5.5
					c-1.3,1.4-3,2.1-5.1,2.1s-3.8-0.7-5.1-2.1c-1.3-1.4-2-3.2-2-5.5s0.6-4.1,1.9-5.5C796,619.3,797.7,618.6,799.8,618.6z
					 M795.3,626.2c0,1.7,0.4,3,1.3,4c0.9,1,2,1.5,3.3,1.5s2.4-0.5,3.2-1.5c0.9-1,1.3-2.3,1.3-4c0-1.6-0.4-3-1.3-4
					c-0.8-1-1.9-1.5-3.3-1.5c-1.3,0-2.4,0.5-3.2,1.5C795.7,623.1,795.3,624.5,795.3,626.2z M822.7,613.4v20h-2.4v-2l0,0
					c-0.4,0.7-1,1.3-1.8,1.7s-1.8,0.6-2.8,0.6c-2,0-3.6-0.7-4.9-2.1c-1.2-1.4-1.8-3.3-1.8-5.5s0.6-4.1,1.8-5.5s2.8-2.1,4.8-2.1
					c1,0,1.9,0.2,2.7,0.6c0.9,0.4,1.5,0.9,2,1.7l0,0v-7.5L822.7,613.4L822.7,613.4z M811.4,626.3c0,1.6,0.4,2.9,1.2,3.9
					s1.9,1.5,3.3,1.5c1.4,0,2.5-0.5,3.2-1.5c0.8-1,1.2-2.3,1.2-4c0-1.6-0.4-3-1.2-4s-1.9-1.5-3.4-1.5c-1.4,0-2.4,0.5-3.2,1.5
					C811.8,623.2,811.4,624.5,811.4,626.3z M834.1,624.5v2.3H826v-2.3H834.1z M839.8,613.4v20h-2.4v-20H839.8z M846,613.4v2.9h-2.4
					v-2.9H846z M846,618.9v14.5h-2.4v-14.5H846z M852.3,613.4v11.9l6.6-6.4h3.2l-5.8,5.3l6.2,9.2h-3l-5-7.6l-2.2,2.1v5.5h-2.4v-20
					H852.3z M870.2,618.6c2.1,0,3.7,0.8,4.8,2.3c1.2,1.5,1.7,3.4,1.7,5.8v0.3h-10.9v0.2c0,1.4,0.4,2.5,1.2,3.4
					c0.8,0.8,1.9,1.2,3.3,1.2c1.1,0,1.9-0.2,2.5-0.7s1-1.2,1.2-2.1h2.4c-0.3,1.6-1,2.8-2.1,3.7c-1.1,0.8-2.4,1.3-4.1,1.3
					c-1.5,0-2.8-0.3-3.9-1c-1.1-0.7-1.8-1.6-2.3-2.9c-0.5-1.2-0.8-2.5-0.8-3.8c0-2.1,0.6-3.9,1.9-5.4
					C866.7,619.3,868.3,618.6,870.2,618.6z M865.9,624.8h8.3c-0.1-1.2-0.5-2.1-1.3-2.9c-0.8-0.8-1.7-1.2-2.9-1.2
					c-1.1,0-2,0.4-2.8,1.1C866.5,622.5,866.1,623.5,865.9,624.8z"/>
			</g>
		</g>
	</g>
</g>
</svg>
