<?xml version="1.0" encoding="utf-8"?>
<!-- Generator: Adobe Illustrator 27.0.1, SVG Export Plug-In . SVG Version: 6.00 Build 0)  -->
<svg version="1.1" id="Layer_1" xmlns="http://www.w3.org/2000/svg" xmlns:xlink="http://www.w3.org/1999/xlink" x="0px" y="0px"
	 viewBox="0 0 960 720" style="enable-background:new 0 0 960 720;" xml:space="preserve">
<style type="text/css">
	.st0{fill:#FFFFFF;stroke:#000000;stroke-miterlimit:10;}
	.st1{clip-path:url(#SVGID_00000181057825929493095650000018254175223124666756_);}
	.st2{fill-rule:evenodd;clip-rule:evenodd;fill-opacity:0;}
	.st3{fill:none;stroke:#000000;stroke-linejoin:round;stroke-miterlimit:10;}
	.st4{fill-rule:evenodd;clip-rule:evenodd;stroke:#000000;stroke-miterlimit:10;}
	.st5{fill:none;stroke:#000000;stroke-width:3;stroke-linejoin:round;stroke-miterlimit:10;stroke-dasharray:12,9;}
	.st6{fill-rule:evenodd;clip-rule:evenodd;stroke:#000000;stroke-width:3;stroke-miterlimit:10;}
</style>
<rect class="st0" width="960" height="720"/>
<g>
	<defs>
		<rect id="SVGID_1_" width="960" height="720"/>
	</defs>
	<clipPath id="SVGID_00000034804756907790994320000014736417076628905381_">
		<use xlink:href="#SVGID_1_"  style="overflow:visible;"/>
	</clipPath>
	<g style="clip-path:url(#SVGID_00000034804756907790994320000014736417076628905381_);">
		<path class="st2" d="M0,0h960v720H0V0z"/>
		<path class="st2" d="M129.5,667.4h719"/>
		<path class="st3" d="M129.5,667.4h713"/>
		<path class="st4" d="M842.5,669l4.5-1.7l-4.5-1.7V669z"/>
		<path class="st2" d="M129.5,667.3V185.4"/>
		<path class="st3" d="M129.5,667.3V191.4"/>
		<path class="st4" d="M131.1,191.4l-1.7-4.5l-1.7,4.5H131.1z"/>
		<path class="st2" d="M49.6,663.3V518.9h66.2v144.4H49.6z"/>
		<path d="M62.5,614.5c0-1.1,0.3-1.9,0.9-2.5c0.6-0.6,1.4-0.9,2.5-0.9c1.1,0,2,0.3,2.5,0.9c0.6,0.6,0.8,1.4,0.8,2.4v3.7H74v1.5H62.5
			V614.5z M68,614.9c0-0.7-0.2-1.3-0.5-1.7s-0.9-0.6-1.6-0.6c-0.7,0-1.2,0.2-1.6,0.6c-0.3,0.4-0.5,1-0.5,1.8v3H68V614.9z
			 M62.5,608.1h4.4v0c-0.4-0.2-0.8-0.5-1-1c-0.2-0.5-0.4-1-0.4-1.6c0-1,0.3-1.7,0.8-2.2c0.5-0.4,1.2-0.7,2.2-0.7H74v1.4h-5.7
			c-0.5,0-0.9,0.2-1.2,0.5c-0.3,0.3-0.5,0.7-0.5,1.2c0,0.8,0.2,1.4,0.7,1.8s1.1,0.6,1.8,0.6H74v1.4H62.5V608.1z M65.7,599.9l6.8-2.4
			v0l-6.8-2.3v-1.4l9.2,3.5c0.9,0.4,1.6,0.7,1.9,1.1c0.3,0.3,0.5,0.8,0.5,1.4c0,0.2,0,0.3,0,0.5c0,0.2-0.1,0.3-0.1,0.5h-1.2
			c0-0.1,0.1-0.3,0.1-0.4c0-0.1,0.1-0.3,0.1-0.4c0-0.6-0.3-0.9-0.8-1.2c-0.6-0.2-1-0.4-1.3-0.5l-8.2,3.3V599.9z M65.5,589.8
			c0-1.1,0.2-1.9,0.7-2.5c0.4-0.5,1.1-0.8,1.9-0.9v1.4h0c-0.4,0-0.8,0.2-1,0.6c-0.2,0.3-0.4,0.8-0.4,1.3c0,0.5,0.1,1,0.3,1.3
			c0.2,0.3,0.4,0.5,0.8,0.5c0.3,0,0.6-0.1,0.8-0.4c0.2-0.3,0.3-0.7,0.5-1.3l0.3-1.3c0.2-0.8,0.5-1.4,0.8-1.8
			c0.4-0.4,0.9-0.6,1.5-0.6c0.8,0,1.5,0.3,1.9,1c0.5,0.6,0.7,1.5,0.7,2.6c0,1.1-0.2,1.9-0.7,2.5c-0.5,0.6-1.2,0.9-2.1,1v-1.4
			c0.5,0,0.9-0.2,1.2-0.6c0.3-0.4,0.4-0.9,0.4-1.6c0-0.7-0.1-1.2-0.3-1.5c-0.2-0.3-0.5-0.5-0.9-0.5c-0.4,0-0.7,0.2-0.9,0.5
			s-0.4,1-0.6,2.1c-0.2,1-0.5,1.8-0.9,2.2s-0.9,0.6-1.5,0.6c-0.7,0-1.3-0.3-1.7-0.9C65.7,591.4,65.5,590.7,65.5,589.8z M62.5,583.1
			h1.7v1.4h-1.7V583.1z M65.7,583.1H74v1.4h-8.3V583.1z M65.5,577.6c0-1,0.2-1.8,0.7-2.5c0.5-0.6,1.2-1,2.1-1.1v1.4
			c-0.5,0.1-0.9,0.3-1.2,0.7c-0.3,0.4-0.4,0.8-0.4,1.3c0,0.8,0.3,1.5,0.8,1.9s1.4,0.7,2.4,0.7c0.9,0,1.7-0.2,2.2-0.6
			c0.5-0.4,0.8-1,0.8-1.8c0-0.7-0.2-1.2-0.5-1.6c-0.4-0.4-0.8-0.6-1.5-0.7v-1.4c1,0.1,1.8,0.5,2.4,1.2s0.8,1.5,0.8,2.5
			c0,1.2-0.4,2.2-1.1,2.8c-0.8,0.7-1.8,1-3.1,1c-1.4,0-2.4-0.3-3.2-1C65.9,579.7,65.5,578.8,65.5,577.6z M65.5,569
			c0-1.1,0.2-1.9,0.6-2.4c0.4-0.5,0.9-0.7,1.6-0.7c2.9,0,4.5,0,4.8,0s0.5-0.1,0.5-0.4c0-0.1,0-0.1,0-0.2c0-0.1,0-0.1-0.1-0.2h1.1
			c0.1,0.1,0.1,0.3,0.2,0.4c0,0.2,0.1,0.3,0.1,0.5c0,0.4-0.1,0.7-0.3,0.9c-0.2,0.2-0.5,0.3-1,0.3c0.4,0.4,0.8,0.8,1,1.3
			s0.3,1,0.3,1.6c0,0.9-0.2,1.5-0.6,2c-0.4,0.5-1,0.7-1.7,0.7c-0.8,0-1.3-0.2-1.8-0.7c-0.4-0.5-0.8-1.6-1-3.4
			c-0.1-0.6-0.2-1-0.3-1.2c-0.2-0.2-0.4-0.3-0.7-0.3c-0.5,0-0.8,0.1-1,0.4c-0.2,0.3-0.3,0.8-0.3,1.4c0,0.7,0.1,1.2,0.4,1.5
			c0.2,0.3,0.6,0.5,1.2,0.5v1.4c-0.9,0-1.6-0.4-2.1-1C65.7,571,65.5,570.1,65.5,569z M71.7,571.4c0.4,0,0.7-0.1,0.9-0.4
			c0.2-0.3,0.3-0.7,0.3-1.2c0-0.8-0.2-1.4-0.6-1.8c-0.4-0.5-0.8-0.7-1.3-0.7h-1.4c0.2,0.2,0.3,0.5,0.3,0.9c0.1,0.4,0.1,0.8,0.2,1.5
			c0.1,0.6,0.2,1.1,0.5,1.3C71,571.3,71.3,571.4,71.7,571.4z M62.5,562.4H74v1.4H62.5V562.4z"/>
		<path d="M81.7,607.9l9.5-2.2v0l-9.5-2.6v-1.7l9.5-2.5v0l-9.5-2.3v-1.5l11.4,3v1.6l-9.6,2.6v0l9.6,2.6v1.6l-11.4,2.9V607.9z
			 M84.7,590.7c0-1.2,0.4-2.2,1.2-2.9c0.8-0.7,1.8-1.1,3.1-1.1s2.3,0.4,3.1,1.1c0.8,0.7,1.2,1.7,1.2,2.9c0,1.2-0.4,2.2-1.2,2.9
			c-0.8,0.7-1.8,1.1-3.2,1.1s-2.4-0.4-3.2-1.1C85.1,592.9,84.7,591.9,84.7,590.7z M89,593.3c0.9,0,1.7-0.2,2.3-0.7
			c0.6-0.5,0.8-1.1,0.8-1.9s-0.3-1.4-0.8-1.8c-0.6-0.5-1.3-0.7-2.3-0.7c-0.9,0-1.7,0.2-2.3,0.7c-0.6,0.5-0.9,1.1-0.9,1.9
			c0,0.7,0.3,1.3,0.8,1.8S88.1,593.3,89,593.3z M84.7,580.9C84.7,580.9,84.7,580.9,84.7,580.9c0-0.1,0-0.1,0-0.2h1.4
			c0,1,0.3,1.8,0.8,2.3c0.5,0.5,1.4,0.7,2.5,0.7h3.7v1.4h-8.3v-1.3h1.8v0c-0.7-0.3-1.1-0.7-1.5-1.2
			C84.9,582.1,84.7,581.6,84.7,580.9z M81.7,578.3h6.8l-3.6-3.8v-1.8l3,3.3l5.3-3.5v1.7l-4.3,2.8l1.2,1.3h3.1v1.4H81.7V578.3z"/>
		<path class="st2" d="M48.2,526.9V382.5h69.1v144.4H48.2z"/>
		<path d="M61.1,500.4c0-1,0.3-1.8,0.8-2.4c0.5-0.6,1.2-1,2.2-1c0.8,0,1.4,0.2,1.9,0.5c0.5,0.3,0.8,0.8,1,1.5h0
			c0.1-0.6,0.4-1,0.8-1.3c0.4-0.3,1.2-0.4,2.2-0.5c0.7,0,1.2-0.1,1.6-0.2c0.4-0.1,0.7-0.3,0.9-0.5v1.7c-0.1,0.1-0.2,0.2-0.4,0.2
			c-0.1,0-0.3,0-0.5,0.1l-1.3,0.1c-0.6,0-1.2,0.1-1.8,0.4c-0.6,0.2-0.9,0.8-1,1.6v3.8h4.9v1.5H61.1V500.4z M66.4,501.1
			c0-0.8-0.2-1.5-0.5-1.9c-0.3-0.4-0.8-0.7-1.5-0.7c-0.6,0-1.1,0.2-1.4,0.5c-0.3,0.3-0.5,0.8-0.5,1.5v3.8h4V501.1z M64,491.7
			c0-1.2,0.4-2.1,1.3-2.8c0.9-0.7,2-1,3.3-1h0.2v6.2h0.1c0.8,0,1.4-0.2,1.9-0.7c0.5-0.5,0.7-1.1,0.7-1.9c0-0.6-0.1-1.1-0.4-1.4
			c-0.3-0.4-0.7-0.6-1.2-0.7v-1.3c0.9,0.2,1.6,0.6,2.1,1.2c0.5,0.6,0.7,1.4,0.7,2.3c0,0.9-0.2,1.6-0.6,2.2c-0.4,0.6-0.9,1.1-1.6,1.3
			c-0.7,0.3-1.4,0.4-2.2,0.4c-1.2,0-2.2-0.4-3-1.1C64.5,493.8,64,492.8,64,491.7z M67.6,494.2v-4.8c-0.7,0-1.2,0.3-1.7,0.7
			c-0.4,0.4-0.7,1-0.7,1.7c0,0.6,0.2,1.2,0.6,1.6C66.3,493.8,66.9,494.1,67.6,494.2z M64,482.6c0-0.6,0.1-1.1,0.4-1.5
			c0.2-0.4,0.6-0.7,1-0.8c-0.4-0.3-0.8-0.6-1-1.1c-0.2-0.5-0.4-1-0.4-1.5c0-0.9,0.2-1.6,0.6-2.1c0.4-0.4,1-0.7,1.7-0.7h6.1v1.4H67
			c-0.6,0-1,0.1-1.3,0.4c-0.3,0.2-0.5,0.7-0.5,1.2c0,0.7,0.2,1.2,0.6,1.6c0.4,0.4,0.9,0.6,1.5,0.6h5.2v1.4H67c-0.6,0-1,0.1-1.3,0.4
			c-0.3,0.2-0.5,0.6-0.5,1.2c0,0.4,0.1,0.8,0.3,1.1c0.2,0.3,0.5,0.6,0.9,0.8c0.4,0.2,0.7,0.3,0.9,0.3h5.2v1.4h-8.3v-1.3h1.2v0
			c-0.5-0.3-0.8-0.7-1-1.1C64.2,483.7,64,483.1,64,482.6z M64,469.5c0-1.2,0.4-2.1,1.3-2.8c0.9-0.7,2-1,3.3-1h0.2v6.2h0.1
			c0.8,0,1.4-0.2,1.9-0.7c0.5-0.5,0.7-1.1,0.7-1.9c0-0.6-0.1-1.1-0.4-1.4c-0.3-0.4-0.7-0.6-1.2-0.7v-1.3c0.9,0.2,1.6,0.6,2.1,1.2
			c0.5,0.6,0.7,1.4,0.7,2.3c0,0.9-0.2,1.6-0.6,2.2c-0.4,0.6-0.9,1.1-1.6,1.3c-0.7,0.3-1.4,0.4-2.2,0.4c-1.2,0-2.2-0.4-3-1.1
			C64.5,471.5,64,470.6,64,469.5z M67.6,471.9v-4.8c-0.7,0-1.2,0.3-1.7,0.7c-0.4,0.4-0.7,1-0.7,1.7c0,0.6,0.2,1.2,0.6,1.6
			C66.3,471.6,66.9,471.9,67.6,471.9z M64,460.3c0-0.6,0.1-1.1,0.4-1.5c0.2-0.4,0.6-0.7,1-0.8c-0.4-0.3-0.8-0.6-1-1.1
			c-0.2-0.5-0.4-1-0.4-1.5c0-0.9,0.2-1.6,0.6-2.1c0.4-0.4,1-0.7,1.7-0.7h6.1v1.4H67c-0.6,0-1,0.1-1.3,0.4c-0.3,0.2-0.5,0.7-0.5,1.2
			c0,0.7,0.2,1.2,0.6,1.6c0.4,0.4,0.9,0.6,1.5,0.6h5.2v1.4H67c-0.6,0-1,0.1-1.3,0.4c-0.3,0.2-0.5,0.6-0.5,1.2c0,0.4,0.1,0.8,0.3,1.1
			c0.2,0.3,0.5,0.6,0.9,0.8c0.4,0.2,0.7,0.3,0.9,0.3h5.2v1.4h-8.3V463h1.2v0c-0.5-0.3-0.8-0.7-1-1.1C64.2,461.4,64,460.9,64,460.3z
			 M61.1,449.2h4.3v0c-0.4-0.2-0.8-0.5-1-1c-0.2-0.5-0.3-1-0.3-1.6c0-1.2,0.4-2.1,1.2-2.8c0.8-0.7,1.9-1,3.1-1s2.3,0.3,3.1,1
			c0.8,0.7,1.2,1.6,1.2,2.8c0,0.5-0.1,1-0.3,1.5c-0.2,0.5-0.5,0.9-1,1.2v0h1.1v1.4H61.1V449.2z M68.4,449.3c1,0,1.7-0.2,2.3-0.7
			c0.6-0.5,0.8-1.1,0.8-1.9c0-0.8-0.3-1.4-0.8-1.8c-0.6-0.4-1.3-0.7-2.3-0.7c-0.9,0-1.6,0.2-2.2,0.7c-0.6,0.4-0.9,1.1-0.9,1.9
			c0,0.8,0.3,1.4,0.9,1.9C66.7,449.1,67.5,449.3,68.4,449.3z M64,437.7c0-1.2,0.4-2.1,1.3-2.8c0.9-0.7,2-1,3.3-1h0.2v6.2h0.1
			c0.8,0,1.4-0.2,1.9-0.7c0.5-0.5,0.7-1.1,0.7-1.9c0-0.6-0.1-1.1-0.4-1.4c-0.3-0.4-0.7-0.6-1.2-0.7v-1.3c0.9,0.2,1.6,0.6,2.1,1.2
			c0.5,0.6,0.7,1.4,0.7,2.3c0,0.9-0.2,1.6-0.6,2.2c-0.4,0.6-0.9,1.1-1.6,1.3c-0.7,0.3-1.4,0.4-2.2,0.4c-1.2,0-2.2-0.4-3-1.1
			C64.5,439.8,64,438.9,64,437.7z M67.6,440.2v-4.8c-0.7,0-1.2,0.3-1.7,0.7c-0.4,0.4-0.7,1-0.7,1.7c0,0.6,0.2,1.2,0.6,1.6
			C66.3,439.9,66.9,440.1,67.6,440.2z M64,428.5C64,428.4,64,428.4,64,428.5c0-0.1,0-0.1,0-0.2h1.4c0,1,0.3,1.8,0.8,2.3
			c0.5,0.5,1.4,0.7,2.5,0.7h3.7v1.4h-8.3v-1.3H66v0c-0.7-0.3-1.1-0.7-1.5-1.2C64.2,429.7,64,429.1,64,428.5z M61.1,425.8h1.7v1.4
			h-1.7V425.8z M64.2,425.8h8.3v1.4h-8.3V425.8z M64,419.7c0-1,0.3-1.7,0.8-2.2c0.5-0.4,1.2-0.7,2.2-0.7h5.5v1.4h-5.7
			c-0.5,0-0.9,0.2-1.2,0.5c-0.3,0.3-0.5,0.7-0.5,1.2c0,0.8,0.2,1.4,0.7,1.8c0.5,0.4,1.1,0.6,1.8,0.6h4.7v1.4h-8.3v-1.3h1.3v0
			c-0.5-0.3-0.9-0.7-1.1-1.1C64.2,420.8,64,420.3,64,419.7z M64,411.4c0-0.6,0.1-1.1,0.4-1.5c0.2-0.4,0.6-0.8,1-1v0h-1.2v-1.3h7.7
			c1.3,0,2.3,0.3,3,0.9c0.7,0.6,1,1.6,1,2.9c0,0.9-0.2,1.7-0.6,2.4c-0.4,0.6-1,1-1.8,1v-1.4c0.4,0,0.7-0.2,1-0.7
			c0.2-0.4,0.4-0.9,0.4-1.5c0-0.8-0.3-1.4-0.8-1.8c-0.5-0.4-1.3-0.6-2.4-0.6h-0.5v0c0.5,0.2,0.8,0.6,1.1,1c0.3,0.5,0.4,1,0.4,1.6
			c0,1.1-0.4,2-1.2,2.7c-0.8,0.7-1.8,1-3,1c-1.3,0-2.3-0.3-3.1-1C64.5,413.6,64,412.6,64,411.4z M68.2,413.8c1,0,1.8-0.2,2.3-0.6
			c0.6-0.4,0.8-1,0.8-1.7c0-0.8-0.3-1.3-0.9-1.8c-0.6-0.4-1.4-0.7-2.3-0.7c-0.9,0-1.6,0.2-2.1,0.6c-0.5,0.4-0.8,1-0.8,1.7
			c0,0.8,0.3,1.4,0.8,1.8C66.6,413.6,67.3,413.8,68.2,413.8z M70.7,403.5h1.7c0.6,0,1.1,0.1,1.5,0.4c0.4,0.3,0.7,0.7,0.9,1.3h-0.8
			c-0.1-0.3-0.3-0.5-0.5-0.7c-0.3-0.2-0.6-0.3-0.9-0.3h-0.1v1h-1.8V403.5z"/>
		<path d="M80,485.6c0-1.3,0.3-2.3,0.9-3c0.6-0.8,1.5-1.1,2.7-1.2v1.4c-0.8,0.1-1.4,0.4-1.8,0.8c-0.4,0.5-0.6,1.1-0.6,2
			c0,0.8,0.2,1.4,0.5,1.9c0.3,0.4,0.8,0.7,1.4,0.7c0.4,0,0.8-0.2,1.1-0.6c0.3-0.4,0.6-1.4,0.9-3.1c0.3-1.2,0.6-2.1,1.2-2.7
			c0.5-0.6,1.2-0.9,2.1-0.9c1.1,0,1.9,0.4,2.5,1.3c0.6,0.9,0.9,1.9,0.9,3.2c0,1.4-0.3,2.5-1,3.4c-0.7,0.9-1.7,1.3-3,1.3v-1.4
			c0.9,0,1.6-0.3,2-0.9c0.5-0.6,0.7-1.4,0.7-2.4c0-0.9-0.2-1.6-0.5-2.1c-0.4-0.5-0.9-0.8-1.5-0.8c-0.5,0-1,0.2-1.3,0.7
			c-0.3,0.5-0.6,1.3-0.8,2.5c-0.3,1.6-0.7,2.7-1.2,3.3c-0.5,0.6-1.1,0.8-1.9,0.8c-1,0-1.8-0.4-2.4-1.2C80.3,487.8,80,486.8,80,485.6
			z M83.2,475.8c0-1.2,0.4-2.1,1.3-2.8c0.9-0.7,2-1,3.3-1H88v6.2h0.1c0.8,0,1.4-0.2,1.9-0.7c0.5-0.5,0.7-1.1,0.7-1.9
			c0-0.6-0.1-1.1-0.4-1.4c-0.3-0.4-0.7-0.6-1.2-0.7v-1.3c0.9,0.2,1.6,0.6,2.1,1.2c0.5,0.6,0.7,1.4,0.7,2.3c0,0.9-0.2,1.6-0.6,2.2
			c-0.4,0.6-0.9,1.1-1.6,1.3c-0.7,0.3-1.4,0.4-2.2,0.4c-1.2,0-2.2-0.4-3-1.1C83.7,477.9,83.2,477,83.2,475.8z M86.8,478.3v-4.8
			c-0.7,0-1.2,0.3-1.7,0.7c-0.4,0.4-0.7,1-0.7,1.7c0,0.6,0.2,1.2,0.6,1.6C85.5,478,86.1,478.2,86.8,478.3z M83.2,466.7
			c0-1,0.3-1.7,0.8-2.2c0.5-0.4,1.2-0.7,2.2-0.7h5.5v1.4h-5.7c-0.5,0-0.9,0.2-1.2,0.5c-0.3,0.3-0.5,0.7-0.5,1.2
			c0,0.8,0.2,1.4,0.7,1.8c0.5,0.4,1.1,0.6,1.8,0.6h4.7v1.4h-8.3v-1.3h1.3v0c-0.5-0.3-0.9-0.7-1.1-1.1
			C83.4,467.8,83.2,467.3,83.2,466.7z M83.2,459c0-1.1,0.2-1.9,0.7-2.5c0.4-0.5,1.1-0.8,1.9-0.9v1.4h0c-0.4,0-0.8,0.2-1,0.6
			s-0.4,0.8-0.4,1.3c0,0.5,0.1,1,0.3,1.3c0.2,0.3,0.4,0.5,0.8,0.5c0.3,0,0.6-0.1,0.8-0.4c0.2-0.3,0.3-0.7,0.5-1.3l0.3-1.3
			c0.2-0.8,0.5-1.4,0.8-1.8c0.4-0.4,0.9-0.6,1.5-0.6c0.8,0,1.5,0.3,1.9,1c0.5,0.6,0.7,1.5,0.7,2.6c0,1.1-0.2,1.9-0.7,2.5
			c-0.5,0.6-1.2,0.9-2.1,1V461c0.5,0,0.9-0.2,1.2-0.6c0.3-0.4,0.4-0.9,0.4-1.6c0-0.7-0.1-1.2-0.3-1.5c-0.2-0.3-0.5-0.5-0.9-0.5
			c-0.4,0-0.7,0.2-0.9,0.5c-0.2,0.3-0.4,1-0.6,2.1c-0.2,1-0.5,1.8-0.9,2.2c-0.4,0.4-0.9,0.6-1.5,0.6c-0.7,0-1.3-0.3-1.7-0.9
			C83.5,460.7,83.2,459.9,83.2,459z M80.3,452.3h1.7v1.4h-1.7V452.3z M83.4,452.3h8.3v1.4h-8.3V452.3z M83.2,446.2
			c0-1,0.3-1.7,0.8-2.2c0.5-0.4,1.2-0.7,2.2-0.7h5.5v1.4h-5.7c-0.5,0-0.9,0.2-1.2,0.5c-0.3,0.3-0.5,0.7-0.5,1.2
			c0,0.8,0.2,1.4,0.7,1.8c0.5,0.4,1.1,0.6,1.8,0.6h4.7v1.4h-8.3v-1.3h1.3v0c-0.5-0.3-0.9-0.7-1.1-1.1
			C83.4,447.4,83.2,446.8,83.2,446.2z M83.2,438c0-0.6,0.1-1.1,0.4-1.5c0.2-0.4,0.6-0.8,1-1v0h-1.2v-1.3h7.7c1.3,0,2.3,0.3,3,0.9
			c0.7,0.6,1,1.6,1,2.9c0,0.9-0.2,1.7-0.6,2.4c-0.4,0.6-1,1-1.8,1v-1.4c0.4,0,0.7-0.2,1-0.7c0.2-0.4,0.4-0.9,0.4-1.5
			c0-0.8-0.3-1.4-0.8-1.8c-0.5-0.4-1.3-0.6-2.4-0.6h-0.5v0c0.5,0.2,0.8,0.6,1.1,1c0.3,0.5,0.4,1,0.4,1.6c0,1.1-0.4,2-1.2,2.7
			c-0.8,0.7-1.8,1-3,1c-1.3,0-2.3-0.3-3.1-1C83.7,440.1,83.2,439.2,83.2,438z M87.4,440.3c1,0,1.8-0.2,2.3-0.6
			c0.6-0.4,0.8-1,0.8-1.7c0-0.8-0.3-1.3-0.9-1.8c-0.6-0.4-1.4-0.7-2.3-0.7c-0.9,0-1.6,0.2-2.1,0.6c-0.5,0.4-0.8,1-0.8,1.7
			c0,0.8,0.3,1.4,0.8,1.8C85.8,440.1,86.5,440.3,87.4,440.3z M80.3,424.2c0-0.8,0.2-1.5,0.6-2c0.4-0.5,1-0.8,1.7-0.8
			c0.6,0,1.1,0.2,1.6,0.5c0.5,0.4,1,0.9,1.4,1.6l2.5-2.1c-0.3-0.1-0.6-0.2-0.8-0.2c-0.3-0.1-0.6-0.1-0.9-0.1v-1.3
			c0.7,0.1,1.2,0.2,1.5,0.2c0.3,0.1,0.8,0.3,1.3,0.5l2.6-2.2v1.8l-1.4,1.2c0.5,0.3,0.9,0.8,1.2,1.4c0.3,0.6,0.4,1.2,0.4,1.9
			c0,1.1-0.3,2-0.9,2.6c-0.6,0.6-1.4,0.9-2.2,0.9c-0.7,0-1.3-0.2-1.9-0.6c-0.6-0.4-1.1-1.1-1.6-2.1l-0.7,0.5c-0.3,0.2-0.6,0.4-1,0.5
			s-0.7,0.2-1,0.2c-0.7,0-1.2-0.2-1.7-0.7C80.5,425.6,80.3,425,80.3,424.2z M82.7,425.4c0.2,0,0.5-0.1,0.8-0.2
			c0.3-0.1,0.7-0.4,1.2-0.9c-0.4-0.6-0.7-1-1-1.2c-0.3-0.2-0.6-0.3-1-0.3c-0.3,0-0.6,0.1-0.9,0.4c-0.2,0.2-0.4,0.6-0.4,1
			c0,0.3,0.1,0.7,0.3,0.9C82,425.3,82.3,425.4,82.7,425.4z M88.8,426.8c0.6,0,1-0.2,1.4-0.7c0.4-0.4,0.5-0.9,0.5-1.5
			c0-0.5-0.1-1-0.3-1.4c-0.2-0.4-0.6-0.8-1-1.1l-3.2,2.6c0.4,0.7,0.8,1.2,1.2,1.5C87.8,426.6,88.2,426.8,88.8,426.8z"/>
		<path d="M99.2,488.3c0-1.3,0.3-2.3,1-3.2c0.7-0.9,1.6-1.4,2.7-1.5v1.5c-0.8,0.2-1.4,0.5-1.8,1.1c-0.4,0.6-0.6,1.3-0.6,2.1
			c0,1.2,0.4,2.2,1.3,2.8c0.9,0.7,2,1,3.3,1c1.5,0,2.6-0.3,3.5-1c0.9-0.7,1.3-1.6,1.3-2.9c0-0.9-0.3-1.7-0.9-2.3
			c-0.6-0.6-1.4-0.9-2.4-1v-1.5c1.5,0.2,2.6,0.7,3.4,1.5c0.8,0.9,1.2,2,1.2,3.4c0,1.6-0.5,2.9-1.6,3.9c-1.1,0.9-2.5,1.4-4.3,1.4
			c-1.8,0-3.2-0.5-4.3-1.5C99.8,491.3,99.2,490,99.2,488.3z M102.4,478.2c0-1.2,0.4-2.2,1.2-2.9c0.8-0.7,1.8-1.1,3.1-1.1
			s2.3,0.4,3.1,1.1c0.8,0.7,1.2,1.7,1.2,2.9c0,1.2-0.4,2.2-1.2,2.9c-0.8,0.7-1.8,1.1-3.2,1.1s-2.4-0.4-3.2-1.1
			C102.8,480.5,102.4,479.5,102.4,478.2z M106.8,480.8c0.9,0,1.7-0.2,2.3-0.7c0.6-0.5,0.8-1.1,0.8-1.9s-0.3-1.4-0.8-1.8
			c-0.6-0.5-1.3-0.7-2.3-0.7c-0.9,0-1.7,0.2-2.3,0.7c-0.6,0.5-0.9,1.1-0.9,1.9c0,0.7,0.3,1.3,0.8,1.8
			C105.1,480.6,105.8,480.8,106.8,480.8z M102.4,468.6c0-0.6,0.1-1.1,0.4-1.5c0.2-0.4,0.6-0.7,1-0.8c-0.4-0.3-0.8-0.6-1-1.1
			c-0.2-0.5-0.4-1-0.4-1.5c0-0.9,0.2-1.6,0.6-2.1c0.4-0.4,1-0.7,1.7-0.7h6.1v1.4h-5.5c-0.6,0-1,0.1-1.3,0.4
			c-0.3,0.2-0.5,0.7-0.5,1.2c0,0.7,0.2,1.2,0.6,1.6c0.4,0.4,0.9,0.6,1.5,0.6h5.2v1.4h-5.5c-0.6,0-1,0.1-1.3,0.4
			c-0.3,0.2-0.5,0.6-0.5,1.2c0,0.4,0.1,0.8,0.3,1.1c0.2,0.3,0.5,0.6,0.9,0.8c0.4,0.2,0.7,0.3,0.9,0.3h5.2v1.4h-8.3v-1.3h1.2v0
			c-0.5-0.3-0.8-0.7-1-1.1C102.6,469.7,102.4,469.2,102.4,468.6z M102.4,454.9c0-1.2,0.4-2.1,1.2-2.8c0.8-0.7,1.9-1,3.1-1
			s2.3,0.3,3.1,1c0.8,0.7,1.2,1.6,1.2,2.8c0,0.5-0.1,1-0.3,1.5c-0.2,0.5-0.5,0.9-1,1.2v0h4.3v1.4h-11.5v-1.4h1.1v0
			c-0.4-0.2-0.8-0.5-1-1C102.6,456.1,102.4,455.5,102.4,454.9z M106.8,457.6c1,0,1.7-0.2,2.3-0.7c0.6-0.5,0.8-1.1,0.8-1.9
			c0-0.8-0.3-1.4-0.8-1.8c-0.6-0.4-1.3-0.7-2.3-0.7c-0.9,0-1.6,0.2-2.2,0.7c-0.6,0.4-0.9,1.1-0.9,1.9c0,0.8,0.3,1.4,0.9,1.9
			S105.9,457.6,106.8,457.6z M102.6,448.1h5.6c0.5,0,0.9-0.1,1.2-0.4c0.3-0.3,0.5-0.7,0.5-1.2c0-0.8-0.2-1.4-0.7-1.8
			c-0.5-0.4-1.1-0.6-1.8-0.6h-4.7v-1.4h8.3v1.3h-1.3v0c0.5,0.3,0.9,0.7,1.2,1.1c0.2,0.4,0.4,1,0.4,1.5c0,1-0.2,1.7-0.8,2.2
			c-0.5,0.5-1.2,0.7-2.2,0.7h-5.5V448.1z M100.2,438.7h2.5v-1.6h1.2v1.6h5.2c0.4,0,0.6-0.1,0.7-0.4c0-0.3,0-0.6,0-0.9v-0.4h1.2v1.1
			c0,0.7-0.1,1.2-0.4,1.5c-0.3,0.2-0.7,0.4-1.3,0.4h-5.3v1.4h-1.2v-1.4h-2.5V438.7z M99.5,434.1h1.7v1.4h-1.7V434.1z M102.6,434.1
			h8.3v1.4h-8.3V434.1z M102.4,428c0-1,0.3-1.7,0.8-2.2c0.5-0.4,1.2-0.7,2.2-0.7h5.5v1.4h-5.7c-0.5,0-0.9,0.2-1.2,0.5
			c-0.3,0.3-0.5,0.7-0.5,1.2c0,0.8,0.2,1.4,0.7,1.8c0.5,0.4,1.1,0.6,1.8,0.6h4.7v1.4h-8.3v-1.3h1.3v0c-0.5-0.3-0.9-0.7-1.1-1.1
			C102.6,429.1,102.4,428.6,102.4,428z M102.4,419.7c0-0.6,0.1-1.1,0.4-1.5c0.2-0.4,0.6-0.8,1-1v0h-1.2V416h7.7c1.3,0,2.3,0.3,3,0.9
			s1,1.6,1,2.9c0,0.9-0.2,1.7-0.6,2.4c-0.4,0.6-1,1-1.8,1v-1.4c0.4,0,0.7-0.2,1-0.7c0.2-0.4,0.4-0.9,0.4-1.5c0-0.8-0.3-1.4-0.8-1.8
			c-0.5-0.4-1.3-0.6-2.4-0.6h-0.5v0c0.5,0.2,0.8,0.6,1.1,1c0.3,0.5,0.4,1,0.4,1.6c0,1.1-0.4,2-1.2,2.7c-0.8,0.7-1.8,1-3,1
			c-1.3,0-2.3-0.3-3.1-1C102.9,421.9,102.4,420.9,102.4,419.7z M106.6,422.1c1,0,1.8-0.2,2.3-0.6c0.6-0.4,0.8-1,0.8-1.7
			c0-0.8-0.3-1.3-0.9-1.8c-0.6-0.4-1.4-0.7-2.3-0.7c-0.9,0-1.6,0.2-2.1,0.6c-0.5,0.4-0.8,1-0.8,1.7c0,0.8,0.3,1.4,0.8,1.8
			C105,421.9,105.7,422.1,106.6,422.1z"/>
		<path class="st2" d="M48.2,375.5V174.7h69.1v200.7H48.2z"/>
		<path d="M61.1,338.3c0-1.7,0.5-3.1,1.4-4c0.9-0.9,2.3-1.4,4.1-1.4c2,0,3.5,0.5,4.5,1.4c1,0.9,1.5,2.2,1.5,4v4H61.1V338.3z
			 M71.2,338.2c0-1.1-0.4-2-1.1-2.7c-0.8-0.7-1.9-1-3.4-1c-1.5,0-2.6,0.3-3.3,1c-0.7,0.6-1,1.6-1,2.8v2.6h8.9V338.2z M61.1,329.8
			h1.7v1.4h-1.7V329.8z M64.2,329.8h8.3v1.4h-8.3V329.8z M64,323.6C64,323.6,64,323.5,64,323.6c0-0.1,0-0.1,0-0.2h1.4
			c0,1,0.3,1.8,0.8,2.3c0.5,0.5,1.4,0.7,2.5,0.7h3.7v1.4h-8.3v-1.3H66v0c-0.7-0.3-1.1-0.7-1.5-1.2C64.2,324.8,64,324.2,64,323.6z
			 M64,319.2c0-1.2,0.4-2.1,1.3-2.8c0.9-0.7,2-1,3.3-1h0.2v6.2h0.1c0.8,0,1.4-0.2,1.9-0.7c0.5-0.5,0.7-1.1,0.7-1.9
			c0-0.6-0.1-1.1-0.4-1.4c-0.3-0.4-0.7-0.6-1.2-0.7v-1.3c0.9,0.2,1.6,0.6,2.1,1.2c0.5,0.6,0.7,1.4,0.7,2.3c0,0.9-0.2,1.6-0.6,2.2
			c-0.4,0.6-0.9,1.1-1.6,1.3c-0.7,0.3-1.4,0.4-2.2,0.4c-1.2,0-2.2-0.4-3-1.1C64.5,321.3,64,320.4,64,319.2z M67.6,321.7v-4.8
			c-0.7,0-1.2,0.3-1.7,0.7c-0.4,0.4-0.7,1-0.7,1.7c0,0.6,0.2,1.2,0.6,1.6C66.3,321.4,66.9,321.6,67.6,321.7z M64,310.6
			c0-1,0.2-1.8,0.7-2.5c0.5-0.6,1.2-1,2.1-1.1v1.4c-0.5,0.1-0.9,0.3-1.2,0.7c-0.3,0.4-0.4,0.8-0.4,1.3c0,0.8,0.3,1.5,0.8,1.9
			s1.4,0.7,2.4,0.7c0.9,0,1.7-0.2,2.2-0.6c0.5-0.4,0.8-1,0.8-1.8c0-0.7-0.2-1.2-0.5-1.6c-0.4-0.4-0.8-0.6-1.5-0.7V307
			c1,0.1,1.8,0.5,2.4,1.2s0.8,1.5,0.8,2.5c0,1.2-0.4,2.2-1.1,2.8c-0.8,0.7-1.8,1-3.1,1c-1.4,0-2.4-0.3-3.2-1
			C64.4,312.8,64,311.8,64,310.6z M61.8,303.6h2.5V302h1.2v1.6h5.2c0.4,0,0.6-0.1,0.7-0.4c0-0.3,0-0.6,0-0.9V302h1.2v1.1
			c0,0.7-0.1,1.2-0.4,1.5c-0.3,0.2-0.7,0.4-1.3,0.4h-5.3v1.4h-1.2V305h-2.5V303.6z M61.1,299h1.7v1.4h-1.7V299z M64.2,299h8.3v1.4
			h-8.3V299z M64,292.9c0-1,0.3-1.7,0.8-2.2c0.5-0.4,1.2-0.7,2.2-0.7h5.5v1.4h-5.7c-0.5,0-0.9,0.2-1.2,0.5c-0.3,0.3-0.5,0.7-0.5,1.2
			c0,0.8,0.2,1.4,0.7,1.8s1.1,0.6,1.8,0.6h4.7v1.4h-8.3v-1.3h1.3v0c-0.5-0.3-0.9-0.7-1.1-1.1C64.2,294,64,293.5,64,292.9z M64,284.6
			c0-0.6,0.1-1.1,0.4-1.5c0.2-0.4,0.6-0.8,1-1v0h-1.2v-1.3h7.7c1.3,0,2.3,0.3,3,0.9c0.7,0.6,1,1.6,1,2.9c0,0.9-0.2,1.7-0.6,2.4
			c-0.4,0.6-1,1-1.8,1v-1.4c0.4,0,0.7-0.2,1-0.7c0.2-0.4,0.4-0.9,0.4-1.5c0-0.8-0.3-1.4-0.8-1.8s-1.3-0.6-2.4-0.6h-0.5v0
			c0.5,0.2,0.8,0.6,1.1,1c0.3,0.5,0.4,1,0.4,1.6c0,1.1-0.4,2-1.2,2.7c-0.8,0.7-1.8,1-3,1c-1.3,0-2.3-0.3-3.1-1
			C64.5,286.8,64,285.8,64,284.6z M68.2,287c1,0,1.8-0.2,2.3-0.6c0.6-0.4,0.8-1,0.8-1.7c0-0.8-0.3-1.3-0.9-1.8
			c-0.6-0.4-1.4-0.7-2.3-0.7c-0.9,0-1.6,0.2-2.1,0.6c-0.5,0.4-0.8,1-0.8,1.7c0,0.8,0.3,1.4,0.8,1.8C66.6,286.8,67.3,287,68.2,287z
			 M61.1,269.4l11.4-4.5v1.7l-3.4,1.2v4.8l3.4,1.3v1.6L61.1,271V269.4z M62.5,270.2l5.3,1.9v-3.9L62.5,270.2L62.5,270.2z
			 M61.8,262.2h2.5v-1.6h1.2v1.6h5.2c0.4,0,0.6-0.1,0.7-0.4c0-0.3,0-0.6,0-0.9v-0.4h1.2v1.1c0,0.7-0.1,1.2-0.4,1.5
			c-0.3,0.2-0.7,0.4-1.3,0.4h-5.3v1.4h-1.2v-1.4h-2.5V262.2z M61.8,257.2h2.5v-1.6h1.2v1.6h5.2c0.4,0,0.6-0.1,0.7-0.4
			c0-0.3,0-0.6,0-0.9v-0.4h1.2v1.1c0,0.7-0.1,1.2-0.4,1.5c-0.3,0.2-0.7,0.4-1.3,0.4h-5.3v1.4h-1.2v-1.4h-2.5V257.2z M64,250.8
			c0-1.2,0.4-2.1,1.3-2.8c0.9-0.7,2-1,3.3-1h0.2v6.2h0.1c0.8,0,1.4-0.2,1.9-0.7c0.5-0.5,0.7-1.1,0.7-1.9c0-0.6-0.1-1.1-0.4-1.4
			c-0.3-0.4-0.7-0.6-1.2-0.7v-1.3c0.9,0.2,1.6,0.6,2.1,1.2c0.5,0.6,0.7,1.4,0.7,2.3c0,0.9-0.2,1.6-0.6,2.2c-0.4,0.6-0.9,1.1-1.6,1.3
			c-0.7,0.3-1.4,0.4-2.2,0.4c-1.2,0-2.2-0.4-3-1.1C64.5,252.8,64,251.9,64,250.8z M67.6,253.2v-4.8c-0.7,0-1.2,0.3-1.7,0.7
			c-0.4,0.4-0.7,1-0.7,1.7c0,0.6,0.2,1.2,0.6,1.6C66.3,252.9,66.9,253.2,67.6,253.2z M64,241.6c0-1,0.3-1.7,0.8-2.2
			c0.5-0.4,1.2-0.7,2.2-0.7h5.5v1.4h-5.7c-0.5,0-0.9,0.2-1.2,0.5c-0.3,0.3-0.5,0.7-0.5,1.2c0,0.8,0.2,1.4,0.7,1.8s1.1,0.6,1.8,0.6
			h4.7v1.4h-8.3v-1.3h1.3v0c-0.5-0.3-0.9-0.7-1.1-1.1C64.2,242.7,64,242.2,64,241.6z M61.8,234.8h2.5v-1.6h1.2v1.6h5.2
			c0.4,0,0.6-0.1,0.7-0.4c0-0.3,0-0.6,0-0.9v-0.4h1.2v1.1c0,0.7-0.1,1.2-0.4,1.5c-0.3,0.2-0.7,0.4-1.3,0.4h-5.3v1.4h-1.2v-1.4h-2.5
			V234.8z M61.1,230.2h1.7v1.4h-1.7V230.2z M64.2,230.2h8.3v1.4h-8.3V230.2z M64,224.6c0-1.2,0.4-2.2,1.2-2.9
			c0.8-0.7,1.8-1.1,3.1-1.1s2.3,0.4,3.1,1.1c0.8,0.7,1.2,1.7,1.2,2.9c0,1.2-0.4,2.2-1.2,2.9c-0.8,0.7-1.8,1.1-3.2,1.1
			s-2.4-0.4-3.2-1.1C64.4,226.8,64,225.8,64,224.6z M68.4,227.1c0.9,0,1.7-0.2,2.3-0.7c0.6-0.5,0.8-1.1,0.8-1.9s-0.3-1.4-0.8-1.8
			c-0.6-0.5-1.3-0.7-2.3-0.7c-0.9,0-1.7,0.2-2.3,0.7c-0.6,0.5-0.9,1.1-0.9,1.9c0,0.7,0.3,1.3,0.8,1.8S67.4,227.1,68.4,227.1z
			 M64,214.9c0-1,0.3-1.7,0.8-2.2c0.5-0.4,1.2-0.7,2.2-0.7h5.5v1.4h-5.7c-0.5,0-0.9,0.2-1.2,0.5c-0.3,0.3-0.5,0.7-0.5,1.2
			c0,0.8,0.2,1.4,0.7,1.8s1.1,0.6,1.8,0.6h4.7v1.4h-8.3v-1.3h1.3v0c-0.5-0.3-0.9-0.7-1.1-1.1C64.2,216.1,64,215.5,64,214.9z
			 M70.7,208h1.7c0.6,0,1.1,0.1,1.5,0.4c0.4,0.3,0.7,0.7,0.9,1.3h-0.8c-0.1-0.3-0.3-0.5-0.5-0.7c-0.3-0.2-0.6-0.3-0.9-0.3h-0.1v1
			h-1.8V208z"/>
		<path d="M80,357.2c0-1.3,0.3-2.3,1-3.2c0.7-0.9,1.6-1.4,2.7-1.5v1.5c-0.8,0.2-1.4,0.5-1.8,1.1c-0.4,0.6-0.6,1.3-0.6,2.1
			c0,1.2,0.4,2.2,1.3,2.8c0.9,0.7,2,1,3.3,1c1.5,0,2.6-0.3,3.5-1c0.9-0.7,1.3-1.6,1.3-2.9c0-0.9-0.3-1.7-0.9-2.3
			c-0.6-0.6-1.4-0.9-2.4-1v-1.5c1.5,0.2,2.6,0.7,3.4,1.5c0.8,0.9,1.2,2,1.2,3.4c0,1.6-0.5,2.9-1.6,3.9c-1.1,0.9-2.5,1.4-4.3,1.4
			c-1.8,0-3.2-0.5-4.3-1.5C80.6,360.1,80,358.8,80,357.2z M83.2,346.6C83.2,346.5,83.2,346.5,83.2,346.6c0-0.1,0-0.1,0-0.2h1.4
			c0,1,0.3,1.8,0.8,2.3c0.5,0.5,1.4,0.7,2.5,0.7h3.7v1.4h-8.3v-1.3h1.8v0c-0.7-0.3-1.1-0.7-1.5-1.2
			C83.4,347.8,83.2,347.2,83.2,346.6z M83.2,342.2c0-1.2,0.4-2.1,1.3-2.8c0.9-0.7,2-1,3.3-1H88v6.2h0.1c0.8,0,1.4-0.2,1.9-0.7
			c0.5-0.5,0.7-1.1,0.7-1.9c0-0.6-0.1-1.1-0.4-1.4c-0.3-0.4-0.7-0.6-1.2-0.7v-1.3c0.9,0.2,1.6,0.6,2.1,1.2c0.5,0.6,0.7,1.4,0.7,2.3
			c0,0.9-0.2,1.6-0.6,2.2c-0.4,0.6-0.9,1.1-1.6,1.3c-0.7,0.3-1.4,0.4-2.2,0.4c-1.2,0-2.2-0.4-3-1.1
			C83.7,344.2,83.2,343.3,83.2,342.2z M86.8,344.6v-4.8c-0.7,0-1.2,0.3-1.7,0.7c-0.4,0.4-0.7,1-0.7,1.7c0,0.6,0.2,1.2,0.6,1.6
			C85.5,344.3,86.1,344.6,86.8,344.6z M83.2,333.7c0-1.1,0.2-1.9,0.6-2.4c0.4-0.5,0.9-0.7,1.6-0.7c2.9,0,4.5,0,4.8,0
			c0.3,0,0.5-0.1,0.5-0.4c0-0.1,0-0.1,0-0.2c0-0.1,0-0.1-0.1-0.2h1.1c0.1,0.1,0.1,0.3,0.2,0.4c0,0.2,0.1,0.3,0.1,0.5
			c0,0.4-0.1,0.7-0.3,0.9c-0.2,0.2-0.5,0.3-1,0.3c0.4,0.4,0.8,0.8,1,1.3c0.2,0.5,0.3,1,0.3,1.6c0,0.9-0.2,1.5-0.6,2
			c-0.4,0.5-1,0.7-1.7,0.7c-0.7,0-1.3-0.2-1.8-0.7c-0.4-0.5-0.8-1.6-1-3.4c-0.1-0.6-0.2-1-0.3-1.2c-0.2-0.2-0.4-0.3-0.7-0.3
			c-0.5,0-0.8,0.1-1,0.4c-0.2,0.3-0.3,0.8-0.3,1.4c0,0.7,0.1,1.2,0.4,1.5c0.2,0.3,0.6,0.5,1.2,0.5v1.4c-0.9,0-1.6-0.4-2.1-1
			C83.5,335.6,83.2,334.7,83.2,333.7z M89.5,336c0.4,0,0.7-0.1,0.9-0.4c0.2-0.3,0.3-0.7,0.3-1.2c0-0.8-0.2-1.4-0.6-1.8
			c-0.4-0.5-0.8-0.7-1.3-0.7h-1.4c0.2,0.2,0.3,0.5,0.3,0.9c0.1,0.4,0.1,0.8,0.2,1.5c0.1,0.6,0.2,1.1,0.5,1.3
			C88.7,335.9,89,336,89.5,336z M81,326.5h2.5v-1.6h1.2v1.6h5.2c0.4,0,0.6-0.1,0.7-0.4c0-0.3,0-0.6,0-0.9v-0.4h1.2v1.1
			c0,0.7-0.1,1.2-0.4,1.5c-0.3,0.2-0.7,0.4-1.3,0.4h-5.3v1.4h-1.2v-1.4H81V326.5z M80.3,322h1.7v1.4h-1.7V322z M83.4,322h8.3v1.4
			h-8.3V322z M83.4,319.1l6.9-2.3v0l-6.9-2.3v-1.4l8.3,3v1.5l-8.3,3.1V319.1z M83.2,308.4c0-1.2,0.4-2.1,1.3-2.8c0.9-0.7,2-1,3.3-1
			H88v6.2h0.1c0.8,0,1.4-0.2,1.9-0.7c0.5-0.5,0.7-1.1,0.7-1.9c0-0.6-0.1-1.1-0.4-1.4c-0.3-0.4-0.7-0.6-1.2-0.7v-1.3
			c0.9,0.2,1.6,0.6,2.1,1.2c0.5,0.6,0.7,1.4,0.7,2.3c0,0.9-0.2,1.6-0.6,2.2c-0.4,0.6-0.9,1.1-1.6,1.3c-0.7,0.3-1.4,0.4-2.2,0.4
			c-1.2,0-2.2-0.4-3-1.1C83.7,310.5,83.2,309.5,83.2,308.4z M86.8,310.9v-4.8c-0.7,0-1.2,0.3-1.7,0.7c-0.4,0.4-0.7,1-0.7,1.7
			c0,0.6,0.2,1.2,0.6,1.6C85.5,310.5,86.1,310.8,86.8,310.9z M83.2,296.1c0-1.1,0.2-1.9,0.7-2.5c0.4-0.5,1.1-0.8,1.9-0.9v1.4h0
			c-0.4,0-0.8,0.2-1,0.6s-0.4,0.8-0.4,1.3c0,0.5,0.1,1,0.3,1.3c0.2,0.3,0.4,0.5,0.8,0.5c0.3,0,0.6-0.1,0.8-0.4
			c0.2-0.3,0.3-0.7,0.5-1.3l0.3-1.3c0.2-0.8,0.5-1.4,0.8-1.8c0.4-0.4,0.9-0.6,1.5-0.6c0.8,0,1.5,0.3,1.9,1c0.5,0.6,0.7,1.5,0.7,2.6
			c0,1.1-0.2,1.9-0.7,2.5c-0.5,0.6-1.2,0.9-2.1,1V298c0.5,0,0.9-0.2,1.2-0.6c0.3-0.4,0.4-0.9,0.4-1.6c0-0.7-0.1-1.2-0.3-1.5
			c-0.2-0.3-0.5-0.5-0.9-0.5c-0.4,0-0.7,0.2-0.9,0.5c-0.2,0.3-0.4,1-0.6,2.1c-0.2,1-0.5,1.8-0.9,2.2c-0.4,0.4-0.9,0.6-1.5,0.6
			c-0.7,0-1.3-0.3-1.7-0.9C83.5,297.7,83.2,296.9,83.2,296.1z M83.2,287.4c0-1.2,0.4-2.1,1.3-2.8c0.9-0.7,2-1,3.3-1H88v6.2h0.1
			c0.8,0,1.4-0.2,1.9-0.7c0.5-0.5,0.7-1.1,0.7-1.9c0-0.6-0.1-1.1-0.4-1.4c-0.3-0.4-0.7-0.6-1.2-0.7v-1.3c0.9,0.2,1.6,0.6,2.1,1.2
			c0.5,0.6,0.7,1.4,0.7,2.3c0,0.9-0.2,1.6-0.6,2.2c-0.4,0.6-0.9,1.1-1.6,1.3c-0.7,0.3-1.4,0.4-2.2,0.4c-1.2,0-2.2-0.4-3-1.1
			C83.7,289.4,83.2,288.5,83.2,287.4z M86.8,289.8v-4.8c-0.7,0-1.2,0.3-1.7,0.7c-0.4,0.4-0.7,1-0.7,1.7c0,0.6,0.2,1.2,0.6,1.6
			C85.5,289.5,86.1,289.8,86.8,289.8z M80.3,280.8h11.4v1.4H80.3V280.8z M80.2,275.8c0-0.1,0-0.3,0-0.5c0-0.2,0.1-0.3,0.1-0.4h1.2
			c0,0.1-0.1,0.2-0.1,0.4c0,0.1,0,0.3,0,0.4c0,0.4,0.1,0.6,0.2,0.8s0.4,0.2,0.7,0.2h1.2v-1.6h1.2v1.6h7.1v1.4h-7.1v1.4h-1.2v-1.4
			h-1.3c-0.6,0-1.1-0.2-1.5-0.6C80.3,277.1,80.2,276.6,80.2,275.8z M86.6,269.5h1.3v4.6h-1.3V269.5z M83.2,264.3
			c0-1.2,0.4-2.1,1.3-2.8c0.9-0.7,2-1,3.3-1H88v6.2h0.1c0.8,0,1.4-0.2,1.9-0.7c0.5-0.5,0.7-1.1,0.7-1.9c0-0.6-0.1-1.1-0.4-1.4
			c-0.3-0.4-0.7-0.6-1.2-0.7v-1.3c0.9,0.2,1.6,0.6,2.1,1.2c0.5,0.6,0.7,1.4,0.7,2.3c0,0.9-0.2,1.6-0.6,2.2c-0.4,0.6-0.9,1.1-1.6,1.3
			c-0.7,0.3-1.4,0.4-2.2,0.4c-1.2,0-2.2-0.4-3-1.1C83.7,266.3,83.2,265.4,83.2,264.3z M86.8,266.7V262c-0.7,0-1.2,0.3-1.7,0.7
			c-0.4,0.4-0.7,1-0.7,1.7c0,0.6,0.2,1.2,0.6,1.6C85.5,266.4,86.1,266.6,86.8,266.7z M83.4,258.3l2.9-2v0l-2.9-2v-1.6l3.8,2.8
			l4.5-3.2v1.7l-3.4,2.3l3.4,2.3v1.7l-4.4-3.1l-3.9,2.9V258.3z M83.2,247c0-1.2,0.4-2.1,1.2-2.8c0.8-0.7,1.9-1,3.1-1
			c1.3,0,2.3,0.3,3.1,1c0.8,0.7,1.2,1.6,1.2,2.8c0,0.5-0.1,1-0.3,1.5c-0.2,0.5-0.5,0.9-1,1.2v0h4.3v1.4H83.4v-1.4h1.1v0
			c-0.4-0.2-0.8-0.5-1-1C83.4,248.2,83.2,247.6,83.2,247z M87.6,249.7c1,0,1.7-0.2,2.3-0.7c0.6-0.5,0.8-1.1,0.8-1.9
			c0-0.8-0.3-1.4-0.8-1.8c-0.6-0.4-1.3-0.7-2.3-0.7c-0.9,0-1.6,0.2-2.2,0.7c-0.6,0.4-0.9,1.1-0.9,1.9s0.3,1.4,0.9,1.9
			S86.7,249.7,87.6,249.7z M83.2,237.5C83.2,237.5,83.2,237.4,83.2,237.5c0-0.1,0-0.1,0-0.2h1.4c0,1,0.3,1.8,0.8,2.3
			c0.5,0.5,1.4,0.7,2.5,0.7h3.7v1.4h-8.3v-1.3h1.8v0c-0.7-0.3-1.1-0.7-1.5-1.2C83.4,238.7,83.2,238.2,83.2,237.5z M83.2,233.1
			c0-1.2,0.4-2.1,1.3-2.8c0.9-0.7,2-1,3.3-1H88v6.2h0.1c0.8,0,1.4-0.2,1.9-0.7c0.5-0.5,0.7-1.1,0.7-1.9c0-0.6-0.1-1.1-0.4-1.4
			c-0.3-0.4-0.7-0.6-1.2-0.7v-1.3c0.9,0.2,1.6,0.6,2.1,1.2c0.5,0.6,0.7,1.4,0.7,2.3c0,0.9-0.2,1.6-0.6,2.2c-0.4,0.6-0.9,1.1-1.6,1.3
			c-0.7,0.3-1.4,0.4-2.2,0.4c-1.2,0-2.2-0.4-3-1.1C83.7,235.2,83.2,234.3,83.2,233.1z M86.8,235.6v-4.8c-0.7,0-1.2,0.3-1.7,0.7
			c-0.4,0.4-0.7,1-0.7,1.7c0,0.6,0.2,1.2,0.6,1.6C85.5,235.3,86.1,235.5,86.8,235.6z M83.2,225.2c0-1.1,0.2-1.9,0.7-2.5
			c0.4-0.5,1.1-0.8,1.9-0.9v1.4h0c-0.4,0-0.8,0.2-1,0.6s-0.4,0.8-0.4,1.3c0,0.5,0.1,1,0.3,1.3c0.2,0.3,0.4,0.5,0.8,0.5
			c0.3,0,0.6-0.1,0.8-0.4c0.2-0.3,0.3-0.7,0.5-1.3l0.3-1.3c0.2-0.8,0.5-1.4,0.8-1.8c0.4-0.4,0.9-0.6,1.5-0.6c0.8,0,1.5,0.3,1.9,1
			c0.5,0.6,0.7,1.5,0.7,2.6c0,1.1-0.2,1.9-0.7,2.5c-0.5,0.6-1.2,0.9-2.1,1v-1.4c0.5,0,0.9-0.2,1.2-0.6c0.3-0.4,0.4-0.9,0.4-1.6
			c0-0.7-0.1-1.2-0.3-1.5c-0.2-0.3-0.5-0.5-0.9-0.5c-0.4,0-0.7,0.2-0.9,0.5c-0.2,0.3-0.4,1-0.6,2.1c-0.2,1-0.5,1.8-0.9,2.2
			c-0.4,0.4-0.9,0.6-1.5,0.6c-0.7,0-1.3-0.3-1.7-0.9C83.5,226.9,83.2,226.1,83.2,225.2z M83.2,217.2c0-1.1,0.2-1.9,0.7-2.5
			c0.4-0.5,1.1-0.8,1.9-0.9v1.4h0c-0.4,0-0.8,0.2-1,0.6s-0.4,0.8-0.4,1.3c0,0.5,0.1,1,0.3,1.3c0.2,0.3,0.4,0.5,0.8,0.5
			c0.3,0,0.6-0.1,0.8-0.4c0.2-0.3,0.3-0.7,0.5-1.3l0.3-1.3c0.2-0.8,0.5-1.4,0.8-1.8c0.4-0.4,0.9-0.6,1.5-0.6c0.8,0,1.5,0.3,1.9,1
			c0.5,0.6,0.7,1.5,0.7,2.6c0,1.1-0.2,1.9-0.7,2.5c-0.5,0.6-1.2,0.9-2.1,1v-1.4c0.5,0,0.9-0.2,1.2-0.6c0.3-0.4,0.4-0.9,0.4-1.6
			c0-0.7-0.1-1.2-0.3-1.5c-0.2-0.3-0.5-0.5-0.9-0.5c-0.4,0-0.7,0.2-0.9,0.5c-0.2,0.3-0.4,1-0.6,2.1c-0.2,1-0.5,1.8-0.9,2.2
			c-0.4,0.4-0.9,0.6-1.5,0.6c-0.7,0-1.3-0.3-1.7-0.9C83.5,218.9,83.2,218.1,83.2,217.2z M80.3,210.5h1.7v1.4h-1.7V210.5z
			 M83.4,210.5h8.3v1.4h-8.3V210.5z M83.2,204.9c0-1.2,0.4-2.2,1.2-2.9c0.8-0.7,1.8-1.1,3.1-1.1c1.3,0,2.3,0.4,3.1,1.1
			c0.8,0.7,1.2,1.7,1.2,2.9c0,1.2-0.4,2.2-1.2,2.9c-0.8,0.7-1.8,1.1-3.2,1.1c-1.3,0-2.4-0.4-3.2-1.1
			C83.6,207.1,83.2,206.1,83.2,204.9z M87.6,207.4c0.9,0,1.7-0.2,2.3-0.7c0.6-0.5,0.8-1.1,0.8-1.9c0-0.8-0.3-1.4-0.8-1.8
			c-0.6-0.5-1.3-0.7-2.3-0.7c-0.9,0-1.7,0.2-2.3,0.7c-0.6,0.5-0.9,1.1-0.9,1.9c0,0.7,0.3,1.3,0.8,1.8
			C85.9,207.2,86.6,207.4,87.6,207.4z M83.2,195.2c0-1,0.3-1.7,0.8-2.2s1.2-0.7,2.2-0.7h5.5v1.4h-5.7c-0.5,0-0.9,0.2-1.2,0.5
			c-0.3,0.3-0.5,0.7-0.5,1.2c0,0.8,0.2,1.4,0.7,1.8c0.5,0.4,1.1,0.6,1.8,0.6h4.7v1.4h-8.3V198h1.3v0c-0.5-0.3-0.9-0.7-1.1-1.1
			C83.4,196.4,83.2,195.9,83.2,195.2z M89.9,188.3h1.7c0.6,0,1.1,0.1,1.5,0.4c0.4,0.3,0.7,0.7,0.9,1.3h-0.8
			c-0.1-0.3-0.3-0.5-0.5-0.7c-0.3-0.2-0.6-0.3-0.9-0.3h-0.1v1h-1.8V188.3z"/>
		<path d="M99.5,329.9c0-1.7,0.5-3.1,1.4-4c0.9-0.9,2.3-1.4,4.1-1.4c2,0,3.5,0.5,4.5,1.4c1,0.9,1.5,2.2,1.5,4v4H99.5V329.9z
			 M109.6,329.8c0-1.1-0.4-2-1.1-2.7c-0.8-0.7-1.9-1-3.4-1s-2.6,0.3-3.3,1c-0.7,0.6-1,1.6-1,2.8v2.6h8.9V329.8z M102.4,319.4
			c0-1.2,0.4-2.1,1.3-2.8s2-1,3.3-1h0.2v6.2h0.1c0.8,0,1.4-0.2,1.9-0.7s0.7-1.1,0.7-1.9c0-0.6-0.1-1.1-0.4-1.4
			c-0.3-0.4-0.7-0.6-1.2-0.7v-1.3c0.9,0.2,1.6,0.6,2.1,1.2c0.5,0.6,0.7,1.4,0.7,2.3c0,0.9-0.2,1.6-0.6,2.2s-0.9,1.1-1.6,1.3
			c-0.7,0.3-1.4,0.4-2.2,0.4c-1.2,0-2.2-0.4-3-1.1C102.9,321.4,102.4,320.5,102.4,319.4z M106,321.8v-4.8c-0.7,0-1.2,0.3-1.7,0.7
			c-0.4,0.4-0.7,1-0.7,1.7c0,0.6,0.2,1.2,0.6,1.6C104.7,321.5,105.3,321.8,106,321.8z M102.4,310.8c0-1,0.2-1.8,0.7-2.5
			c0.5-0.6,1.2-1,2.1-1.1v1.4c-0.5,0.1-0.9,0.3-1.2,0.7c-0.3,0.4-0.4,0.8-0.4,1.3c0,0.8,0.3,1.5,0.8,1.9s1.4,0.7,2.4,0.7
			c0.9,0,1.7-0.2,2.2-0.6c0.5-0.4,0.8-1,0.8-1.8c0-0.7-0.2-1.2-0.5-1.6s-0.8-0.6-1.5-0.7v-1.4c1,0.1,1.8,0.5,2.4,1.2
			s0.8,1.5,0.8,2.5c0,1.2-0.4,2.2-1.1,2.8s-1.8,1-3.1,1c-1.4,0-2.4-0.3-3.2-1S102.4,312,102.4,310.8z M99.5,304.2h1.7v1.4h-1.7
			V304.2z M102.6,304.2h8.3v1.4h-8.3V304.2z M102.4,299.3c0-1.1,0.2-1.9,0.7-2.5c0.4-0.5,1.1-0.8,1.9-0.9v1.4h0
			c-0.4,0-0.8,0.2-1,0.6s-0.4,0.8-0.4,1.3c0,0.5,0.1,1,0.3,1.3c0.2,0.3,0.4,0.5,0.8,0.5c0.3,0,0.6-0.1,0.8-0.4
			c0.2-0.3,0.3-0.7,0.5-1.3l0.3-1.3c0.2-0.8,0.5-1.4,0.8-1.8c0.4-0.4,0.9-0.6,1.5-0.6c0.8,0,1.5,0.3,1.9,1c0.5,0.6,0.7,1.5,0.7,2.6
			c0,1.1-0.2,1.9-0.7,2.5c-0.5,0.6-1.2,0.9-2.1,1v-1.4c0.5,0,0.9-0.2,1.2-0.6c0.3-0.4,0.4-0.9,0.4-1.6c0-0.7-0.1-1.2-0.3-1.5
			c-0.2-0.3-0.5-0.5-0.9-0.5c-0.4,0-0.7,0.2-0.9,0.5s-0.4,1-0.6,2.1c-0.2,1-0.5,1.8-0.9,2.2s-0.9,0.6-1.5,0.6
			c-0.7,0-1.3-0.3-1.7-0.9C102.7,301,102.4,300.2,102.4,299.3z M99.5,292.6h1.7v1.4h-1.7V292.6z M102.6,292.6h8.3v1.4h-8.3V292.6z
			 M102.4,287c0-1.2,0.4-2.2,1.2-2.9c0.8-0.7,1.8-1.1,3.1-1.1s2.3,0.4,3.1,1.1s1.2,1.7,1.2,2.9c0,1.2-0.4,2.2-1.2,2.9
			c-0.8,0.7-1.8,1.1-3.2,1.1s-2.4-0.4-3.2-1.1C102.8,289.2,102.4,288.2,102.4,287z M106.8,289.5c0.9,0,1.7-0.2,2.3-0.7
			c0.6-0.5,0.8-1.1,0.8-1.9s-0.3-1.4-0.8-1.8c-0.6-0.5-1.3-0.7-2.3-0.7c-0.9,0-1.7,0.2-2.3,0.7c-0.6,0.5-0.9,1.1-0.9,1.9
			c0,0.7,0.3,1.3,0.8,1.8S105.8,289.5,106.8,289.5z M102.4,277.3c0-1,0.3-1.7,0.8-2.2s1.2-0.7,2.2-0.7h5.5v1.4h-5.7
			c-0.5,0-0.9,0.2-1.2,0.5c-0.3,0.3-0.5,0.7-0.5,1.2c0,0.8,0.2,1.4,0.7,1.8s1.1,0.6,1.8,0.6h4.7v1.4h-8.3v-1.3h1.3v0
			c-0.5-0.3-0.9-0.7-1.1-1.1C102.6,278.5,102.4,278,102.4,277.3z M105.8,268.1h1.3v4.6h-1.3V268.1z M102.4,262.2
			c0-0.6,0.1-1.1,0.4-1.5c0.2-0.4,0.6-0.7,1-0.8c-0.4-0.3-0.8-0.6-1-1.1c-0.2-0.5-0.4-1-0.4-1.5c0-0.9,0.2-1.6,0.6-2.1
			c0.4-0.4,1-0.7,1.7-0.7h6.1v1.4h-5.5c-0.6,0-1,0.1-1.3,0.4c-0.3,0.2-0.5,0.7-0.5,1.2c0,0.7,0.2,1.2,0.6,1.6
			c0.4,0.4,0.9,0.6,1.5,0.6h5.2v1.4h-5.5c-0.6,0-1,0.1-1.3,0.4c-0.3,0.2-0.5,0.6-0.5,1.2c0,0.4,0.1,0.8,0.3,1.1s0.5,0.6,0.9,0.8
			c0.4,0.2,0.7,0.3,0.9,0.3h5.2v1.4h-8.3v-1.3h1.2v0c-0.5-0.3-0.8-0.7-1-1.1C102.6,263.3,102.4,262.8,102.4,262.2z M102.4,249.2
			c0-1.1,0.2-1.9,0.6-2.4c0.4-0.5,0.9-0.7,1.6-0.7c2.9,0,4.5,0,4.8,0s0.5-0.1,0.5-0.4c0-0.1,0-0.1,0-0.2c0-0.1,0-0.1-0.1-0.2h1.1
			c0.1,0.1,0.1,0.3,0.2,0.4s0.1,0.3,0.1,0.5c0,0.4-0.1,0.7-0.3,0.9c-0.2,0.2-0.5,0.3-1,0.3c0.4,0.4,0.8,0.8,1,1.3s0.3,1,0.3,1.6
			c0,0.9-0.2,1.5-0.6,2c-0.4,0.5-1,0.7-1.7,0.7c-0.8,0-1.3-0.2-1.8-0.7c-0.4-0.5-0.8-1.6-1-3.4c-0.1-0.6-0.2-1-0.3-1.2
			c-0.2-0.2-0.4-0.3-0.7-0.3c-0.5,0-0.8,0.1-1,0.4c-0.2,0.3-0.3,0.8-0.3,1.4c0,0.7,0.1,1.2,0.4,1.5c0.2,0.3,0.6,0.5,1.2,0.5v1.4
			c-0.9,0-1.6-0.4-2.1-1C102.7,251.1,102.4,250.3,102.4,249.2z M108.7,251.6c0.4,0,0.7-0.1,0.9-0.4c0.2-0.3,0.3-0.7,0.3-1.2
			c0-0.8-0.2-1.4-0.6-1.8c-0.4-0.5-0.8-0.7-1.3-0.7h-1.4c0.2,0.2,0.3,0.5,0.3,0.9c0.1,0.4,0.1,0.8,0.2,1.5s0.2,1.1,0.5,1.3
			S108.2,251.6,108.7,251.6z M99.5,242.5h6.8l-3.6-3.8v-1.8l3,3.3l5.3-3.5v1.7l-4.3,2.8l1.2,1.3h3.1v1.4H99.5V242.5z M99.5,234.2
			h1.7v1.4h-1.7V234.2z M102.6,234.2h8.3v1.4h-8.3V234.2z M102.4,228.1c0-1,0.3-1.7,0.8-2.2s1.2-0.7,2.2-0.7h5.5v1.4h-5.7
			c-0.5,0-0.9,0.2-1.2,0.5c-0.3,0.3-0.5,0.7-0.5,1.2c0,0.8,0.2,1.4,0.7,1.8s1.1,0.6,1.8,0.6h4.7v1.4h-8.3v-1.3h1.3v0
			c-0.5-0.3-0.9-0.7-1.1-1.1C102.6,229.3,102.4,228.7,102.4,228.1z M102.4,219.9c0-0.6,0.1-1.1,0.4-1.5c0.2-0.4,0.6-0.8,1-1v0h-1.2
			v-1.3h7.7c1.3,0,2.3,0.3,3,0.9s1,1.6,1,2.9c0,0.9-0.2,1.7-0.6,2.4s-1,1-1.8,1V222c0.4,0,0.7-0.2,1-0.7s0.4-0.9,0.4-1.5
			c0-0.8-0.3-1.4-0.8-1.8s-1.3-0.6-2.4-0.6h-0.5v0c0.5,0.2,0.8,0.6,1.1,1s0.4,1,0.4,1.6c0,1.1-0.4,2-1.2,2.7c-0.8,0.7-1.8,1-3,1
			c-1.3,0-2.3-0.3-3.1-1C102.9,222,102.4,221.1,102.4,219.9z M106.6,222.2c1,0,1.8-0.2,2.3-0.6c0.6-0.4,0.8-1,0.8-1.7
			c0-0.8-0.3-1.3-0.9-1.8c-0.6-0.4-1.4-0.7-2.3-0.7c-0.9,0-1.6,0.2-2.1,0.6c-0.5,0.4-0.8,1-0.8,1.7c0,0.8,0.3,1.4,0.8,1.8
			C105,222,105.7,222.2,106.6,222.2z"/>
		<path class="st2" d="M38.9,58.7h181.3v126.7H38.9L38.9,58.7z"/>
		<path d="M73.2,72c1.6,0,2.9,0.4,3.9,1.1s1.5,1.8,1.5,3.2h-2.8c0-0.7-0.3-1.2-0.7-1.5c-0.4-0.3-1.1-0.5-1.9-0.5
			c-0.6,0-1.1,0.1-1.5,0.4c-0.4,0.3-0.6,0.6-0.6,1.1c0,0.3,0.1,0.6,0.2,0.8c0.2,0.2,0.5,0.3,1,0.5c0.5,0.2,1.6,0.5,3.2,0.8
			c1.1,0.3,2,0.7,2.6,1.4c0.6,0.6,0.9,1.4,0.9,2.4c0,1.3-0.5,2.3-1.5,3.1c-1,0.8-2.3,1.2-4.1,1.2c-1.7,0-3-0.4-4.1-1.2
			c-1.1-0.8-1.6-2-1.6-3.4v-0.1h2.8c0,0.8,0.3,1.5,0.8,1.9c0.5,0.4,1.2,0.6,2.1,0.6c0.8,0,1.4-0.1,1.9-0.4c0.5-0.3,0.7-0.7,0.7-1.2
			c0-0.4-0.2-0.8-0.5-1.1c-0.4-0.3-0.9-0.5-1.7-0.7c-1-0.2-1.9-0.5-2.8-0.7c-0.8-0.3-1.5-0.7-2.1-1.2c-0.5-0.6-0.8-1.3-0.8-2.2
			c0-1.2,0.5-2.2,1.4-2.9C70.6,72.3,71.8,72,73.2,72z M83.1,72.3v5h0.1c0.3-0.5,0.7-0.9,1.2-1.2c0.5-0.3,1.1-0.5,1.6-0.5
			c1.2,0,2.1,0.3,2.7,0.9c0.6,0.6,0.8,1.6,0.8,2.9v6h-2.7v-5.5c0-0.8-0.1-1.3-0.4-1.7c-0.3-0.4-0.7-0.6-1.3-0.6
			c-0.7,0-1.3,0.2-1.6,0.7c-0.3,0.4-0.5,1.1-0.5,2v5.1h-2.6V72.3H83.1z M96,75.7c1.4,0,2.5,0.2,3.2,0.7c0.7,0.5,1,1.1,1,2v5.2
			c0,0.4,0,0.8,0.1,1.2c0.1,0.4,0.1,0.7,0.3,0.9h-2.7c-0.1-0.1-0.1-0.3-0.1-0.5s-0.1-0.3-0.1-0.5c-0.4,0.4-0.8,0.7-1.4,0.9
			c-0.5,0.2-1.2,0.3-1.9,0.3c-1,0-1.8-0.2-2.4-0.8c-0.6-0.5-0.9-1.2-0.9-2.1c0-0.9,0.3-1.6,0.8-2.1c0.6-0.5,1.6-0.8,3-1
			c1-0.1,1.7-0.2,2-0.4c0.3-0.2,0.5-0.4,0.5-0.8c0-0.4-0.1-0.8-0.4-1s-0.7-0.3-1.3-0.3c-0.6,0-1,0.1-1.3,0.4
			c-0.3,0.2-0.5,0.6-0.5,1.1h-2.7c0.1-1.1,0.5-1.9,1.3-2.4C93.5,76,94.6,75.7,96,75.7z M93.8,82.9c0,0.4,0.1,0.7,0.4,0.9
			c0.3,0.2,0.7,0.3,1.2,0.3c0.7,0,1.2-0.2,1.6-0.5c0.4-0.4,0.5-0.9,0.5-1.6v-1c-0.2,0.1-0.4,0.2-0.6,0.3c-0.3,0.1-0.7,0.1-1.4,0.2
			c-0.6,0.1-1,0.2-1.3,0.5C93.9,82.1,93.8,82.4,93.8,82.9z M107.9,75.7c0.1,0,0.2,0,0.3,0c0.1,0,0.2,0,0.3,0.1v2.5
			c-0.1,0-0.3-0.1-0.4-0.1c-0.1,0-0.3,0-0.5,0c-0.9,0-1.6,0.3-2,0.8c-0.4,0.5-0.6,1.3-0.6,2.2v4.4h-2.6V76h2.5v1.8h0
			c0.3-0.6,0.7-1.1,1.2-1.5C106.6,75.9,107.2,75.7,107.9,75.7z M113.8,75.7c1.4,0,2.6,0.5,3.4,1.5c0.9,1,1.3,2.2,1.3,3.8l0,0.5h-7
			c0,0.8,0.3,1.5,0.7,1.9c0.4,0.4,1,0.6,1.7,0.6c0.5,0,0.9-0.1,1.3-0.4c0.4-0.2,0.7-0.5,0.8-0.9h2.3c-0.4,1.1-0.9,1.9-1.7,2.5
			c-0.8,0.5-1.7,0.8-2.9,0.8c-1.5,0-2.7-0.5-3.6-1.4c-0.9-0.9-1.3-2.2-1.3-3.7c0-1.4,0.5-2.6,1.4-3.6
			C111.2,76.2,112.4,75.7,113.8,75.7z M111.6,79.7h4.3c-0.1-0.7-0.4-1.2-0.7-1.5c-0.3-0.3-0.8-0.5-1.4-0.5c-0.6,0-1.2,0.2-1.5,0.5
			C111.8,78.6,111.6,79.1,111.6,79.7z M129.9,75.7c1.5,0,2.7,0.5,3.6,1.4c0.9,0.9,1.4,2.2,1.4,3.7c0,1.5-0.5,2.8-1.4,3.7
			c-0.9,0.9-2.1,1.4-3.6,1.4c-1.5,0-2.7-0.5-3.6-1.4c-0.9-0.9-1.4-2.2-1.4-3.7c0-1.5,0.4-2.8,1.3-3.7
			C127.2,76.2,128.4,75.7,129.9,75.7z M127.6,80.8c0,1,0.2,1.8,0.6,2.3c0.4,0.5,1,0.8,1.7,0.8c0.8,0,1.3-0.3,1.8-0.8
			c0.4-0.5,0.6-1.3,0.6-2.3c0-1-0.2-1.7-0.6-2.3c-0.4-0.6-1-0.8-1.8-0.8c-0.7,0-1.3,0.3-1.7,0.8C127.8,79,127.6,79.8,127.6,80.8z
			 M140.5,72.3c0.2,0,0.4,0,0.7,0c0.3,0,0.5,0,0.7,0v2c-0.2,0-0.3,0-0.5,0c-0.2,0-0.3,0-0.5,0c-0.4,0-0.6,0.1-0.8,0.2
			c-0.2,0.2-0.2,0.5-0.2,1V76h1.8v1.8h-1.8v7.9h-2.7v-7.9h-1.6V76h1.6v-0.7c0-1,0.3-1.8,0.9-2.2S139.5,72.3,140.5,72.3z M150,76
			l1.8,6.5h0l1.6-6.5h2.6l1.6,6.5h0l1.8-6.5h2.7l-3,9.6h-2.7l-1.7-6.5h0l-1.6,6.5h-2.7l-3.1-9.6H150z M167.9,75.7
			c1.5,0,2.7,0.5,3.6,1.4c0.9,0.9,1.4,2.2,1.4,3.7c0,1.5-0.5,2.8-1.4,3.7c-0.9,0.9-2.1,1.4-3.6,1.4c-1.5,0-2.7-0.5-3.6-1.4
			c-0.9-0.9-1.4-2.2-1.4-3.7c0-1.5,0.4-2.8,1.3-3.7C165.2,76.2,166.4,75.7,167.9,75.7z M165.6,80.8c0,1,0.2,1.8,0.6,2.3
			c0.4,0.5,1,0.8,1.7,0.8c0.8,0,1.3-0.3,1.8-0.8c0.4-0.5,0.6-1.3,0.6-2.3c0-1-0.2-1.7-0.6-2.3c-0.4-0.6-1-0.8-1.8-0.8
			c-0.7,0-1.3,0.3-1.7,0.8C165.8,79,165.6,79.8,165.6,80.8z M180.3,75.7c0.1,0,0.2,0,0.3,0c0.1,0,0.2,0,0.3,0.1v2.5
			c-0.1,0-0.3-0.1-0.4-0.1c-0.1,0-0.3,0-0.5,0c-0.9,0-1.6,0.3-2,0.8c-0.4,0.5-0.6,1.3-0.6,2.2v4.4h-2.6V76h2.5v1.8h0
			c0.3-0.6,0.7-1.1,1.2-1.5C179,75.9,179.6,75.7,180.3,75.7z M184.8,72.3v7.1l3.3-3.5h3.1l-3.6,3.5l4,6.1h-3.2l-2.6-4.3l-1,1v3.3
			h-2.7V72.3H184.8z"/>
		<path d="M78.4,95.5v2.9h1.9v1.8h-1.9v4.8c0,0.4,0.1,0.7,0.2,0.8c0.2,0.1,0.5,0.2,0.9,0.2c0.2,0,0.3,0,0.4,0s0.3,0,0.4,0v2.1
			c-0.2,0-0.5,0.1-0.7,0.1c-0.3,0-0.5,0-0.8,0c-1.1,0-1.9-0.2-2.4-0.6c-0.4-0.4-0.7-0.9-0.7-1.7v-5.8h-1.6v-1.8h1.6v-2.9H78.4z
			 M84.3,94.7v5h0.1c0.3-0.5,0.7-0.9,1.2-1.2c0.5-0.3,1.1-0.5,1.6-0.5c1.2,0,2.1,0.3,2.7,0.9c0.6,0.6,0.8,1.6,0.8,2.9v6H88v-5.5
			c0-0.8-0.1-1.3-0.4-1.7s-0.7-0.6-1.3-0.6c-0.7,0-1.3,0.2-1.6,0.7c-0.3,0.4-0.5,1.1-0.5,2v5.1h-2.6V94.7H84.3z M97.1,98.1
			c1.4,0,2.5,0.2,3.2,0.7s1,1.1,1,2v5.2c0,0.4,0,0.8,0.1,1.2c0.1,0.4,0.1,0.7,0.3,0.9H99c-0.1-0.1-0.1-0.3-0.1-0.5s-0.1-0.3-0.1-0.5
			c-0.4,0.4-0.8,0.7-1.4,0.9c-0.5,0.2-1.2,0.3-1.9,0.3c-1,0-1.8-0.2-2.4-0.8c-0.6-0.5-0.9-1.2-0.9-2.1c0-0.9,0.3-1.6,0.8-2.1
			c0.6-0.5,1.6-0.8,3-1c1-0.1,1.7-0.2,2-0.4c0.3-0.2,0.5-0.4,0.5-0.8c0-0.4-0.1-0.8-0.4-1s-0.7-0.3-1.3-0.3c-0.6,0-1,0.1-1.3,0.4
			c-0.3,0.2-0.5,0.6-0.5,1.1h-2.7c0.1-1.1,0.5-1.9,1.3-2.4C94.7,98.4,95.7,98.1,97.1,98.1z M94.9,105.3c0,0.4,0.1,0.7,0.4,0.9
			s0.7,0.3,1.2,0.3c0.7,0,1.2-0.2,1.6-0.5c0.4-0.4,0.5-0.9,0.5-1.6v-1c-0.2,0.1-0.4,0.2-0.6,0.3s-0.7,0.1-1.4,0.2
			c-0.6,0.1-1,0.2-1.3,0.5C95.1,104.5,94.9,104.8,94.9,105.3z M106.7,95.5v2.9h1.9v1.8h-1.9v4.8c0,0.4,0.1,0.7,0.2,0.8
			c0.2,0.1,0.5,0.2,0.9,0.2c0.2,0,0.3,0,0.4,0s0.3,0,0.4,0v2.1c-0.2,0-0.5,0.1-0.7,0.1c-0.3,0-0.5,0-0.8,0c-1.1,0-1.9-0.2-2.4-0.6
			c-0.4-0.4-0.7-0.9-0.7-1.7v-5.8h-1.6v-1.8h1.6v-2.9H106.7z M117.8,94.7v5h0.1c0.3-0.5,0.7-0.9,1.2-1.2c0.5-0.3,1.1-0.5,1.6-0.5
			c1.2,0,2.1,0.3,2.7,0.9c0.6,0.6,0.8,1.6,0.8,2.9v6h-2.7v-5.5c0-0.8-0.1-1.3-0.4-1.7s-0.7-0.6-1.3-0.6c-0.7,0-1.3,0.2-1.6,0.7
			c-0.3,0.4-0.5,1.1-0.5,2v5.1h-2.6V94.7H117.8z M128.8,98.4v5.5c0,0.7,0.1,1.3,0.4,1.7c0.3,0.4,0.7,0.6,1.3,0.6
			c0.7,0,1.2-0.2,1.6-0.7c0.3-0.4,0.5-1.1,0.5-2v-5.1h2.7v9.6h-2.5v-1.3h0c-0.3,0.5-0.8,0.9-1.3,1.2c-0.5,0.3-1.1,0.4-1.7,0.4
			c-1.2,0-2.1-0.3-2.7-0.9c-0.6-0.6-0.8-1.6-0.8-3v-6H128.8z M142.8,98.1c0.7,0,1.3,0.1,1.8,0.4c0.5,0.3,0.8,0.7,1,1.2
			c0.4-0.5,0.8-0.9,1.3-1.2c0.5-0.3,1-0.4,1.6-0.4c1.2,0,2,0.3,2.6,0.9c0.6,0.6,0.9,1.4,0.9,2.5v6.5h-2.7v-5.6
			c0-0.9-0.1-1.5-0.4-1.8c-0.3-0.3-0.7-0.5-1.2-0.5c-0.6,0-1,0.2-1.3,0.6c-0.3,0.4-0.4,1-0.4,1.8v5.5h-2.7v-5.9
			c0-0.6-0.1-1.1-0.4-1.4c-0.2-0.3-0.6-0.5-1.2-0.5c-0.5,0-0.9,0.2-1.3,0.6s-0.5,0.9-0.5,1.6v5.7h-2.7v-9.6h2.5v1.3h0
			c0.4-0.5,0.8-0.9,1.3-1.2C141.7,98.2,142.2,98.1,142.8,98.1z M158.6,98.1c1.4,0,2.5,0.2,3.2,0.7c0.7,0.5,1,1.1,1,2v5.2
			c0,0.4,0,0.8,0.1,1.2c0.1,0.4,0.1,0.7,0.3,0.9h-2.7c-0.1-0.1-0.1-0.3-0.1-0.5s-0.1-0.3-0.1-0.5c-0.4,0.4-0.8,0.7-1.4,0.9
			c-0.5,0.2-1.2,0.3-1.9,0.3c-1,0-1.8-0.2-2.4-0.8c-0.6-0.5-0.9-1.2-0.9-2.1c0-0.9,0.3-1.6,0.8-2.1c0.6-0.5,1.6-0.8,3-1
			c1-0.1,1.7-0.2,2-0.4c0.3-0.2,0.5-0.4,0.5-0.8c0-0.4-0.1-0.8-0.4-1s-0.7-0.3-1.3-0.3c-0.6,0-1,0.1-1.3,0.4
			c-0.3,0.2-0.5,0.6-0.5,1.1H154c0.1-1.1,0.5-1.9,1.3-2.4C156.1,98.4,157.2,98.1,158.6,98.1z M156.4,105.3c0,0.4,0.1,0.7,0.4,0.9
			c0.3,0.2,0.7,0.3,1.2,0.3c0.7,0,1.2-0.2,1.6-0.5c0.4-0.4,0.5-0.9,0.5-1.6v-1c-0.2,0.1-0.4,0.2-0.6,0.3c-0.3,0.1-0.7,0.1-1.4,0.2
			c-0.6,0.1-1,0.2-1.3,0.5C156.5,104.5,156.4,104.8,156.4,105.3z M170.4,98.1c1.2,0,2.1,0.3,2.7,0.9c0.6,0.6,0.8,1.6,0.8,2.9v6h-2.7
			v-5.5c0-0.8-0.1-1.3-0.4-1.7c-0.3-0.4-0.7-0.6-1.3-0.6c-0.7,0-1.3,0.2-1.6,0.7c-0.3,0.4-0.5,1.1-0.5,2v5.1h-2.6v-9.6h2.5v1.3h0
			c0.3-0.5,0.7-0.9,1.2-1.2C169.2,98.2,169.8,98.1,170.4,98.1z M179.9,98.1c1.3,0,2.3,0.3,3,0.8c0.7,0.5,1.1,1.3,1.2,2.3h-2.5
			c0-0.5-0.2-0.8-0.5-1c-0.3-0.2-0.7-0.3-1.3-0.3c-0.5,0-0.9,0.1-1.1,0.2c-0.2,0.2-0.3,0.4-0.3,0.7s0.2,0.5,0.5,0.7
			c0.3,0.2,0.9,0.4,1.9,0.5c1.5,0.3,2.5,0.6,3,1.1c0.5,0.4,0.8,1,0.8,1.8c0,1.1-0.4,1.9-1.2,2.5c-0.8,0.6-1.9,0.9-3.2,0.9
			c-1.3,0-2.4-0.3-3.2-0.8c-0.8-0.6-1.2-1.4-1.3-2.6h2.5c0,0.5,0.2,0.9,0.6,1.2c0.4,0.3,0.9,0.4,1.5,0.4c0.5,0,0.9-0.1,1.2-0.3
			c0.3-0.2,0.5-0.5,0.5-0.9c0-0.3-0.2-0.6-0.6-0.8c-0.4-0.2-1.2-0.4-2.3-0.7c-1.1-0.2-1.9-0.5-2.4-0.9c-0.5-0.4-0.7-1-0.7-1.6
			c0-1,0.4-1.8,1.1-2.3C177.5,98.4,178.5,98.1,179.9,98.1z"/>
		<path d="M78.6,120.5c1.5,0,2.7,0.5,3.6,1.4c0.9,0.9,1.4,2.2,1.4,3.7c0,1.5-0.5,2.8-1.4,3.7c-0.9,0.9-2.1,1.4-3.6,1.4
			c-1.5,0-2.7-0.5-3.6-1.4c-0.9-0.9-1.4-2.2-1.4-3.7c0-1.5,0.4-2.8,1.3-3.7C75.9,121,77.1,120.5,78.6,120.5z M76.3,125.6
			c0,1,0.2,1.8,0.6,2.3c0.4,0.5,1,0.8,1.7,0.8c0.8,0,1.3-0.3,1.8-0.8c0.4-0.5,0.6-1.3,0.6-2.3c0-1-0.2-1.7-0.6-2.3
			c-0.4-0.6-1-0.8-1.8-0.8c-0.7,0-1.3,0.3-1.7,0.8C76.5,123.8,76.3,124.6,76.3,125.6z M88,120.8v5.5c0,0.7,0.1,1.3,0.4,1.7
			c0.3,0.4,0.7,0.6,1.3,0.6c0.7,0,1.2-0.2,1.6-0.7c0.3-0.4,0.5-1.1,0.5-2v-5.1h2.7v9.6h-2.5v-1.3h0c-0.3,0.5-0.8,0.9-1.3,1.2
			c-0.5,0.3-1.1,0.4-1.7,0.4c-1.2,0-2.1-0.3-2.7-0.9c-0.6-0.6-0.8-1.6-0.8-3v-6H88z M99.8,117.9v2.9h1.9v1.8h-1.9v4.8
			c0,0.4,0.1,0.7,0.2,0.8c0.2,0.1,0.5,0.2,0.9,0.2c0.2,0,0.3,0,0.4,0c0.1,0,0.3,0,0.4,0v2.1c-0.2,0-0.5,0.1-0.7,0.1
			c-0.3,0-0.5,0-0.8,0c-1.1,0-1.9-0.2-2.4-0.6c-0.4-0.4-0.7-0.9-0.7-1.7v-5.8h-1.6v-1.8h1.6v-2.9H99.8z M106.9,120.5
			c1.3,0,2.3,0.3,3,0.8c0.7,0.5,1.1,1.3,1.2,2.3h-2.5c0-0.5-0.2-0.8-0.5-1c-0.3-0.2-0.7-0.3-1.3-0.3c-0.5,0-0.9,0.1-1.1,0.2
			c-0.2,0.2-0.3,0.4-0.3,0.7s0.2,0.5,0.5,0.7c0.3,0.2,0.9,0.4,1.9,0.5c1.5,0.3,2.5,0.6,3,1.1c0.5,0.4,0.8,1,0.8,1.8
			c0,1.1-0.4,1.9-1.2,2.5c-0.8,0.6-1.9,0.9-3.2,0.9c-1.3,0-2.4-0.3-3.2-0.8c-0.8-0.6-1.2-1.4-1.3-2.6h2.5c0,0.5,0.2,0.9,0.6,1.2
			c0.4,0.3,0.9,0.4,1.5,0.4c0.5,0,0.9-0.1,1.2-0.3c0.3-0.2,0.5-0.5,0.5-0.9c0-0.3-0.2-0.6-0.6-0.8c-0.4-0.2-1.2-0.4-2.3-0.7
			c-1.1-0.2-1.9-0.5-2.4-0.9c-0.5-0.4-0.7-1-0.7-1.6c0-1,0.4-1.8,1.1-2.3C104.5,120.8,105.6,120.5,106.9,120.5z M117.7,120.5
			c1.5,0,2.7,0.5,3.6,1.4c0.9,0.9,1.4,2.2,1.4,3.7c0,1.5-0.5,2.8-1.4,3.7c-0.9,0.9-2.1,1.4-3.6,1.4c-1.5,0-2.7-0.5-3.6-1.4
			c-0.9-0.9-1.4-2.2-1.4-3.7c0-1.5,0.4-2.8,1.3-3.7C114.9,121,116.2,120.5,117.7,120.5z M115.3,125.6c0,1,0.2,1.8,0.6,2.3
			c0.4,0.5,1,0.8,1.7,0.8c0.8,0,1.3-0.3,1.8-0.8c0.4-0.5,0.6-1.3,0.6-2.3c0-1-0.2-1.7-0.6-2.3c-0.4-0.6-1-0.8-1.8-0.8
			c-0.7,0-1.3,0.3-1.7,0.8C115.6,123.8,115.3,124.6,115.3,125.6z M127,120.8v5.5c0,0.7,0.1,1.3,0.4,1.7c0.3,0.4,0.7,0.6,1.3,0.6
			c0.7,0,1.2-0.2,1.6-0.7c0.3-0.4,0.5-1.1,0.5-2v-5.1h2.7v9.6h-2.5v-1.3h0c-0.3,0.5-0.8,0.9-1.3,1.2c-0.5,0.3-1.1,0.4-1.7,0.4
			c-1.2,0-2.1-0.3-2.7-0.9c-0.6-0.6-0.8-1.6-0.8-3v-6H127z M141.1,120.5c0.1,0,0.2,0,0.3,0c0.1,0,0.2,0,0.3,0.1v2.5
			c-0.1,0-0.3-0.1-0.4-0.1c-0.1,0-0.3,0-0.5,0c-0.9,0-1.6,0.3-2,0.8c-0.4,0.5-0.6,1.3-0.6,2.2v4.4h-2.6v-9.6h2.5v1.8h0
			c0.3-0.6,0.7-1.1,1.2-1.5C139.8,120.7,140.4,120.5,141.1,120.5z M147.2,120.5c1.2,0,2.3,0.3,3.2,1c0.9,0.6,1.3,1.5,1.4,2.7h-2.6
			c-0.1-0.6-0.3-1-0.6-1.2c-0.3-0.3-0.8-0.4-1.3-0.4c-0.7,0-1.3,0.3-1.7,0.9c-0.4,0.6-0.6,1.3-0.6,2.3c0,0.9,0.2,1.7,0.6,2.2
			c0.4,0.6,0.9,0.8,1.6,0.8c0.6,0,1.1-0.2,1.4-0.5c0.4-0.3,0.6-0.8,0.7-1.5h2.5c-0.2,1.3-0.7,2.3-1.5,3c-0.8,0.7-1.9,1-3.1,1
			c-1.4,0-2.6-0.5-3.5-1.4c-0.9-0.9-1.4-2.1-1.4-3.6c0-1.6,0.4-2.8,1.3-3.8C144.5,121,145.7,120.5,147.2,120.5z M157.7,120.5
			c1.4,0,2.6,0.5,3.4,1.5c0.9,1,1.3,2.2,1.3,3.8l0,0.5h-7c0,0.8,0.3,1.5,0.7,1.9c0.4,0.4,1,0.6,1.7,0.6c0.5,0,0.9-0.1,1.3-0.4
			c0.4-0.2,0.7-0.5,0.8-0.9h2.3c-0.4,1.1-0.9,1.9-1.7,2.5c-0.8,0.5-1.7,0.8-2.9,0.8c-1.5,0-2.7-0.5-3.6-1.4
			c-0.9-0.9-1.3-2.2-1.3-3.7c0-1.4,0.5-2.6,1.4-3.6C155.1,121,156.3,120.5,157.7,120.5z M155.5,124.5h4.3c-0.1-0.7-0.4-1.2-0.7-1.5
			c-0.3-0.3-0.8-0.5-1.4-0.5c-0.6,0-1.2,0.2-1.5,0.5S155.5,123.9,155.5,124.5z M172.5,117.9v2.9h1.9v1.8h-1.9v4.8
			c0,0.4,0.1,0.7,0.2,0.8c0.2,0.1,0.5,0.2,0.9,0.2c0.2,0,0.3,0,0.4,0s0.3,0,0.4,0v2.1c-0.2,0-0.5,0.1-0.7,0.1c-0.3,0-0.5,0-0.8,0
			c-1.1,0-1.9-0.2-2.4-0.6c-0.4-0.4-0.7-0.9-0.7-1.7v-5.8h-1.6v-1.8h1.6v-2.9H172.5z M180.3,120.5c1.5,0,2.7,0.5,3.6,1.4
			c0.9,0.9,1.4,2.2,1.4,3.7c0,1.5-0.5,2.8-1.4,3.7c-0.9,0.9-2.1,1.4-3.6,1.4c-1.5,0-2.7-0.5-3.6-1.4s-1.4-2.2-1.4-3.7
			c0-1.5,0.4-2.8,1.3-3.7C177.6,121,178.8,120.5,180.3,120.5z M178,125.6c0,1,0.2,1.8,0.6,2.3c0.4,0.5,1,0.8,1.7,0.8
			c0.8,0,1.3-0.3,1.8-0.8c0.4-0.5,0.6-1.3,0.6-2.3c0-1-0.2-1.7-0.6-2.3s-1-0.8-1.8-0.8c-0.7,0-1.3,0.3-1.7,0.8S178,124.6,178,125.6z
			"/>
		<path d="M84.5,140.3v2.9h1.9v1.8h-1.9v4.8c0,0.4,0.1,0.7,0.2,0.8c0.2,0.1,0.5,0.2,0.9,0.2c0.2,0,0.3,0,0.4,0c0.1,0,0.3,0,0.4,0
			v2.1c-0.2,0-0.5,0.1-0.7,0.1c-0.3,0-0.5,0-0.8,0c-1.1,0-1.9-0.2-2.4-0.6c-0.4-0.4-0.7-0.9-0.7-1.7v-5.8h-1.6v-1.8h1.6v-2.9H84.5z
			 M92.1,142.9c1.4,0,2.6,0.5,3.4,1.5c0.9,1,1.3,2.2,1.3,3.8l0,0.5h-7c0,0.8,0.3,1.5,0.7,1.9c0.4,0.4,1,0.6,1.7,0.6
			c0.5,0,0.9-0.1,1.3-0.4c0.4-0.2,0.7-0.5,0.8-0.9h2.3c-0.4,1.1-0.9,1.9-1.7,2.5c-0.8,0.5-1.7,0.8-2.9,0.8c-1.5,0-2.7-0.5-3.6-1.4
			c-0.9-0.9-1.3-2.2-1.3-3.7c0-1.4,0.5-2.6,1.4-3.6C89.5,143.4,90.6,142.9,92.1,142.9z M89.8,146.9h4.3c-0.1-0.7-0.4-1.2-0.7-1.5
			c-0.3-0.3-0.8-0.5-1.4-0.5c-0.6,0-1.2,0.2-1.5,0.5C90.1,145.8,89.9,146.3,89.8,146.9z M103,142.9c1.2,0,2.3,0.3,3.2,1
			c0.9,0.6,1.3,1.5,1.4,2.7h-2.6c-0.1-0.6-0.3-1-0.6-1.2c-0.3-0.3-0.8-0.4-1.3-0.4c-0.7,0-1.3,0.3-1.7,0.9c-0.4,0.6-0.6,1.3-0.6,2.3
			c0,0.9,0.2,1.7,0.6,2.2c0.4,0.6,0.9,0.8,1.6,0.8c0.6,0,1.1-0.2,1.4-0.5c0.4-0.3,0.6-0.8,0.7-1.5h2.5c-0.2,1.3-0.7,2.3-1.5,3
			c-0.8,0.7-1.9,1-3.1,1c-1.4,0-2.6-0.5-3.5-1.4c-0.9-0.9-1.4-2.1-1.4-3.6c0-1.6,0.4-2.8,1.3-3.8C100.3,143.4,101.5,142.9,103,142.9
			z M111.7,139.5v5h0.1c0.3-0.5,0.7-0.9,1.2-1.2c0.5-0.3,1.1-0.5,1.6-0.5c1.2,0,2.1,0.3,2.7,0.9c0.6,0.6,0.8,1.6,0.8,2.9v6h-2.7
			v-5.5c0-0.8-0.1-1.3-0.4-1.7c-0.3-0.4-0.7-0.6-1.3-0.6c-0.7,0-1.3,0.2-1.6,0.7c-0.3,0.4-0.5,1.1-0.5,2v5.1h-2.6v-13.3H111.7z
			 M125.6,142.9c1.2,0,2.1,0.3,2.7,0.9c0.6,0.6,0.8,1.6,0.8,2.9v6h-2.7v-5.5c0-0.8-0.1-1.3-0.4-1.7c-0.3-0.4-0.7-0.6-1.3-0.6
			c-0.7,0-1.3,0.2-1.6,0.7c-0.3,0.4-0.5,1.1-0.5,2v5.1h-2.6v-9.6h2.5v1.3h0c0.3-0.5,0.7-0.9,1.2-1.2
			C124.5,143,125,142.9,125.6,142.9z M135.8,142.9c1.5,0,2.7,0.5,3.6,1.4c0.9,0.9,1.4,2.2,1.4,3.7c0,1.5-0.5,2.8-1.4,3.7
			c-0.9,0.9-2.1,1.4-3.6,1.4c-1.5,0-2.7-0.5-3.6-1.4c-0.9-0.9-1.4-2.2-1.4-3.7c0-1.5,0.4-2.8,1.3-3.7
			C133.1,143.4,134.3,142.9,135.8,142.9z M133.5,148c0,1,0.2,1.8,0.6,2.3c0.4,0.5,1,0.8,1.7,0.8c0.8,0,1.3-0.3,1.8-0.8
			c0.4-0.5,0.6-1.3,0.6-2.3c0-1-0.2-1.7-0.6-2.3c-0.4-0.6-1-0.8-1.8-0.8c-0.7,0-1.3,0.3-1.7,0.8C133.7,146.2,133.5,147,133.5,148z
			 M145.3,139.5v13.3h-2.7v-13.3H145.3z M152.1,142.9c1.5,0,2.7,0.5,3.6,1.4c0.9,0.9,1.4,2.2,1.4,3.7c0,1.5-0.5,2.8-1.4,3.7
			c-0.9,0.9-2.1,1.4-3.6,1.4c-1.5,0-2.7-0.5-3.6-1.4c-0.9-0.9-1.4-2.2-1.4-3.7c0-1.5,0.4-2.8,1.3-3.7
			C149.3,143.4,150.5,142.9,152.1,142.9z M149.7,148c0,1,0.2,1.8,0.6,2.3c0.4,0.5,1,0.8,1.7,0.8c0.8,0,1.3-0.3,1.8-0.8
			c0.4-0.5,0.6-1.3,0.6-2.3c0-1-0.2-1.7-0.6-2.3c-0.4-0.6-1-0.8-1.8-0.8c-0.7,0-1.3,0.3-1.7,0.8C149.9,146.2,149.7,147,149.7,148z
			 M162.6,142.9c0.7,0,1.3,0.1,1.8,0.4c0.5,0.3,0.8,0.6,1.1,1.2h0v-1.3h2.5v9.1c0,1.3-0.4,2.3-1.2,3.1c-0.8,0.8-2.1,1.1-3.8,1.1
			c-1.1,0-2.1-0.3-2.9-0.8c-0.8-0.5-1.3-1.3-1.3-2.3h2.6c0.1,0.5,0.3,0.8,0.7,1c0.3,0.2,0.8,0.3,1.3,0.3c0.7,0,1.2-0.2,1.6-0.6
			c0.4-0.4,0.6-1,0.6-1.7V151h0c-0.3,0.5-0.6,0.8-1.2,1.1c-0.5,0.3-1.1,0.4-1.7,0.4c-1.3,0-2.3-0.4-3-1.3c-0.7-0.9-1.1-2-1.1-3.5
			c0-1.4,0.4-2.5,1.1-3.4C160.4,143.4,161.4,142.9,162.6,142.9z M161.1,147.6c0,0.9,0.2,1.6,0.6,2.1c0.4,0.5,0.9,0.8,1.6,0.8
			c0.7,0,1.2-0.3,1.7-0.8c0.4-0.5,0.6-1.1,0.6-1.9c0-0.9-0.2-1.7-0.6-2.2c-0.4-0.5-0.9-0.8-1.7-0.8c-0.7,0-1.2,0.2-1.6,0.8
			S161.1,146.8,161.1,147.6z M171.9,143.2l2.2,6.6h0l2.1-6.6h2.8l-4.1,11c-0.2,0.6-0.6,1.1-1.1,1.5c-0.5,0.3-1.2,0.5-2,0.5
			c-0.4,0-0.7,0-1,0c-0.3,0-0.5,0-0.8-0.1v-2.2c0.3,0,0.6,0.1,0.8,0.1c0.2,0,0.4,0,0.6,0c0.4,0,0.7-0.1,0.9-0.4
			c0.2-0.2,0.3-0.5,0.3-0.9c0-0.1,0-0.2,0-0.3c0-0.1,0-0.2-0.1-0.3l-3.4-9H171.9z"/>
		<path class="st2" d="M835.9,647.3h96.8v38.1h-96.8V647.3z"/>
		<path d="M873.4,660.9v2.5h-4v10.9h-2.9v-10.9h-4v-2.5H873.4z M877.7,660.9v2.2h-2.7v-2.2H877.7z M877.7,664.5v9.6h-2.7v-9.6H877.7
			z M885.4,664.3c0.7,0,1.3,0.1,1.8,0.4c0.5,0.3,0.8,0.7,1,1.2c0.4-0.5,0.8-0.9,1.3-1.2c0.5-0.3,1-0.4,1.6-0.4c1.2,0,2,0.3,2.6,0.9
			c0.6,0.6,0.9,1.4,0.9,2.5v6.5H892v-5.6c0-0.9-0.1-1.5-0.4-1.8c-0.3-0.3-0.7-0.5-1.2-0.5c-0.6,0-1,0.2-1.3,0.6
			c-0.3,0.4-0.4,1-0.4,1.8v5.5h-2.7v-5.9c0-0.6-0.1-1.1-0.4-1.4c-0.2-0.3-0.6-0.5-1.2-0.5c-0.5,0-0.9,0.2-1.3,0.6s-0.5,0.9-0.5,1.6
			v5.7h-2.7v-9.6h2.5v1.3h0c0.4-0.5,0.8-0.9,1.3-1.2C884.2,664.4,884.8,664.3,885.4,664.3z M901.2,664.3c1.4,0,2.6,0.5,3.4,1.5
			c0.9,1,1.3,2.2,1.3,3.8l0,0.5h-7c0,0.8,0.3,1.5,0.7,1.9c0.4,0.4,1,0.6,1.7,0.6c0.5,0,0.9-0.1,1.3-0.4c0.4-0.2,0.7-0.5,0.8-0.9h2.3
			c-0.4,1.1-0.9,1.9-1.7,2.5c-0.8,0.5-1.7,0.8-2.9,0.8c-1.5,0-2.7-0.5-3.6-1.4c-0.9-0.9-1.3-2.2-1.3-3.7c0-1.4,0.5-2.6,1.4-3.6
			C898.5,664.8,899.7,664.3,901.2,664.3z M898.9,668.3h4.3c-0.1-0.7-0.4-1.2-0.7-1.5c-0.3-0.3-0.8-0.5-1.4-0.5
			c-0.6,0-1.2,0.2-1.5,0.5S898.9,667.7,898.9,668.3z"/>
		<path class="st2" d="M133.1,664.7c12.8-7.2,55.8-22,76.8-43c21-21,18.6-63.7,49.2-83c30.6-19.3,99-9.9,134.2-32.8
			c35.2-22.9,32.9-78.5,76.8-104.5s142.2-18.3,186.4-51.2c44.2-32.9,48.5-113.2,78.9-146.5c30.4-33.3,86.2-44.4,103.4-53.3"/>
		<path class="st5" d="M133.1,664.7c12.8-7.2,55.8-22,76.8-43s18.6-63.7,49.2-83c30.6-19.3,99-9.9,134.2-32.8s32.9-78.5,76.8-104.5
			s142.2-18.3,186.4-51.2c44.2-32.9,48.5-113.2,78.9-146.5c15.2-16.6,36.7-27.7,56.7-35.8c10-4,19.5-7.3,27.6-10.1l2.4-0.8"/>
		<path class="st6" d="M823.8,161.7l10.9-9.6l-14.5,0.3L823.8,161.7z"/>
		<path class="st2" d="M276.5,549L276.5,549c4.2,0,7.7,0,7.7,0v32.3c0,0,3.4,0,7.7,0l0,0c-2,0-4,0-5.4,0s-2.3,0-2.3,0v32.3
			c0,0-3.4,0-7.7,0V549z"/>
		<path class="st2" d="M276.5,549L276.5,549c4.2,0,7.7,0,7.7,0v32.3c0,0,3.4,0,7.7,0l0,0c-2,0-4,0-5.4,0s-2.3,0-2.3,0v32.3
			c0,0-3.4,0-7.7,0"/>
		<path class="st3" d="M276.5,549L276.5,549c4.2,0,7.7,0,7.7,0v32.3c0,0,3.4,0,7.7,0l0,0c-2,0-4,0-5.4,0s-2.3,0-2.3,0v32.3
			c0,0-3.4,0-7.7,0"/>
		<path class="st2" d="M481.3,422.4L481.3,422.4c4.2,0,7.7,0,7.7,0v40.2c0,0,3.4,0,7.7,0l0,0c-2,0-4,0-5.4,0c-1.4,0-2.3,0-2.3,0
			v40.2c0,0-3.4,0-7.7,0V422.4z"/>
		<path class="st2" d="M481.3,422.4L481.3,422.4c4.2,0,7.7,0,7.7,0v40.2c0,0,3.4,0,7.7,0l0,0c-2,0-4,0-5.4,0c-1.4,0-2.3,0-2.3,0
			v40.2c0,0-3.4,0-7.7,0"/>
		<path class="st3" d="M481.3,422.4L481.3,422.4c4.2,0,7.7,0,7.7,0v40.2c0,0,3.4,0,7.7,0l0,0c-2,0-4,0-5.4,0c-1.4,0-2.3,0-2.3,0
			v40.2c0,0-3.4,0-7.7,0"/>
		<path class="st2" d="M756.4,211.7L756.4,211.7c4.2,0,7.7,0,7.7,0v63.4c0,0,3.4,0,7.7,0l0,0c-2,0-4,0-5.4,0c-1.4,0-2.3,0-2.3,0
			v63.4c0,0-3.4,0-7.7,0V211.7z"/>
		<path class="st2" d="M756.4,211.7L756.4,211.7c4.2,0,7.7,0,7.7,0v63.4c0,0,3.4,0,7.7,0l0,0c-2,0-4,0-5.4,0c-1.4,0-2.3,0-2.3,0
			v63.4c0,0-3.4,0-7.7,0"/>
		<path class="st3" d="M756.4,211.7L756.4,211.7c4.2,0,7.7,0,7.7,0v63.4c0,0,3.4,0,7.7,0l0,0c-2,0-4,0-5.4,0c-1.4,0-2.3,0-2.3,0
			v63.4c0,0-3.4,0-7.7,0"/>
		<path class="st2" d="M301.1,562.2h220.2v38.1H301.1V562.2z"/>
		<path d="M319.3,566v1.3h-3.8v10.1H314v-10.1h-3.8V566H319.3z M321.7,566v4.4h0c0.2-0.4,0.5-0.8,1-1c0.5-0.2,1-0.4,1.6-0.4
			c1,0,1.7,0.3,2.2,0.8c0.4,0.5,0.7,1.2,0.7,2.2v5.5h-1.4v-5.7c0-0.5-0.2-0.9-0.5-1.2c-0.3-0.3-0.7-0.5-1.2-0.5
			c-0.8,0-1.4,0.2-1.8,0.7s-0.6,1.1-0.6,1.8v4.7h-1.4V566H321.7z M332.7,568.9c1.2,0,2.1,0.4,2.8,1.3c0.7,0.9,1,2,1,3.3v0.2h-6.2
			v0.1c0,0.8,0.2,1.4,0.7,1.9c0.5,0.5,1.1,0.7,1.9,0.7c0.6,0,1.1-0.1,1.4-0.4c0.4-0.3,0.6-0.7,0.7-1.2h1.3c-0.2,0.9-0.6,1.6-1.2,2.1
			c-0.6,0.5-1.4,0.7-2.3,0.7c-0.9,0-1.6-0.2-2.2-0.6c-0.6-0.4-1.1-0.9-1.3-1.6c-0.3-0.7-0.4-1.4-0.4-2.2c0-1.2,0.4-2.2,1.1-3
			C330.6,569.3,331.5,568.9,332.7,568.9z M330.2,572.5h4.8c0-0.7-0.3-1.2-0.7-1.7c-0.4-0.4-1-0.7-1.7-0.7c-0.6,0-1.2,0.2-1.6,0.6
			C330.5,571.2,330.3,571.7,330.2,572.5z M344.1,566v11.4h-1.5V566H344.1z M350.4,568.9c1,0,1.7,0.3,2.2,0.8
			c0.4,0.5,0.7,1.2,0.7,2.2v5.5h-1.4v-5.7c0-0.5-0.2-0.9-0.5-1.2c-0.3-0.3-0.7-0.5-1.2-0.5c-0.8,0-1.4,0.2-1.8,0.7s-0.6,1.1-0.6,1.8
			v4.7h-1.4v-8.3h1.3v1.3h0c0.3-0.5,0.7-0.9,1.1-1.1C349.3,569,349.8,568.9,350.4,568.9z M362.7,566v11.4h-1.4v-1.1h0
			c-0.2,0.4-0.6,0.8-1,1c-0.5,0.2-1,0.3-1.6,0.3c-1.2,0-2.1-0.4-2.8-1.2c-0.7-0.8-1-1.9-1-3.2c0-1.3,0.3-2.3,1-3.1
			c0.7-0.8,1.6-1.2,2.8-1.2c0.5,0,1.1,0.1,1.5,0.3s0.9,0.5,1.1,1h0V566H362.7z M356.3,573.3c0,0.9,0.2,1.6,0.7,2.2
			c0.5,0.6,1.1,0.9,1.9,0.9c0.8,0,1.4-0.3,1.9-0.9c0.4-0.6,0.7-1.3,0.7-2.2c0-0.9-0.2-1.7-0.7-2.3c-0.4-0.6-1.1-0.9-1.9-0.9
			c-0.8,0-1.4,0.3-1.8,0.9C356.5,571.5,356.3,572.3,356.3,573.3z M366.1,569.1v5.6c0,0.5,0.1,0.9,0.4,1.2c0.3,0.3,0.7,0.5,1.2,0.5
			c0.8,0,1.4-0.2,1.8-0.7c0.4-0.5,0.6-1.1,0.6-1.8v-4.7h1.4v8.3h-1.3v-1.3h0c-0.3,0.5-0.7,0.9-1.1,1.2c-0.4,0.2-1,0.4-1.5,0.4
			c-1,0-1.7-0.2-2.2-0.8c-0.5-0.5-0.7-1.2-0.7-2.2v-5.5H366.1z M376.4,568.9c1.1,0,1.9,0.2,2.5,0.7c0.5,0.4,0.8,1.1,0.9,1.9h-1.4v0
			c0-0.4-0.2-0.8-0.6-1c-0.3-0.2-0.8-0.4-1.3-0.4c-0.5,0-1,0.1-1.3,0.3c-0.3,0.2-0.5,0.4-0.5,0.8c0,0.3,0.1,0.6,0.4,0.8
			c0.3,0.2,0.7,0.3,1.3,0.5l1.3,0.3c0.8,0.2,1.4,0.5,1.8,0.8c0.4,0.4,0.6,0.9,0.6,1.5c0,0.8-0.3,1.5-1,1.9c-0.6,0.5-1.5,0.7-2.6,0.7
			c-1.1,0-1.9-0.2-2.5-0.7c-0.6-0.5-0.9-1.2-1-2.1h1.4c0,0.5,0.2,0.9,0.6,1.2c0.4,0.3,0.9,0.4,1.6,0.4c0.7,0,1.2-0.1,1.5-0.3
			c0.3-0.2,0.5-0.5,0.5-0.9c0-0.4-0.2-0.7-0.5-0.9s-1-0.4-2.1-0.6c-1-0.2-1.8-0.5-2.2-0.9s-0.6-0.9-0.6-1.5c0-0.7,0.3-1.3,0.9-1.7
			C374.8,569.1,375.5,568.9,376.4,568.9z M383.6,566.6v2.5h1.6v1.2h-1.6v5.2c0,0.4,0.1,0.6,0.4,0.7c0.3,0,0.6,0,0.9,0h0.4v1.2h-1.1
			c-0.7,0-1.2-0.1-1.5-0.4c-0.2-0.3-0.4-0.7-0.4-1.3v-5.3h-1.4v-1.2h1.4v-2.5H383.6z M390.8,568.9
			C390.9,568.9,390.9,568.9,390.8,568.9c0.1,0,0.1,0,0.2,0v1.4c-1,0-1.8,0.3-2.3,0.8c-0.5,0.5-0.7,1.4-0.7,2.5v3.7h-1.4v-8.3h1.3
			v1.8h0c0.3-0.7,0.7-1.1,1.2-1.5C389.6,569.1,390.2,568.9,390.8,568.9z M393.5,566v1.7h-1.4V566H393.5z M393.5,569.1v8.3h-1.4v-8.3
			H393.5z M399,568.9c1.1,0,1.9,0.2,2.4,0.6c0.5,0.4,0.7,0.9,0.7,1.6c0,2.9,0,4.5,0,4.8s0.1,0.5,0.4,0.5c0.1,0,0.1,0,0.2,0
			c0.1,0,0.1,0,0.2-0.1v1.1c-0.1,0.1-0.3,0.1-0.4,0.2c-0.2,0-0.3,0.1-0.5,0.1c-0.4,0-0.7-0.1-0.9-0.3c-0.2-0.2-0.3-0.5-0.3-1
			c-0.4,0.4-0.8,0.8-1.3,1s-1,0.3-1.6,0.3c-0.9,0-1.5-0.2-2-0.6c-0.5-0.4-0.7-1-0.7-1.7c0-0.8,0.2-1.3,0.7-1.8
			c0.5-0.4,1.6-0.8,3.4-1c0.6-0.1,1-0.2,1.2-0.3c0.2-0.2,0.3-0.4,0.3-0.7c0-0.5-0.1-0.8-0.4-1c-0.3-0.2-0.8-0.3-1.4-0.3
			c-0.7,0-1.2,0.1-1.5,0.4c-0.3,0.2-0.5,0.6-0.5,1.2h-1.4c0-0.9,0.4-1.6,1-2.1C397.1,569.2,397.9,568.9,399,568.9z M396.6,575.2
			c0,0.4,0.1,0.7,0.4,0.9c0.3,0.2,0.7,0.3,1.2,0.3c0.8,0,1.4-0.2,1.8-0.6c0.5-0.4,0.7-0.8,0.7-1.3v-1.4c-0.2,0.2-0.5,0.3-0.9,0.3
			c-0.4,0.1-0.8,0.1-1.5,0.2c-0.6,0.1-1.1,0.2-1.3,0.5C396.7,574.4,396.6,574.7,396.6,575.2z M405.6,566v11.4h-1.4V566H405.6z"/>
		<path d="M316.8,585.2c1,0,1.8,0.3,2.4,0.8c0.6,0.5,1,1.2,1,2.2c0,0.8-0.2,1.4-0.5,1.9c-0.3,0.5-0.8,0.8-1.5,1v0
			c0.6,0.1,1,0.4,1.3,0.8c0.3,0.4,0.4,1.2,0.5,2.2c0,0.7,0.1,1.2,0.2,1.6c0.1,0.4,0.3,0.7,0.5,0.9h-1.7c-0.1-0.1-0.2-0.2-0.2-0.4
			c0-0.1,0-0.3-0.1-0.5l-0.1-1.3c0-0.6-0.1-1.2-0.4-1.8c-0.2-0.6-0.8-0.9-1.6-1h-3.8v4.9h-1.5v-11.4H316.8z M316.1,590.4
			c0.8,0,1.5-0.2,1.9-0.5c0.4-0.3,0.7-0.8,0.7-1.5c0-0.6-0.2-1.1-0.5-1.4c-0.3-0.3-0.8-0.5-1.5-0.5h-3.8v4H316.1z M325.5,588.1
			c1.2,0,2.1,0.4,2.8,1.3c0.7,0.9,1,2,1,3.3v0.2h-6.2v0.1c0,0.8,0.2,1.4,0.7,1.9c0.5,0.5,1.1,0.7,1.9,0.7c0.6,0,1.1-0.1,1.4-0.4
			c0.4-0.3,0.6-0.7,0.7-1.2h1.3c-0.2,0.9-0.6,1.6-1.2,2.1c-0.6,0.5-1.4,0.7-2.3,0.7c-0.9,0-1.6-0.2-2.2-0.6
			c-0.6-0.4-1.1-0.9-1.3-1.6c-0.3-0.7-0.4-1.4-0.4-2.2c0-1.2,0.4-2.2,1.1-3C323.5,588.5,324.4,588.1,325.5,588.1z M323.1,591.7h4.8
			c0-0.7-0.3-1.2-0.7-1.7c-0.4-0.4-1-0.7-1.7-0.7c-0.6,0-1.2,0.2-1.6,0.6C323.4,590.4,323.1,590.9,323.1,591.7z M331.4,588.3
			l2.3,6.9h0l2.3-6.9h1.4l-3,8.3H333l-3.1-8.3H331.4z M342.3,588.1c1.2,0,2.2,0.4,2.9,1.2c0.7,0.8,1.1,1.8,1.1,3.1s-0.4,2.3-1.1,3.1
			c-0.7,0.8-1.7,1.2-2.9,1.2c-1.2,0-2.2-0.4-2.9-1.2c-0.7-0.8-1.1-1.8-1.1-3.2s0.4-2.4,1.1-3.2C340.1,588.5,341,588.1,342.3,588.1z
			 M339.7,592.5c0,0.9,0.2,1.7,0.7,2.3c0.5,0.6,1.1,0.8,1.9,0.8s1.4-0.3,1.8-0.8c0.5-0.6,0.7-1.3,0.7-2.3c0-0.9-0.2-1.7-0.7-2.3
			c-0.5-0.6-1.1-0.9-1.9-0.9c-0.7,0-1.3,0.3-1.8,0.8S339.7,591.5,339.7,592.5z M349.3,585.2v11.4H348v-11.4H349.3z M352.8,588.3v5.6
			c0,0.5,0.1,0.9,0.4,1.2c0.3,0.3,0.7,0.5,1.2,0.5c0.8,0,1.4-0.2,1.8-0.7c0.4-0.5,0.6-1.1,0.6-1.8v-4.7h1.4v8.3H357v-1.3h0
			c-0.3,0.5-0.7,0.9-1.1,1.2c-0.4,0.2-1,0.4-1.5,0.4c-1,0-1.7-0.2-2.2-0.8c-0.5-0.5-0.7-1.2-0.7-2.2v-5.5H352.8z M362.2,585.8v2.5
			h1.6v1.2h-1.6v5.2c0,0.4,0.1,0.6,0.4,0.7c0.3,0,0.6,0,0.9,0h0.4v1.2h-1.1c-0.7,0-1.2-0.1-1.5-0.4c-0.2-0.3-0.4-0.7-0.4-1.3v-5.3
			h-1.4v-1.2h1.4v-2.5H362.2z M366.8,585.2v1.7h-1.4v-1.7H366.8z M366.8,588.3v8.3h-1.4v-8.3H366.8z M372.5,588.1
			c1.2,0,2.2,0.4,2.9,1.2c0.7,0.8,1.1,1.8,1.1,3.1s-0.4,2.3-1.1,3.1c-0.7,0.8-1.7,1.2-2.9,1.2c-1.2,0-2.2-0.4-2.9-1.2
			c-0.7-0.8-1.1-1.8-1.1-3.2s0.4-2.4,1.1-3.2C370.3,588.5,371.3,588.1,372.5,588.1z M369.9,592.5c0,0.9,0.2,1.7,0.7,2.3
			c0.5,0.6,1.1,0.8,1.9,0.8s1.4-0.3,1.8-0.8c0.5-0.6,0.7-1.3,0.7-2.3c0-0.9-0.2-1.7-0.7-2.3c-0.5-0.6-1.1-0.9-1.9-0.9
			c-0.7,0-1.3,0.3-1.8,0.8S369.9,591.5,369.9,592.5z M382.1,588.1c1,0,1.7,0.3,2.2,0.8c0.4,0.5,0.7,1.2,0.7,2.2v5.5h-1.4v-5.7
			c0-0.5-0.2-0.9-0.5-1.2c-0.3-0.3-0.7-0.5-1.2-0.5c-0.8,0-1.4,0.2-1.8,0.7s-0.6,1.1-0.6,1.8v4.7h-1.4v-8.3h1.3v1.3h0
			c0.3-0.5,0.7-0.9,1.1-1.1C381,588.2,381.5,588.1,382.1,588.1z"/>
		<path class="st2" d="M510.7,443.6h220.2v38.1H510.7V443.6z"/>
		<path d="M528.9,447.4v1.3H525v10.1h-1.5v-10.1h-3.8v-1.3H528.9z M531.3,447.4v4.4h0c0.2-0.4,0.5-0.8,1-1c0.5-0.2,1-0.4,1.6-0.4
			c1,0,1.7,0.3,2.2,0.8c0.4,0.5,0.7,1.2,0.7,2.2v5.5h-1.4v-5.7c0-0.5-0.2-0.9-0.5-1.2c-0.3-0.3-0.7-0.5-1.2-0.5
			c-0.8,0-1.4,0.2-1.8,0.7c-0.4,0.5-0.6,1.1-0.6,1.8v4.7h-1.4v-11.4H531.3z M542.2,450.3c1.2,0,2.1,0.4,2.8,1.3c0.7,0.9,1,2,1,3.3
			v0.2h-6.2v0.1c0,0.8,0.2,1.4,0.7,1.9c0.5,0.5,1.1,0.7,1.9,0.7c0.6,0,1.1-0.1,1.4-0.4c0.4-0.3,0.6-0.7,0.7-1.2h1.3
			c-0.2,0.9-0.6,1.6-1.2,2.1c-0.6,0.5-1.4,0.7-2.3,0.7c-0.9,0-1.6-0.2-2.2-0.6c-0.6-0.4-1.1-0.9-1.3-1.6c-0.3-0.7-0.4-1.4-0.4-2.2
			c0-1.2,0.4-2.2,1.1-3C540.2,450.7,541.1,450.3,542.2,450.3z M539.8,453.9h4.8c0-0.7-0.3-1.2-0.7-1.7c-0.4-0.4-1-0.7-1.7-0.7
			c-0.6,0-1.2,0.2-1.6,0.6C540.1,452.6,539.8,453.1,539.8,453.9z M553.6,447.4v11.4h-1.5v-11.4H553.6z M560,450.3
			c1,0,1.7,0.3,2.2,0.8c0.4,0.5,0.7,1.2,0.7,2.2v5.5h-1.4v-5.7c0-0.5-0.2-0.9-0.5-1.2c-0.3-0.3-0.7-0.5-1.2-0.5
			c-0.8,0-1.4,0.2-1.8,0.7c-0.4,0.5-0.6,1.1-0.6,1.8v4.7H556v-8.3h1.3v1.3h0c0.3-0.5,0.7-0.9,1.1-1.1
			C558.8,450.4,559.4,450.3,560,450.3z M567.7,447.2c0.1,0,0.3,0,0.5,0c0.2,0,0.3,0.1,0.4,0.1v1.2c-0.1,0-0.2-0.1-0.4-0.1
			c-0.1,0-0.3,0-0.4,0c-0.4,0-0.6,0.1-0.8,0.2c-0.2,0.2-0.2,0.4-0.2,0.7v1.2h1.6v1.2h-1.6v7.1h-1.4v-7.1H564v-1.2h1.4v-1.3
			c0-0.6,0.2-1.1,0.6-1.5C566.4,447.4,567,447.2,567.7,447.2z M573.2,450.3c1.2,0,2.2,0.4,2.9,1.2c0.7,0.8,1.1,1.8,1.1,3.1
			c0,1.3-0.4,2.3-1.1,3.1c-0.7,0.8-1.7,1.2-2.9,1.2c-1.2,0-2.2-0.4-2.9-1.2c-0.7-0.8-1.1-1.8-1.1-3.2c0-1.3,0.4-2.4,1.1-3.2
			C571,450.7,571.9,450.3,573.2,450.3z M570.6,454.7c0,0.9,0.2,1.7,0.7,2.3c0.5,0.6,1.1,0.8,1.9,0.8c0.8,0,1.4-0.3,1.8-0.8
			c0.5-0.6,0.7-1.3,0.7-2.3c0-0.9-0.2-1.7-0.7-2.3c-0.5-0.6-1.1-0.9-1.9-0.9c-0.7,0-1.3,0.3-1.8,0.8
			C570.8,452.9,570.6,453.7,570.6,454.7z M582.9,450.3C582.9,450.3,583,450.3,582.9,450.3c0.1,0,0.1,0,0.2,0v1.4
			c-1,0-1.8,0.3-2.3,0.8c-0.5,0.5-0.7,1.4-0.7,2.5v3.7h-1.4v-8.3h1.3v1.8h0c0.3-0.7,0.7-1.1,1.2-1.5
			C581.7,450.5,582.3,450.3,582.9,450.3z M588.1,450.3c0.6,0,1.1,0.1,1.5,0.4c0.4,0.2,0.7,0.6,0.8,1c0.3-0.4,0.6-0.8,1.1-1
			c0.5-0.2,1-0.4,1.5-0.4c0.9,0,1.6,0.2,2.1,0.6c0.4,0.4,0.7,1,0.7,1.7v6.1h-1.4v-5.5c0-0.6-0.1-1-0.4-1.3c-0.2-0.3-0.7-0.5-1.2-0.5
			c-0.7,0-1.2,0.2-1.6,0.6c-0.4,0.4-0.6,0.9-0.6,1.5v5.2h-1.4v-5.5c0-0.6-0.1-1-0.4-1.3c-0.2-0.3-0.6-0.5-1.2-0.5
			c-0.4,0-0.8,0.1-1.1,0.3c-0.3,0.2-0.6,0.5-0.8,0.9c-0.2,0.4-0.3,0.7-0.3,0.9v5.2h-1.4v-8.3h1.3v1.2h0c0.3-0.5,0.7-0.8,1.1-1
			C587,450.4,587.5,450.3,588.1,450.3z M601.2,450.3c1.1,0,1.9,0.2,2.4,0.6c0.5,0.4,0.7,0.9,0.7,1.6c0,2.9,0,4.5,0,4.8
			c0,0.3,0.1,0.5,0.4,0.5c0.1,0,0.1,0,0.2,0c0.1,0,0.1,0,0.2-0.1v1.1c-0.1,0.1-0.3,0.1-0.4,0.2c-0.2,0-0.3,0.1-0.5,0.1
			c-0.4,0-0.7-0.1-0.9-0.3c-0.2-0.2-0.3-0.5-0.3-1c-0.4,0.4-0.8,0.8-1.3,1c-0.5,0.2-1,0.3-1.6,0.3c-0.9,0-1.5-0.2-2-0.6
			c-0.5-0.4-0.7-1-0.7-1.7c0-0.7,0.2-1.3,0.7-1.8c0.5-0.4,1.6-0.8,3.4-1c0.6-0.1,1-0.2,1.2-0.3c0.2-0.2,0.3-0.4,0.3-0.7
			c0-0.5-0.1-0.8-0.4-1c-0.3-0.2-0.8-0.3-1.4-0.3c-0.7,0-1.2,0.1-1.5,0.4c-0.3,0.3-0.5,0.6-0.5,1.2h-1.4c0-0.9,0.4-1.6,1-2.1
			C599.2,450.6,600.1,450.3,601.2,450.3z M598.8,456.6c0,0.4,0.1,0.7,0.4,0.9c0.3,0.2,0.7,0.3,1.2,0.3c0.8,0,1.4-0.2,1.8-0.6
			c0.5-0.4,0.7-0.8,0.7-1.3v-1.4c-0.2,0.2-0.5,0.3-0.9,0.3c-0.4,0.1-0.8,0.1-1.5,0.2c-0.6,0.1-1.1,0.2-1.3,0.5
			C598.9,455.8,598.8,456.1,598.8,456.6z M608.3,448v2.5h1.6v1.2h-1.6v5.2c0,0.4,0.1,0.6,0.4,0.7c0.3,0,0.6,0,0.9,0h0.4v1.2h-1.1
			c-0.7,0-1.2-0.1-1.5-0.4c-0.2-0.3-0.4-0.7-0.4-1.3v-5.3h-1.4v-1.2h1.4V448H608.3z M612.8,447.4v1.7h-1.4v-1.7H612.8z M612.8,450.5
			v8.3h-1.4v-8.3H612.8z M618.5,450.3c1.2,0,2.2,0.4,2.9,1.2c0.7,0.8,1.1,1.8,1.1,3.1c0,1.3-0.4,2.3-1.1,3.1
			c-0.7,0.8-1.7,1.2-2.9,1.2c-1.2,0-2.2-0.4-2.9-1.2c-0.7-0.8-1.1-1.8-1.1-3.2c0-1.3,0.4-2.4,1.1-3.2
			C616.3,450.7,617.3,450.3,618.5,450.3z M615.9,454.7c0,0.9,0.2,1.7,0.7,2.3c0.5,0.6,1.1,0.8,1.9,0.8c0.8,0,1.4-0.3,1.8-0.8
			c0.5-0.6,0.7-1.3,0.7-2.3c0-0.9-0.2-1.7-0.7-2.3c-0.5-0.6-1.1-0.9-1.9-0.9c-0.7,0-1.3,0.3-1.8,0.8
			C616.2,452.9,615.9,453.7,615.9,454.7z M628.2,450.3c1,0,1.7,0.3,2.2,0.8c0.4,0.5,0.7,1.2,0.7,2.2v5.5h-1.4v-5.7
			c0-0.5-0.2-0.9-0.5-1.2c-0.3-0.3-0.7-0.5-1.2-0.5c-0.8,0-1.4,0.2-1.8,0.7c-0.4,0.5-0.6,1.1-0.6,1.8v4.7h-1.4v-8.3h1.3v1.3h0
			c0.3-0.5,0.7-0.9,1.1-1.1C627,450.4,627.5,450.3,628.2,450.3z"/>
		<path d="M526.4,466.6c1,0,1.8,0.3,2.4,0.8c0.6,0.5,1,1.2,1,2.2c0,0.8-0.2,1.4-0.5,1.9c-0.3,0.5-0.8,0.8-1.5,1v0
			c0.6,0.1,1,0.4,1.3,0.8c0.3,0.4,0.4,1.2,0.5,2.2c0,0.7,0.1,1.2,0.2,1.6c0.1,0.4,0.3,0.7,0.5,0.9h-1.7c-0.1-0.1-0.2-0.2-0.2-0.4
			c0-0.1,0-0.3-0.1-0.5l-0.1-1.3c0-0.6-0.1-1.2-0.4-1.8c-0.2-0.6-0.8-0.9-1.6-1h-3.8v4.9h-1.5v-11.4H526.4z M525.7,471.8
			c0.8,0,1.5-0.2,1.9-0.5c0.4-0.3,0.7-0.8,0.7-1.5c0-0.6-0.2-1.1-0.5-1.4c-0.3-0.3-0.8-0.5-1.5-0.5h-3.8v4H525.7z M535.1,469.5
			c1.2,0,2.1,0.4,2.8,1.3s1,2,1,3.3v0.2h-6.2v0.1c0,0.8,0.2,1.4,0.7,1.9c0.5,0.5,1.1,0.7,1.9,0.7c0.6,0,1.1-0.1,1.4-0.4
			c0.4-0.3,0.6-0.7,0.7-1.2h1.3c-0.2,0.9-0.6,1.6-1.2,2.1c-0.6,0.5-1.4,0.7-2.3,0.7c-0.9,0-1.6-0.2-2.2-0.6
			c-0.6-0.4-1.1-0.9-1.3-1.6c-0.3-0.7-0.4-1.4-0.4-2.2c0-1.2,0.4-2.2,1.1-3C533.1,469.9,534,469.5,535.1,469.5z M532.7,473.1h4.8
			c0-0.7-0.3-1.2-0.7-1.7c-0.4-0.4-1-0.7-1.7-0.7c-0.6,0-1.2,0.2-1.6,0.6C533,471.8,532.7,472.3,532.7,473.1z M541,469.7l2.3,6.9h0
			l2.3-6.9h1.4l-3,8.3h-1.5l-3.1-8.3H541z M551.8,469.5c1.2,0,2.2,0.4,2.9,1.2c0.7,0.8,1.1,1.8,1.1,3.1s-0.4,2.3-1.1,3.1
			c-0.7,0.8-1.7,1.2-2.9,1.2c-1.2,0-2.2-0.4-2.9-1.2c-0.7-0.8-1.1-1.8-1.1-3.2s0.4-2.4,1.1-3.2C549.6,469.9,550.6,469.5,551.8,469.5
			z M549.3,473.9c0,0.9,0.2,1.7,0.7,2.3c0.5,0.6,1.1,0.8,1.9,0.8s1.4-0.3,1.8-0.8c0.5-0.6,0.7-1.3,0.7-2.3c0-0.9-0.2-1.7-0.7-2.3
			c-0.5-0.6-1.1-0.9-1.9-0.9c-0.7,0-1.3,0.3-1.8,0.8C549.5,472.1,549.3,472.9,549.3,473.9z M558.9,466.6V478h-1.4v-11.4H558.9z
			 M562.4,469.7v5.6c0,0.5,0.1,0.9,0.4,1.2c0.3,0.3,0.7,0.5,1.2,0.5c0.8,0,1.4-0.2,1.8-0.7c0.4-0.5,0.6-1.1,0.6-1.8v-4.7h1.4v8.3
			h-1.3v-1.3h0c-0.3,0.5-0.7,0.9-1.1,1.2c-0.4,0.2-1,0.4-1.5,0.4c-1,0-1.7-0.2-2.2-0.8c-0.5-0.5-0.7-1.2-0.7-2.2v-5.5H562.4z
			 M571.8,467.2v2.5h1.6v1.2h-1.6v5.2c0,0.4,0.1,0.6,0.4,0.7c0.3,0,0.6,0,0.9,0h0.4v1.2h-1.1c-0.7,0-1.2-0.1-1.5-0.4
			c-0.2-0.3-0.4-0.7-0.4-1.3v-5.3H569v-1.2h1.4v-2.5H571.8z M576.4,466.6v1.7H575v-1.7H576.4z M576.4,469.7v8.3H575v-8.3H576.4z
			 M582.1,469.5c1.2,0,2.2,0.4,2.9,1.2c0.7,0.8,1.1,1.8,1.1,3.1s-0.4,2.3-1.1,3.1c-0.7,0.8-1.7,1.2-2.9,1.2c-1.2,0-2.2-0.4-2.9-1.2
			c-0.7-0.8-1.1-1.8-1.1-3.2s0.4-2.4,1.1-3.2C579.9,469.9,580.8,469.5,582.1,469.5z M579.5,473.9c0,0.9,0.2,1.7,0.7,2.3
			c0.5,0.6,1.1,0.8,1.9,0.8s1.4-0.3,1.8-0.8c0.5-0.6,0.7-1.3,0.7-2.3c0-0.9-0.2-1.7-0.7-2.3c-0.5-0.6-1.1-0.9-1.9-0.9
			c-0.7,0-1.3,0.3-1.8,0.8C579.7,472.1,579.5,472.9,579.5,473.9z M591.7,469.5c1,0,1.7,0.3,2.2,0.8c0.4,0.5,0.7,1.2,0.7,2.2v5.5
			h-1.4v-5.7c0-0.5-0.2-0.9-0.5-1.2c-0.3-0.3-0.7-0.5-1.2-0.5c-0.8,0-1.4,0.2-1.8,0.7c-0.4,0.5-0.6,1.1-0.6,1.8v4.7h-1.4v-8.3h1.3
			v1.3h0c0.3-0.5,0.7-0.9,1.1-1.1C590.5,469.6,591.1,469.5,591.7,469.5z"/>
		<path class="st2" d="M774,256h220.2v38.1H774V256z"/>
		<path d="M792.2,259.8v1.3h-3.8v10.1h-1.5v-10.1h-3.8v-1.3H792.2z M794.6,259.8v4.4h0c0.2-0.4,0.5-0.8,1-1c0.5-0.2,1-0.4,1.6-0.4
			c1,0,1.7,0.3,2.2,0.8c0.4,0.5,0.7,1.2,0.7,2.2v5.5h-1.4v-5.7c0-0.5-0.2-0.9-0.5-1.2c-0.3-0.3-0.7-0.5-1.2-0.5
			c-0.8,0-1.4,0.2-1.8,0.7c-0.4,0.5-0.6,1.1-0.6,1.8v4.7h-1.4v-11.4H794.6z M805.6,262.8c1.2,0,2.1,0.4,2.8,1.3c0.7,0.9,1,2,1,3.3
			v0.2h-6.2v0.1c0,0.8,0.2,1.4,0.7,1.9c0.5,0.5,1.1,0.7,1.9,0.7c0.6,0,1.1-0.1,1.4-0.4c0.4-0.3,0.6-0.7,0.7-1.2h1.3
			c-0.2,0.9-0.6,1.6-1.2,2.1c-0.6,0.5-1.4,0.7-2.3,0.7c-0.9,0-1.6-0.2-2.2-0.6c-0.6-0.4-1.1-0.9-1.3-1.6c-0.3-0.7-0.4-1.4-0.4-2.2
			c0-1.2,0.4-2.2,1.1-3C803.5,263.2,804.5,262.8,805.6,262.8z M803.1,266.3h4.8c0-0.7-0.3-1.2-0.7-1.7c-0.4-0.4-1-0.7-1.7-0.7
			c-0.6,0-1.2,0.2-1.6,0.6C803.5,265,803.2,265.6,803.1,266.3z M820.2,259.8l4.5,11.4H823l-1.2-3.4h-4.8l-1.3,3.4h-1.6l4.5-11.4
			H820.2z M819.3,261.2l-1.9,5.3h3.9L819.3,261.2L819.3,261.2z M826.9,263v5.6c0,0.5,0.1,0.9,0.4,1.2c0.3,0.3,0.7,0.5,1.2,0.5
			c0.8,0,1.4-0.2,1.8-0.7c0.4-0.5,0.6-1.1,0.6-1.8V263h1.4v8.3h-1.3v-1.3h0c-0.3,0.5-0.7,0.9-1.1,1.2c-0.4,0.2-1,0.4-1.5,0.4
			c-1,0-1.7-0.2-2.2-0.8c-0.5-0.5-0.7-1.2-0.7-2.2V263H826.9z M836.4,260.5v2.5h1.6v1.2h-1.6v5.2c0,0.4,0.1,0.6,0.4,0.7
			c0.3,0,0.6,0,0.9,0h0.4v1.2h-1.1c-0.7,0-1.2-0.1-1.5-0.4c-0.3-0.3-0.4-0.7-0.4-1.3v-5.3h-1.4V263h1.4v-2.5H836.4z M842.9,262.8
			c1.2,0,2.2,0.4,2.9,1.2c0.7,0.8,1.1,1.8,1.1,3.1c0,1.3-0.4,2.3-1.1,3.1c-0.7,0.8-1.7,1.2-2.9,1.2c-1.2,0-2.2-0.4-2.9-1.2
			c-0.7-0.8-1.1-1.8-1.1-3.2c0-1.3,0.4-2.4,1.1-3.2C840.7,263.2,841.6,262.8,842.9,262.8z M840.3,267.1c0,0.9,0.2,1.7,0.7,2.3
			c0.5,0.6,1.1,0.8,1.9,0.8c0.7,0,1.4-0.3,1.8-0.8c0.5-0.6,0.7-1.3,0.7-2.3c0-0.9-0.2-1.7-0.7-2.3c-0.5-0.6-1.1-0.9-1.9-0.9
			c-0.7,0-1.3,0.3-1.8,0.8C840.5,265.4,840.3,266.2,840.3,267.1z M852.5,262.8c1,0,1.7,0.3,2.2,0.8c0.4,0.5,0.7,1.2,0.7,2.2v5.5H854
			v-5.7c0-0.5-0.2-0.9-0.5-1.2c-0.3-0.3-0.7-0.5-1.2-0.5c-0.8,0-1.4,0.2-1.8,0.7c-0.4,0.5-0.6,1.1-0.6,1.8v4.7h-1.4V263h1.3v1.3h0
			c0.3-0.5,0.7-0.9,1.1-1.1C851.4,262.9,851.9,262.8,852.5,262.8z M861,262.8c1.2,0,2.2,0.4,2.9,1.2c0.7,0.8,1.1,1.8,1.1,3.1
			c0,1.3-0.4,2.3-1.1,3.1c-0.7,0.8-1.7,1.2-2.9,1.2c-1.2,0-2.2-0.4-2.9-1.2c-0.7-0.8-1.1-1.8-1.1-3.2c0-1.3,0.4-2.4,1.1-3.2
			C858.8,263.2,859.7,262.8,861,262.8z M858.4,267.1c0,0.9,0.2,1.7,0.7,2.3c0.5,0.6,1.1,0.8,1.9,0.8c0.7,0,1.4-0.3,1.8-0.8
			c0.5-0.6,0.7-1.3,0.7-2.3c0-0.9-0.2-1.7-0.7-2.3c-0.5-0.6-1.1-0.9-1.9-0.9c-0.7,0-1.3,0.3-1.8,0.8
			C858.6,265.4,858.4,266.2,858.4,267.1z M870.6,262.8c0.6,0,1.1,0.1,1.5,0.4c0.4,0.2,0.7,0.6,0.8,1c0.3-0.4,0.6-0.8,1.1-1
			c0.5-0.2,1-0.4,1.5-0.4c0.9,0,1.6,0.2,2.1,0.6c0.4,0.4,0.7,1,0.7,1.7v6.1h-1.4v-5.5c0-0.6-0.1-1-0.4-1.3c-0.3-0.3-0.7-0.5-1.2-0.5
			c-0.7,0-1.2,0.2-1.6,0.6c-0.4,0.4-0.6,0.9-0.6,1.5v5.2h-1.4v-5.5c0-0.6-0.1-1-0.4-1.3c-0.3-0.3-0.6-0.5-1.2-0.5
			c-0.4,0-0.8,0.1-1.1,0.3c-0.3,0.2-0.6,0.5-0.8,0.9c-0.2,0.4-0.3,0.7-0.3,0.9v5.2h-1.4V263h1.3v1.2h0c0.3-0.5,0.7-0.8,1.1-1
			C869.5,262.9,870,262.8,870.6,262.8z M880.9,263l2.4,6.8h0l2.3-6.8h1.4l-3.5,9.2c-0.4,0.9-0.7,1.6-1.1,1.9
			c-0.3,0.3-0.8,0.5-1.4,0.5c-0.2,0-0.3,0-0.5,0c-0.2,0-0.3-0.1-0.5-0.1v-1.2c0.1,0,0.3,0.1,0.4,0.1c0.1,0,0.3,0.1,0.4,0.1
			c0.6,0,0.9-0.3,1.2-0.8c0.2-0.6,0.4-1,0.5-1.3l-3.3-8.2H880.9z"/>
		<path d="M789.8,279c1,0,1.8,0.3,2.4,0.8c0.6,0.5,1,1.2,1,2.2c0,0.8-0.2,1.4-0.5,1.9c-0.3,0.5-0.8,0.8-1.5,1v0
			c0.6,0.1,1,0.4,1.3,0.8c0.3,0.4,0.4,1.2,0.5,2.2c0,0.7,0.1,1.2,0.2,1.6c0.1,0.4,0.3,0.7,0.5,0.9h-1.7c-0.1-0.1-0.2-0.2-0.2-0.4
			c0-0.1,0-0.3-0.1-0.5l-0.1-1.3c0-0.6-0.1-1.2-0.4-1.8c-0.2-0.6-0.8-0.9-1.6-1h-3.8v4.9h-1.5V279H789.8z M789.1,284.3
			c0.8,0,1.5-0.2,1.9-0.5c0.4-0.3,0.7-0.8,0.7-1.5c0-0.6-0.2-1.1-0.5-1.4c-0.3-0.3-0.8-0.5-1.5-0.5h-3.8v4H789.1z M798.5,282
			c1.2,0,2.1,0.4,2.8,1.3c0.7,0.9,1,2,1,3.3v0.2H796v0.1c0,0.8,0.2,1.4,0.7,1.9c0.5,0.5,1.1,0.7,1.9,0.7c0.6,0,1.1-0.1,1.4-0.4
			c0.4-0.3,0.6-0.7,0.7-1.2h1.3c-0.2,0.9-0.6,1.6-1.2,2.1c-0.6,0.5-1.4,0.7-2.3,0.7c-0.9,0-1.6-0.2-2.2-0.6
			c-0.6-0.4-1.1-0.9-1.3-1.6c-0.3-0.7-0.4-1.4-0.4-2.2c0-1.2,0.4-2.2,1.1-3C796.4,282.4,797.4,282,798.5,282z M796,285.5h4.8
			c0-0.7-0.3-1.2-0.7-1.7c-0.4-0.4-1-0.7-1.7-0.7c-0.6,0-1.2,0.2-1.6,0.6C796.3,284.2,796.1,284.8,796,285.5z M804.4,282.2l2.3,6.9
			h0l2.3-6.9h1.4l-3,8.3h-1.5l-3.1-8.3H804.4z M815.2,282c1.2,0,2.2,0.4,2.9,1.2c0.7,0.8,1.1,1.8,1.1,3.1c0,1.3-0.4,2.3-1.1,3.1
			c-0.7,0.8-1.7,1.2-2.9,1.2c-1.2,0-2.2-0.4-2.9-1.2c-0.7-0.8-1.1-1.8-1.1-3.2c0-1.3,0.4-2.4,1.1-3.2C813,282.4,814,282,815.2,282z
			 M812.6,286.3c0,0.9,0.2,1.7,0.7,2.3c0.5,0.6,1.1,0.8,1.9,0.8c0.7,0,1.4-0.3,1.8-0.8c0.5-0.6,0.7-1.3,0.7-2.3
			c0-0.9-0.2-1.7-0.7-2.3c-0.5-0.6-1.1-0.9-1.9-0.9c-0.7,0-1.3,0.3-1.8,0.8C812.9,284.6,812.6,285.4,812.6,286.3z M822.3,279v11.4
			h-1.4V279H822.3z M825.7,282.2v5.6c0,0.5,0.1,0.9,0.4,1.2c0.3,0.3,0.7,0.5,1.2,0.5c0.8,0,1.4-0.2,1.8-0.7c0.4-0.5,0.6-1.1,0.6-1.8
			v-4.7h1.4v8.3h-1.3v-1.3h0c-0.3,0.5-0.7,0.9-1.1,1.2c-0.4,0.2-1,0.4-1.5,0.4c-1,0-1.7-0.2-2.2-0.8c-0.5-0.5-0.7-1.2-0.7-2.2v-5.5
			H825.7z M835.2,279.7v2.5h1.6v1.2h-1.6v5.2c0,0.4,0.1,0.6,0.4,0.7c0.3,0,0.6,0,0.9,0h0.4v1.2h-1.1c-0.7,0-1.2-0.1-1.5-0.4
			c-0.3-0.3-0.4-0.7-0.4-1.3v-5.3h-1.4v-1.2h1.4v-2.5H835.2z M839.8,279v1.7h-1.4V279H839.8z M839.8,282.2v8.3h-1.4v-8.3H839.8z
			 M845.4,282c1.2,0,2.2,0.4,2.9,1.2c0.7,0.8,1.1,1.8,1.1,3.1c0,1.3-0.4,2.3-1.1,3.1c-0.7,0.8-1.7,1.2-2.9,1.2
			c-1.2,0-2.2-0.4-2.9-1.2c-0.7-0.8-1.1-1.8-1.1-3.2c0-1.3,0.4-2.4,1.1-3.2C843.2,282.4,844.2,282,845.4,282z M842.9,286.3
			c0,0.9,0.2,1.7,0.7,2.3c0.5,0.6,1.1,0.8,1.9,0.8c0.7,0,1.4-0.3,1.8-0.8c0.5-0.6,0.7-1.3,0.7-2.3c0-0.9-0.2-1.7-0.7-2.3
			c-0.5-0.6-1.1-0.9-1.9-0.9c-0.7,0-1.3,0.3-1.8,0.8C843.1,284.6,842.9,285.4,842.9,286.3z M855.1,282c1,0,1.7,0.3,2.2,0.8
			c0.4,0.5,0.7,1.2,0.7,2.2v5.5h-1.4v-5.7c0-0.5-0.2-0.9-0.5-1.2c-0.3-0.3-0.7-0.5-1.2-0.5c-0.8,0-1.4,0.2-1.8,0.7
			c-0.4,0.5-0.6,1.1-0.6,1.8v4.7h-1.4v-8.3h1.3v1.3h0c0.3-0.5,0.7-0.9,1.1-1.1C853.9,282.1,854.4,282,855.1,282z"/>
	</g>
</g>
</svg>
